<svg width="520" height="56" viewBox="0 0 520 56" fill="none" xmlns="http://www.w3.org/2000/svg">
<rect width="520" height="56" rx="5.39167" fill="white"/>
<path d="M25.2908 34.3889L22.7021 31.8002C23.5675 30.7738 24.0911 29.4508 24.0911 28.0065C24.0911 24.7547 21.4459 22.1094 18.194 22.1094C14.9422 22.1094 12.2969 24.7547 12.2969 28.0065C12.2969 31.2584 14.9422 33.9036 18.194 33.9036C19.6383 33.9036 20.9613 33.38 21.9877 32.5146L24.5764 35.1033C24.6748 35.2017 24.8042 35.2516 24.9336 35.2516C25.063 35.2516 25.1924 35.2024 25.2908 35.1033C25.4883 34.9065 25.4883 34.5864 25.2908 34.3889ZM13.3078 28.0065C13.3078 25.312 15.4995 23.1203 18.194 23.1203C20.8885 23.1203 23.0802 25.312 23.0802 28.0065C23.0802 30.701 20.8885 32.8927 18.194 32.8927C15.4995 32.8927 13.3078 30.701 13.3078 28.0065Z" fill="#7F56D9"/>
<path d="M38.5157 31.5938V23.7513H43.6163V24.9422H39.9364V27.0713H43.3521V28.2623H39.9364V30.4028H43.647V31.5938H38.5157ZM46.3907 28.1474V31.5938H45.0045V25.7119H46.3294V26.7114H46.3983C46.5336 26.3821 46.7494 26.1204 47.0455 25.9264C47.3442 25.7324 47.7131 25.6353 48.1522 25.6353C48.5581 25.6353 48.9116 25.7221 49.2129 25.8957C49.5167 26.0693 49.7515 26.3208 49.9175 26.6501C50.086 26.9794 50.1689 27.379 50.1664 27.8487V31.5938H48.7802V28.0631C48.7802 27.67 48.6781 27.3624 48.4738 27.1403C48.2721 26.9182 47.9926 26.8071 47.6352 26.8071C47.3927 26.8071 47.177 26.8607 46.9881 26.9679C46.8017 27.0726 46.6549 27.2245 46.5477 27.4236C46.443 27.6228 46.3907 27.864 46.3907 28.1474ZM54.5126 25.7119V26.7841H51.1314V25.7119H54.5126ZM51.9662 24.3027H53.3524V29.8246C53.3524 30.011 53.3804 30.1539 53.4366 30.2535C53.4953 30.3505 53.5719 30.4169 53.6664 30.4526C53.7608 30.4884 53.8655 30.5062 53.9804 30.5062C54.0672 30.5062 54.1463 30.4998 54.2178 30.4871C54.2918 30.4743 54.348 30.4628 54.3863 30.4526L54.6199 31.5363C54.5458 31.5618 54.4399 31.5899 54.302 31.6206C54.1667 31.6512 54.0008 31.6691 53.8042 31.6742C53.457 31.6844 53.1443 31.632 52.866 31.5172C52.5878 31.3997 52.367 31.2185 52.2036 30.9734C52.0427 30.7283 51.9636 30.422 51.9662 30.0544V24.3027ZM58.2127 31.7086C57.623 31.7086 57.1137 31.5861 56.6848 31.341C56.2585 31.0934 55.9304 30.7436 55.7007 30.2918C55.4709 29.8374 55.356 29.3025 55.356 28.6873C55.356 28.0823 55.4709 27.5513 55.7007 27.0943C55.933 26.6348 56.2572 26.2774 56.6733 26.0221C57.0894 25.7643 57.5783 25.6353 58.14 25.6353C58.5025 25.6353 58.8445 25.6941 59.1662 25.8115C59.4904 25.9264 59.7763 26.1051 60.024 26.3476C60.2742 26.5901 60.4707 26.899 60.6137 27.2743C60.7567 27.647 60.8281 28.0912 60.8281 28.6069V29.0319H56.007V28.0976H59.4994C59.4968 27.8321 59.4394 27.596 59.327 27.3892C59.2147 27.1798 59.0577 27.0152 58.856 26.8952C58.6569 26.7752 58.4246 26.7152 58.1591 26.7152C57.8757 26.7152 57.6268 26.7841 57.4124 26.922C57.1979 27.0573 57.0307 27.236 56.9107 27.4581C56.7933 27.6776 56.7333 27.9189 56.7308 28.1818V28.9975C56.7308 29.3396 56.7933 29.6331 56.9184 29.8782C57.0435 30.1207 57.2184 30.3071 57.443 30.4373C57.6677 30.5649 57.9306 30.6288 58.2319 30.6288C58.4335 30.6288 58.6161 30.6007 58.7795 30.5445C58.9428 30.4858 59.0845 30.4003 59.2045 30.288C59.3245 30.1756 59.4151 30.0365 59.4764 29.8706L60.7707 30.0161C60.689 30.3582 60.5333 30.6568 60.3035 30.9121C60.0763 31.1649 59.7853 31.3614 59.4304 31.5018C59.0756 31.6397 58.6697 31.7086 58.2127 31.7086ZM62.0009 31.5938V25.7119H63.3449V26.6922H63.4062C63.5134 26.3527 63.6972 26.091 63.9576 25.9072C64.2206 25.7209 64.5205 25.6277 64.8575 25.6277C64.9341 25.6277 65.0196 25.6315 65.1141 25.6392C65.2111 25.6443 65.2915 25.6532 65.3553 25.666V26.9411C65.2966 26.9207 65.2034 26.9028 65.0758 26.8875C64.9507 26.8697 64.8294 26.8607 64.712 26.8607C64.4593 26.8607 64.2321 26.9156 64.0304 27.0254C63.8313 27.1326 63.6743 27.2819 63.5594 27.4734C63.4445 27.6649 63.3871 27.8857 63.3871 28.1359V31.5938H62.0009ZM73.2743 25.9072C73.2386 25.5728 73.088 25.3124 72.8225 25.126C72.5595 24.9397 72.2175 24.8465 71.7962 24.8465C71.5001 24.8465 71.2461 24.8912 71.0342 24.9805C70.8223 25.0699 70.6602 25.1911 70.5479 25.3443C70.4355 25.4975 70.3781 25.6724 70.3756 25.8689C70.3756 26.0323 70.4126 26.174 70.4866 26.294C70.5632 26.414 70.6666 26.5161 70.7968 26.6003C70.927 26.682 71.0712 26.751 71.2295 26.8071C71.3878 26.8633 71.5473 26.9105 71.7082 26.9488L72.4434 27.1326C72.7395 27.2015 73.0242 27.2947 73.2973 27.4121C73.573 27.5296 73.8194 27.6776 74.0364 27.8563C74.2559 28.035 74.4295 28.2508 74.5572 28.5035C74.6848 28.7562 74.7486 29.0524 74.7486 29.3919C74.7486 29.8514 74.6312 30.256 74.3963 30.6058C74.1615 30.953 73.8219 31.2249 73.3777 31.4214C72.9361 31.6154 72.4013 31.7125 71.7733 31.7125C71.1631 31.7125 70.6334 31.618 70.1841 31.4291C69.7373 31.2402 69.3876 30.9645 69.1349 30.602C68.8847 30.2395 68.7494 29.7978 68.729 29.277H70.1266C70.1471 29.5502 70.2313 29.7774 70.3794 29.9586C70.5275 30.1399 70.7202 30.2752 70.9576 30.3645C71.1976 30.4539 71.4656 30.4986 71.7618 30.4986C72.0707 30.4986 72.3413 30.4526 72.5736 30.3607C72.8084 30.2663 72.9922 30.1361 73.125 29.9701C73.2577 29.8016 73.3254 29.6051 73.328 29.3804C73.3254 29.1762 73.2654 29.0077 73.148 28.8749C73.0305 28.7396 72.8659 28.6273 72.654 28.538C72.4447 28.4461 72.1996 28.3644 71.9188 28.2929L71.0265 28.0631C70.3807 27.8972 69.8701 27.6457 69.4948 27.3088C69.1221 26.9692 68.9357 26.5186 68.9357 25.957C68.9357 25.4949 69.0608 25.0903 69.311 24.7431C69.5637 24.3959 69.9071 24.1266 70.3411 23.9351C70.7751 23.7411 71.2665 23.6441 71.8154 23.6441C72.3719 23.6441 72.8595 23.7411 73.2782 23.9351C73.6994 24.1266 74.03 24.3934 74.27 24.7355C74.5099 25.075 74.6337 25.4656 74.6414 25.9072H73.2743ZM77.2176 29.748L77.2137 28.0746H77.4358L79.5496 25.7119H81.1694L78.5693 28.6069H78.2821L77.2176 29.748ZM75.9539 31.5938V23.7513H77.3401V31.5938H75.9539ZM79.6454 31.5938L77.7307 28.9171L78.6651 27.9406L81.3034 31.5938H79.6454ZM82.0932 31.5938V25.7119H83.4795V31.5938H82.0932ZM82.7902 24.8771C82.5706 24.8771 82.3817 24.8044 82.2234 24.6589C82.0652 24.5108 81.986 24.3334 81.986 24.1266C81.986 23.9173 82.0652 23.7398 82.2234 23.5943C82.3817 23.4463 82.5706 23.3722 82.7902 23.3722C83.0123 23.3722 83.2012 23.4463 83.3569 23.5943C83.5152 23.7398 83.5943 23.9173 83.5943 24.1266C83.5943 24.3334 83.5152 24.5108 83.3569 24.6589C83.2012 24.8044 83.0123 24.8771 82.7902 24.8771ZM86.2911 23.7513V31.5938H84.9049V23.7513H86.2911ZM89.1028 23.7513V31.5938H87.7166V23.7513H89.1028ZM96.4043 23.3837L93.877 32.7732H92.6631L95.1904 23.3837H96.4043ZM102.682 31.5938H100.025V23.7513H102.736C103.515 23.7513 104.184 23.9083 104.743 24.2223C105.304 24.5338 105.736 24.9818 106.037 25.5664C106.338 26.151 106.489 26.8505 106.489 27.6649C106.489 28.4818 106.337 29.1838 106.033 29.771C105.732 30.3582 105.297 30.8087 104.727 31.1227C104.161 31.4367 103.479 31.5938 102.682 31.5938ZM101.446 30.3645H102.614C103.16 30.3645 103.616 30.265 103.981 30.0659C104.346 29.8642 104.62 29.5642 104.804 29.166C104.988 28.7652 105.08 28.2648 105.08 27.6649C105.08 27.065 104.988 26.5671 104.804 26.1714C104.62 25.7732 104.348 25.4758 103.988 25.2792C103.631 25.0801 103.187 24.9805 102.656 24.9805H101.446V30.3645ZM110.381 31.7086C109.792 31.7086 109.282 31.5861 108.853 31.341C108.427 31.0934 108.099 30.7436 107.869 30.2918C107.64 29.8374 107.525 29.3025 107.525 28.6873C107.525 28.0823 107.64 27.5513 107.869 27.0943C108.102 26.6348 108.426 26.2774 108.842 26.0221C109.258 25.7643 109.747 25.6353 110.309 25.6353C110.671 25.6353 111.013 25.6941 111.335 25.8115C111.659 25.9264 111.945 26.1051 112.193 26.3476C112.443 26.5901 112.639 26.899 112.782 27.2743C112.925 27.647 112.997 28.0912 112.997 28.6069V29.0319H108.176V28.0976H111.668C111.665 27.8321 111.608 27.596 111.496 27.3892C111.383 27.1798 111.226 27.0152 111.025 26.8952C110.825 26.7752 110.593 26.7152 110.328 26.7152C110.044 26.7152 109.795 26.7841 109.581 26.922C109.367 27.0573 109.199 27.236 109.079 27.4581C108.962 27.6776 108.902 27.9189 108.899 28.1818V28.9975C108.899 29.3396 108.962 29.6331 109.087 29.8782C109.212 30.1207 109.387 30.3071 109.612 30.4373C109.836 30.5649 110.099 30.6288 110.4 30.6288C110.602 30.6288 110.785 30.6007 110.948 30.5445C111.111 30.4858 111.253 30.4003 111.373 30.288C111.493 30.1756 111.584 30.0365 111.645 29.8706L112.939 30.0161C112.858 30.3582 112.702 30.6568 112.472 30.9121C112.245 31.1649 111.954 31.3614 111.599 31.5018C111.244 31.6397 110.838 31.7086 110.381 31.7086ZM118.818 27.2666L117.555 27.4045C117.519 27.2768 117.456 27.1569 117.367 27.0445C117.28 26.9322 117.163 26.8416 117.015 26.7727C116.867 26.7037 116.685 26.6693 116.471 26.6693C116.182 26.6693 115.94 26.7318 115.743 26.8569C115.549 26.982 115.454 27.1441 115.456 27.3432C115.454 27.5143 115.516 27.6534 115.644 27.7606C115.774 27.8678 115.988 27.9559 116.287 28.0248L117.29 28.2393C117.847 28.3593 118.26 28.5494 118.531 28.8098C118.804 29.0702 118.942 29.411 118.945 29.8323C118.942 30.2024 118.834 30.5292 118.619 30.8126C118.407 31.0934 118.112 31.3129 117.735 31.4712C117.357 31.6295 116.923 31.7086 116.433 31.7086C115.713 31.7086 115.133 31.558 114.694 31.2568C114.255 30.953 113.993 30.5305 113.909 29.9893L115.261 29.8591C115.322 30.1246 115.452 30.325 115.651 30.4603C115.851 30.5956 116.11 30.6632 116.429 30.6632C116.758 30.6632 117.022 30.5956 117.221 30.4603C117.423 30.325 117.524 30.1578 117.524 29.9586C117.524 29.7901 117.459 29.651 117.329 29.5412C117.201 29.4315 117.002 29.3472 116.731 29.2885L115.728 29.0779C115.164 28.9605 114.746 28.7626 114.476 28.4844C114.205 28.2035 114.071 27.8487 114.074 27.4198C114.071 27.0573 114.169 26.7433 114.369 26.4778C114.57 26.2097 114.85 26.003 115.207 25.8574C115.567 25.7094 115.982 25.6353 116.452 25.6353C117.141 25.6353 117.683 25.7821 118.079 26.0757C118.477 26.3693 118.724 26.7663 118.818 27.2666ZM123.025 25.7119V26.7841H119.643V25.7119H123.025ZM120.478 24.3027H121.864V29.8246C121.864 30.011 121.893 30.1539 121.949 30.2535C122.007 30.3505 122.084 30.4169 122.178 30.4526C122.273 30.4884 122.378 30.5062 122.492 30.5062C122.579 30.5062 122.658 30.4998 122.73 30.4871C122.804 30.4743 122.86 30.4628 122.898 30.4526L123.132 31.5363C123.058 31.5618 122.952 31.5899 122.814 31.6206C122.679 31.6512 122.513 31.6691 122.316 31.6742C121.969 31.6844 121.656 31.632 121.378 31.5172C121.1 31.3997 120.879 31.2185 120.716 30.9734C120.555 30.7283 120.476 30.422 120.478 30.0544V24.3027ZM124.184 31.5938V25.7119H125.57V31.5938H124.184ZM124.881 24.8771C124.661 24.8771 124.473 24.8044 124.314 24.6589C124.156 24.5108 124.077 24.3334 124.077 24.1266C124.077 23.9173 124.156 23.7398 124.314 23.5943C124.473 23.4463 124.661 23.3722 124.881 23.3722C125.103 23.3722 125.292 23.4463 125.448 23.5943C125.606 23.7398 125.685 23.9173 125.685 24.1266C125.685 24.3334 125.606 24.5108 125.448 24.6589C125.292 24.8044 125.103 24.8771 124.881 24.8771ZM128.382 28.1474V31.5938H126.996V25.7119H128.321V26.7114H128.39C128.525 26.3821 128.741 26.1204 129.037 25.9264C129.335 25.7324 129.704 25.6353 130.143 25.6353C130.549 25.6353 130.903 25.7221 131.204 25.8957C131.508 26.0693 131.743 26.3208 131.909 26.6501C132.077 26.9794 132.16 27.379 132.158 27.8487V31.5938H130.771V28.0631C130.771 27.67 130.669 27.3624 130.465 27.1403C130.263 26.9182 129.984 26.8071 129.626 26.8071C129.384 26.8071 129.168 26.8607 128.979 26.9679C128.793 27.0726 128.646 27.2245 128.539 27.4236C128.434 27.6228 128.382 27.864 128.382 28.1474ZM135.259 31.7125C134.887 31.7125 134.551 31.6461 134.252 31.5133C133.956 31.378 133.721 31.1789 133.548 30.916C133.377 30.653 133.291 30.3288 133.291 29.9433C133.291 29.6114 133.352 29.337 133.475 29.12C133.597 28.903 133.765 28.7294 133.977 28.5992C134.188 28.469 134.427 28.3707 134.693 28.3044C134.961 28.2354 135.238 28.1857 135.524 28.155C135.868 28.1193 136.148 28.0874 136.362 28.0593C136.577 28.0287 136.732 27.9827 136.829 27.9214C136.929 27.8576 136.979 27.7593 136.979 27.6266V27.6036C136.979 27.3151 136.893 27.0918 136.722 26.9335C136.551 26.7752 136.305 26.6961 135.983 26.6961C135.644 26.6961 135.374 26.7701 135.175 26.9182C134.979 27.0662 134.846 27.2411 134.777 27.4428L133.483 27.259C133.585 26.9016 133.753 26.6029 133.988 26.3629C134.223 26.1204 134.51 25.9391 134.85 25.8192C135.189 25.6966 135.564 25.6353 135.975 25.6353C136.259 25.6353 136.541 25.6685 136.822 25.7349C137.103 25.8013 137.359 25.9111 137.591 26.0642C137.824 26.2148 138.01 26.4204 138.15 26.6807C138.293 26.9411 138.365 27.2666 138.365 27.6572V31.5938H137.032V30.7858H136.986C136.902 30.9491 136.783 31.1023 136.63 31.2453C136.48 31.3857 136.289 31.4993 136.06 31.5861C135.832 31.6703 135.566 31.7125 135.259 31.7125ZM135.619 30.6939C135.898 30.6939 136.139 30.639 136.343 30.5292C136.547 30.4169 136.704 30.2688 136.814 30.085C136.926 29.9012 136.983 29.7008 136.983 29.4838V28.7907C136.939 28.8264 136.865 28.8596 136.76 28.8903C136.658 28.9209 136.543 28.9477 136.416 28.9707C136.288 28.9936 136.162 29.0141 136.037 29.0319C135.912 29.0498 135.803 29.0651 135.711 29.0779C135.504 29.106 135.319 29.1519 135.156 29.2157C134.993 29.2796 134.864 29.3689 134.769 29.4838C134.675 29.5961 134.628 29.7416 134.628 29.9203C134.628 30.1756 134.721 30.3684 134.907 30.4986C135.093 30.6288 135.331 30.6939 135.619 30.6939ZM142.696 25.7119V26.7841H139.315V25.7119H142.696ZM140.149 24.3027H141.536V29.8246C141.536 30.011 141.564 30.1539 141.62 30.2535C141.679 30.3505 141.755 30.4169 141.85 30.4526C141.944 30.4884 142.049 30.5062 142.164 30.5062C142.25 30.5062 142.33 30.4998 142.401 30.4871C142.475 30.4743 142.531 30.4628 142.57 30.4526L142.803 31.5363C142.729 31.5618 142.623 31.5899 142.485 31.6206C142.35 31.6512 142.184 31.6691 141.987 31.6742C141.64 31.6844 141.328 31.632 141.049 31.5172C140.771 31.3997 140.55 31.2185 140.387 30.9734C140.226 30.7283 140.147 30.422 140.149 30.0544V24.3027ZM143.855 31.5938V25.7119H145.241V31.5938H143.855ZM144.552 24.8771C144.333 24.8771 144.144 24.8044 143.985 24.6589C143.827 24.5108 143.748 24.3334 143.748 24.1266C143.748 23.9173 143.827 23.7398 143.985 23.5943C144.144 23.4463 144.333 23.3722 144.552 23.3722C144.774 23.3722 144.963 23.4463 145.119 23.5943C145.277 23.7398 145.356 23.9173 145.356 24.1266C145.356 24.3334 145.277 24.5108 145.119 24.6589C144.963 24.8044 144.774 24.8771 144.552 24.8771ZM149.233 31.7086C148.658 31.7086 148.16 31.5823 147.739 31.3295C147.318 31.0768 146.991 30.7232 146.759 30.2688C146.529 29.8144 146.414 29.2834 146.414 28.6758C146.414 28.0682 146.529 27.536 146.759 27.079C146.991 26.622 147.318 26.2672 147.739 26.0144C148.16 25.7617 148.658 25.6353 149.233 25.6353C149.807 25.6353 150.305 25.7617 150.726 26.0144C151.147 26.2672 151.473 26.622 151.702 27.079C151.935 27.536 152.051 28.0682 152.051 28.6758C152.051 29.2834 151.935 29.8144 151.702 30.2688C151.473 30.7232 151.147 31.0768 150.726 31.3295C150.305 31.5823 149.807 31.7086 149.233 31.7086ZM149.24 30.5981C149.552 30.5981 149.812 30.5126 150.021 30.3416C150.231 30.168 150.386 29.9357 150.489 29.6446C150.593 29.3536 150.646 29.0294 150.646 28.672C150.646 28.312 150.593 27.9865 150.489 27.6955C150.386 27.4019 150.231 27.1683 150.021 26.9948C149.812 26.8212 149.552 26.7344 149.24 26.7344C148.921 26.7344 148.656 26.8212 148.444 26.9948C148.234 27.1683 148.077 27.4019 147.973 27.6955C147.871 27.9865 147.819 28.312 147.819 28.672C147.819 29.0294 147.871 29.3536 147.973 29.6446C148.077 29.9357 148.234 30.168 148.444 30.3416C148.656 30.5126 148.921 30.5981 149.24 30.5981ZM154.614 28.1474V31.5938H153.227V25.7119H154.552V26.7114H154.621C154.757 26.3821 154.972 26.1204 155.268 25.9264C155.567 25.7324 155.936 25.6353 156.375 25.6353C156.781 25.6353 157.135 25.7221 157.436 25.8957C157.74 26.0693 157.975 26.3208 158.14 26.6501C158.309 26.9794 158.392 27.379 158.389 27.8487V31.5938H157.003V28.0631C157.003 27.67 156.901 27.3624 156.697 27.1403C156.495 26.9182 156.216 26.8071 155.858 26.8071C155.616 26.8071 155.4 26.8607 155.211 26.9679C155.025 27.0726 154.878 27.2245 154.771 27.4236C154.666 27.6228 154.614 27.864 154.614 28.1474Z" fill="#C4B1EE"/>
<path d="M195.547 31.5938V23.7513H200.648V24.9422H196.968V27.0713H200.383V28.2623H196.968V30.4028H200.678V31.5938H195.547ZM203.422 28.1474V31.5938H202.036V25.7119H203.361V26.7114H203.43C203.565 26.3821 203.781 26.1204 204.077 25.9264C204.375 25.7324 204.744 25.6353 205.183 25.6353C205.589 25.6353 205.943 25.7221 206.244 25.8957C206.548 26.0693 206.783 26.3208 206.949 26.6501C207.117 26.9794 207.2 27.379 207.198 27.8487V31.5938H205.811V28.0631C205.811 27.67 205.709 27.3624 205.505 27.1403C205.303 26.9182 205.024 26.8071 204.666 26.8071C204.424 26.8071 204.208 26.8607 204.019 26.9679C203.833 27.0726 203.686 27.2245 203.579 27.4236C203.474 27.6228 203.422 27.864 203.422 28.1474ZM211.544 25.7119V26.7841H208.163V25.7119H211.544ZM208.997 24.3027H210.384V29.8246C210.384 30.011 210.412 30.1539 210.468 30.2535C210.527 30.3505 210.603 30.4169 210.698 30.4526C210.792 30.4884 210.897 30.5062 211.012 30.5062C211.098 30.5062 211.178 30.4998 211.249 30.4871C211.323 30.4743 211.379 30.4628 211.418 30.4526L211.651 31.5363C211.577 31.5618 211.471 31.5899 211.333 31.6206C211.198 31.6512 211.032 31.6691 210.835 31.6742C210.488 31.6844 210.176 31.632 209.897 31.5172C209.619 31.3997 209.398 31.2185 209.235 30.9734C209.074 30.7283 208.995 30.422 208.997 30.0544V24.3027ZM215.244 31.7086C214.654 31.7086 214.145 31.5861 213.716 31.341C213.29 31.0934 212.962 30.7436 212.732 30.2918C212.502 29.8374 212.387 29.3025 212.387 28.6873C212.387 28.0823 212.502 27.5513 212.732 27.0943C212.964 26.6348 213.288 26.2774 213.705 26.0221C214.121 25.7643 214.61 25.6353 215.171 25.6353C215.534 25.6353 215.876 25.6941 216.197 25.8115C216.522 25.9264 216.808 26.1051 217.055 26.3476C217.305 26.5901 217.502 26.899 217.645 27.2743C217.788 27.647 217.859 28.0912 217.859 28.6069V29.0319H213.038V28.0976H216.531C216.528 27.8321 216.471 27.596 216.358 27.3892C216.246 27.1798 216.089 27.0152 215.887 26.8952C215.688 26.7752 215.456 26.7152 215.19 26.7152C214.907 26.7152 214.658 26.7841 214.444 26.922C214.229 27.0573 214.062 27.236 213.942 27.4581C213.825 27.6776 213.765 27.9189 213.762 28.1818V28.9975C213.762 29.3396 213.825 29.6331 213.95 29.8782C214.075 30.1207 214.25 30.3071 214.474 30.4373C214.699 30.5649 214.962 30.6288 215.263 30.6288C215.465 30.6288 215.647 30.6007 215.811 30.5445C215.974 30.4858 216.116 30.4003 216.236 30.288C216.356 30.1756 216.446 30.0365 216.508 29.8706L217.802 30.0161C217.72 30.3582 217.565 30.6568 217.335 30.9121C217.108 31.1649 216.817 31.3614 216.462 31.5018C216.107 31.6397 215.701 31.7086 215.244 31.7086ZM219.032 31.5938V25.7119H220.376V26.6922H220.437C220.545 26.3527 220.728 26.091 220.989 25.9072C221.252 25.7209 221.552 25.6277 221.889 25.6277C221.965 25.6277 222.051 25.6315 222.145 25.6392C222.242 25.6443 222.323 25.6532 222.387 25.666V26.9411C222.328 26.9207 222.235 26.9028 222.107 26.8875C221.982 26.8697 221.861 26.8607 221.743 26.8607C221.491 26.8607 221.263 26.9156 221.062 27.0254C220.863 27.1326 220.706 27.2819 220.591 27.4734C220.476 27.6649 220.418 27.8857 220.418 28.1359V31.5938H219.032ZM226.044 31.5938V23.7513H231.144V24.9422H227.464V27.0713H230.88V28.2623H227.464V30.4028H231.175V31.5938H226.044ZM233.666 25.7119L234.853 27.8831L236.059 25.7119H237.526L235.753 28.6528L237.556 31.5938H236.097L234.853 29.4761L233.62 31.5938H232.149L233.942 28.6528L232.195 25.7119H233.666ZM238.598 33.7994V25.7119H239.961V26.6846H240.042C240.113 26.5416 240.214 26.3897 240.344 26.2289C240.474 26.0655 240.65 25.9264 240.873 25.8115C241.095 25.6941 241.378 25.6353 241.723 25.6353C242.177 25.6353 242.587 25.7515 242.952 25.9838C243.319 26.2136 243.611 26.5544 243.825 27.0062C244.042 27.4555 244.15 28.007 244.15 28.6605C244.15 29.3064 244.045 29.8552 243.833 30.3071C243.621 30.759 243.332 31.1036 242.967 31.341C242.602 31.5784 242.189 31.6971 241.727 31.6971C241.39 31.6971 241.11 31.641 240.888 31.5287C240.666 31.4163 240.487 31.281 240.352 31.1227C240.219 30.9619 240.116 30.81 240.042 30.6671H239.984V33.7994H238.598ZM239.957 28.6528C239.957 29.0332 240.011 29.3664 240.118 29.6523C240.228 29.9382 240.385 30.1616 240.589 30.3224C240.796 30.4807 241.046 30.5598 241.34 30.5598C241.646 30.5598 241.903 30.4781 242.109 30.3148C242.316 30.1488 242.472 29.9229 242.577 29.637C242.684 29.3485 242.737 29.0205 242.737 28.6528C242.737 28.2878 242.685 27.9636 242.58 27.6802C242.476 27.3968 242.32 27.1747 242.113 27.0139C241.906 26.8531 241.649 26.7727 241.34 26.7727C241.044 26.7727 240.792 26.8505 240.585 27.0062C240.379 27.162 240.222 27.3802 240.114 27.661C240.01 27.9419 239.957 28.2725 239.957 28.6528ZM247.941 31.7086C247.352 31.7086 246.842 31.5861 246.414 31.341C245.987 31.0934 245.659 30.7436 245.429 30.2918C245.2 29.8374 245.085 29.3025 245.085 28.6873C245.085 28.0823 245.2 27.5513 245.429 27.0943C245.662 26.6348 245.986 26.2774 246.402 26.0221C246.818 25.7643 247.307 25.6353 247.869 25.6353C248.231 25.6353 248.573 25.6941 248.895 25.8115C249.219 25.9264 249.505 26.1051 249.753 26.3476C250.003 26.5901 250.199 26.899 250.342 27.2743C250.485 27.647 250.557 28.0912 250.557 28.6069V29.0319H245.736V28.0976H249.228C249.226 27.8321 249.168 27.596 249.056 27.3892C248.943 27.1798 248.786 27.0152 248.585 26.8952C248.386 26.7752 248.153 26.7152 247.888 26.7152C247.604 26.7152 247.356 26.7841 247.141 26.922C246.927 27.0573 246.759 27.236 246.64 27.4581C246.522 27.6776 246.462 27.9189 246.46 28.1818V28.9975C246.46 29.3396 246.522 29.6331 246.647 29.8782C246.772 30.1207 246.947 30.3071 247.172 30.4373C247.396 30.5649 247.659 30.6288 247.961 30.6288C248.162 30.6288 248.345 30.6007 248.508 30.5445C248.672 30.4858 248.813 30.4003 248.933 30.288C249.053 30.1756 249.144 30.0365 249.205 29.8706L250.499 30.0161C250.418 30.3582 250.262 30.6568 250.032 30.9121C249.805 31.1649 249.514 31.3614 249.159 31.5018C248.804 31.6397 248.398 31.7086 247.941 31.7086ZM251.73 31.5938V25.7119H253.074V26.6922H253.135C253.242 26.3527 253.426 26.091 253.686 25.9072C253.949 25.7209 254.249 25.6277 254.586 25.6277C254.663 25.6277 254.748 25.6315 254.843 25.6392C254.94 25.6443 255.02 25.6532 255.084 25.666V26.9411C255.025 26.9207 254.932 26.9028 254.805 26.8875C254.679 26.8697 254.558 26.8607 254.441 26.8607C254.188 26.8607 253.961 26.9156 253.759 27.0254C253.56 27.1326 253.403 27.2819 253.288 27.4734C253.173 27.6649 253.116 27.8857 253.116 28.1359V31.5938H251.73ZM256.005 31.5938V25.7119H257.391V31.5938H256.005ZM256.702 24.8771C256.482 24.8771 256.294 24.8044 256.135 24.6589C255.977 24.5108 255.898 24.3334 255.898 24.1266C255.898 23.9173 255.977 23.7398 256.135 23.5943C256.294 23.4463 256.482 23.3722 256.702 23.3722C256.924 23.3722 257.113 23.4463 257.269 23.5943C257.427 23.7398 257.506 23.9173 257.506 24.1266C257.506 24.3334 257.427 24.5108 257.269 24.6589C257.113 24.8044 256.924 24.8771 256.702 24.8771ZM261.421 31.7086C260.831 31.7086 260.322 31.5861 259.893 31.341C259.466 31.0934 259.138 30.7436 258.909 30.2918C258.679 29.8374 258.564 29.3025 258.564 28.6873C258.564 28.0823 258.679 27.5513 258.909 27.0943C259.141 26.6348 259.465 26.2774 259.881 26.0221C260.297 25.7643 260.786 25.6353 261.348 25.6353C261.71 25.6353 262.052 25.6941 262.374 25.8115C262.698 25.9264 262.984 26.1051 263.232 26.3476C263.482 26.5901 263.679 26.899 263.822 27.2743C263.965 27.647 264.036 28.0912 264.036 28.6069V29.0319H259.215V28.0976H262.707C262.705 27.8321 262.647 27.596 262.535 27.3892C262.423 27.1798 262.266 27.0152 262.064 26.8952C261.865 26.7752 261.633 26.7152 261.367 26.7152C261.084 26.7152 260.835 26.7841 260.62 26.922C260.406 27.0573 260.239 27.236 260.119 27.4581C260.001 27.6776 259.941 27.9189 259.939 28.1818V28.9975C259.939 29.3396 260.001 29.6331 260.126 29.8782C260.251 30.1207 260.426 30.3071 260.651 30.4373C260.876 30.5649 261.139 30.6288 261.44 30.6288C261.641 30.6288 261.824 30.6007 261.987 30.5445C262.151 30.4858 262.292 30.4003 262.412 30.288C262.532 30.1756 262.623 30.0365 262.684 29.8706L263.979 30.0161C263.897 30.3582 263.741 30.6568 263.511 30.9121C263.284 31.1649 262.993 31.3614 262.638 31.5018C262.284 31.6397 261.878 31.7086 261.421 31.7086ZM266.595 28.1474V31.5938H265.209V25.7119H266.534V26.7114H266.603C266.738 26.3821 266.954 26.1204 267.25 25.9264C267.548 25.7324 267.917 25.6353 268.356 25.6353C268.762 25.6353 269.116 25.7221 269.417 25.8957C269.721 26.0693 269.956 26.3208 270.122 26.6501C270.29 26.9794 270.373 27.379 270.371 27.8487V31.5938H268.984V28.0631C268.984 27.67 268.882 27.3624 268.678 27.1403C268.476 26.9182 268.197 26.8071 267.84 26.8071C267.597 26.8071 267.381 26.8607 267.192 26.9679C267.006 27.0726 266.859 27.2245 266.752 27.4236C266.647 27.6228 266.595 27.864 266.595 28.1474ZM274.346 31.7086C273.758 31.7086 273.254 31.5797 272.833 31.3219C272.414 31.064 272.091 30.7079 271.864 30.2535C271.639 29.7965 271.527 29.2706 271.527 28.6758C271.527 28.0784 271.642 27.5513 271.872 27.0943C272.102 26.6348 272.426 26.2774 272.844 26.0221C273.266 25.7643 273.763 25.6353 274.338 25.6353C274.815 25.6353 275.238 25.7234 275.605 25.8996C275.976 26.0732 276.27 26.3195 276.49 26.6386C276.709 26.9552 276.835 27.3253 276.865 27.7491H275.54C275.487 27.4658 275.359 27.2296 275.157 27.0407C274.958 26.8492 274.691 26.7535 274.357 26.7535C274.074 26.7535 273.825 26.8301 273.61 26.9833C273.396 27.1339 273.229 27.3509 273.109 27.6342C272.991 27.9176 272.933 28.2571 272.933 28.6528C272.933 29.0536 272.991 29.3983 273.109 29.6868C273.226 29.9727 273.391 30.1935 273.603 30.3492C273.817 30.5024 274.069 30.579 274.357 30.579C274.561 30.579 274.744 30.5407 274.905 30.4641C275.068 30.385 275.205 30.2714 275.314 30.1233C275.424 29.9752 275.499 29.7953 275.54 29.5834H276.865C276.832 29.9995 276.709 30.3684 276.498 30.69C276.286 31.0091 275.997 31.2593 275.632 31.4406C275.267 31.6193 274.838 31.7086 274.346 31.7086ZM280.607 31.7086C280.018 31.7086 279.508 31.5861 279.079 31.341C278.653 31.0934 278.325 30.7436 278.095 30.2918C277.866 29.8374 277.751 29.3025 277.751 28.6873C277.751 28.0823 277.866 27.5513 278.095 27.0943C278.328 26.6348 278.652 26.2774 279.068 26.0221C279.484 25.7643 279.973 25.6353 280.535 25.6353C280.897 25.6353 281.239 25.6941 281.561 25.8115C281.885 25.9264 282.171 26.1051 282.419 26.3476C282.669 26.5901 282.865 26.899 283.008 27.2743C283.151 27.647 283.223 28.0912 283.223 28.6069V29.0319H278.402V28.0976H281.894C281.891 27.8321 281.834 27.596 281.722 27.3892C281.609 27.1798 281.452 27.0152 281.251 26.8952C281.052 26.7752 280.819 26.7152 280.554 26.7152C280.27 26.7152 280.022 26.7841 279.807 26.922C279.593 27.0573 279.425 27.236 279.305 27.4581C279.188 27.6776 279.128 27.9189 279.125 28.1818V28.9975C279.125 29.3396 279.188 29.6331 279.313 29.8782C279.438 30.1207 279.613 30.3071 279.838 30.4373C280.062 30.5649 280.325 30.6288 280.627 30.6288C280.828 30.6288 281.011 30.6007 281.174 30.5445C281.338 30.4858 281.479 30.4003 281.599 30.288C281.719 30.1756 281.81 30.0365 281.871 29.8706L283.165 30.0161C283.084 30.3582 282.928 30.6568 282.698 30.9121C282.471 31.1649 282.18 31.3614 281.825 31.5018C281.47 31.6397 281.064 31.7086 280.607 31.7086Z" fill="#C4B1EE"/>
<path d="M319.555 31.5938V23.7513H324.655V24.9422H320.975V27.0713H324.391V28.2623H320.975V30.4028H324.686V31.5938H319.555ZM327.43 28.1474V31.5938H326.044V25.7119H327.368V26.7114H327.437C327.573 26.3821 327.788 26.1204 328.085 25.9264C328.383 25.7324 328.752 25.6353 329.191 25.6353C329.597 25.6353 329.951 25.7221 330.252 25.8957C330.556 26.0693 330.791 26.3208 330.957 26.6501C331.125 26.9794 331.208 27.379 331.205 27.8487V31.5938H329.819V28.0631C329.819 27.67 329.717 27.3624 329.513 27.1403C329.311 26.9182 329.032 26.8071 328.674 26.8071C328.432 26.8071 328.216 26.8607 328.027 26.9679C327.841 27.0726 327.694 27.2245 327.587 27.4236C327.482 27.6228 327.43 27.864 327.43 28.1474ZM335.552 25.7119V26.7841H332.17V25.7119H335.552ZM333.005 24.3027H334.391V29.8246C334.391 30.011 334.42 30.1539 334.476 30.2535C334.534 30.3505 334.611 30.4169 334.705 30.4526C334.8 30.4884 334.905 30.5062 335.019 30.5062C335.106 30.5062 335.185 30.4998 335.257 30.4871C335.331 30.4743 335.387 30.4628 335.425 30.4526L335.659 31.5363C335.585 31.5618 335.479 31.5899 335.341 31.6206C335.206 31.6512 335.04 31.6691 334.843 31.6742C334.496 31.6844 334.183 31.632 333.905 31.5172C333.627 31.3997 333.406 31.2185 333.243 30.9734C333.082 30.7283 333.003 30.422 333.005 30.0544V24.3027ZM339.252 31.7086C338.662 31.7086 338.153 31.5861 337.724 31.341C337.298 31.0934 336.97 30.7436 336.74 30.2918C336.51 29.8374 336.395 29.3025 336.395 28.6873C336.395 28.0823 336.51 27.5513 336.74 27.0943C336.972 26.6348 337.296 26.2774 337.712 26.0221C338.129 25.7643 338.617 25.6353 339.179 25.6353C339.542 25.6353 339.884 25.6941 340.205 25.8115C340.529 25.9264 340.815 26.1051 341.063 26.3476C341.313 26.5901 341.51 26.899 341.653 27.2743C341.796 27.647 341.867 28.0912 341.867 28.6069V29.0319H337.046V28.0976H340.538C340.536 27.8321 340.478 27.596 340.366 27.3892C340.254 27.1798 340.097 27.0152 339.895 26.8952C339.696 26.7752 339.464 26.7152 339.198 26.7152C338.915 26.7152 338.666 26.7841 338.451 26.922C338.237 27.0573 338.07 27.236 337.95 27.4581C337.832 27.6776 337.772 27.9189 337.77 28.1818V28.9975C337.77 29.3396 337.832 29.6331 337.957 29.8782C338.083 30.1207 338.257 30.3071 338.482 30.4373C338.707 30.5649 338.97 30.6288 339.271 30.6288C339.473 30.6288 339.655 30.6007 339.819 30.5445C339.982 30.4858 340.124 30.4003 340.244 30.288C340.364 30.1756 340.454 30.0365 340.515 29.8706L341.81 30.0161C341.728 30.3582 341.572 30.6568 341.343 30.9121C341.115 31.1649 340.824 31.3614 340.469 31.5018C340.115 31.6397 339.709 31.7086 339.252 31.7086ZM343.04 31.5938V25.7119H344.384V26.6922H344.445C344.552 26.3527 344.736 26.091 344.997 25.9072C345.26 25.7209 345.56 25.6277 345.897 25.6277C345.973 25.6277 346.059 25.6315 346.153 25.6392C346.25 25.6443 346.331 25.6532 346.394 25.666V26.9411C346.336 26.9207 346.242 26.9028 346.115 26.8875C345.99 26.8697 345.869 26.8607 345.751 26.8607C345.498 26.8607 345.271 26.9156 345.069 27.0254C344.87 27.1326 344.713 27.2819 344.598 27.4734C344.484 27.6649 344.426 27.8857 344.426 28.1359V31.5938H343.04ZM350.051 31.5938V23.7513H351.472V30.4028H354.926V31.5938H350.051ZM358.663 31.7086C358.089 31.7086 357.591 31.5823 357.17 31.3295C356.749 31.0768 356.422 30.7232 356.19 30.2688C355.96 29.8144 355.845 29.2834 355.845 28.6758C355.845 28.0682 355.96 27.536 356.19 27.079C356.422 26.622 356.749 26.2672 357.17 26.0144C357.591 25.7617 358.089 25.6353 358.663 25.6353C359.238 25.6353 359.736 25.7617 360.157 26.0144C360.578 26.2672 360.904 26.622 361.133 27.079C361.366 27.536 361.482 28.0682 361.482 28.6758C361.482 29.2834 361.366 29.8144 361.133 30.2688C360.904 30.7232 360.578 31.0768 360.157 31.3295C359.736 31.5823 359.238 31.7086 358.663 31.7086ZM358.671 30.5981C358.983 30.5981 359.243 30.5126 359.452 30.3416C359.662 30.168 359.817 29.9357 359.92 29.6446C360.024 29.3536 360.077 29.0294 360.077 28.672C360.077 28.312 360.024 27.9865 359.92 27.6955C359.817 27.4019 359.662 27.1683 359.452 26.9948C359.243 26.8212 358.983 26.7344 358.671 26.7344C358.352 26.7344 358.087 26.8212 357.875 26.9948C357.665 27.1683 357.508 27.4019 357.404 27.6955C357.302 27.9865 357.25 28.312 357.25 28.672C357.25 29.0294 357.302 29.3536 357.404 29.6446C357.508 29.9357 357.665 30.168 357.875 30.3416C358.087 30.5126 358.352 30.5981 358.671 30.5981ZM365.224 31.7086C364.637 31.7086 364.133 31.5797 363.711 31.3219C363.293 31.064 362.97 30.7079 362.743 30.2535C362.518 29.7965 362.406 29.2706 362.406 28.6758C362.406 28.0784 362.521 27.5513 362.75 27.0943C362.98 26.6348 363.304 26.2774 363.723 26.0221C364.144 25.7643 364.642 25.6353 365.216 25.6353C365.694 25.6353 366.116 25.7234 366.484 25.8996C366.854 26.0732 367.149 26.3195 367.368 26.6386C367.588 26.9552 367.713 27.3253 367.744 27.7491H366.419C366.365 27.4658 366.238 27.2296 366.036 27.0407C365.837 26.8492 365.57 26.7535 365.236 26.7535C364.952 26.7535 364.703 26.8301 364.489 26.9833C364.274 27.1339 364.107 27.3509 363.987 27.6342C363.87 27.9176 363.811 28.2571 363.811 28.6528C363.811 29.0536 363.87 29.3983 363.987 29.6868C364.105 29.9727 364.269 30.1935 364.481 30.3492C364.696 30.5024 364.947 30.579 365.236 30.579C365.44 30.579 365.622 30.5407 365.783 30.4641C365.947 30.385 366.083 30.2714 366.193 30.1233C366.303 29.9752 366.378 29.7953 366.419 29.5834H367.744C367.711 29.9995 367.588 30.3684 367.376 30.69C367.164 31.0091 366.876 31.2593 366.511 31.4406C366.146 31.6193 365.717 31.7086 365.224 31.7086ZM370.575 31.7125C370.202 31.7125 369.866 31.6461 369.567 31.5133C369.271 31.378 369.036 31.1789 368.863 30.916C368.692 30.653 368.606 30.3288 368.606 29.9433C368.606 29.6114 368.668 29.337 368.79 29.12C368.913 28.903 369.08 28.7294 369.292 28.5992C369.504 28.469 369.742 28.3707 370.008 28.3044C370.276 28.2354 370.553 28.1857 370.839 28.155C371.183 28.1193 371.463 28.0874 371.677 28.0593C371.892 28.0287 372.048 27.9827 372.145 27.9214C372.244 27.8576 372.294 27.7593 372.294 27.6266V27.6036C372.294 27.3151 372.208 27.0918 372.037 26.9335C371.866 26.7752 371.62 26.6961 371.298 26.6961C370.959 26.6961 370.689 26.7701 370.49 26.9182C370.294 27.0662 370.161 27.2411 370.092 27.4428L368.798 27.259C368.9 26.9016 369.068 26.6029 369.303 26.3629C369.538 26.1204 369.825 25.9391 370.165 25.8192C370.504 25.6966 370.88 25.6353 371.291 25.6353C371.574 25.6353 371.856 25.6685 372.137 25.7349C372.418 25.8013 372.674 25.9111 372.907 26.0642C373.139 26.2148 373.325 26.4204 373.466 26.6807C373.609 26.9411 373.68 27.2666 373.68 27.6572V31.5938H372.348V30.7858H372.302C372.217 30.9491 372.099 31.1023 371.945 31.2453C371.795 31.3857 371.605 31.4993 371.375 31.5861C371.148 31.6703 370.881 31.7125 370.575 31.7125ZM370.935 30.6939C371.213 30.6939 371.454 30.639 371.658 30.5292C371.862 30.4169 372.019 30.2688 372.129 30.085C372.242 29.9012 372.298 29.7008 372.298 29.4838V28.7907C372.254 28.8264 372.18 28.8596 372.076 28.8903C371.974 28.9209 371.859 28.9477 371.731 28.9707C371.603 28.9936 371.477 29.0141 371.352 29.0319C371.227 29.0498 371.118 29.0651 371.026 29.0779C370.82 29.106 370.635 29.1519 370.471 29.2157C370.308 29.2796 370.179 29.3689 370.084 29.4838C369.99 29.5961 369.943 29.7416 369.943 29.9203C369.943 30.1756 370.036 30.3684 370.222 30.4986C370.409 30.6288 370.646 30.6939 370.935 30.6939ZM378.011 25.7119V26.7841H374.63V25.7119H378.011ZM375.465 24.3027H376.851V29.8246C376.851 30.011 376.879 30.1539 376.935 30.2535C376.994 30.3505 377.07 30.4169 377.165 30.4526C377.259 30.4884 377.364 30.5062 377.479 30.5062C377.566 30.5062 377.645 30.4998 377.716 30.4871C377.79 30.4743 377.846 30.4628 377.885 30.4526L378.118 31.5363C378.044 31.5618 377.938 31.5899 377.8 31.6206C377.665 31.6512 377.499 31.6691 377.303 31.6742C376.955 31.6844 376.643 31.632 376.364 31.5172C376.086 31.3997 375.865 31.2185 375.702 30.9734C375.541 30.7283 375.462 30.422 375.465 30.0544V24.3027ZM379.17 31.5938V25.7119H380.557V31.5938H379.17ZM379.867 24.8771C379.648 24.8771 379.459 24.8044 379.301 24.6589C379.142 24.5108 379.063 24.3334 379.063 24.1266C379.063 23.9173 379.142 23.7398 379.301 23.5943C379.459 23.4463 379.648 23.3722 379.867 23.3722C380.089 23.3722 380.278 23.4463 380.434 23.5943C380.592 23.7398 380.671 23.9173 380.671 24.1266C380.671 24.3334 380.592 24.5108 380.434 24.6589C380.278 24.8044 380.089 24.8771 379.867 24.8771ZM384.548 31.7086C383.973 31.7086 383.476 31.5823 383.054 31.3295C382.633 31.0768 382.306 30.7232 382.074 30.2688C381.844 29.8144 381.729 29.2834 381.729 28.6758C381.729 28.0682 381.844 27.536 382.074 27.079C382.306 26.622 382.633 26.2672 383.054 26.0144C383.476 25.7617 383.973 25.6353 384.548 25.6353C385.122 25.6353 385.62 25.7617 386.041 26.0144C386.462 26.2672 386.788 26.622 387.018 27.079C387.25 27.536 387.366 28.0682 387.366 28.6758C387.366 29.2834 387.25 29.8144 387.018 30.2688C386.788 30.7232 386.462 31.0768 386.041 31.3295C385.62 31.5823 385.122 31.7086 384.548 31.7086ZM384.555 30.5981C384.867 30.5981 385.127 30.5126 385.337 30.3416C385.546 30.168 385.702 29.9357 385.804 29.6446C385.908 29.3536 385.961 29.0294 385.961 28.672C385.961 28.312 385.908 27.9865 385.804 27.6955C385.702 27.4019 385.546 27.1683 385.337 26.9948C385.127 26.8212 384.867 26.7344 384.555 26.7344C384.236 26.7344 383.971 26.8212 383.759 26.9948C383.55 27.1683 383.393 27.4019 383.288 27.6955C383.186 27.9865 383.135 28.312 383.135 28.672C383.135 29.0294 383.186 29.3536 383.288 29.6446C383.393 29.9357 383.55 30.168 383.759 30.3416C383.971 30.5126 384.236 30.5981 384.555 30.5981ZM389.929 28.1474V31.5938H388.543V25.7119H389.868V26.7114H389.937C390.072 26.3821 390.288 26.1204 390.584 25.9264C390.882 25.7324 391.251 25.6353 391.69 25.6353C392.096 25.6353 392.45 25.7221 392.751 25.8957C393.055 26.0693 393.29 26.3208 393.456 26.6501C393.624 26.9794 393.707 27.379 393.705 27.8487V31.5938H392.318V28.0631C392.318 27.67 392.216 27.3624 392.012 27.1403C391.81 26.9182 391.531 26.8071 391.173 26.8071C390.931 26.8071 390.715 26.8607 390.526 26.9679C390.34 27.0726 390.193 27.2245 390.086 27.4236C389.981 27.6228 389.929 27.864 389.929 28.1474Z" fill="#C4B1EE"/>
<line x1="177.587" y1="18.5742" x2="177.587" y2="38.793" stroke="#C4B1EE" stroke-width="0.673958"/>
<line x1="301.595" y1="18.5742" x2="301.595" y2="38.793" stroke="#C4B1EE" stroke-width="0.673958"/>
<g filter="url(#filter0_d_727_1029)">
<rect x="435.133" y="15.1602" width="74.1354" height="27.4792" rx="5.39167" fill="#7F56D9"/>
<rect x="435.47" y="15.4971" width="73.4615" height="26.8052" rx="5.05469" stroke="#7F56D9" stroke-width="0.673958"/>
<path d="M460.607 26.9227C460.576 26.6301 460.444 26.4023 460.212 26.2392C459.982 26.0761 459.682 25.9946 459.314 25.9946C459.055 25.9946 458.833 26.0337 458.647 26.1119C458.462 26.1901 458.32 26.2962 458.222 26.4302C458.123 26.5642 458.073 26.7172 458.071 26.8892C458.071 27.0322 458.103 27.1562 458.168 27.2611C458.235 27.3661 458.325 27.4555 458.439 27.5292C458.553 27.6007 458.68 27.661 458.818 27.7101C458.957 27.7593 459.096 27.8006 459.237 27.8341L459.88 27.9949C460.139 28.0552 460.388 28.1368 460.627 28.2395C460.869 28.3423 461.084 28.4718 461.274 28.6282C461.466 28.7846 461.618 28.9733 461.73 29.1945C461.841 29.4156 461.897 29.6747 461.897 29.9718C461.897 30.3739 461.795 30.7279 461.589 31.034C461.384 31.3378 461.086 31.5757 460.698 31.7477C460.311 31.9174 459.843 32.0023 459.294 32.0023C458.76 32.0023 458.296 31.9197 457.903 31.7544C457.512 31.5891 457.206 31.3478 456.985 31.0306C456.766 30.7134 456.648 30.327 456.63 29.8713H457.853C457.871 30.1103 457.945 30.3091 458.074 30.4677C458.204 30.6263 458.372 30.7447 458.58 30.8229C458.79 30.9011 459.025 30.9402 459.284 30.9402C459.554 30.9402 459.791 30.8999 459.994 30.8195C460.2 30.7369 460.36 30.623 460.477 30.4778C460.593 30.3303 460.652 30.1583 460.654 29.9618C460.652 29.7831 460.599 29.6356 460.497 29.5195C460.394 29.4011 460.25 29.3028 460.064 29.2246C459.881 29.1442 459.667 29.0727 459.421 29.0102L458.64 28.8091C458.075 28.6639 457.629 28.4439 457.3 28.1491C456.974 27.852 456.811 27.4577 456.811 26.9663C456.811 26.562 456.92 26.2079 457.139 25.9041C457.36 25.6003 457.661 25.3647 458.041 25.1971C458.42 25.0274 458.85 24.9425 459.331 24.9425C459.818 24.9425 460.244 25.0274 460.611 25.1971C460.979 25.3647 461.268 25.5981 461.478 25.8974C461.688 26.1945 461.797 26.5363 461.803 26.9227H460.607ZM465.23 31.999C464.714 31.999 464.269 31.8917 463.893 31.6773C463.52 31.4606 463.233 31.1546 463.032 30.7592C462.831 30.3616 462.731 29.8936 462.731 29.3553C462.731 28.8259 462.831 28.3613 463.032 27.9614C463.236 27.5594 463.519 27.2466 463.883 27.0232C464.247 26.7976 464.675 26.6848 465.167 26.6848C465.484 26.6848 465.783 26.7362 466.065 26.839C466.348 26.9395 466.599 27.0958 466.815 27.3081C467.034 27.5203 467.206 27.7905 467.331 28.1189C467.456 28.445 467.519 28.8337 467.519 29.2849V29.6569H463.3V28.8393H466.356C466.354 28.607 466.304 28.4004 466.205 28.2194C466.107 28.0363 465.97 27.8922 465.793 27.7872C465.619 27.6822 465.416 27.6297 465.183 27.6297C464.935 27.6297 464.718 27.69 464.53 27.8107C464.342 27.929 464.196 28.0854 464.091 28.2797C463.988 28.4718 463.936 28.6829 463.934 28.913V29.6267C463.934 29.926 463.988 30.1829 464.098 30.3973C464.207 30.6096 464.36 30.7726 464.557 30.8865C464.753 30.9982 464.983 31.0541 465.247 31.0541C465.424 31.0541 465.583 31.0295 465.726 30.9804C465.869 30.929 465.993 30.8542 466.098 30.7559C466.203 30.6576 466.282 30.5358 466.336 30.3906L467.469 30.518C467.397 30.8173 467.261 31.0786 467.06 31.302C466.861 31.5232 466.606 31.6952 466.296 31.818C465.985 31.9386 465.63 31.999 465.23 31.999ZM470.026 32.0023C469.7 32.0023 469.406 31.9442 469.145 31.8281C468.886 31.7097 468.68 31.5355 468.528 31.3054C468.379 31.0753 468.304 30.7916 468.304 30.4543C468.304 30.1639 468.357 29.9238 468.465 29.7339C468.572 29.5441 468.718 29.3922 468.903 29.2782C469.089 29.1643 469.298 29.0783 469.53 29.0202C469.765 28.9599 470.007 28.9164 470.257 28.8896C470.559 28.8583 470.803 28.8304 470.991 28.8058C471.179 28.779 471.315 28.7388 471.4 28.6852C471.487 28.6293 471.53 28.5433 471.53 28.4272V28.4071C471.53 28.1547 471.456 27.9592 471.306 27.8207C471.156 27.6822 470.941 27.613 470.659 27.613C470.362 27.613 470.126 27.6777 469.952 27.8073C469.78 27.9369 469.664 28.0899 469.604 28.2663L468.471 28.1055C468.561 27.7928 468.708 27.5314 468.914 27.3215C469.119 27.1092 469.37 26.9507 469.667 26.8457C469.965 26.7384 470.293 26.6848 470.653 26.6848C470.9 26.6848 471.147 26.7139 471.393 26.772C471.639 26.83 471.863 26.9261 472.066 27.0601C472.27 27.1919 472.433 27.3717 472.556 27.5996C472.681 27.8274 472.743 28.1122 472.743 28.454V31.8984H471.577V31.1915H471.537C471.463 31.3344 471.359 31.4684 471.225 31.5935C471.094 31.7164 470.927 31.8158 470.726 31.8917C470.527 31.9655 470.294 32.0023 470.026 32.0023ZM470.341 31.111C470.584 31.111 470.795 31.063 470.974 30.967C471.153 30.8687 471.29 30.7391 471.386 30.5783C471.485 30.4175 471.534 30.2421 471.534 30.0522V29.4458C471.496 29.477 471.431 29.5061 471.339 29.5329C471.25 29.5597 471.15 29.5831 471.038 29.6032C470.926 29.6233 470.816 29.6412 470.706 29.6569C470.597 29.6725 470.502 29.6859 470.421 29.6971C470.24 29.7216 470.078 29.7618 469.935 29.8177C469.793 29.8735 469.68 29.9517 469.597 30.0522C469.514 30.1505 469.473 30.2778 469.473 30.4342C469.473 30.6576 469.555 30.8262 469.718 30.9402C469.881 31.0541 470.088 31.111 470.341 31.111ZM473.963 31.8984V26.7518H475.139V27.6096H475.193C475.286 27.3125 475.447 27.0836 475.675 26.9227C475.905 26.7597 476.168 26.6781 476.463 26.6781C476.53 26.6781 476.604 26.6815 476.687 26.6882C476.772 26.6927 476.842 26.7005 476.898 26.7116V27.8274C476.847 27.8095 476.765 27.7939 476.654 27.7805C476.544 27.7649 476.438 27.757 476.335 27.757C476.114 27.757 475.915 27.8051 475.739 27.9011C475.565 27.9949 475.427 28.1256 475.327 28.2931C475.226 28.4607 475.176 28.6539 475.176 28.8728V31.8984H473.963ZM479.737 31.999C479.223 31.999 478.782 31.8862 478.413 31.6605C478.047 31.4349 477.765 31.1233 477.566 30.7257C477.369 30.3259 477.271 29.8657 477.271 29.3452C477.271 28.8225 477.371 28.3613 477.572 27.9614C477.773 27.5594 478.057 27.2466 478.423 27.0232C478.792 26.7976 479.228 26.6848 479.73 26.6848C480.148 26.6848 480.518 26.7619 480.839 26.916C481.163 27.0679 481.421 27.2835 481.613 27.5627C481.805 27.8397 481.915 28.1636 481.942 28.5344H480.782C480.735 28.2864 480.624 28.0798 480.447 27.9145C480.273 27.747 480.04 27.6632 479.747 27.6632C479.499 27.6632 479.281 27.7302 479.094 27.8643C478.906 27.9961 478.76 28.1859 478.655 28.4339C478.552 28.6818 478.501 28.9789 478.501 29.3251C478.501 29.6758 478.552 29.9774 478.655 30.2298C478.757 30.48 478.902 30.6732 479.087 30.8095C479.275 30.9435 479.495 31.0105 479.747 31.0105C479.926 31.0105 480.085 30.977 480.226 30.91C480.369 30.8408 480.489 30.7413 480.585 30.6118C480.681 30.4822 480.747 30.3248 480.782 30.1393H481.942C481.913 30.5035 481.805 30.8262 481.62 31.1077C481.435 31.3869 481.182 31.6058 480.863 31.7644C480.543 31.9208 480.168 31.999 479.737 31.999ZM484.151 28.8829V31.8984H482.938V25.0363H484.124V27.6264H484.184C484.305 27.336 484.491 27.107 484.744 26.9395C484.998 26.7697 485.322 26.6848 485.715 26.6848C486.073 26.6848 486.384 26.7597 486.65 26.9093C486.916 27.059 487.121 27.2779 487.267 27.5661C487.414 27.8542 487.488 28.206 487.488 28.6215V31.8984H486.275V28.8091C486.275 28.4629 486.186 28.1937 486.007 28.0016C485.83 27.8073 485.582 27.7101 485.263 27.7101C485.049 27.7101 484.856 27.757 484.687 27.8509C484.519 27.9424 484.387 28.0754 484.291 28.2496C484.197 28.4238 484.151 28.6349 484.151 28.8829Z" fill="white"/>
</g>
<defs>
<filter id="filter0_d_727_1029" x="433.785" y="14.4862" width="76.8306" height="30.1763" filterUnits="userSpaceOnUse" color-interpolation-filters="sRGB">
<feFlood flood-opacity="0" result="BackgroundImageFix"/>
<feColorMatrix in="SourceAlpha" type="matrix" values="0 0 0 0 0 0 0 0 0 0 0 0 0 0 0 0 0 0 127 0" result="hardAlpha"/>
<feOffset dy="0.673958"/>
<feGaussianBlur stdDeviation="0.673958"/>
<feColorMatrix type="matrix" values="0 0 0 0 0.0392157 0 0 0 0 0.0496732 0 0 0 0 0.0705882 0 0 0 0.05 0"/>
<feBlend mode="normal" in2="BackgroundImageFix" result="effect1_dropShadow_727_1029"/>
<feBlend mode="normal" in="SourceGraphic" in2="effect1_dropShadow_727_1029" result="shape"/>
</filter>
</defs>
</svg>
