<svg width="1294" height="68" viewBox="0 0 1294 68" fill="none" xmlns="http://www.w3.org/2000/svg">
<rect width="1294" height="67.3958" fill="white"/>
<path d="M81.5585 41.2188V25.5339H84.8747V38.4846H91.599V41.2188H81.5585ZM99.0489 41.4485C97.8593 41.4485 96.8305 41.1958 95.9625 40.6903C95.0996 40.1797 94.4333 39.47 93.9636 38.5612C93.4939 37.6473 93.259 36.5878 93.259 35.3829C93.259 34.1677 93.4939 33.1057 93.9636 32.1969C94.4333 31.283 95.0996 30.5733 95.9625 30.0678C96.8305 29.5572 97.8593 29.3019 99.0489 29.3019C100.239 29.3019 101.265 29.5572 102.128 30.0678C102.996 30.5733 103.665 31.283 104.134 32.1969C104.604 33.1057 104.839 34.1677 104.839 35.3829C104.839 36.5878 104.604 37.6473 104.134 38.5612C103.665 39.47 102.996 40.1797 102.128 40.6903C101.265 41.1958 100.239 41.4485 99.0489 41.4485ZM99.0642 38.9212C99.6054 38.9212 100.057 38.768 100.42 38.4616C100.782 38.1502 101.055 37.7264 101.239 37.1903C101.428 36.6542 101.523 36.0441 101.523 35.3599C101.523 34.6757 101.428 34.0656 101.239 33.5295C101.055 32.9934 100.782 32.5696 100.42 32.2582C100.057 31.9467 99.6054 31.791 99.0642 31.791C98.5179 31.791 98.0584 31.9467 97.6857 32.2582C97.3181 32.5696 97.0398 32.9934 96.8509 33.5295C96.6671 34.0656 96.5752 34.6757 96.5752 35.3599C96.5752 36.0441 96.6671 36.6542 96.8509 37.1903C97.0398 37.7264 97.3181 38.1502 97.6857 38.4616C98.0584 38.768 98.5179 38.9212 99.0642 38.9212ZM112.26 45.8752C111.203 45.8752 110.297 45.7297 109.541 45.4386C108.791 45.1527 108.193 44.7621 107.749 44.2669C107.305 43.7716 107.016 43.2151 106.884 42.5973L109.901 42.1914C109.993 42.4263 110.139 42.6458 110.338 42.85C110.537 43.0543 110.8 43.2176 111.127 43.3402C111.458 43.4678 111.862 43.5317 112.337 43.5317C113.046 43.5317 113.631 43.3581 114.09 43.0109C114.555 42.6688 114.787 42.0944 114.787 41.2877V39.1356H114.65C114.507 39.4624 114.292 39.7713 114.006 40.0623C113.72 40.3533 113.353 40.5907 112.903 40.7746C112.454 40.9584 111.918 41.0503 111.295 41.0503C110.412 41.0503 109.608 40.846 108.883 40.4376C108.163 40.024 107.588 39.3934 107.159 38.5459C106.736 37.6932 106.524 36.6159 106.524 35.314C106.524 33.9814 106.741 32.8683 107.175 31.9748C107.609 31.0813 108.186 30.4124 108.906 29.9682C109.631 29.524 110.425 29.3019 111.287 29.3019C111.946 29.3019 112.497 29.4143 112.942 29.6389C113.386 29.8585 113.743 30.1342 114.014 30.4661C114.29 30.7928 114.501 31.1145 114.65 31.431H114.772V29.4551H118.012V41.3336C118.012 42.3344 117.767 43.1717 117.276 43.8457C116.786 44.5196 116.107 45.0251 115.239 45.3621C114.376 45.7041 113.383 45.8752 112.26 45.8752ZM112.329 38.5995C112.855 38.5995 113.299 38.4693 113.662 38.2089C114.029 37.9434 114.31 37.5656 114.504 37.0754C114.703 36.5802 114.803 35.9879 114.803 35.2986C114.803 34.6094 114.706 34.012 114.512 33.5065C114.318 32.9959 114.037 32.6003 113.669 32.3194C113.302 32.0386 112.855 31.8982 112.329 31.8982C111.793 31.8982 111.341 32.0437 110.973 32.3348C110.606 32.6207 110.328 33.0189 110.139 33.5295C109.95 34.0401 109.855 34.6298 109.855 35.2986C109.855 35.9777 109.95 36.5649 110.139 37.0601C110.333 37.5503 110.611 37.9307 110.973 38.2013C111.341 38.4668 111.793 38.5995 112.329 38.5995ZM125.923 41.4485C124.733 41.4485 123.705 41.1958 122.837 40.6903C121.974 40.1797 121.307 39.47 120.838 38.5612C120.368 37.6473 120.133 36.5878 120.133 35.3829C120.133 34.1677 120.368 33.1057 120.838 32.1969C121.307 31.283 121.974 30.5733 122.837 30.0678C123.705 29.5572 124.733 29.3019 125.923 29.3019C127.113 29.3019 128.139 29.5572 129.002 30.0678C129.87 30.5733 130.539 31.283 131.008 32.1969C131.478 33.1057 131.713 34.1677 131.713 35.3829C131.713 36.5878 131.478 37.6473 131.008 38.5612C130.539 39.47 129.87 40.1797 129.002 40.6903C128.139 41.1958 127.113 41.4485 125.923 41.4485ZM125.938 38.9212C126.48 38.9212 126.931 38.768 127.294 38.4616C127.656 38.1502 127.93 37.7264 128.113 37.1903C128.302 36.6542 128.397 36.0441 128.397 35.3599C128.397 34.6757 128.302 34.0656 128.113 33.5295C127.93 32.9934 127.656 32.5696 127.294 32.2582C126.931 31.9467 126.48 31.791 125.938 31.791C125.392 31.791 124.932 31.9467 124.56 32.2582C124.192 32.5696 123.914 32.9934 123.725 33.5295C123.541 34.0656 123.449 34.6757 123.449 35.3599C123.449 36.0441 123.541 36.6542 123.725 37.1903C123.914 37.7264 124.192 38.1502 124.56 38.4616C124.932 38.768 125.392 38.9212 125.938 38.9212Z" fill="black"/>
<path d="M190.451 38.4375V29.6148H191.52V33.5436H196.224V29.6148H197.292V38.4375H196.224V34.4914H191.52V38.4375H190.451ZM201.981 38.5754C201.384 38.5754 200.86 38.4332 200.409 38.1489C199.961 37.8645 199.611 37.4668 199.358 36.9556C199.108 36.4443 198.983 35.847 198.983 35.1634C198.983 34.4742 199.108 33.8725 199.358 33.3584C199.611 32.8443 199.961 32.4451 200.409 32.1608C200.86 31.8765 201.384 31.7343 201.981 31.7343C202.579 31.7343 203.102 31.8765 203.55 32.1608C204 32.4451 204.351 32.8443 204.601 33.3584C204.853 33.8725 204.98 34.4742 204.98 35.1634C204.98 35.847 204.853 36.4443 204.601 36.9556C204.351 37.4668 204 37.8645 203.55 38.1489C203.102 38.4332 202.579 38.5754 201.981 38.5754ZM201.981 37.6621C202.435 37.6621 202.809 37.5457 203.102 37.3131C203.394 37.0805 203.611 36.7746 203.752 36.3955C203.893 36.0164 203.963 35.6057 203.963 35.1634C203.963 34.7212 203.893 34.309 203.752 33.9271C203.611 33.5451 203.394 33.2363 203.102 33.0008C202.809 32.7653 202.435 32.6476 201.981 32.6476C201.528 32.6476 201.154 32.7653 200.861 33.0008C200.568 33.2363 200.352 33.5451 200.211 33.9271C200.07 34.309 200 34.7212 200 35.1634C200 35.6057 200.07 36.0164 200.211 36.3955C200.352 36.7746 200.568 37.0805 200.861 37.3131C201.154 37.5457 201.528 37.6621 201.981 37.6621ZM206.532 38.4375V31.8205H207.514V32.8544H207.6C207.738 32.5011 207.961 32.2268 208.268 32.0315C208.575 31.8334 208.944 31.7343 209.375 31.7343C209.812 31.7343 210.175 31.8334 210.465 32.0315C210.758 32.2268 210.986 32.5011 211.15 32.8544H211.219C211.388 32.5126 211.642 32.2412 211.981 32.0402C212.32 31.8363 212.727 31.7343 213.201 31.7343C213.792 31.7343 214.276 31.9195 214.652 32.29C215.029 32.6576 215.217 33.2306 215.217 34.0089V38.4375H214.2V34.0089C214.2 33.5207 214.066 33.1717 213.799 32.9621C213.532 32.7524 213.218 32.6476 212.856 32.6476C212.391 32.6476 212.03 32.7883 211.775 33.0698C211.519 33.3483 211.391 33.7016 211.391 34.1295V38.4375H210.357V33.9055C210.357 33.5293 210.235 33.2263 209.991 32.9965C209.747 32.7639 209.432 32.6476 209.048 32.6476C208.783 32.6476 208.536 32.7179 208.307 32.8587C208.08 32.9994 207.896 33.1947 207.755 33.4446C207.617 33.6916 207.548 33.9773 207.548 34.3018V38.4375H206.532ZM219.85 38.5754C219.212 38.5754 218.662 38.4346 218.2 38.1532C217.74 37.8688 217.386 37.4725 217.136 36.9642C216.889 36.453 216.765 35.8585 216.765 35.1807C216.765 34.5029 216.889 33.9055 217.136 33.3886C217.386 32.8687 217.733 32.4638 218.178 32.1737C218.626 31.8808 219.149 31.7343 219.746 31.7343C220.091 31.7343 220.431 31.7917 220.767 31.9066C221.103 32.0215 221.409 32.2082 221.685 32.4667C221.961 32.7223 222.18 33.0612 222.344 33.4833C222.508 33.9055 222.59 34.4253 222.59 35.0428V35.4736H217.489V34.5948H221.556C221.556 34.2214 221.481 33.8883 221.332 33.5953C221.185 33.3024 220.976 33.0712 220.703 32.9018C220.433 32.7323 220.114 32.6476 219.746 32.6476C219.342 32.6476 218.991 32.7481 218.695 32.9491C218.402 33.1473 218.177 33.4058 218.019 33.7246C217.861 34.0434 217.782 34.3851 217.782 34.7499V35.3358C217.782 35.8355 217.868 36.2591 218.041 36.6066C218.216 36.9512 218.458 37.214 218.769 37.395C219.079 37.573 219.439 37.6621 219.85 37.6621C220.117 37.6621 220.358 37.6247 220.574 37.5501C220.792 37.4725 220.98 37.3576 221.138 37.2054C221.296 37.0503 221.418 36.8579 221.504 36.6282L222.486 36.9039C222.383 37.237 222.209 37.53 221.965 37.7827C221.721 38.0326 221.419 38.2278 221.06 38.3686C220.701 38.5064 220.298 38.5754 219.85 38.5754Z" fill="black"/>
<path d="M255.461 29.6148H256.53V35.9216C256.53 36.4846 256.426 36.9627 256.22 37.3562C256.013 37.7497 255.721 38.0483 255.345 38.2523C254.969 38.4562 254.525 38.5581 254.014 38.5581C253.531 38.5581 253.102 38.4705 252.726 38.2953C252.35 38.1173 252.054 37.8645 251.838 37.5371C251.623 37.2097 251.515 36.8206 251.515 36.3697H252.566C252.566 36.6195 252.628 36.8378 252.752 37.0245C252.878 37.2083 253.05 37.3519 253.269 37.4553C253.487 37.5587 253.735 37.6104 254.014 37.6104C254.321 37.6104 254.583 37.5457 254.798 37.4165C255.013 37.2873 255.177 37.0977 255.289 36.8479C255.404 36.5951 255.461 36.2864 255.461 35.9216V29.6148ZM261.221 38.5754C260.624 38.5754 260.1 38.4332 259.649 38.1489C259.201 37.8645 258.85 37.4668 258.598 36.9556C258.348 36.4443 258.223 35.847 258.223 35.1634C258.223 34.4742 258.348 33.8725 258.598 33.3584C258.85 32.8443 259.201 32.4451 259.649 32.1608C260.1 31.8765 260.624 31.7343 261.221 31.7343C261.819 31.7343 262.341 31.8765 262.789 32.1608C263.24 32.4451 263.591 32.8443 263.84 33.3584C264.093 33.8725 264.22 34.4742 264.22 35.1634C264.22 35.847 264.093 36.4443 263.84 36.9556C263.591 37.4668 263.24 37.8645 262.789 38.1489C262.341 38.4332 261.819 38.5754 261.221 38.5754ZM261.221 37.6621C261.675 37.6621 262.048 37.5457 262.341 37.3131C262.634 37.0805 262.851 36.7746 262.992 36.3955C263.133 36.0164 263.203 35.6057 263.203 35.1634C263.203 34.7212 263.133 34.309 262.992 33.9271C262.851 33.5451 262.634 33.2363 262.341 33.0008C262.048 32.7653 261.675 32.6476 261.221 32.6476C260.767 32.6476 260.394 32.7653 260.101 33.0008C259.808 33.2363 259.591 33.5451 259.451 33.9271C259.31 34.309 259.24 34.7212 259.24 35.1634C259.24 35.6057 259.31 36.0164 259.451 36.3955C259.591 36.7746 259.808 37.0805 260.101 37.3131C260.394 37.5457 260.767 37.6621 261.221 37.6621ZM265.909 38.4375V29.6148H266.926V32.8716H267.012C267.087 32.7567 267.19 32.6102 267.322 32.4322C267.457 32.2513 267.65 32.0904 267.9 31.9497C268.152 31.8061 268.494 31.7343 268.925 31.7343C269.482 31.7343 269.973 31.8736 270.398 32.1522C270.823 32.4308 271.155 32.8256 271.393 33.3369C271.632 33.8481 271.751 34.4512 271.751 35.1462C271.751 35.847 271.632 36.4544 271.393 36.9685C271.155 37.4797 270.825 37.876 270.403 38.1575C269.98 38.4361 269.494 38.5754 268.942 38.5754C268.517 38.5754 268.177 38.505 267.921 38.3643C267.666 38.2207 267.469 38.0584 267.331 37.8775C267.193 37.6937 267.087 37.5414 267.012 37.4208H266.892V38.4375H265.909ZM266.909 35.129C266.909 35.6287 266.982 36.0696 267.129 36.4515C267.275 36.8306 267.489 37.1279 267.77 37.3433C268.052 37.5558 268.396 37.6621 268.804 37.6621C269.229 37.6621 269.584 37.5501 269.868 37.326C270.156 37.0992 270.371 36.7947 270.515 36.4128C270.661 36.0279 270.734 35.6 270.734 35.129C270.734 34.6637 270.662 34.2444 270.519 33.871C270.378 33.4948 270.164 33.1976 269.877 32.9793C269.593 32.7582 269.235 32.6476 268.804 32.6476C268.391 32.6476 268.043 32.7524 267.762 32.9621C267.48 33.1689 267.268 33.4589 267.124 33.8323C266.981 34.2028 266.909 34.635 266.909 35.129Z" fill="black"/>
<path d="M302.783 29.1148V37.9375H301.715V29.1148H302.783ZM304.654 37.9375V31.3205H305.636V32.3544H305.722C305.86 32.0011 306.083 31.7268 306.39 31.5315C306.697 31.3334 307.067 31.2343 307.497 31.2343C307.934 31.2343 308.297 31.3334 308.587 31.5315C308.88 31.7268 309.109 32.0011 309.272 32.3544H309.341C309.511 32.0126 309.765 31.7412 310.104 31.5402C310.443 31.3363 310.849 31.2343 311.323 31.2343C311.914 31.2343 312.398 31.4195 312.775 31.79C313.151 32.1576 313.339 32.7306 313.339 33.5089V37.9375H312.322V33.5089C312.322 33.0207 312.189 32.6717 311.922 32.4621C311.655 32.2524 311.34 32.1476 310.978 32.1476C310.513 32.1476 310.152 32.2883 309.897 32.5698C309.641 32.8483 309.513 33.2016 309.513 33.6295V37.9375H308.48V33.4055C308.48 33.0293 308.357 32.7263 308.113 32.4965C307.869 32.2639 307.555 32.1476 307.17 32.1476C306.906 32.1476 306.659 32.2179 306.429 32.3587C306.202 32.4994 306.018 32.6947 305.878 32.9446C305.74 33.1916 305.671 33.4773 305.671 33.8018V37.9375H304.654ZM315.064 40.4189V31.3205H316.047V32.3716H316.167C316.242 32.2567 316.345 32.1102 316.477 31.9322C316.612 31.7513 316.805 31.5904 317.055 31.4497C317.307 31.3061 317.649 31.2343 318.08 31.2343C318.637 31.2343 319.128 31.3736 319.553 31.6522C319.978 31.9308 320.31 32.3256 320.548 32.8369C320.787 33.3481 320.906 33.9512 320.906 34.6462C320.906 35.347 320.787 35.9544 320.548 36.4685C320.31 36.9797 319.98 37.376 319.558 37.6575C319.135 37.9361 318.649 38.0754 318.097 38.0754C317.672 38.0754 317.332 38.005 317.076 37.8643C316.821 37.7207 316.624 37.5584 316.486 37.3775C316.348 37.1937 316.242 37.0414 316.167 36.9208H316.081V40.4189H315.064ZM316.064 34.629C316.064 35.1287 316.137 35.5696 316.284 35.9515C316.43 36.3306 316.644 36.6279 316.925 36.8433C317.207 37.0558 317.552 37.1621 317.959 37.1621C318.384 37.1621 318.739 37.0501 319.023 36.826C319.311 36.5992 319.526 36.2947 319.67 35.9128C319.816 35.5279 319.889 35.1 319.889 34.629C319.889 34.1637 319.818 33.7444 319.674 33.371C319.533 32.9948 319.319 32.6976 319.032 32.4793C318.748 32.2582 318.39 32.1476 317.959 32.1476C317.546 32.1476 317.198 32.2524 316.917 32.4621C316.635 32.6689 316.423 32.9589 316.279 33.3323C316.136 33.7028 316.064 34.135 316.064 34.629ZM325.012 38.0754C324.414 38.0754 323.89 37.9332 323.439 37.6489C322.991 37.3645 322.641 36.9668 322.388 36.4556C322.138 35.9443 322.013 35.347 322.013 34.6634C322.013 33.9742 322.138 33.3725 322.388 32.8584C322.641 32.3443 322.991 31.9451 323.439 31.6608C323.89 31.3765 324.414 31.2343 325.012 31.2343C325.609 31.2343 326.132 31.3765 326.58 31.6608C327.031 31.9451 327.381 32.3443 327.631 32.8584C327.884 33.3725 328.01 33.9742 328.01 34.6634C328.01 35.347 327.884 35.9443 327.631 36.4556C327.381 36.9668 327.031 37.3645 326.58 37.6489C326.132 37.9332 325.609 38.0754 325.012 38.0754ZM325.012 37.1621C325.465 37.1621 325.839 37.0457 326.132 36.8131C326.425 36.5805 326.641 36.2746 326.782 35.8955C326.923 35.5164 326.993 35.1057 326.993 34.6634C326.993 34.2212 326.923 33.809 326.782 33.4271C326.641 33.0451 326.425 32.7363 326.132 32.5008C325.839 32.2653 325.465 32.1476 325.012 32.1476C324.558 32.1476 324.184 32.2653 323.892 32.5008C323.599 32.7363 323.382 33.0451 323.241 33.4271C323.1 33.809 323.03 34.2212 323.03 34.6634C323.03 35.1057 323.1 35.5164 323.241 35.8955C323.382 36.2746 323.599 36.5805 323.892 36.8131C324.184 37.0457 324.558 37.1621 325.012 37.1621ZM329.428 37.9375V31.3205H330.411V32.3199H330.48C330.6 31.9925 330.818 31.7268 331.134 31.5229C331.45 31.319 331.806 31.2171 332.203 31.2171C332.277 31.2171 332.371 31.2185 332.483 31.2214C332.595 31.2242 332.68 31.2286 332.737 31.2343V32.2682C332.703 32.2596 332.624 32.2467 332.5 32.2294C332.379 32.2093 332.252 32.1993 332.117 32.1993C331.795 32.1993 331.508 32.2668 331.255 32.4018C331.005 32.5339 330.807 32.7177 330.661 32.9532C330.517 33.1858 330.445 33.4515 330.445 33.7502V37.9375H329.428ZM337.101 31.3205V32.182H333.672V31.3205H337.101ZM334.671 29.7351H335.688V36.042C335.688 36.3292 335.73 36.5446 335.813 36.6882C335.899 36.8289 336.008 36.9237 336.14 36.9725C336.275 37.0185 336.418 37.0414 336.567 37.0414C336.679 37.0414 336.771 37.0357 336.843 37.0242C336.914 37.0098 336.972 36.9984 337.015 36.9897L337.222 37.903C337.153 37.9289 337.057 37.9547 336.933 37.9806C336.81 38.0093 336.653 38.0237 336.463 38.0237C336.176 38.0237 335.895 37.9619 335.619 37.8384C335.346 37.7149 335.119 37.5268 334.938 37.2741C334.76 37.0213 334.671 36.7025 334.671 36.3177V29.7351ZM340.444 38.0926C340.025 38.0926 339.644 38.0136 339.303 37.8556C338.961 37.6948 338.689 37.4636 338.488 37.1621C338.287 36.8576 338.187 36.49 338.187 36.0592C338.187 35.6801 338.261 35.3728 338.411 35.1373C338.56 34.8989 338.76 34.7123 339.01 34.5773C339.259 34.4423 339.535 34.3418 339.837 34.2757C340.141 34.2068 340.447 34.1522 340.754 34.112C341.156 34.0603 341.482 34.0216 341.732 33.9957C341.985 33.967 342.169 33.9196 342.284 33.8535C342.401 33.7875 342.46 33.6726 342.46 33.5089V33.4744C342.46 33.0494 342.344 32.7191 342.111 32.4836C341.882 32.2481 341.533 32.1304 341.064 32.1304C340.579 32.1304 340.199 32.2366 339.923 32.4491C339.647 32.6617 339.453 32.8886 339.341 33.1298L338.376 32.7852C338.549 32.3831 338.778 32.07 339.066 31.846C339.356 31.6191 339.672 31.4612 340.013 31.3722C340.358 31.2802 340.697 31.2343 341.03 31.2343C341.243 31.2343 341.487 31.2601 341.762 31.3118C342.041 31.3607 342.31 31.4626 342.568 31.6177C342.829 31.7728 343.046 32.0069 343.218 32.3199C343.391 32.633 343.477 33.0523 343.477 33.5778V37.9375H342.46V37.0414H342.409C342.34 37.185 342.225 37.3387 342.064 37.5024C341.903 37.6661 341.689 37.8054 341.422 37.9203C341.155 38.0351 340.829 38.0926 340.444 38.0926ZM340.599 37.1793C341.001 37.1793 341.34 37.1003 341.616 36.9424C341.895 36.7844 342.104 36.5805 342.245 36.3306C342.388 36.0808 342.46 35.818 342.46 35.5423V34.6117C342.417 34.6634 342.322 34.7108 342.176 34.7539C342.032 34.7941 341.866 34.83 341.676 34.8616C341.49 34.8903 341.307 34.9162 341.129 34.9392C340.954 34.9593 340.812 34.9765 340.703 34.9908C340.438 35.0253 340.191 35.0813 339.962 35.1589C339.735 35.2335 339.551 35.347 339.41 35.4992C339.272 35.6485 339.203 35.8524 339.203 36.1109C339.203 36.4642 339.334 36.7313 339.595 36.9122C339.86 37.0903 340.194 37.1793 340.599 37.1793ZM346.216 33.9569V37.9375H345.199V31.3205H346.181V32.3544H346.268C346.423 32.0183 346.658 31.7484 346.974 31.5445C347.29 31.3377 347.698 31.2343 348.198 31.2343C348.646 31.2343 349.038 31.3262 349.374 31.51C349.71 31.6909 349.971 31.9667 350.158 32.3371C350.344 32.7047 350.438 33.17 350.438 33.7329V37.9375H349.421V33.8018C349.421 33.282 349.286 32.8771 349.016 32.587C348.746 32.2941 348.376 32.1476 347.905 32.1476C347.58 32.1476 347.29 32.2179 347.034 32.3587C346.782 32.4994 346.582 32.7047 346.436 32.9747C346.289 33.2447 346.216 33.5721 346.216 33.9569ZM355.04 31.3205V32.182H351.611V31.3205H355.04ZM352.61 29.7351H353.627V36.042C353.627 36.3292 353.668 36.5446 353.752 36.6882C353.838 36.8289 353.947 36.9237 354.079 36.9725C354.214 37.0185 354.356 37.0414 354.506 37.0414C354.618 37.0414 354.709 37.0357 354.781 37.0242C354.853 37.0098 354.911 36.9984 354.954 36.9897L355.16 37.903C355.091 37.9289 354.995 37.9547 354.872 37.9806C354.748 38.0093 354.592 38.0237 354.402 38.0237C354.115 38.0237 353.834 37.9619 353.558 37.8384C353.285 37.7149 353.058 37.5268 352.877 37.2741C352.699 37.0213 352.61 36.7025 352.61 36.3177V29.7351ZM365.883 31.8719C365.788 31.5818 365.663 31.3219 365.508 31.0921C365.356 30.8595 365.174 30.6613 364.961 30.4976C364.752 30.3339 364.513 30.209 364.246 30.1228C363.979 30.0367 363.686 29.9936 363.367 29.9936C362.845 29.9936 362.369 30.1286 361.941 30.3985C361.513 30.6685 361.173 31.0663 360.92 31.5919C360.668 32.1174 360.541 32.7622 360.541 33.5261C360.541 34.2901 360.669 34.9348 360.925 35.4604C361.18 35.986 361.526 36.3838 361.963 36.6537C362.399 36.9237 362.891 37.0587 363.436 37.0587C363.942 37.0587 364.387 36.951 364.772 36.7356C365.159 36.5173 365.461 36.21 365.676 35.8137C365.895 35.4145 366.004 34.9449 366.004 34.405L366.331 34.4739H363.677V33.5261H367.038V34.4739C367.038 35.2005 366.883 35.8323 366.572 36.3694C366.265 36.9065 365.84 37.3229 365.297 37.6187C364.757 37.9117 364.137 38.0581 363.436 38.0581C362.655 38.0581 361.969 37.8743 361.377 37.5067C360.788 37.1391 360.329 36.6164 359.998 35.9386C359.671 35.2608 359.507 34.4567 359.507 33.5261C359.507 32.8282 359.601 32.2007 359.787 31.6436C359.977 31.0835 360.244 30.6068 360.589 30.2133C360.933 29.8198 361.341 29.5183 361.812 29.3086C362.283 29.099 362.802 28.9941 363.367 28.9941C363.833 28.9941 364.266 29.0645 364.668 29.2052C365.073 29.3431 365.434 29.5398 365.75 29.7954C366.068 30.0482 366.334 30.3512 366.547 30.7044C366.759 31.0548 366.906 31.444 366.986 31.8719H365.883ZM376.178 33.5261C376.178 34.4567 376.01 35.2608 375.674 35.9386C375.338 36.6164 374.877 37.1391 374.291 37.5067C373.705 37.8743 373.036 38.0581 372.284 38.0581C371.531 38.0581 370.862 37.8743 370.276 37.5067C369.69 37.1391 369.229 36.6164 368.893 35.9386C368.557 35.2608 368.389 34.4567 368.389 33.5261C368.389 32.5956 368.557 31.7915 368.893 31.1137C369.229 30.4359 369.69 29.9132 370.276 29.5456C370.862 29.178 371.531 28.9941 372.284 28.9941C373.036 28.9941 373.705 29.178 374.291 29.5456C374.877 29.9132 375.338 30.4359 375.674 31.1137C376.01 31.7915 376.178 32.5956 376.178 33.5261ZM375.144 33.5261C375.144 32.7622 375.017 32.1174 374.761 31.5919C374.508 31.0663 374.165 30.6685 373.731 30.3985C373.3 30.1286 372.818 29.9936 372.284 29.9936C371.75 29.9936 371.266 30.1286 370.832 30.3985C370.401 30.6685 370.058 31.0663 369.802 31.5919C369.55 32.1174 369.423 32.7622 369.423 33.5261C369.423 34.2901 369.55 34.9348 369.802 35.4604C370.058 35.986 370.401 36.3838 370.832 36.6537C371.266 36.9237 371.75 37.0587 372.284 37.0587C372.818 37.0587 373.3 36.9237 373.731 36.6537C374.165 36.3838 374.508 35.986 374.761 35.4604C375.017 34.9348 375.144 34.2901 375.144 33.5261ZM382.39 32.8024L381.477 33.0609C381.42 32.9087 381.335 32.7608 381.223 32.6172C381.114 32.4707 380.964 32.3501 380.775 32.2553C380.585 32.1605 380.343 32.1131 380.047 32.1131C379.642 32.1131 379.304 32.2065 379.035 32.3931C378.767 32.5769 378.634 32.811 378.634 33.0953C378.634 33.3481 378.726 33.5477 378.91 33.6941C379.093 33.8406 379.381 33.9627 379.771 34.0603L380.753 34.3016C381.345 34.4452 381.786 34.6649 382.076 34.9607C382.366 35.2536 382.511 35.6313 382.511 36.0937C382.511 36.4728 382.402 36.8117 382.184 37.1104C381.968 37.4091 381.667 37.6446 381.279 37.8169C380.891 37.9892 380.44 38.0754 379.926 38.0754C379.251 38.0754 378.693 37.9289 378.25 37.6359C377.808 37.343 377.528 36.9151 377.41 36.3522L378.375 36.1109C378.467 36.467 378.641 36.7341 378.897 36.9122C379.155 37.0903 379.493 37.1793 379.909 37.1793C380.383 37.1793 380.759 37.0788 381.038 36.8777C381.319 36.6738 381.46 36.4297 381.46 36.1454C381.46 35.9156 381.379 35.7232 381.219 35.5681C381.058 35.4102 380.811 35.2924 380.478 35.2149L379.375 34.9564C378.769 34.8128 378.324 34.5902 378.039 34.2886C377.758 33.9842 377.617 33.6037 377.617 33.147C377.617 32.7737 377.722 32.4434 377.932 32.1562C378.144 31.869 378.433 31.6436 378.798 31.4798C379.165 31.3161 379.582 31.2343 380.047 31.2343C380.702 31.2343 381.216 31.3779 381.589 31.6651C381.965 31.9523 382.232 32.3314 382.39 32.8024ZM390.305 28.7012L387.462 39.2644H386.532L389.375 28.7012H390.305ZM395.155 37.9375H394.035L397.275 29.1148H398.378L401.617 37.9375H400.497L397.861 30.5106H397.792L395.155 37.9375ZM395.569 34.4911H400.084V35.4389H395.569V34.4911ZM405.408 38.0754C404.788 38.0754 404.254 37.9289 403.806 37.6359C403.358 37.343 403.013 36.9395 402.772 36.4254C402.531 35.9113 402.41 35.324 402.41 34.6634C402.41 33.9914 402.534 33.3983 402.781 32.8842C403.03 32.3673 403.378 31.9638 403.823 31.6737C404.271 31.3808 404.794 31.2343 405.391 31.2343C405.856 31.2343 406.276 31.3205 406.649 31.4928C407.022 31.6651 407.328 31.9063 407.567 32.2165C407.805 32.5267 407.953 32.8886 408.01 33.3021H406.994C406.916 33.0006 406.744 32.7335 406.477 32.5008C406.213 32.2653 405.856 32.1476 405.408 32.1476C405.012 32.1476 404.665 32.251 404.366 32.4578C404.07 32.6617 403.839 32.9503 403.672 33.3237C403.509 33.6941 403.427 34.1293 403.427 34.629C403.427 35.1402 403.507 35.5853 403.668 35.9644C403.832 36.3436 404.061 36.6379 404.357 36.8476C404.656 37.0572 405.006 37.1621 405.408 37.1621C405.673 37.1621 405.912 37.1161 406.128 37.0242C406.343 36.9323 406.526 36.8002 406.675 36.6279C406.824 36.4556 406.931 36.2488 406.994 36.0075H408.01C407.953 36.3981 407.811 36.7499 407.584 37.063C407.36 37.3732 407.063 37.6201 406.692 37.804C406.325 37.9849 405.897 38.0754 405.408 38.0754ZM412.241 31.3205V32.182H408.812V31.3205H412.241ZM409.811 29.7351H410.828V36.042C410.828 36.3292 410.87 36.5446 410.953 36.6882C411.039 36.8289 411.148 36.9237 411.28 36.9725C411.415 37.0185 411.557 37.0414 411.707 37.0414C411.819 37.0414 411.911 37.0357 411.983 37.0242C412.054 37.0098 412.112 36.9984 412.155 36.9897L412.362 37.903C412.293 37.9289 412.196 37.9547 412.073 37.9806C411.949 38.0093 411.793 38.0237 411.603 38.0237C411.316 38.0237 411.035 37.9619 410.759 37.8384C410.486 37.7149 410.259 37.5268 410.078 37.2741C409.9 37.0213 409.811 36.7025 409.811 36.3177V29.7351ZM418.205 32.8024L417.292 33.0609C417.235 32.9087 417.15 32.7608 417.038 32.6172C416.929 32.4707 416.78 32.3501 416.59 32.2553C416.4 32.1605 416.158 32.1131 415.862 32.1131C415.457 32.1131 415.12 32.2065 414.85 32.3931C414.582 32.5769 414.449 32.811 414.449 33.0953C414.449 33.3481 414.541 33.5477 414.725 33.6941C414.908 33.8406 415.196 33.9627 415.586 34.0603L416.568 34.3016C417.16 34.4452 417.601 34.6649 417.891 34.9607C418.181 35.2536 418.326 35.6313 418.326 36.0937C418.326 36.4728 418.217 36.8117 417.999 37.1104C417.783 37.4091 417.482 37.6446 417.094 37.8169C416.706 37.9892 416.255 38.0754 415.741 38.0754C415.066 38.0754 414.508 37.9289 414.066 37.6359C413.623 37.343 413.343 36.9151 413.225 36.3522L414.19 36.1109C414.282 36.467 414.456 36.7341 414.712 36.9122C414.97 37.0903 415.308 37.1793 415.724 37.1793C416.198 37.1793 416.574 37.0788 416.853 36.8777C417.134 36.6738 417.275 36.4297 417.275 36.1454C417.275 35.9156 417.195 35.7232 417.034 35.5681C416.873 35.4102 416.626 35.2924 416.293 35.2149L415.19 34.9564C414.584 34.8128 414.139 34.5902 413.854 34.2886C413.573 33.9842 413.432 33.6037 413.432 33.147C413.432 32.7737 413.537 32.4434 413.747 32.1562C413.959 31.869 414.248 31.6436 414.613 31.4798C414.98 31.3161 415.397 31.2343 415.862 31.2343C416.517 31.2343 417.031 31.3779 417.404 31.6651C417.78 31.9523 418.048 32.3314 418.205 32.8024ZM425.5 38.0581C424.92 38.0581 424.42 37.9519 424.001 37.7393C423.582 37.5268 423.259 37.2353 423.032 36.8648C422.805 36.4943 422.691 36.0707 422.691 35.594C422.691 35.2263 422.769 34.9004 422.924 34.6161C423.082 34.3289 423.299 34.0632 423.574 33.8191C423.853 33.5721 424.173 33.3251 424.535 33.0781L425.81 32.1304C426.06 31.9667 426.26 31.7915 426.409 31.6048C426.561 31.4181 426.637 31.174 426.637 30.8724C426.637 30.6484 426.538 30.4316 426.34 30.2219C426.145 30.0123 425.888 29.9074 425.569 29.9074C425.345 29.9074 425.147 29.9649 424.975 30.0798C424.805 30.1918 424.672 30.3354 424.574 30.5106C424.479 30.6829 424.432 30.8609 424.432 31.0447C424.432 31.2515 424.488 31.4612 424.6 31.6737C424.715 31.8834 424.86 32.0988 425.035 32.3199C425.213 32.5382 425.397 32.7622 425.586 32.9919L429.636 37.9375H428.412L425.069 33.9052C424.759 33.5319 424.478 33.193 424.225 32.8886C423.972 32.5841 423.771 32.284 423.622 31.9882C423.473 31.6924 423.398 31.3722 423.398 31.0275C423.398 30.6312 423.485 30.2837 423.661 29.985C423.839 29.6834 424.087 29.4494 424.406 29.2828C424.728 29.1133 425.104 29.0286 425.535 29.0286C425.977 29.0286 426.357 29.1148 426.676 29.2871C426.995 29.4565 427.241 29.682 427.413 29.9634C427.585 30.242 427.671 30.545 427.671 30.8724C427.671 31.2946 427.567 31.6608 427.357 31.971C427.147 32.2811 426.861 32.5698 426.5 32.8369L424.742 34.1465C424.346 34.4394 424.077 34.7238 423.936 34.9995C423.796 35.2752 423.725 35.4733 423.725 35.594C423.725 35.8697 423.797 36.1267 423.941 36.3651C424.084 36.6035 424.287 36.7959 424.548 36.9424C424.809 37.0888 425.115 37.1621 425.466 37.1621C425.799 37.1621 426.123 37.0917 426.439 36.951C426.755 36.8074 427.041 36.6006 427.297 36.3306C427.555 36.0607 427.759 35.7361 427.908 35.357C428.061 34.9779 428.137 34.5514 428.137 34.0776H429.119C429.119 34.6634 429.051 35.1416 428.916 35.5121C428.781 35.8826 428.629 36.1727 428.46 36.3823C428.29 36.592 428.154 36.7485 428.05 36.8519C428.016 36.895 427.984 36.9381 427.956 36.9811C427.927 37.0242 427.895 37.0673 427.861 37.1104C427.577 37.4292 427.218 37.6675 426.784 37.8255C426.35 37.9806 425.922 38.0581 425.5 38.0581ZM434.406 37.9375H433.286L436.526 29.1148H437.628L440.868 37.9375H439.748L437.111 30.5106H437.042L434.406 37.9375ZM434.82 34.4911H439.334V35.4389H434.82V34.4911ZM442.109 37.9375V29.1148H443.125V32.3716H443.212C443.286 32.2567 443.39 32.1102 443.522 31.9322C443.657 31.7513 443.849 31.5904 444.099 31.4497C444.352 31.3061 444.694 31.2343 445.124 31.2343C445.682 31.2343 446.173 31.3736 446.598 31.6522C447.023 31.9308 447.354 32.3256 447.593 32.8369C447.831 33.3481 447.95 33.9512 447.95 34.6462C447.95 35.347 447.831 35.9544 447.593 36.4685C447.354 36.9797 447.024 37.376 446.602 37.6575C446.18 37.9361 445.693 38.0754 445.142 38.0754C444.717 38.0754 444.376 38.005 444.121 37.8643C443.865 37.7207 443.668 37.5584 443.53 37.3775C443.393 37.1937 443.286 37.0414 443.212 36.9208H443.091V37.9375H442.109ZM443.108 34.629C443.108 35.1287 443.181 35.5696 443.328 35.9515C443.474 36.3306 443.688 36.6279 443.97 36.8433C444.251 37.0558 444.596 37.1621 445.004 37.1621C445.429 37.1621 445.783 37.0501 446.068 36.826C446.355 36.5992 446.57 36.2947 446.714 35.9128C446.86 35.5279 446.934 35.1 446.934 34.629C446.934 34.1637 446.862 33.7444 446.718 33.371C446.578 32.9948 446.364 32.6976 446.076 32.4793C445.792 32.2582 445.435 32.1476 445.004 32.1476C444.59 32.1476 444.243 32.2524 443.961 32.4621C443.68 32.6689 443.467 32.9589 443.324 33.3323C443.18 33.7028 443.108 34.135 443.108 34.629ZM454.059 32.8024L453.146 33.0609C453.088 32.9087 453.004 32.7608 452.892 32.6172C452.783 32.4707 452.633 32.3501 452.444 32.2553C452.254 32.1605 452.011 32.1131 451.716 32.1131C451.311 32.1131 450.973 32.2065 450.703 32.3931C450.436 32.5769 450.303 32.811 450.303 33.0953C450.303 33.3481 450.395 33.5477 450.578 33.6941C450.762 33.8406 451.049 33.9627 451.44 34.0603L452.422 34.3016C453.014 34.4452 453.455 34.6649 453.745 34.9607C454.035 35.2536 454.18 35.6313 454.18 36.0937C454.18 36.4728 454.071 36.8117 453.852 37.1104C453.637 37.4091 453.335 37.6446 452.948 37.8169C452.56 37.9892 452.109 38.0754 451.595 38.0754C450.92 38.0754 450.362 37.9289 449.919 37.6359C449.477 37.343 449.197 36.9151 449.079 36.3522L450.044 36.1109C450.136 36.467 450.31 36.7341 450.565 36.9122C450.824 37.0903 451.161 37.1793 451.578 37.1793C452.052 37.1793 452.428 37.0788 452.706 36.8777C452.988 36.6738 453.129 36.4297 453.129 36.1454C453.129 35.9156 453.048 35.7232 452.887 35.5681C452.727 35.4102 452.48 35.2924 452.146 35.2149L451.044 34.9564C450.438 34.8128 449.992 34.5902 449.708 34.2886C449.427 33.9842 449.286 33.6037 449.286 33.147C449.286 32.7737 449.391 32.4434 449.6 32.1562C449.813 31.869 450.102 31.6436 450.466 31.4798C450.834 31.3161 451.25 31.2343 451.716 31.2343C452.37 31.2343 452.885 31.3779 453.258 31.6651C453.634 31.9523 453.901 32.3314 454.059 32.8024ZM458.455 31.3205V32.182H455.025V31.3205H458.455ZM456.025 29.7351H457.041V36.042C457.041 36.3292 457.083 36.5446 457.166 36.6882C457.253 36.8289 457.362 36.9237 457.494 36.9725C457.629 37.0185 457.771 37.0414 457.92 37.0414C458.032 37.0414 458.124 37.0357 458.196 37.0242C458.268 37.0098 458.325 36.9984 458.368 36.9897L458.575 37.903C458.506 37.9289 458.41 37.9547 458.286 37.9806C458.163 38.0093 458.006 38.0237 457.817 38.0237C457.53 38.0237 457.248 37.9619 456.973 37.8384C456.7 37.7149 456.473 37.5268 456.292 37.2741C456.114 37.0213 456.025 36.7025 456.025 36.3177V29.7351ZM459.85 37.9375V31.3205H460.833V32.3199H460.902C461.022 31.9925 461.24 31.7268 461.556 31.5229C461.872 31.319 462.228 31.2171 462.625 31.2171C462.699 31.2171 462.793 31.2185 462.905 31.2214C463.017 31.2242 463.101 31.2286 463.159 31.2343V32.2682C463.124 32.2596 463.045 32.2467 462.922 32.2294C462.801 32.2093 462.674 32.1993 462.539 32.1993C462.217 32.1993 461.93 32.2668 461.677 32.4018C461.427 32.5339 461.229 32.7177 461.082 32.9532C460.939 33.1858 460.867 33.4515 460.867 33.7502V37.9375H459.85ZM466.178 38.0926C465.759 38.0926 465.378 38.0136 465.036 37.8556C464.694 37.6948 464.423 37.4636 464.222 37.1621C464.021 36.8576 463.92 36.49 463.92 36.0592C463.92 35.6801 463.995 35.3728 464.144 35.1373C464.294 34.8989 464.493 34.7123 464.743 34.5773C464.993 34.4423 465.269 34.3418 465.57 34.2757C465.875 34.2068 466.181 34.1522 466.488 34.112C466.89 34.0603 467.216 34.0216 467.466 33.9957C467.719 33.967 467.902 33.9196 468.017 33.8535C468.135 33.7875 468.194 33.6726 468.194 33.5089V33.4744C468.194 33.0494 468.078 32.7191 467.845 32.4836C467.615 32.2481 467.266 32.1304 466.798 32.1304C466.313 32.1304 465.932 32.2366 465.657 32.4491C465.381 32.6617 465.187 32.8886 465.075 33.1298L464.11 32.7852C464.282 32.3831 464.512 32.07 464.799 31.846C465.089 31.6191 465.405 31.4612 465.747 31.3722C466.092 31.2802 466.431 31.2343 466.764 31.2343C466.976 31.2343 467.22 31.2601 467.496 31.3118C467.775 31.3607 468.043 31.4626 468.302 31.6177C468.563 31.7728 468.78 32.0069 468.952 32.3199C469.124 32.633 469.211 33.0523 469.211 33.5778V37.9375H468.194V37.0414H468.142C468.073 37.185 467.958 37.3387 467.798 37.5024C467.637 37.6661 467.423 37.8054 467.156 37.9203C466.889 38.0351 466.563 38.0926 466.178 38.0926ZM466.333 37.1793C466.735 37.1793 467.074 37.1003 467.35 36.9424C467.628 36.7844 467.838 36.5805 467.979 36.3306C468.122 36.0808 468.194 35.818 468.194 35.5423V34.6117C468.151 34.6634 468.056 34.7108 467.91 34.7539C467.766 34.7941 467.599 34.83 467.41 34.8616C467.223 34.8903 467.041 34.9162 466.863 34.9392C466.688 34.9593 466.545 34.9765 466.436 34.9908C466.172 35.0253 465.925 35.0813 465.695 35.1589C465.468 35.2335 465.285 35.347 465.144 35.4992C465.006 35.6485 464.937 35.8524 464.937 36.1109C464.937 36.4642 465.068 36.7313 465.329 36.9122C465.593 37.0903 465.928 37.1793 466.333 37.1793ZM473.621 38.0754C473.001 38.0754 472.466 37.9289 472.018 37.6359C471.57 37.343 471.226 36.9395 470.985 36.4254C470.743 35.9113 470.623 35.324 470.623 34.6634C470.623 33.9914 470.746 33.3983 470.993 32.8842C471.243 32.3673 471.591 31.9638 472.036 31.6737C472.484 31.3808 473.006 31.2343 473.604 31.2343C474.069 31.2343 474.488 31.3205 474.862 31.4928C475.235 31.6651 475.541 31.9063 475.779 32.2165C476.018 32.5267 476.166 32.8886 476.223 33.3021H475.206C475.129 33.0006 474.956 32.7335 474.689 32.5008C474.425 32.2653 474.069 32.1476 473.621 32.1476C473.225 32.1476 472.877 32.251 472.578 32.4578C472.283 32.6617 472.051 32.9503 471.885 33.3237C471.721 33.6941 471.639 34.1293 471.639 34.629C471.639 35.1402 471.72 35.5853 471.881 35.9644C472.044 36.3436 472.274 36.6379 472.57 36.8476C472.869 37.0572 473.219 37.1621 473.621 37.1621C473.885 37.1621 474.125 37.1161 474.34 37.0242C474.556 36.9323 474.738 36.8002 474.888 36.6279C475.037 36.4556 475.143 36.2488 475.206 36.0075H476.223C476.166 36.3981 476.023 36.7499 475.797 37.063C475.573 37.3732 475.275 37.6201 474.905 37.804C474.537 37.9849 474.109 38.0754 473.621 38.0754ZM480.454 31.3205V32.182H477.024V31.3205H480.454ZM478.024 29.7351H479.041V36.042C479.041 36.3292 479.082 36.5446 479.165 36.6882C479.252 36.8289 479.361 36.9237 479.493 36.9725C479.628 37.0185 479.77 37.0414 479.919 37.0414C480.031 37.0414 480.123 37.0357 480.195 37.0242C480.267 37.0098 480.324 36.9984 480.367 36.9897L480.574 37.903C480.505 37.9289 480.409 37.9547 480.286 37.9806C480.162 38.0093 480.006 38.0237 479.816 38.0237C479.529 38.0237 479.247 37.9619 478.972 37.8384C478.699 37.7149 478.472 37.5268 478.291 37.2741C478.113 37.0213 478.024 36.7025 478.024 36.3177V29.7351ZM486.418 32.8024L485.505 33.0609C485.447 32.9087 485.363 32.7608 485.251 32.6172C485.141 32.4707 484.992 32.3501 484.803 32.2553C484.613 32.1605 484.37 32.1131 484.075 32.1131C483.67 32.1131 483.332 32.2065 483.062 32.3931C482.795 32.5769 482.662 32.811 482.662 33.0953C482.662 33.3481 482.753 33.5477 482.937 33.6941C483.121 33.8406 483.408 33.9627 483.799 34.0603L484.781 34.3016C485.373 34.4452 485.814 34.6649 486.104 34.9607C486.394 35.2536 486.539 35.6313 486.539 36.0937C486.539 36.4728 486.43 36.8117 486.211 37.1104C485.996 37.4091 485.694 37.6446 485.307 37.8169C484.919 37.9892 484.468 38.0754 483.954 38.0754C483.279 38.0754 482.72 37.9289 482.278 37.6359C481.836 37.343 481.556 36.9151 481.438 36.3522L482.403 36.1109C482.495 36.467 482.669 36.7341 482.924 36.9122C483.183 37.0903 483.52 37.1793 483.937 37.1793C484.411 37.1793 484.787 37.0788 485.065 36.8777C485.347 36.6738 485.488 36.4297 485.488 36.1454C485.488 35.9156 485.407 35.7232 485.246 35.5681C485.085 35.4102 484.838 35.2924 484.505 35.2149L483.402 34.9564C482.796 34.8128 482.351 34.5902 482.067 34.2886C481.786 33.9842 481.645 33.6037 481.645 33.147C481.645 32.7737 481.75 32.4434 481.959 32.1562C482.172 31.869 482.46 31.6436 482.825 31.4798C483.193 31.3161 483.609 31.2343 484.075 31.2343C484.729 31.2343 485.243 31.3779 485.617 31.6651C485.993 31.9523 486.26 32.3314 486.418 32.8024Z" fill="black" fill-opacity="0.8"/>
<path d="M516.348 37.9375V29.1148H519.432C520.047 29.1148 520.554 29.221 520.953 29.4336C521.352 29.6432 521.649 29.9261 521.845 30.2822C522.04 30.6355 522.138 31.0275 522.138 31.4583C522.138 31.8374 522.07 32.1505 521.935 32.3974C521.803 32.6444 521.628 32.8397 521.41 32.9833C521.194 33.1269 520.96 33.2332 520.707 33.3021V33.3883C520.977 33.4055 521.249 33.5003 521.522 33.6726C521.794 33.8449 522.023 34.0919 522.207 34.4136C522.39 34.7352 522.482 35.1287 522.482 35.594C522.482 36.0362 522.382 36.434 522.181 36.7873C521.98 37.1405 521.662 37.4205 521.229 37.6273C520.795 37.8341 520.231 37.9375 519.536 37.9375H516.348ZM517.416 36.9897H519.536C520.233 36.9897 520.729 36.8548 521.022 36.5848C521.318 36.312 521.466 35.9817 521.466 35.594C521.466 35.2953 521.389 35.0196 521.237 34.7668C521.085 34.5112 520.868 34.3073 520.587 34.1551C520.305 34 519.972 33.9225 519.587 33.9225H517.416V36.9897ZM517.416 32.9919H519.398C519.719 32.9919 520.009 32.9288 520.268 32.8024C520.529 32.676 520.736 32.498 520.888 32.2682C521.043 32.0384 521.121 31.7685 521.121 31.4583C521.121 31.0706 520.986 30.7418 520.716 30.4718C520.446 30.1989 520.018 30.0625 519.432 30.0625H517.416V32.9919ZM528.137 35.2321V31.3205H529.153V37.9375H528.137V36.8174H528.068C527.913 37.1534 527.671 37.4392 527.344 37.6747C527.016 37.9073 526.603 38.0237 526.103 38.0237C525.69 38.0237 525.322 37.9332 525 37.7523C524.679 37.5685 524.426 37.2927 524.242 36.9251C524.058 36.5546 523.966 36.0879 523.966 35.525V31.3205H524.983V35.4561C524.983 35.9386 525.118 36.3234 525.388 36.6106C525.661 36.8978 526.008 37.0414 526.431 37.0414C526.683 37.0414 526.94 36.9768 527.202 36.8476C527.466 36.7183 527.687 36.5202 527.865 36.2531C528.046 35.986 528.137 35.6457 528.137 35.2321ZM535.569 32.8024L534.656 33.0609C534.598 32.9087 534.514 32.7608 534.402 32.6172C534.292 32.4707 534.143 32.3501 533.953 32.2553C533.764 32.1605 533.521 32.1131 533.225 32.1131C532.82 32.1131 532.483 32.2065 532.213 32.3931C531.946 32.5769 531.812 32.811 531.812 33.0953C531.812 33.3481 531.904 33.5477 532.088 33.6941C532.272 33.8406 532.559 33.9627 532.95 34.0603L533.932 34.3016C534.524 34.4452 534.964 34.6649 535.254 34.9607C535.545 35.2536 535.69 35.6313 535.69 36.0937C535.69 36.4728 535.58 36.8117 535.362 37.1104C535.147 37.4091 534.845 37.6446 534.458 37.8169C534.07 37.9892 533.619 38.0754 533.105 38.0754C532.43 38.0754 531.871 37.9289 531.429 37.6359C530.987 37.343 530.707 36.9151 530.589 36.3522L531.554 36.1109C531.646 36.467 531.82 36.7341 532.075 36.9122C532.334 37.0903 532.671 37.1793 533.088 37.1793C533.561 37.1793 533.938 37.0788 534.216 36.8777C534.498 36.6738 534.638 36.4297 534.638 36.1454C534.638 35.9156 534.558 35.7232 534.397 35.5681C534.236 35.4102 533.989 35.2924 533.656 35.2149L532.553 34.9564C531.947 34.8128 531.502 34.5902 531.218 34.2886C530.936 33.9842 530.796 33.6037 530.796 33.147C530.796 32.7737 530.901 32.4434 531.11 32.1562C531.323 31.869 531.611 31.6436 531.976 31.4798C532.344 31.3161 532.76 31.2343 533.225 31.2343C533.88 31.2343 534.394 31.3779 534.768 31.6651C535.144 31.9523 535.411 32.3314 535.569 32.8024ZM537.087 37.9375V31.3205H538.103V37.9375H537.087ZM537.604 30.2176C537.405 30.2176 537.234 30.1501 537.091 30.0151C536.95 29.8802 536.88 29.7179 536.88 29.5283C536.88 29.3388 536.95 29.1765 537.091 29.0415C537.234 28.9066 537.405 28.8391 537.604 28.8391C537.802 28.8391 537.971 28.9066 538.112 29.0415C538.255 29.1765 538.327 29.3388 538.327 29.5283C538.327 29.7179 538.255 29.8802 538.112 30.0151C537.971 30.1501 537.802 30.2176 537.604 30.2176ZM540.849 33.9569V37.9375H539.832V31.3205H540.814V32.3544H540.9C541.055 32.0183 541.291 31.7484 541.607 31.5445C541.923 31.3377 542.331 31.2343 542.83 31.2343C543.278 31.2343 543.67 31.3262 544.006 31.51C544.342 31.6909 544.604 31.9667 544.79 32.3371C544.977 32.7047 545.07 33.17 545.07 33.7329V37.9375H544.054V33.8018C544.054 33.282 543.919 32.8771 543.649 32.587C543.379 32.2941 543.008 32.1476 542.537 32.1476C542.213 32.1476 541.923 32.2179 541.667 32.3587C541.414 32.4994 541.215 32.7047 541.068 32.9747C540.922 33.2447 540.849 33.5721 540.849 33.9569ZM549.569 38.0754C548.932 38.0754 548.382 37.9346 547.919 37.6532C547.46 37.3688 547.105 36.9725 546.855 36.4642C546.608 35.953 546.485 35.3585 546.485 34.6807C546.485 34.0029 546.608 33.4055 546.855 32.8886C547.105 32.3687 547.452 31.9638 547.898 31.6737C548.346 31.3808 548.868 31.2343 549.466 31.2343C549.81 31.2343 550.151 31.2917 550.487 31.4066C550.823 31.5215 551.129 31.7082 551.404 31.9667C551.68 32.2223 551.9 32.5612 552.063 32.9833C552.227 33.4055 552.309 33.9253 552.309 34.5428V34.9736H547.208V34.0948H551.275C551.275 33.7214 551.2 33.3883 551.051 33.0953C550.905 32.8024 550.695 32.5712 550.422 32.4018C550.152 32.2323 549.833 32.1476 549.466 32.1476C549.061 32.1476 548.71 32.2481 548.415 32.4491C548.122 32.6473 547.896 32.9058 547.738 33.2246C547.58 33.5434 547.501 33.8851 547.501 34.2499V34.8358C547.501 35.3355 547.587 35.7591 547.76 36.1066C547.935 36.4512 548.178 36.714 548.488 36.895C548.798 37.073 549.158 37.1621 549.569 37.1621C549.836 37.1621 550.077 37.1247 550.293 37.0501C550.511 36.9725 550.699 36.8576 550.857 36.7054C551.015 36.5503 551.137 36.3579 551.223 36.1282L552.206 36.4039C552.102 36.737 551.928 37.03 551.684 37.2827C551.44 37.5326 551.139 37.7278 550.78 37.8686C550.421 38.0064 550.017 38.0754 549.569 38.0754ZM558.409 32.8024L557.496 33.0609C557.438 32.9087 557.354 32.7608 557.242 32.6172C557.133 32.4707 556.983 32.3501 556.794 32.2553C556.604 32.1605 556.361 32.1131 556.066 32.1131C555.661 32.1131 555.323 32.2065 555.053 32.3931C554.786 32.5769 554.653 32.811 554.653 33.0953C554.653 33.3481 554.745 33.5477 554.928 33.6941C555.112 33.8406 555.399 33.9627 555.79 34.0603L556.772 34.3016C557.364 34.4452 557.805 34.6649 558.095 34.9607C558.385 35.2536 558.53 35.6313 558.53 36.0937C558.53 36.4728 558.421 36.8117 558.202 37.1104C557.987 37.4091 557.685 37.6446 557.298 37.8169C556.91 37.9892 556.459 38.0754 555.945 38.0754C555.27 38.0754 554.712 37.9289 554.269 37.6359C553.827 37.343 553.547 36.9151 553.429 36.3522L554.394 36.1109C554.486 36.467 554.66 36.7341 554.915 36.9122C555.174 37.0903 555.511 37.1793 555.928 37.1793C556.402 37.1793 556.778 37.0788 557.056 36.8777C557.338 36.6738 557.479 36.4297 557.479 36.1454C557.479 35.9156 557.398 35.7232 557.237 35.5681C557.077 35.4102 556.83 35.2924 556.496 35.2149L555.394 34.9564C554.788 34.8128 554.342 34.5902 554.058 34.2886C553.777 33.9842 553.636 33.6037 553.636 33.147C553.636 32.7737 553.741 32.4434 553.95 32.1562C554.163 31.869 554.452 31.6436 554.816 31.4798C555.184 31.3161 555.6 31.2343 556.066 31.2343C556.72 31.2343 557.235 31.3779 557.608 31.6651C557.984 31.9523 558.251 32.3314 558.409 32.8024ZM564.614 32.8024L563.701 33.0609C563.643 32.9087 563.558 32.7608 563.446 32.6172C563.337 32.4707 563.188 32.3501 562.998 32.2553C562.809 32.1605 562.566 32.1131 562.27 32.1131C561.865 32.1131 561.528 32.2065 561.258 32.3931C560.991 32.5769 560.857 32.811 560.857 33.0953C560.857 33.3481 560.949 33.5477 561.133 33.6941C561.317 33.8406 561.604 33.9627 561.995 34.0603L562.977 34.3016C563.568 34.4452 564.009 34.6649 564.299 34.9607C564.589 35.2536 564.734 35.6313 564.734 36.0937C564.734 36.4728 564.625 36.8117 564.407 37.1104C564.192 37.4091 563.89 37.6446 563.502 37.8169C563.115 37.9892 562.664 38.0754 562.15 38.0754C561.475 38.0754 560.916 37.9289 560.474 37.6359C560.032 37.343 559.752 36.9151 559.634 36.3522L560.599 36.1109C560.691 36.467 560.864 36.7341 561.12 36.9122C561.379 37.0903 561.716 37.1793 562.132 37.1793C562.606 37.1793 562.983 37.0788 563.261 36.8777C563.543 36.6738 563.683 36.4297 563.683 36.1454C563.683 35.9156 563.603 35.7232 563.442 35.5681C563.281 35.4102 563.034 35.2924 562.701 35.2149L561.598 34.9564C560.992 34.8128 560.547 34.5902 560.263 34.2886C559.981 33.9842 559.841 33.6037 559.841 33.147C559.841 32.7737 559.945 32.4434 560.155 32.1562C560.368 31.869 560.656 31.6436 561.021 31.4798C561.389 31.3161 561.805 31.2343 562.27 31.2343C562.925 31.2343 563.439 31.3779 563.813 31.6651C564.189 31.9523 564.456 32.3314 564.614 32.8024ZM576.647 31.8719H575.579C575.516 31.5646 575.405 31.2946 575.247 31.062C575.092 30.8293 574.903 30.6341 574.679 30.4761C574.457 30.3153 574.212 30.1946 573.942 30.1142C573.672 30.0338 573.39 29.9936 573.098 29.9936C572.563 29.9936 572.079 30.1286 571.646 30.3985C571.215 30.6685 570.872 31.0663 570.616 31.5919C570.363 32.1174 570.237 32.7622 570.237 33.5261C570.237 34.2901 570.363 34.9348 570.616 35.4604C570.872 35.986 571.215 36.3838 571.646 36.6537C572.079 36.9237 572.563 37.0587 573.098 37.0587C573.39 37.0587 573.672 37.0185 573.942 36.9381C574.212 36.8576 574.457 36.7384 574.679 36.5805C574.903 36.4197 575.092 36.2229 575.247 35.9903C575.405 35.7548 575.516 35.4848 575.579 35.1804H576.647C576.567 35.6313 576.42 36.0348 576.208 36.3909C575.995 36.7471 575.731 37.0501 575.415 37.2999C575.099 37.5469 574.745 37.735 574.351 37.8643C573.961 37.9935 573.543 38.0581 573.098 38.0581C572.345 38.0581 571.676 37.8743 571.09 37.5067C570.504 37.1391 570.043 36.6164 569.707 35.9386C569.371 35.2608 569.203 34.4567 569.203 33.5261C569.203 32.5956 569.371 31.7915 569.707 31.1137C570.043 30.4359 570.504 29.9132 571.09 29.5456C571.676 29.178 572.345 28.9941 573.098 28.9941C573.543 28.9941 573.961 29.0588 574.351 29.188C574.745 29.3172 575.099 29.5068 575.415 29.7567C575.731 30.0037 575.995 30.3052 576.208 30.6613C576.42 31.0146 576.567 31.4181 576.647 31.8719ZM580.791 38.0754C580.193 38.0754 579.669 37.9332 579.218 37.6489C578.77 37.3645 578.42 36.9668 578.167 36.4556C577.917 35.9443 577.792 35.347 577.792 34.6634C577.792 33.9742 577.917 33.3725 578.167 32.8584C578.42 32.3443 578.77 31.9451 579.218 31.6608C579.669 31.3765 580.193 31.2343 580.791 31.2343C581.388 31.2343 581.911 31.3765 582.359 31.6608C582.81 31.9451 583.16 32.3443 583.41 32.8584C583.663 33.3725 583.789 33.9742 583.789 34.6634C583.789 35.347 583.663 35.9443 583.41 36.4556C583.16 36.9668 582.81 37.3645 582.359 37.6489C581.911 37.9332 581.388 38.0754 580.791 38.0754ZM580.791 37.1621C581.244 37.1621 581.618 37.0457 581.911 36.8131C582.204 36.5805 582.42 36.2746 582.561 35.8955C582.702 35.5164 582.772 35.1057 582.772 34.6634C582.772 34.2212 582.702 33.809 582.561 33.4271C582.42 33.0451 582.204 32.7363 581.911 32.5008C581.618 32.2653 581.244 32.1476 580.791 32.1476C580.337 32.1476 579.963 32.2653 579.671 32.5008C579.378 32.7363 579.161 33.0451 579.02 33.4271C578.879 33.809 578.809 34.2212 578.809 34.6634C578.809 35.1057 578.879 35.5164 579.02 35.8955C579.161 36.2746 579.378 36.5805 579.671 36.8131C579.963 37.0457 580.337 37.1621 580.791 37.1621ZM586.224 33.9569V37.9375H585.207V31.3205H586.19V32.3544H586.276C586.431 32.0183 586.666 31.7484 586.982 31.5445C587.298 31.3377 587.706 31.2343 588.206 31.2343C588.654 31.2343 589.046 31.3262 589.382 31.51C589.718 31.6909 589.979 31.9667 590.166 32.3371C590.353 32.7047 590.446 33.17 590.446 33.7329V37.9375H589.429V33.8018C589.429 33.282 589.294 32.8771 589.024 32.587C588.754 32.2941 588.384 32.1476 587.913 32.1476C587.588 32.1476 587.298 32.2179 587.043 32.3587C586.79 32.4994 586.59 32.7047 586.444 32.9747C586.297 33.2447 586.224 33.5721 586.224 33.9569ZM596.857 32.8024L595.944 33.0609C595.887 32.9087 595.802 32.7608 595.69 32.6172C595.581 32.4707 595.431 32.3501 595.242 32.2553C595.052 32.1605 594.81 32.1131 594.514 32.1131C594.109 32.1131 593.771 32.2065 593.501 32.3931C593.234 32.5769 593.101 32.811 593.101 33.0953C593.101 33.3481 593.193 33.5477 593.377 33.6941C593.56 33.8406 593.848 33.9627 594.238 34.0603L595.22 34.3016C595.812 34.4452 596.253 34.6649 596.543 34.9607C596.833 35.2536 596.978 35.6313 596.978 36.0937C596.978 36.4728 596.869 36.8117 596.651 37.1104C596.435 37.4091 596.134 37.6446 595.746 37.8169C595.358 37.9892 594.907 38.0754 594.393 38.0754C593.718 38.0754 593.16 37.9289 592.717 37.6359C592.275 37.343 591.995 36.9151 591.877 36.3522L592.842 36.1109C592.934 36.467 593.108 36.7341 593.364 36.9122C593.622 37.0903 593.96 37.1793 594.376 37.1793C594.85 37.1793 595.226 37.0788 595.505 36.8777C595.786 36.6738 595.927 36.4297 595.927 36.1454C595.927 35.9156 595.846 35.7232 595.686 35.5681C595.525 35.4102 595.278 35.2924 594.945 35.2149L593.842 34.9564C593.236 34.8128 592.791 34.5902 592.506 34.2886C592.225 33.9842 592.084 33.6037 592.084 33.147C592.084 32.7737 592.189 32.4434 592.399 32.1562C592.611 31.869 592.9 31.6436 593.265 31.4798C593.632 31.3161 594.049 31.2343 594.514 31.2343C595.169 31.2343 595.683 31.3779 596.056 31.6651C596.432 31.9523 596.699 32.3314 596.857 32.8024ZM602.545 35.2321V31.3205H603.562V37.9375H602.545V36.8174H602.476C602.321 37.1534 602.08 37.4392 601.752 37.6747C601.425 37.9073 601.011 38.0237 600.512 38.0237C600.098 38.0237 599.731 37.9332 599.409 37.7523C599.087 37.5685 598.834 37.2927 598.651 36.9251C598.467 36.5546 598.375 36.0879 598.375 35.525V31.3205H599.392V35.4561C599.392 35.9386 599.527 36.3234 599.797 36.6106C600.069 36.8978 600.417 37.0414 600.839 37.0414C601.092 37.0414 601.349 36.9768 601.61 36.8476C601.874 36.7183 602.096 36.5202 602.274 36.2531C602.455 35.986 602.545 35.6457 602.545 35.2321ZM606.307 29.1148V37.9375H605.29V29.1148H606.307ZM610.914 31.3205V32.182H607.484V31.3205H610.914ZM608.484 29.7351H609.501V36.042C609.501 36.3292 609.542 36.5446 609.625 36.6882C609.712 36.8289 609.821 36.9237 609.953 36.9725C610.088 37.0185 610.23 37.0414 610.379 37.0414C610.491 37.0414 610.583 37.0357 610.655 37.0242C610.727 37.0098 610.784 36.9984 610.827 36.9897L611.034 37.903C610.965 37.9289 610.869 37.9547 610.746 37.9806C610.622 38.0093 610.465 38.0237 610.276 38.0237C609.989 38.0237 609.707 37.9619 609.432 37.8384C609.159 37.7149 608.932 37.5268 608.751 37.2741C608.573 37.0213 608.484 36.7025 608.484 36.3177V29.7351ZM614.257 38.0926C613.837 38.0926 613.457 38.0136 613.115 37.8556C612.773 37.6948 612.502 37.4636 612.301 37.1621C612.1 36.8576 611.999 36.49 611.999 36.0592C611.999 35.6801 612.074 35.3728 612.223 35.1373C612.373 34.8989 612.572 34.7123 612.822 34.5773C613.072 34.4423 613.348 34.3418 613.649 34.2757C613.954 34.2068 614.259 34.1522 614.567 34.112C614.969 34.0603 615.295 34.0216 615.545 33.9957C615.797 33.967 615.981 33.9196 616.096 33.8535C616.214 33.7875 616.273 33.6726 616.273 33.5089V33.4744C616.273 33.0494 616.156 32.7191 615.924 32.4836C615.694 32.2481 615.345 32.1304 614.877 32.1304C614.392 32.1304 614.011 32.2366 613.735 32.4491C613.46 32.6617 613.266 32.8886 613.154 33.1298L612.189 32.7852C612.361 32.3831 612.591 32.07 612.878 31.846C613.168 31.6191 613.484 31.4612 613.826 31.3722C614.17 31.2802 614.509 31.2343 614.842 31.2343C615.055 31.2343 615.299 31.2601 615.575 31.3118C615.853 31.3607 616.122 31.4626 616.38 31.6177C616.642 31.7728 616.859 32.0069 617.031 32.3199C617.203 32.633 617.289 33.0523 617.289 33.5778V37.9375H616.273V37.0414H616.221C616.152 37.185 616.037 37.3387 615.876 37.5024C615.716 37.6661 615.502 37.8054 615.235 37.9203C614.967 38.0351 614.641 38.0926 614.257 38.0926ZM614.412 37.1793C614.814 37.1793 615.153 37.1003 615.428 36.9424C615.707 36.7844 615.917 36.5805 616.057 36.3306C616.201 36.0808 616.273 35.818 616.273 35.5423V34.6117C616.23 34.6634 616.135 34.7108 615.988 34.7539C615.845 34.7941 615.678 34.83 615.489 34.8616C615.302 34.8903 615.12 34.9162 614.942 34.9392C614.766 34.9593 614.624 34.9765 614.515 34.9908C614.251 35.0253 614.004 35.0813 613.774 35.1589C613.547 35.2335 613.363 35.347 613.223 35.4992C613.085 35.6485 613.016 35.8524 613.016 36.1109C613.016 36.4642 613.147 36.7313 613.408 36.9122C613.672 37.0903 614.007 37.1793 614.412 37.1793ZM621.889 31.3205V32.182H618.46V31.3205H621.889ZM619.46 29.7351H620.476V36.042C620.476 36.3292 620.518 36.5446 620.601 36.6882C620.687 36.8289 620.797 36.9237 620.929 36.9725C621.064 37.0185 621.206 37.0414 621.355 37.0414C621.467 37.0414 621.559 37.0357 621.631 37.0242C621.703 37.0098 621.76 36.9984 621.803 36.9897L622.01 37.903C621.941 37.9289 621.845 37.9547 621.721 37.9806C621.598 38.0093 621.441 38.0237 621.252 38.0237C620.965 38.0237 620.683 37.9619 620.407 37.8384C620.135 37.7149 619.908 37.5268 619.727 37.2741C619.549 37.0213 619.46 36.7025 619.46 36.3177V29.7351ZM623.285 37.9375V31.3205H624.302V37.9375H623.285ZM623.802 30.2176C623.604 30.2176 623.433 30.1501 623.29 30.0151C623.149 29.8802 623.078 29.7179 623.078 29.5283C623.078 29.3388 623.149 29.1765 623.29 29.0415C623.433 28.9066 623.604 28.8391 623.802 28.8391C624 28.8391 624.17 28.9066 624.311 29.0415C624.454 29.1765 624.526 29.3388 624.526 29.5283C624.526 29.7179 624.454 29.8802 624.311 30.0151C624.17 30.1501 624 30.2176 623.802 30.2176ZM628.719 38.0754C628.121 38.0754 627.597 37.9332 627.146 37.6489C626.698 37.3645 626.348 36.9668 626.095 36.4556C625.845 35.9443 625.72 35.347 625.72 34.6634C625.72 33.9742 625.845 33.3725 626.095 32.8584C626.348 32.3443 626.698 31.9451 627.146 31.6608C627.597 31.3765 628.121 31.2343 628.719 31.2343C629.316 31.2343 629.839 31.3765 630.287 31.6608C630.738 31.9451 631.088 32.3443 631.338 32.8584C631.591 33.3725 631.717 33.9742 631.717 34.6634C631.717 35.347 631.591 35.9443 631.338 36.4556C631.088 36.9668 630.738 37.3645 630.287 37.6489C629.839 37.9332 629.316 38.0754 628.719 38.0754ZM628.719 37.1621C629.173 37.1621 629.546 37.0457 629.839 36.8131C630.132 36.5805 630.349 36.2746 630.489 35.8955C630.63 35.5164 630.7 35.1057 630.7 34.6634C630.7 34.2212 630.63 33.809 630.489 33.4271C630.349 33.0451 630.132 32.7363 629.839 32.5008C629.546 32.2653 629.173 32.1476 628.719 32.1476C628.265 32.1476 627.892 32.2653 627.599 32.5008C627.306 32.7363 627.089 33.0451 626.948 33.4271C626.807 33.809 626.737 34.2212 626.737 34.6634C626.737 35.1057 626.807 35.5164 626.948 35.8955C627.089 36.2746 627.306 36.5805 627.599 36.8131C627.892 37.0457 628.265 37.1621 628.719 37.1621ZM634.152 33.9569V37.9375H633.136V31.3205H634.118V32.3544H634.204C634.359 32.0183 634.595 31.7484 634.911 31.5445C635.226 31.3377 635.634 31.2343 636.134 31.2343C636.582 31.2343 636.974 31.3262 637.31 31.51C637.646 31.6909 637.907 31.9667 638.094 32.3371C638.281 32.7047 638.374 33.17 638.374 33.7329V37.9375H637.357V33.8018C637.357 33.282 637.222 32.8771 636.952 32.587C636.683 32.2941 636.312 32.1476 635.841 32.1476C635.517 32.1476 635.226 32.2179 634.971 32.3587C634.718 32.4994 634.518 32.7047 634.372 32.9747C634.226 33.2447 634.152 33.5721 634.152 33.9569ZM649.546 31.8719C649.451 31.5818 649.326 31.3219 649.171 31.0921C649.019 30.8595 648.837 30.6613 648.624 30.4976C648.414 30.3339 648.176 30.209 647.909 30.1228C647.642 30.0367 647.349 29.9936 647.03 29.9936C646.507 29.9936 646.032 30.1286 645.604 30.3985C645.176 30.6685 644.836 31.0663 644.583 31.5919C644.33 32.1174 644.204 32.7622 644.204 33.5261C644.204 34.2901 644.332 34.9348 644.588 35.4604C644.843 35.986 645.189 36.3838 645.626 36.6537C646.062 36.9237 646.553 37.0587 647.099 37.0587C647.605 37.0587 648.05 36.951 648.435 36.7356C648.822 36.5173 649.124 36.21 649.339 35.8137C649.557 35.4145 649.667 34.9449 649.667 34.405L649.994 34.4739H647.34V33.5261H650.701V34.4739C650.701 35.2005 650.545 35.8323 650.235 36.3694C649.928 36.9065 649.503 37.3229 648.96 37.6187C648.42 37.9117 647.8 38.0581 647.099 38.0581C646.318 38.0581 645.631 37.8743 645.04 37.5067C644.451 37.1391 643.992 36.6164 643.661 35.9386C643.334 35.2608 643.17 34.4567 643.17 33.5261C643.17 32.8282 643.264 32.2007 643.45 31.6436C643.64 31.0835 643.907 30.6068 644.251 30.2133C644.596 29.8198 645.004 29.5183 645.475 29.3086C645.946 29.099 646.464 28.9941 647.03 28.9941C647.495 28.9941 647.929 29.0645 648.331 29.2052C648.736 29.3431 649.097 29.5398 649.412 29.7954C649.731 30.0482 649.997 30.3512 650.209 30.7044C650.422 31.0548 650.568 31.444 650.649 31.8719H649.546ZM656.429 35.2321V31.3205H657.446V37.9375H656.429V36.8174H656.36C656.205 37.1534 655.964 37.4392 655.636 37.6747C655.309 37.9073 654.896 38.0237 654.396 38.0237C653.982 38.0237 653.615 37.9332 653.293 37.7523C652.971 37.5685 652.719 37.2927 652.535 36.9251C652.351 36.5546 652.259 36.0879 652.259 35.525V31.3205H653.276V35.4561C653.276 35.9386 653.411 36.3234 653.681 36.6106C653.953 36.8978 654.301 37.0414 654.723 37.0414C654.976 37.0414 655.233 36.9768 655.494 36.8476C655.759 36.7183 655.98 36.5202 656.158 36.2531C656.339 35.986 656.429 35.6457 656.429 35.2321ZM659.175 37.9375V31.3205H660.191V37.9375H659.175ZM659.691 30.2176C659.493 30.2176 659.322 30.1501 659.179 30.0151C659.038 29.8802 658.968 29.7179 658.968 29.5283C658.968 29.3388 659.038 29.1765 659.179 29.0415C659.322 28.9066 659.493 28.8391 659.691 28.8391C659.89 28.8391 660.059 28.9066 660.2 29.0415C660.343 29.1765 660.415 29.3388 660.415 29.5283C660.415 29.7179 660.343 29.8802 660.2 30.0151C660.059 30.1501 659.89 30.2176 659.691 30.2176ZM664.418 38.0754C663.867 38.0754 663.38 37.9361 662.958 37.6575C662.536 37.376 662.206 36.9797 661.967 36.4685C661.729 35.9544 661.61 35.347 661.61 34.6462C661.61 33.9512 661.729 33.3481 661.967 32.8369C662.206 32.3256 662.537 31.9308 662.962 31.6522C663.387 31.3736 663.879 31.2343 664.436 31.2343C664.867 31.2343 665.207 31.3061 665.457 31.4497C665.709 31.5904 665.902 31.7513 666.034 31.9322C666.169 32.1102 666.274 32.2567 666.348 32.3716H666.435V29.1148H667.451V37.9375H666.469V36.9208H666.348C666.274 37.0414 666.168 37.1937 666.03 37.3775C665.892 37.5584 665.695 37.7207 665.439 37.8643C665.184 38.005 664.844 38.0754 664.418 38.0754ZM664.556 37.1621C664.964 37.1621 665.309 37.0558 665.59 36.8433C665.872 36.6279 666.086 36.3306 666.232 35.9515C666.379 35.5696 666.452 35.1287 666.452 34.629C666.452 34.135 666.38 33.7028 666.236 33.3323C666.093 32.9589 665.88 32.6689 665.599 32.4621C665.317 32.2524 664.97 32.1476 664.556 32.1476C664.126 32.1476 663.767 32.2582 663.479 32.4793C663.195 32.6976 662.981 32.9948 662.837 33.371C662.697 33.7444 662.626 34.1637 662.626 34.629C662.626 35.1 662.698 35.5279 662.842 35.9128C662.988 36.2947 663.204 36.5992 663.488 36.826C663.775 37.0501 664.131 37.1621 664.556 37.1621ZM671.268 38.0926C670.849 38.0926 670.468 38.0136 670.127 37.8556C669.785 37.6948 669.513 37.4636 669.312 37.1621C669.111 36.8576 669.011 36.49 669.011 36.0592C669.011 35.6801 669.086 35.3728 669.235 35.1373C669.384 34.8989 669.584 34.7123 669.834 34.5773C670.084 34.4423 670.359 34.3418 670.661 34.2757C670.965 34.2068 671.271 34.1522 671.578 34.112C671.981 34.0603 672.306 34.0216 672.556 33.9957C672.809 33.967 672.993 33.9196 673.108 33.8535C673.226 33.7875 673.284 33.6726 673.284 33.5089V33.4744C673.284 33.0494 673.168 32.7191 672.935 32.4836C672.706 32.2481 672.357 32.1304 671.889 32.1304C671.403 32.1304 671.023 32.2366 670.747 32.4491C670.471 32.6617 670.277 32.8886 670.165 33.1298L669.2 32.7852C669.373 32.3831 669.603 32.07 669.89 31.846C670.18 31.6191 670.496 31.4612 670.837 31.3722C671.182 31.2802 671.521 31.2343 671.854 31.2343C672.067 31.2343 672.311 31.2601 672.587 31.3118C672.865 31.3607 673.134 31.4626 673.392 31.6177C673.653 31.7728 673.87 32.0069 674.043 32.3199C674.215 32.633 674.301 33.0523 674.301 33.5778V37.9375H673.284V37.0414H673.233C673.164 37.185 673.049 37.3387 672.888 37.5024C672.727 37.6661 672.513 37.8054 672.246 37.9203C671.979 38.0351 671.653 38.0926 671.268 38.0926ZM671.423 37.1793C671.825 37.1793 672.164 37.1003 672.44 36.9424C672.719 36.7844 672.928 36.5805 673.069 36.3306C673.213 36.0808 673.284 35.818 673.284 35.5423V34.6117C673.241 34.6634 673.147 34.7108 673 34.7539C672.856 34.7941 672.69 34.83 672.5 34.8616C672.314 34.8903 672.131 34.9162 671.953 34.9392C671.778 34.9593 671.636 34.9765 671.527 34.9908C671.263 35.0253 671.016 35.0813 670.786 35.1589C670.559 35.2335 670.375 35.347 670.234 35.4992C670.097 35.6485 670.028 35.8524 670.028 36.1109C670.028 36.4642 670.158 36.7313 670.42 36.9122C670.684 37.0903 671.018 37.1793 671.423 37.1793ZM677.04 33.9569V37.9375H676.023V31.3205H677.006V32.3544H677.092C677.247 32.0183 677.482 31.7484 677.798 31.5445C678.114 31.3377 678.522 31.2343 679.022 31.2343C679.47 31.2343 679.862 31.3262 680.198 31.51C680.534 31.6909 680.795 31.9667 680.982 32.3371C681.168 32.7047 681.262 33.17 681.262 33.7329V37.9375H680.245V33.8018C680.245 33.282 680.11 32.8771 679.84 32.587C679.57 32.2941 679.2 32.1476 678.729 32.1476C678.404 32.1476 678.114 32.2179 677.858 32.3587C677.606 32.4994 677.406 32.7047 677.26 32.9747C677.113 33.2447 677.04 33.5721 677.04 33.9569ZM685.674 38.0754C685.054 38.0754 684.52 37.9289 684.072 37.6359C683.624 37.343 683.279 36.9395 683.038 36.4254C682.797 35.9113 682.676 35.324 682.676 34.6634C682.676 33.9914 682.799 33.3983 683.046 32.8842C683.296 32.3673 683.644 31.9638 684.089 31.6737C684.537 31.3808 685.06 31.2343 685.657 31.2343C686.122 31.2343 686.542 31.3205 686.915 31.4928C687.288 31.6651 687.594 31.9063 687.833 32.2165C688.071 32.5267 688.219 32.8886 688.276 33.3021H687.26C687.182 33.0006 687.01 32.7335 686.743 32.5008C686.478 32.2653 686.122 32.1476 685.674 32.1476C685.278 32.1476 684.93 32.251 684.632 32.4578C684.336 32.6617 684.105 32.9503 683.938 33.3237C683.775 33.6941 683.693 34.1293 683.693 34.629C683.693 35.1402 683.773 35.5853 683.934 35.9644C684.098 36.3436 684.327 36.6379 684.623 36.8476C684.922 37.0572 685.272 37.1621 685.674 37.1621C685.939 37.1621 686.178 37.1161 686.394 37.0242C686.609 36.9323 686.792 36.8002 686.941 36.6279C687.09 36.4556 687.196 36.2488 687.26 36.0075H688.276C688.219 36.3981 688.077 36.7499 687.85 37.063C687.626 37.3732 687.329 37.6201 686.958 37.804C686.59 37.9849 686.163 38.0754 685.674 38.0754ZM692.403 38.0754C691.766 38.0754 691.216 37.9346 690.754 37.6532C690.294 37.3688 689.939 36.9725 689.689 36.4642C689.442 35.953 689.319 35.3585 689.319 34.6807C689.319 34.0029 689.442 33.4055 689.689 32.8886C689.939 32.3687 690.287 31.9638 690.732 31.6737C691.18 31.3808 691.703 31.2343 692.3 31.2343C692.645 31.2343 692.985 31.2917 693.321 31.4066C693.657 31.5215 693.963 31.7082 694.239 31.9667C694.514 32.2223 694.734 32.5612 694.898 32.9833C695.062 33.4055 695.143 33.9253 695.143 34.5428V34.9736H690.043V34.0948H694.109C694.109 33.7214 694.035 33.3883 693.885 33.0953C693.739 32.8024 693.529 32.5712 693.256 32.4018C692.987 32.2323 692.668 32.1476 692.3 32.1476C691.895 32.1476 691.545 32.2481 691.249 32.4491C690.956 32.6473 690.731 32.9058 690.573 33.2246C690.415 33.5434 690.336 33.8851 690.336 34.2499V34.8358C690.336 35.3355 690.422 35.7591 690.594 36.1066C690.769 36.4512 691.012 36.714 691.322 36.895C691.632 37.073 691.993 37.1621 692.403 37.1621C692.671 37.1621 692.912 37.1247 693.127 37.0501C693.346 36.9725 693.534 36.8576 693.692 36.7054C693.85 36.5503 693.972 36.3579 694.058 36.1282L695.04 36.4039C694.937 36.737 694.763 37.03 694.519 37.2827C694.275 37.5326 693.973 37.7278 693.614 37.8686C693.255 38.0064 692.852 38.0754 692.403 38.0754Z" fill="black" fill-opacity="0.8"/>
<path d="M732.08 31.8719H731.012C730.948 31.5646 730.838 31.2946 730.68 31.062C730.525 30.8293 730.335 30.6341 730.111 30.4761C729.89 30.3153 729.645 30.1946 729.375 30.1142C729.105 30.0338 728.823 29.9936 728.53 29.9936C727.996 29.9936 727.512 30.1286 727.078 30.3985C726.648 30.6685 726.304 31.0663 726.049 31.5919C725.796 32.1174 725.67 32.7622 725.67 33.5261C725.67 34.2901 725.796 34.9348 726.049 35.4604C726.304 35.986 726.648 36.3838 727.078 36.6537C727.512 36.9237 727.996 37.0587 728.53 37.0587C728.823 37.0587 729.105 37.0185 729.375 36.9381C729.645 36.8576 729.89 36.7384 730.111 36.5805C730.335 36.4197 730.525 36.2229 730.68 35.9903C730.838 35.7548 730.948 35.4848 731.012 35.1804H732.08C732 35.6313 731.853 36.0348 731.641 36.3909C731.428 36.7471 731.164 37.0501 730.848 37.2999C730.532 37.5469 730.177 37.735 729.784 37.8643C729.393 37.9935 728.975 38.0581 728.53 38.0581C727.778 38.0581 727.109 37.8743 726.523 37.5067C725.937 37.1391 725.476 36.6164 725.14 35.9386C724.804 35.2608 724.636 34.4567 724.636 33.5261C724.636 32.5956 724.804 31.7915 725.14 31.1137C725.476 30.4359 725.937 29.9132 726.523 29.5456C727.109 29.178 727.778 28.9941 728.53 28.9941C728.975 28.9941 729.393 29.0588 729.784 29.188C730.177 29.3172 730.532 29.5068 730.848 29.7567C731.164 30.0037 731.428 30.3052 731.641 30.6613C731.853 31.0146 732 31.4181 732.08 31.8719ZM736.223 38.0754C735.626 38.0754 735.102 37.9332 734.651 37.6489C734.203 37.3645 733.852 36.9668 733.6 36.4556C733.35 35.9443 733.225 35.347 733.225 34.6634C733.225 33.9742 733.35 33.3725 733.6 32.8584C733.852 32.3443 734.203 31.9451 734.651 31.6608C735.102 31.3765 735.626 31.2343 736.223 31.2343C736.821 31.2343 737.343 31.3765 737.791 31.6608C738.242 31.9451 738.593 32.3443 738.843 32.8584C739.095 33.3725 739.222 33.9742 739.222 34.6634C739.222 35.347 739.095 35.9443 738.843 36.4556C738.593 36.9668 738.242 37.3645 737.791 37.6489C737.343 37.9332 736.821 38.0754 736.223 38.0754ZM736.223 37.1621C736.677 37.1621 737.05 37.0457 737.343 36.8131C737.636 36.5805 737.853 36.2746 737.994 35.8955C738.135 35.5164 738.205 35.1057 738.205 34.6634C738.205 34.2212 738.135 33.809 737.994 33.4271C737.853 33.0451 737.636 32.7363 737.343 32.5008C737.05 32.2653 736.677 32.1476 736.223 32.1476C735.77 32.1476 735.396 32.2653 735.103 32.5008C734.81 32.7363 734.593 33.0451 734.453 33.4271C734.312 33.809 734.242 34.2212 734.242 34.6634C734.242 35.1057 734.312 35.5164 734.453 35.8955C734.593 36.2746 734.81 36.5805 735.103 36.8131C735.396 37.0457 735.77 37.1621 736.223 37.1621ZM741.657 33.9569V37.9375H740.64V31.3205H741.622V32.3544H741.709C741.864 32.0183 742.099 31.7484 742.415 31.5445C742.731 31.3377 743.139 31.2343 743.639 31.2343C744.087 31.2343 744.479 31.3262 744.815 31.51C745.151 31.6909 745.412 31.9667 745.599 32.3371C745.785 32.7047 745.879 33.17 745.879 33.7329V37.9375H744.862V33.8018C744.862 33.282 744.727 32.8771 744.457 32.587C744.187 32.2941 743.817 32.1476 743.346 32.1476C743.021 32.1476 742.731 32.2179 742.475 32.3587C742.223 32.4994 742.023 32.7047 741.877 32.9747C741.73 33.2447 741.657 33.5721 741.657 33.9569ZM750.481 31.3205V32.182H747.052V31.3205H750.481ZM748.051 29.7351H749.068V36.042C749.068 36.3292 749.109 36.5446 749.193 36.6882C749.279 36.8289 749.388 36.9237 749.52 36.9725C749.655 37.0185 749.797 37.0414 749.947 37.0414C750.059 37.0414 750.15 37.0357 750.222 37.0242C750.294 37.0098 750.352 36.9984 750.395 36.9897L750.601 37.903C750.532 37.9289 750.436 37.9547 750.313 37.9806C750.189 38.0093 750.033 38.0237 749.843 38.0237C749.556 38.0237 749.275 37.9619 748.999 37.8384C748.726 37.7149 748.499 37.5268 748.318 37.2741C748.14 37.0213 748.051 36.7025 748.051 36.3177V29.7351ZM753.824 38.0926C753.405 38.0926 753.024 38.0136 752.682 37.8556C752.34 37.6948 752.069 37.4636 751.868 37.1621C751.667 36.8576 751.566 36.49 751.566 36.0592C751.566 35.6801 751.641 35.3728 751.79 35.1373C751.94 34.8989 752.139 34.7123 752.389 34.5773C752.639 34.4423 752.915 34.3418 753.216 34.2757C753.521 34.2068 753.827 34.1522 754.134 34.112C754.536 34.0603 754.862 34.0216 755.112 33.9957C755.365 33.967 755.548 33.9196 755.663 33.8535C755.781 33.7875 755.84 33.6726 755.84 33.5089V33.4744C755.84 33.0494 755.724 32.7191 755.491 32.4836C755.261 32.2481 754.912 32.1304 754.444 32.1304C753.959 32.1304 753.578 32.2366 753.303 32.4491C753.027 32.6617 752.833 32.8886 752.721 33.1298L751.756 32.7852C751.928 32.3831 752.158 32.07 752.445 31.846C752.735 31.6191 753.051 31.4612 753.393 31.3722C753.738 31.2802 754.077 31.2343 754.41 31.2343C754.622 31.2343 754.866 31.2601 755.142 31.3118C755.421 31.3607 755.689 31.4626 755.948 31.6177C756.209 31.7728 756.426 32.0069 756.598 32.3199C756.771 32.633 756.857 33.0523 756.857 33.5778V37.9375H755.84V37.0414H755.788C755.719 37.185 755.604 37.3387 755.444 37.5024C755.283 37.6661 755.069 37.8054 754.802 37.9203C754.535 38.0351 754.209 38.0926 753.824 38.0926ZM753.979 37.1793C754.381 37.1793 754.72 37.1003 754.996 36.9424C755.274 36.7844 755.484 36.5805 755.625 36.3306C755.768 36.0808 755.84 35.818 755.84 35.5423V34.6117C755.797 34.6634 755.702 34.7108 755.556 34.7539C755.412 34.7941 755.245 34.83 755.056 34.8616C754.869 34.8903 754.687 34.9162 754.509 34.9392C754.334 34.9593 754.191 34.9765 754.082 34.9908C753.818 35.0253 753.571 35.0813 753.341 35.1589C753.114 35.2335 752.931 35.347 752.79 35.4992C752.652 35.6485 752.583 35.8524 752.583 36.1109C752.583 36.4642 752.714 36.7313 752.975 36.9122C753.239 37.0903 753.574 37.1793 753.979 37.1793ZM761.267 38.0754C760.647 38.0754 760.113 37.9289 759.664 37.6359C759.216 37.343 758.872 36.9395 758.631 36.4254C758.389 35.9113 758.269 35.324 758.269 34.6634C758.269 33.9914 758.392 33.3983 758.639 32.8842C758.889 32.3673 759.237 31.9638 759.682 31.6737C760.13 31.3808 760.652 31.2343 761.25 31.2343C761.715 31.2343 762.134 31.3205 762.508 31.4928C762.881 31.6651 763.187 31.9063 763.425 32.2165C763.664 32.5267 763.812 32.8886 763.869 33.3021H762.852C762.775 33.0006 762.603 32.7335 762.335 32.5008C762.071 32.2653 761.715 32.1476 761.267 32.1476C760.871 32.1476 760.523 32.251 760.225 32.4578C759.929 32.6617 759.698 32.9503 759.531 33.3237C759.367 33.6941 759.285 34.1293 759.285 34.629C759.285 35.1402 759.366 35.5853 759.527 35.9644C759.69 36.3436 759.92 36.6379 760.216 36.8476C760.515 37.0572 760.865 37.1621 761.267 37.1621C761.531 37.1621 761.771 37.1161 761.986 37.0242C762.202 36.9323 762.384 36.8002 762.534 36.6279C762.683 36.4556 762.789 36.2488 762.852 36.0075H763.869C763.812 36.3981 763.669 36.7499 763.443 37.063C763.219 37.3732 762.921 37.6201 762.551 37.804C762.183 37.9849 761.755 38.0754 761.267 38.0754ZM768.1 31.3205V32.182H764.67V31.3205H768.1ZM765.67 29.7351H766.687V36.042C766.687 36.3292 766.728 36.5446 766.812 36.6882C766.898 36.8289 767.007 36.9237 767.139 36.9725C767.274 37.0185 767.416 37.0414 767.565 37.0414C767.677 37.0414 767.769 37.0357 767.841 37.0242C767.913 37.0098 767.97 36.9984 768.013 36.9897L768.22 37.903C768.151 37.9289 768.055 37.9547 767.932 37.9806C767.808 38.0093 767.652 38.0237 767.462 38.0237C767.175 38.0237 766.893 37.9619 766.618 37.8384C766.345 37.7149 766.118 37.5268 765.937 37.2741C765.759 37.0213 765.67 36.7025 765.67 36.3177V29.7351ZM778.702 29.1148H779.77V34.9564C779.77 35.5595 779.628 36.098 779.344 36.5719C779.062 37.0429 778.664 37.4148 778.15 37.6876C777.636 37.9576 777.033 38.0926 776.341 38.0926C775.649 38.0926 775.046 37.9576 774.532 37.6876C774.018 37.4148 773.618 37.0429 773.334 36.5719C773.053 36.098 772.912 35.5595 772.912 34.9564V29.1148H773.98V34.8702C773.98 35.301 774.075 35.6844 774.265 36.0205C774.454 36.3536 774.724 36.6164 775.074 36.8088C775.428 36.9984 775.85 37.0931 776.341 37.0931C776.832 37.0931 777.254 36.9984 777.608 36.8088C777.961 36.6164 778.231 36.3536 778.417 36.0205C778.607 35.6844 778.702 35.301 778.702 34.8702V29.1148ZM786.319 32.8024L785.406 33.0609C785.349 32.9087 785.264 32.7608 785.152 32.6172C785.043 32.4707 784.893 32.3501 784.704 32.2553C784.514 32.1605 784.272 32.1131 783.976 32.1131C783.571 32.1131 783.233 32.2065 782.963 32.3931C782.696 32.5769 782.563 32.811 782.563 33.0953C782.563 33.3481 782.655 33.5477 782.839 33.6941C783.022 33.8406 783.31 33.9627 783.7 34.0603L784.682 34.3016C785.274 34.4452 785.715 34.6649 786.005 34.9607C786.295 35.2536 786.44 35.6313 786.44 36.0937C786.44 36.4728 786.331 36.8117 786.113 37.1104C785.897 37.4091 785.596 37.6446 785.208 37.8169C784.82 37.9892 784.369 38.0754 783.855 38.0754C783.18 38.0754 782.622 37.9289 782.179 37.6359C781.737 37.343 781.457 36.9151 781.339 36.3522L782.304 36.1109C782.396 36.467 782.57 36.7341 782.826 36.9122C783.084 37.0903 783.422 37.1793 783.838 37.1793C784.312 37.1793 784.688 37.0788 784.967 36.8777C785.248 36.6738 785.389 36.4297 785.389 36.1454C785.389 35.9156 785.308 35.7232 785.148 35.5681C784.987 35.4102 784.74 35.2924 784.407 35.2149L783.304 34.9564C782.698 34.8128 782.253 34.5902 781.968 34.2886C781.687 33.9842 781.546 33.6037 781.546 33.147C781.546 32.7737 781.651 32.4434 781.861 32.1562C782.073 31.869 782.362 31.6436 782.727 31.4798C783.094 31.3161 783.511 31.2343 783.976 31.2343C784.631 31.2343 785.145 31.3779 785.518 31.6651C785.894 31.9523 786.161 32.3314 786.319 32.8024Z" fill="black"/>
<rect x="1139.33" y="17.8604" width="57.2865" height="31.676" rx="15.838" stroke="#B9B9B9" stroke-width="0.673958"/>
<path d="M1184.15 32.3477L1181.45 35.0435L1178.76 32.3477" stroke="black" stroke-width="1.34792" stroke-linecap="round" stroke-linejoin="round"/>
<circle cx="1155.16" cy="33.6958" r="12.8052" fill="black"/>
<path d="M1160.56 39.7641C1160.56 37.903 1158.14 36.3943 1155.17 36.3943C1152.19 36.3943 1149.77 37.903 1149.77 39.7641M1155.17 34.3724C1153.3 34.3724 1151.8 32.8637 1151.8 31.0026C1151.8 29.1415 1153.3 27.6328 1155.17 27.6328C1157.03 27.6328 1158.53 29.1415 1158.53 31.0026C1158.53 32.8637 1157.03 34.3724 1155.17 34.3724Z" stroke="white" stroke-width="1.34792" stroke-linecap="round" stroke-linejoin="round"/>
<path d="M1021.14 38.957V31.1146H1026.25V32.3055H1022.57V34.4346H1025.98V35.6255H1022.57V37.7661H1026.28V38.957H1021.14ZM1027.63 38.957V33.0752H1028.96V34.0747H1029.03C1029.15 33.7377 1029.35 33.4747 1029.64 33.2858C1029.92 33.0944 1030.26 32.9986 1030.65 32.9986C1031.05 32.9986 1031.38 33.0956 1031.66 33.2897C1031.93 33.4811 1032.13 33.7428 1032.24 34.0747H1032.3C1032.43 33.7479 1032.65 33.4875 1032.96 33.2935C1033.27 33.0969 1033.64 32.9986 1034.07 32.9986C1034.61 32.9986 1035.05 33.1697 1035.39 33.5118C1035.73 33.8538 1035.9 34.3529 1035.9 35.009V38.957H1034.51V35.2235C1034.51 34.8584 1034.42 34.5916 1034.22 34.4231C1034.03 34.2521 1033.79 34.1666 1033.51 34.1666C1033.18 34.1666 1032.92 34.2712 1032.73 34.4806C1032.54 34.6874 1032.45 34.9567 1032.45 35.2886V38.957H1031.09V35.166C1031.09 34.8622 1031 34.6197 1030.81 34.4384C1030.63 34.2572 1030.39 34.1666 1030.1 34.1666C1029.9 34.1666 1029.72 34.2176 1029.56 34.3197C1029.39 34.4193 1029.26 34.561 1029.17 34.7448C1029.07 34.926 1029.02 35.1379 1029.02 35.3805V38.957H1027.63ZM1037.31 41.1627V33.0752H1038.67V34.0479H1038.75C1038.83 33.9049 1038.93 33.753 1039.06 33.5922C1039.19 33.4288 1039.36 33.2897 1039.59 33.1748C1039.81 33.0573 1040.09 32.9986 1040.44 32.9986C1040.89 32.9986 1041.3 33.1148 1041.66 33.3471C1042.03 33.5769 1042.32 33.9177 1042.54 34.3695C1042.75 34.8188 1042.86 35.3702 1042.86 36.0238C1042.86 36.6697 1042.76 37.2185 1042.55 37.6704C1042.33 38.1222 1042.05 38.4669 1041.68 38.7043C1041.32 38.9417 1040.9 39.0604 1040.44 39.0604C1040.1 39.0604 1039.82 39.0043 1039.6 38.8919C1039.38 38.7796 1039.2 38.6443 1039.06 38.486C1038.93 38.3252 1038.83 38.1733 1038.75 38.0303H1038.7V41.1627H1037.31ZM1038.67 36.0161C1038.67 36.3965 1038.72 36.7297 1038.83 37.0156C1038.94 37.3015 1039.1 37.5249 1039.3 37.6857C1039.51 37.844 1039.76 37.9231 1040.05 37.9231C1040.36 37.9231 1040.62 37.8414 1040.82 37.678C1041.03 37.5121 1041.18 37.2862 1041.29 37.0003C1041.4 36.7118 1041.45 36.3837 1041.45 36.0161C1041.45 35.6511 1041.4 35.3268 1041.29 35.0435C1041.19 34.7601 1041.03 34.538 1040.83 34.3772C1040.62 34.2163 1040.36 34.1359 1040.05 34.1359C1039.76 34.1359 1039.51 34.2138 1039.3 34.3695C1039.09 34.5252 1038.93 34.7435 1038.83 35.0243C1038.72 35.3051 1038.67 35.6357 1038.67 36.0161ZM1045.44 31.1146V38.957H1044.05V31.1146H1045.44ZM1049.43 39.0719C1048.85 39.0719 1048.36 38.9455 1047.93 38.6928C1047.51 38.4401 1047.19 38.0865 1046.95 37.6321C1046.72 37.1777 1046.61 36.6467 1046.61 36.0391C1046.61 35.4315 1046.72 34.8992 1046.95 34.4423C1047.19 33.9853 1047.51 33.6305 1047.93 33.3777C1048.36 33.125 1048.85 32.9986 1049.43 32.9986C1050 32.9986 1050.5 33.125 1050.92 33.3777C1051.34 33.6305 1051.67 33.9853 1051.9 34.4423C1052.13 34.8992 1052.25 35.4315 1052.25 36.0391C1052.25 36.6467 1052.13 37.1777 1051.9 37.6321C1051.67 38.0865 1051.34 38.4401 1050.92 38.6928C1050.5 38.9455 1050 39.0719 1049.43 39.0719ZM1049.44 37.9614C1049.75 37.9614 1050.01 37.8759 1050.22 37.7048C1050.43 37.5313 1050.58 37.2989 1050.68 37.0079C1050.79 36.7169 1050.84 36.3927 1050.84 36.0353C1050.84 35.6753 1050.79 35.3498 1050.68 35.0588C1050.58 34.7652 1050.43 34.5316 1050.22 34.358C1050.01 34.1844 1049.75 34.0976 1049.44 34.0976C1049.12 34.0976 1048.85 34.1844 1048.64 34.358C1048.43 34.5316 1048.27 34.7652 1048.17 35.0588C1048.07 35.3498 1048.01 35.6753 1048.01 36.0353C1048.01 36.3927 1048.07 36.7169 1048.17 37.0079C1048.27 37.2989 1048.43 37.5313 1048.64 37.7048C1048.85 37.8759 1049.12 37.9614 1049.44 37.9614ZM1054.08 41.1627C1053.9 41.1627 1053.72 41.1474 1053.56 41.1168C1053.4 41.0887 1053.28 41.0555 1053.18 41.0172L1053.5 39.9373C1053.7 39.9961 1053.88 40.0241 1054.04 40.0216C1054.2 40.019 1054.34 39.9692 1054.46 39.8722C1054.58 39.7778 1054.69 39.6195 1054.77 39.3974L1054.89 39.0796L1052.76 33.0752H1054.23L1055.58 37.5172H1055.64L1057 33.0752H1058.48L1056.12 39.6693C1056.01 39.9807 1055.87 40.2475 1055.68 40.4696C1055.5 40.6943 1055.28 40.8653 1055.02 40.9827C1054.76 41.1027 1054.45 41.1627 1054.08 41.1627ZM1061.84 39.0719C1061.25 39.0719 1060.74 38.9494 1060.31 38.7043C1059.89 38.4567 1059.56 38.1069 1059.33 37.6551C1059.1 37.2007 1058.98 36.6658 1058.98 36.0506C1058.98 35.4456 1059.1 34.9146 1059.33 34.4576C1059.56 33.9981 1059.88 33.6407 1060.3 33.3854C1060.72 33.1275 1061.21 32.9986 1061.77 32.9986C1062.13 32.9986 1062.47 33.0573 1062.79 33.1748C1063.12 33.2897 1063.4 33.4684 1063.65 33.7109C1063.9 33.9534 1064.1 34.2623 1064.24 34.6376C1064.38 35.0103 1064.46 35.4545 1064.46 35.9702V36.3952H1059.63V35.4609H1063.13C1063.12 35.1954 1063.07 34.9592 1062.95 34.7525C1062.84 34.5431 1062.68 34.3785 1062.48 34.2585C1062.28 34.1385 1062.05 34.0785 1061.79 34.0785C1061.5 34.0785 1061.25 34.1474 1061.04 34.2853C1060.82 34.4206 1060.66 34.5993 1060.54 34.8214C1060.42 35.0409 1060.36 35.2822 1060.36 35.5451V36.3608C1060.36 36.7028 1060.42 36.9964 1060.55 37.2415C1060.67 37.484 1060.85 37.6704 1061.07 37.8006C1061.29 37.9282 1061.56 37.992 1061.86 37.992C1062.06 37.992 1062.24 37.964 1062.41 37.9078C1062.57 37.8491 1062.71 37.7636 1062.83 37.6512C1062.95 37.5389 1063.04 37.3998 1063.1 37.2338L1064.4 37.3794C1064.32 37.7214 1064.16 38.0201 1063.93 38.2754C1063.7 38.5281 1063.41 38.7247 1063.06 38.8651C1062.7 39.003 1062.3 39.0719 1061.84 39.0719ZM1068.23 39.0719C1067.64 39.0719 1067.13 38.9494 1066.7 38.7043C1066.28 38.4567 1065.95 38.1069 1065.72 37.6551C1065.49 37.2007 1065.38 36.6658 1065.38 36.0506C1065.38 35.4456 1065.49 34.9146 1065.72 34.4576C1065.95 33.9981 1066.28 33.6407 1066.69 33.3854C1067.11 33.1275 1067.6 32.9986 1068.16 32.9986C1068.52 32.9986 1068.86 33.0573 1069.19 33.1748C1069.51 33.2897 1069.8 33.4684 1070.04 33.7109C1070.29 33.9534 1070.49 34.2623 1070.63 34.6376C1070.78 35.0103 1070.85 35.4545 1070.85 35.9702V36.3952H1066.03V35.4609H1069.52C1069.52 35.1954 1069.46 34.9592 1069.35 34.7525C1069.23 34.5431 1069.08 34.3785 1068.88 34.2585C1068.68 34.1385 1068.44 34.0785 1068.18 34.0785C1067.89 34.0785 1067.65 34.1474 1067.43 34.2853C1067.22 34.4206 1067.05 34.5993 1066.93 34.8214C1066.81 35.0409 1066.75 35.2822 1066.75 35.5451V36.3608C1066.75 36.7028 1066.81 36.9964 1066.94 37.2415C1067.06 37.484 1067.24 37.6704 1067.46 37.8006C1067.69 37.9282 1067.95 37.992 1068.25 37.992C1068.45 37.992 1068.64 37.964 1068.8 37.9078C1068.96 37.8491 1069.1 37.7636 1069.22 37.6512C1069.34 37.5389 1069.43 37.3998 1069.5 37.2338L1070.79 37.3794C1070.71 37.7214 1070.55 38.0201 1070.32 38.2754C1070.1 38.5281 1069.8 38.7247 1069.45 38.8651C1069.09 39.003 1068.69 39.0719 1068.23 39.0719ZM1074.76 38.957V31.1146H1076.18V37.7661H1079.63V38.957H1074.76ZM1083.37 39.0719C1082.79 39.0719 1082.3 38.9455 1081.87 38.6928C1081.45 38.4401 1081.13 38.0865 1080.89 37.6321C1080.66 37.1777 1080.55 36.6467 1080.55 36.0391C1080.55 35.4315 1080.66 34.8992 1080.89 34.4423C1081.13 33.9853 1081.45 33.6305 1081.87 33.3777C1082.3 33.125 1082.79 32.9986 1083.37 32.9986C1083.94 32.9986 1084.44 33.125 1084.86 33.3777C1085.28 33.6305 1085.61 33.9853 1085.84 34.4423C1086.07 34.8992 1086.19 35.4315 1086.19 36.0391C1086.19 36.6467 1086.07 37.1777 1085.84 37.6321C1085.61 38.0865 1085.28 38.4401 1084.86 38.6928C1084.44 38.9455 1083.94 39.0719 1083.37 39.0719ZM1083.38 37.9614C1083.69 37.9614 1083.95 37.8759 1084.16 37.7048C1084.37 37.5313 1084.52 37.2989 1084.62 37.0079C1084.73 36.7169 1084.78 36.3927 1084.78 36.0353C1084.78 35.6753 1084.73 35.3498 1084.62 35.0588C1084.52 34.7652 1084.37 34.5316 1084.16 34.358C1083.95 34.1844 1083.69 34.0976 1083.38 34.0976C1083.06 34.0976 1082.79 34.1844 1082.58 34.358C1082.37 34.5316 1082.21 34.7652 1082.11 35.0588C1082.01 35.3498 1081.95 35.6753 1081.95 36.0353C1081.95 36.3927 1082.01 36.7169 1082.11 37.0079C1082.21 37.2989 1082.37 37.5313 1082.58 37.7048C1082.79 37.8759 1083.06 37.9614 1083.38 37.9614ZM1089.92 41.2853C1089.42 41.2853 1089 41.2176 1088.64 41.0823C1088.28 40.9495 1087.99 40.7708 1087.78 40.5462C1087.56 40.3215 1087.41 40.0726 1087.32 39.7995L1088.57 39.497C1088.63 39.6118 1088.71 39.7254 1088.82 39.8378C1088.93 39.9527 1089.07 40.0471 1089.25 40.1211C1089.43 40.1977 1089.67 40.236 1089.94 40.236C1090.34 40.236 1090.66 40.1403 1090.92 39.9488C1091.18 39.7599 1091.31 39.4485 1091.31 39.0145V37.9001H1091.24C1091.17 38.0431 1091.06 38.1899 1090.92 38.3405C1090.79 38.4911 1090.61 38.6175 1090.38 38.7196C1090.16 38.8217 1089.88 38.8728 1089.55 38.8728C1089.09 38.8728 1088.68 38.7668 1088.32 38.555C1087.95 38.3405 1087.66 38.0214 1087.44 37.5976C1087.23 37.1713 1087.12 36.6377 1087.12 35.997C1087.12 35.3511 1087.23 34.8061 1087.44 34.3619C1087.66 33.9151 1087.95 33.5769 1088.32 33.3471C1088.69 33.1148 1089.1 32.9986 1089.55 32.9986C1089.89 32.9986 1090.18 33.0573 1090.4 33.1748C1090.62 33.2897 1090.8 33.4288 1090.94 33.5922C1091.07 33.753 1091.17 33.9049 1091.24 34.0479H1091.31V33.0752H1092.68V39.0528C1092.68 39.5557 1092.56 39.9718 1092.32 40.3011C1092.08 40.6304 1091.75 40.8768 1091.34 41.0402C1090.92 41.2036 1090.45 41.2853 1089.92 41.2853ZM1089.93 37.7853C1090.23 37.7853 1090.48 37.7138 1090.68 37.5708C1090.89 37.4279 1091.05 37.2224 1091.15 36.9543C1091.26 36.6863 1091.31 36.3646 1091.31 35.9893C1091.31 35.6192 1091.26 35.2949 1091.15 35.0167C1091.05 34.7384 1090.89 34.5227 1090.69 34.3695C1090.48 34.2138 1090.23 34.1359 1089.93 34.1359C1089.62 34.1359 1089.37 34.2163 1089.16 34.3772C1088.95 34.538 1088.8 34.7588 1088.69 35.0396C1088.59 35.3179 1088.53 35.6345 1088.53 35.9893C1088.53 36.3493 1088.59 36.6646 1088.69 36.9352C1088.8 37.2032 1088.96 37.4125 1089.16 37.5632C1089.37 37.7112 1089.63 37.7853 1089.93 37.7853ZM1094.1 38.957V33.0752H1095.49V38.957H1094.1ZM1094.8 32.2404C1094.58 32.2404 1094.39 32.1677 1094.23 32.0222C1094.07 31.8741 1094 31.6967 1094 31.4899C1094 31.2805 1094.07 31.1031 1094.23 30.9576C1094.39 30.8095 1094.58 30.7355 1094.8 30.7355C1095.02 30.7355 1095.21 30.8095 1095.37 30.9576C1095.52 31.1031 1095.6 31.2805 1095.6 31.4899C1095.6 31.6967 1095.52 31.8741 1095.37 32.0222C1095.21 32.1677 1095.02 32.2404 1094.8 32.2404ZM1098.3 35.5107V38.957H1096.91V33.0752H1098.24V34.0747H1098.31C1098.44 33.7453 1098.66 33.4837 1098.96 33.2897C1099.25 33.0956 1099.62 32.9986 1100.06 32.9986C1100.47 32.9986 1100.82 33.0854 1101.12 33.259C1101.43 33.4326 1101.66 33.6841 1101.83 34.0134C1102 34.3427 1102.08 34.7422 1102.08 35.212V38.957H1100.69V35.4264C1100.69 35.0333 1100.59 34.7256 1100.38 34.5035C1100.18 34.2814 1099.9 34.1704 1099.54 34.1704C1099.3 34.1704 1099.09 34.224 1098.9 34.3312C1098.71 34.4359 1098.56 34.5878 1098.46 34.7869C1098.35 34.986 1098.3 35.2273 1098.3 35.5107Z" fill="#535862"/>
</svg>
