<svg width="116" height="92" viewBox="0 0 116 92" fill="none" xmlns="http://www.w3.org/2000/svg">
<rect width="115.247" height="91.6583" rx="5.39167" fill="white"/>
<path d="M28.8143 18.874C28.8143 14.8787 25.5645 11.6289 21.5693 11.6289C17.574 11.6289 14.3242 14.8787 14.3242 18.874C14.3242 21.2126 15.4423 23.2898 17.1676 24.6154C17.1703 24.6181 17.1744 24.6195 17.1771 24.6222C18.3976 25.557 19.9174 26.119 21.5699 26.119C23.2225 26.119 24.7423 25.557 25.9628 24.6222C25.9655 24.6195 25.9695 24.6181 25.9722 24.6154C27.6962 23.2898 28.8143 21.2126 28.8143 18.874ZM15.3352 18.874C15.3352 15.4361 18.1314 12.6398 21.5693 12.6398C25.0071 12.6398 27.8034 15.4361 27.8034 18.874C27.8034 20.5744 27.1173 22.1171 26.0093 23.2426C25.7067 21.9614 24.7382 20.7745 22.7217 20.7745H20.4168C18.4003 20.7745 17.4312 21.9614 17.1292 23.2426C16.0212 22.1171 15.3352 20.5744 15.3352 18.874ZM18.0371 24.0055C18.0762 23.314 18.3923 21.7854 20.4168 21.7854H22.7217C24.7463 21.7854 25.0624 23.314 25.1015 24.0055C24.0966 24.6997 22.8801 25.1081 21.5693 25.1081C20.2584 25.1081 19.0419 24.699 18.0371 24.0055ZM21.5747 20.0534C22.9678 20.0534 24.102 18.9198 24.102 17.526C24.102 16.1323 22.9678 14.9987 21.5747 14.9987C20.1816 14.9987 19.0474 16.1323 19.0474 17.526C19.0474 18.9198 20.181 20.0534 21.5747 20.0534ZM21.5747 16.0096C22.4104 16.0096 23.0911 16.6897 23.0911 17.526C23.0911 18.3624 22.4104 19.0424 21.5747 19.0424C20.739 19.0424 20.0583 18.3624 20.0583 17.526C20.0583 16.6897 20.739 16.0096 21.5747 16.0096Z" fill="#141514"/>
<path d="M46.7817 22.8711V15.0287H49.4316C50.0468 15.0287 50.5497 15.1397 50.9403 15.3618C51.3335 15.5814 51.6245 15.8788 51.8134 16.254C52.0023 16.6293 52.0968 17.048 52.0968 17.5101C52.0968 17.9721 52.0023 18.3921 51.8134 18.7699C51.6271 19.1477 51.3386 19.449 50.948 19.6736C50.5574 19.8957 50.057 20.0068 49.4469 20.0068H47.5476V19.1643H49.4163C49.8375 19.1643 50.1757 19.0916 50.431 18.9461C50.6863 18.8005 50.8714 18.604 50.9863 18.3563C51.1037 18.1062 51.1624 17.8241 51.1624 17.5101C51.1624 17.1961 51.1037 16.9152 50.9863 16.6676C50.8714 16.42 50.685 16.226 50.4272 16.0856C50.1694 15.9426 49.8273 15.8711 49.4009 15.8711H47.7314V22.8711H46.7817ZM53.3854 22.8711V16.9893H54.2585V17.8777H54.3198C54.427 17.5866 54.621 17.3505 54.9018 17.1693C55.1827 16.988 55.4992 16.8974 55.8515 16.8974C55.9179 16.8974 56.0009 16.8986 56.1004 16.9012C56.2 16.9038 56.2753 16.9076 56.3263 16.9127V17.8317C56.2957 17.8241 56.2255 17.8126 56.1157 17.7973C56.0085 17.7794 55.8949 17.7705 55.7749 17.7705C55.489 17.7705 55.2337 17.8304 55.0091 17.9504C54.787 18.0679 54.6108 18.2312 54.4806 18.4406C54.353 18.6474 54.2892 18.8835 54.2892 19.149V22.8711H53.3854ZM59.4894 22.9936C58.9584 22.9936 58.4925 22.8673 58.0917 22.6145C57.6935 22.3618 57.382 22.0082 57.1574 21.5538C56.9353 21.0994 56.8242 20.5684 56.8242 19.9608C56.8242 19.3481 56.9353 18.8133 57.1574 18.3563C57.382 17.8994 57.6935 17.5445 58.0917 17.2918C58.4925 17.0391 58.9584 16.9127 59.4894 16.9127C60.0204 16.9127 60.4851 17.0391 60.8833 17.2918C61.2841 17.5445 61.5956 17.8994 61.8177 18.3563C62.0423 18.8133 62.1546 19.3481 62.1546 19.9608C62.1546 20.5684 62.0423 21.0994 61.8177 21.5538C61.5956 22.0082 61.2841 22.3618 60.8833 22.6145C60.4851 22.8673 60.0204 22.9936 59.4894 22.9936ZM59.4894 22.1818C59.8928 22.1818 60.2247 22.0784 60.4851 21.8716C60.7455 21.6649 60.9382 21.393 61.0633 21.056C61.1884 20.719 61.2509 20.354 61.2509 19.9608C61.2509 19.5677 61.1884 19.2013 61.0633 18.8618C60.9382 18.5223 60.7455 18.2478 60.4851 18.0385C60.2247 17.8292 59.8928 17.7245 59.4894 17.7245C59.0861 17.7245 58.7542 17.8292 58.4938 18.0385C58.2334 18.2478 58.0407 18.5223 57.9156 18.8618C57.7905 19.2013 57.728 19.5677 57.728 19.9608C57.728 20.354 57.7905 20.719 57.9156 21.056C58.0407 21.393 58.2334 21.6649 58.4938 21.8716C58.7542 22.0784 59.0861 22.1818 59.4894 22.1818ZM66.0348 16.9893V17.7551H62.8641V16.9893H66.0348ZM63.8138 22.8711V16.1775C63.8138 15.8405 63.8929 15.5597 64.0512 15.335C64.2095 15.1104 64.415 14.9419 64.6677 14.8295C64.9205 14.7172 65.1872 14.6611 65.468 14.6611C65.6901 14.6611 65.8714 14.6789 66.0118 14.7147C66.1522 14.7504 66.2569 14.7836 66.3258 14.8142L66.0654 15.5954C66.0195 15.5801 65.9556 15.5609 65.874 15.538C65.7948 15.515 65.6901 15.5035 65.5599 15.5035C65.2613 15.5035 65.0455 15.5788 64.9128 15.7294C64.7826 15.8801 64.7175 16.1009 64.7175 16.3919V22.8711H63.8138ZM67.1827 22.8711V16.9893H68.0864V22.8711H67.1827ZM67.6422 16.009C67.4661 16.009 67.3142 15.949 67.1865 15.829C67.0614 15.709 66.9989 15.5648 66.9989 15.3963C66.9989 15.2278 67.0614 15.0836 67.1865 14.9636C67.3142 14.8436 67.4661 14.7836 67.6422 14.7836C67.8184 14.7836 67.969 14.8436 68.0941 14.9636C68.2217 15.0836 68.2855 15.2278 68.2855 15.3963C68.2855 15.5648 68.2217 15.709 68.0941 15.829C67.969 15.949 67.8184 16.009 67.6422 16.009ZM70.5267 15.0287V22.8711H69.623V15.0287H70.5267ZM74.5294 22.9936C73.9627 22.9936 73.4738 22.8685 73.0628 22.6184C72.6543 22.3656 72.3391 22.0133 72.117 21.5615C71.8974 21.1071 71.7876 20.5786 71.7876 19.9761C71.7876 19.3737 71.8974 18.8427 72.117 18.3831C72.3391 17.9211 72.648 17.5611 73.0436 17.3033C73.4419 17.0429 73.9065 16.9127 74.4375 16.9127C74.7439 16.9127 75.0464 16.9637 75.3451 17.0659C75.6437 17.168 75.9156 17.3339 76.1607 17.5637C76.4058 17.7909 76.6011 18.0921 76.7466 18.4674C76.8921 18.8427 76.9649 19.3047 76.9649 19.8536V20.2365H72.431V19.4554H76.0458C76.0458 19.1235 75.9795 18.8273 75.8467 18.567C75.7165 18.3066 75.5301 18.1011 75.2876 17.9504C75.0477 17.7998 74.7643 17.7245 74.4375 17.7245C74.0776 17.7245 73.7661 17.8139 73.5032 17.9926C73.2428 18.1687 73.0424 18.3985 72.902 18.6818C72.7616 18.9652 72.6914 19.269 72.6914 19.5932V20.114C72.6914 20.5582 72.7679 20.9347 72.9211 21.2436C73.0768 21.55 73.2926 21.7836 73.5683 21.9444C73.844 22.1027 74.1644 22.1818 74.5294 22.1818C74.7668 22.1818 74.9813 22.1486 75.1727 22.0823C75.3668 22.0133 75.534 21.9112 75.6744 21.7759C75.8148 21.6381 75.9233 21.467 75.9999 21.2628L76.873 21.5079C76.7811 21.804 76.6266 22.0644 76.4096 22.289C76.1926 22.5111 75.9246 22.6847 75.6055 22.8098C75.2863 22.9324 74.9277 22.9936 74.5294 22.9936Z" fill="black"/>
<path d="M24.2628 39.2578H18.8711C17.2415 39.2578 16.3438 40.1555 16.3438 41.7852V51.8945C16.3438 52.0752 16.4401 52.2416 16.5958 52.3312C16.674 52.3771 16.7616 52.4 16.8492 52.4C16.9355 52.4 17.0225 52.3778 17.1 52.3333L21.5669 49.7803L26.0339 52.3326C26.1902 52.4223 26.383 52.4215 26.538 52.3306C26.6937 52.2403 26.7901 52.0738 26.7901 51.8939V41.7845C26.7901 40.1555 25.8924 39.2578 24.2628 39.2578ZM25.7792 51.0231L21.8177 48.7599C21.6627 48.671 21.4712 48.671 21.3162 48.7599L17.3547 51.0238V41.7852C17.3547 40.7223 17.8083 40.2687 18.8711 40.2687H24.2628C25.3256 40.2687 25.7792 40.7223 25.7792 41.7852V51.0231V51.0231ZM24.0943 43.1331C24.0943 43.4121 23.8678 43.6385 23.5888 43.6385H19.5451C19.266 43.6385 19.0396 43.4121 19.0396 43.1331C19.0396 42.8541 19.266 42.6276 19.5451 42.6276H23.5888C23.8678 42.6276 24.0943 42.8541 24.0943 43.1331Z" fill="black"/>
<path d="M51.7424 43.9463C51.6964 43.5583 51.5101 43.257 51.1833 43.0426C50.8566 42.8281 50.4558 42.7209 49.9809 42.7209C49.6337 42.7209 49.3299 42.7771 49.0695 42.8894C48.8117 43.0017 48.61 43.1562 48.4645 43.3528C48.3216 43.5493 48.2501 43.7727 48.2501 44.0229C48.2501 44.2322 48.2999 44.4122 48.3994 44.5628C48.5015 44.7109 48.6317 44.8347 48.79 44.9343C48.9483 45.0313 49.1142 45.1117 49.2878 45.1755C49.4614 45.2368 49.621 45.2866 49.7665 45.3249L50.563 45.5393C50.7672 45.5929 50.9944 45.6669 51.2446 45.7614C51.4973 45.8559 51.7386 45.9848 51.9683 46.1482C52.2006 46.309 52.3921 46.5158 52.5427 46.7685C52.6933 47.0212 52.7687 47.3314 52.7687 47.699C52.7687 48.1228 52.6576 48.5057 52.4355 48.8478C52.216 49.1899 51.8943 49.4618 51.4705 49.6635C51.0493 49.8651 50.5374 49.966 49.935 49.966C49.3733 49.966 48.887 49.8754 48.476 49.6941C48.0675 49.5128 47.7459 49.2601 47.511 48.9359C47.2787 48.6117 47.1472 48.2351 47.1166 47.8063H48.0969C48.1224 48.1024 48.222 48.3475 48.3956 48.5415C48.5717 48.7329 48.7938 48.8759 49.0619 48.9704C49.3325 49.0623 49.6235 49.1082 49.935 49.1082C50.2975 49.1082 50.623 49.0495 50.9114 48.9321C51.1999 48.8121 51.4284 48.6461 51.5969 48.4343C51.7654 48.2198 51.8496 47.9696 51.8496 47.6837C51.8496 47.4233 51.7769 47.2114 51.6314 47.048C51.4858 46.8847 51.2944 46.7519 51.057 46.6498C50.8195 46.5477 50.563 46.4583 50.2873 46.3817L49.3223 46.106C48.7096 45.9299 48.2245 45.6784 47.8671 45.3517C47.5097 45.0249 47.331 44.5973 47.331 44.0688C47.331 43.6298 47.4497 43.2468 47.6872 42.9201C47.9271 42.5907 48.2488 42.3354 48.6521 42.1542C49.0581 41.9704 49.5112 41.8785 50.0116 41.8785C50.517 41.8785 50.9663 41.9691 51.3595 42.1504C51.7526 42.3291 52.0641 42.5741 52.2938 42.8856C52.5261 43.197 52.6487 43.5506 52.6614 43.9463H51.7424ZM55.8197 49.966C55.447 49.966 55.1088 49.8958 54.805 49.7554C54.5012 49.6124 54.2599 49.4069 54.0812 49.1388C53.9025 48.8682 53.8132 48.5415 53.8132 48.1585C53.8132 47.8216 53.8796 47.5484 54.0123 47.3391C54.1451 47.1272 54.3225 46.9612 54.5446 46.8413C54.7667 46.7213 55.0118 46.6319 55.2798 46.5732C55.5504 46.5119 55.8223 46.4634 56.0955 46.4277C56.4529 46.3817 56.7426 46.3473 56.9647 46.3243C57.1894 46.2988 57.3527 46.2567 57.4549 46.1979C57.5595 46.1392 57.6119 46.0371 57.6119 45.8916V45.861C57.6119 45.4831 57.5085 45.1896 57.3017 44.9802C57.0975 44.7709 56.7873 44.6662 56.3712 44.6662C55.9397 44.6662 55.6015 44.7607 55.3564 44.9496C55.1113 45.1385 54.939 45.3402 54.8394 45.5546L53.9817 45.2483C54.1349 44.8909 54.3391 44.6126 54.5944 44.4135C54.8522 44.2118 55.133 44.0714 55.4368 43.9923C55.7432 43.9106 56.0444 43.8697 56.3405 43.8697C56.5294 43.8697 56.7464 43.8927 56.9915 43.9386C57.2391 43.982 57.4778 44.0727 57.7076 44.2105C57.9399 44.3484 58.1327 44.5564 58.2858 44.8347C58.439 45.113 58.5156 45.4857 58.5156 45.9529V49.8281H57.6119V49.0316H57.5659C57.5046 49.1593 57.4025 49.2959 57.2596 49.4414C57.1166 49.5869 56.9264 49.7107 56.689 49.8128C56.4516 49.9149 56.1618 49.966 55.8197 49.966ZM55.9576 49.1542C56.315 49.1542 56.6162 49.084 56.8613 48.9436C57.1089 48.8031 57.2953 48.6219 57.4204 48.3998C57.548 48.1777 57.6119 47.9441 57.6119 47.699V46.8719C57.5736 46.9179 57.4893 46.96 57.3591 46.9983C57.2315 47.034 57.0834 47.0659 56.9149 47.094C56.749 47.1195 56.5869 47.1425 56.4286 47.1629C56.2729 47.1808 56.1465 47.1961 56.0495 47.2089C55.8146 47.2395 55.5951 47.2893 55.3909 47.3582C55.1892 47.4246 55.0258 47.5254 54.9007 47.6607C54.7782 47.7935 54.7169 47.9747 54.7169 48.2045C54.7169 48.5185 54.8331 48.7559 55.0654 48.9167C55.3002 49.075 55.5976 49.1542 55.9576 49.1542ZM64.6454 43.9463L62.4704 49.8281H61.5514L59.3763 43.9463H60.3566L61.9802 48.6334H62.0415L63.6651 43.9463H64.6454ZM67.9751 49.9507C67.4084 49.9507 66.9195 49.8256 66.5085 49.5754C66.1 49.3227 65.7848 48.9704 65.5627 48.5185C65.3431 48.0641 65.2333 47.5356 65.2333 46.9332C65.2333 46.3307 65.3431 45.7997 65.5627 45.3402C65.7848 44.8781 66.0936 44.5182 66.4893 44.2603C66.8876 43.9999 67.3522 43.8697 67.8832 43.8697C68.1896 43.8697 68.4921 43.9208 68.7908 44.0229C69.0894 44.125 69.3613 44.2909 69.6064 44.5207C69.8515 44.7479 70.0468 45.0491 70.1923 45.4244C70.3378 45.7997 70.4106 46.2618 70.4106 46.8106V47.1936H65.8767V46.4124H69.4915C69.4915 46.0805 69.4251 45.7844 69.2924 45.524C69.1622 45.2636 68.9758 45.0581 68.7333 44.9075C68.4933 44.7568 68.21 44.6815 67.8832 44.6815C67.5233 44.6815 67.2118 44.7709 66.9489 44.9496C66.6885 45.1257 66.4881 45.3555 66.3477 45.6389C66.2073 45.9222 66.137 46.226 66.137 46.5502V47.071C66.137 47.5152 66.2136 47.8918 66.3668 48.2007C66.5225 48.507 66.7382 48.7406 67.014 48.9014C67.2897 49.0597 67.6101 49.1388 67.9751 49.1388C68.2125 49.1388 68.427 49.1057 68.6184 49.0393C68.8125 48.9704 68.9797 48.8682 69.1201 48.7329C69.2605 48.5951 69.369 48.424 69.4456 48.2198L70.3187 48.4649C70.2267 48.761 70.0723 49.0214 69.8553 49.2461C69.6383 49.4682 69.3703 49.6418 69.0512 49.7669C68.732 49.8894 68.3734 49.9507 67.9751 49.9507ZM77.7056 41.9857H78.6552V47.5918C78.6552 48.0922 78.5633 48.5172 78.3795 48.867C78.1957 49.2167 77.9366 49.4822 77.6022 49.6635C77.2678 49.8447 76.8733 49.9353 76.4189 49.9353C75.99 49.9353 75.6084 49.8575 75.274 49.7018C74.9395 49.5435 74.6766 49.3188 74.4851 49.0278C74.2937 48.7368 74.1979 48.3909 74.1979 47.9901H75.1323C75.1323 48.2122 75.1872 48.4062 75.2969 48.5721C75.4093 48.7355 75.5624 48.8631 75.7565 48.955C75.9505 49.0469 76.1713 49.0929 76.4189 49.0929C76.6921 49.0929 76.9244 49.0355 77.1159 48.9206C77.3073 48.8057 77.4528 48.6372 77.5524 48.4151C77.6545 48.1905 77.7056 47.916 77.7056 47.5918V41.9857ZM82.7067 49.9507C82.1757 49.9507 81.7098 49.8243 81.309 49.5716C80.9108 49.3188 80.5993 48.9653 80.3747 48.5108C80.1526 48.0564 80.0415 47.5254 80.0415 46.9179C80.0415 46.3052 80.1526 45.7703 80.3747 45.3134C80.5993 44.8564 80.9108 44.5016 81.309 44.2488C81.7098 43.9961 82.1757 43.8697 82.7067 43.8697C83.2377 43.8697 83.7024 43.9961 84.1006 44.2488C84.5014 44.5016 84.8129 44.8564 85.035 45.3134C85.2596 45.7703 85.3719 46.3052 85.3719 46.9179C85.3719 47.5254 85.2596 48.0564 85.035 48.5108C84.8129 48.9653 84.5014 49.3188 84.1006 49.5716C83.7024 49.8243 83.2377 49.9507 82.7067 49.9507ZM82.7067 49.1388C83.1101 49.1388 83.442 49.0355 83.7024 48.8287C83.9628 48.6219 84.1555 48.35 84.2806 48.013C84.4057 47.6761 84.4682 47.311 84.4682 46.9179C84.4682 46.5247 84.4057 46.1584 84.2806 45.8188C84.1555 45.4793 83.9628 45.2049 83.7024 44.9955C83.442 44.7862 83.1101 44.6815 82.7067 44.6815C82.3034 44.6815 81.9715 44.7862 81.7111 44.9955C81.4507 45.2049 81.258 45.4793 81.1329 45.8188C81.0078 46.1584 80.9453 46.5247 80.9453 46.9179C80.9453 47.311 81.0078 47.6761 81.1329 48.013C81.258 48.35 81.4507 48.6219 81.7111 48.8287C81.9715 49.0355 82.3034 49.1388 82.7067 49.1388ZM86.7554 49.8281V41.9857H87.6591V44.8807H87.7357C87.802 44.7785 87.8939 44.6483 88.0114 44.4901C88.1314 44.3292 88.3024 44.1863 88.5245 44.0612C88.7492 43.9335 89.053 43.8697 89.4359 43.8697C89.9311 43.8697 90.3677 43.9935 90.7455 44.2412C91.1233 44.4888 91.4182 44.8398 91.6301 45.2942C91.842 45.7486 91.9479 46.2847 91.9479 46.9025C91.9479 47.5254 91.842 48.0654 91.6301 48.5223C91.4182 48.9767 91.1246 49.329 90.7493 49.5792C90.3741 49.8268 89.9414 49.9507 89.4512 49.9507C89.0734 49.9507 88.7709 49.8881 88.5437 49.763C88.3164 49.6354 88.1416 49.4911 88.019 49.3303C87.8965 49.1669 87.802 49.0316 87.7357 48.9244H87.6284V49.8281H86.7554ZM87.6438 46.8872C87.6438 47.3314 87.7089 47.7233 87.8391 48.0628C87.9693 48.3998 88.1594 48.664 88.4096 48.8555C88.6598 49.0444 88.9662 49.1388 89.3287 49.1388C89.7065 49.1388 90.0218 49.0393 90.2745 48.8402C90.5298 48.6385 90.7213 48.3679 90.8489 48.0283C90.9791 47.6863 91.0442 47.3059 91.0442 46.8872C91.0442 46.4737 90.9804 46.1009 90.8527 45.7691C90.7276 45.4346 90.5374 45.1704 90.2822 44.9764C90.0294 44.7798 89.7116 44.6815 89.3287 44.6815C88.961 44.6815 88.6522 44.7747 88.402 44.9611C88.1518 45.1449 87.9629 45.4027 87.8352 45.7346C87.7076 46.0639 87.6438 46.4481 87.6438 46.8872ZM97.378 45.2636L96.5661 45.4933C96.5151 45.358 96.4398 45.2266 96.3402 45.0989C96.2432 44.9687 96.1105 44.8615 95.942 44.7773C95.7735 44.693 95.5578 44.6509 95.2948 44.6509C94.9349 44.6509 94.6349 44.7339 94.3949 44.8998C94.1575 45.0632 94.0388 45.2712 94.0388 45.524C94.0388 45.7486 94.1205 45.9261 94.2839 46.0563C94.4473 46.1865 94.7026 46.2949 95.0497 46.3817L95.9228 46.5962C96.4487 46.7238 96.8406 46.9191 97.0984 47.1821C97.3563 47.4425 97.4852 47.7782 97.4852 48.1892C97.4852 48.5262 97.3882 48.8274 97.1942 49.0929C97.0027 49.3584 96.7346 49.5677 96.39 49.7209C96.0454 49.8741 95.6446 49.9507 95.1876 49.9507C94.5877 49.9507 94.0911 49.8205 93.698 49.5601C93.3049 49.2997 93.0559 48.9193 92.9513 48.4189L93.809 48.2045C93.8907 48.5211 94.0452 48.7585 94.2724 48.9167C94.5022 49.075 94.8021 49.1542 95.1723 49.1542C95.5935 49.1542 95.9279 49.0648 96.1756 48.8861C96.4257 48.7049 96.5508 48.4879 96.5508 48.2351C96.5508 48.0309 96.4794 47.8599 96.3364 47.722C96.1934 47.5816 95.9739 47.4769 95.6777 47.408L94.6974 47.1782C94.1588 47.0506 93.7631 46.8528 93.5104 46.5847C93.2602 46.3141 93.1351 45.9758 93.1351 45.5699C93.1351 45.2381 93.2283 44.9445 93.4146 44.6892C93.6035 44.4339 93.8601 44.2335 94.1843 44.088C94.5111 43.9425 94.8813 43.8697 95.2948 43.8697C95.8769 43.8697 96.3338 43.9974 96.6657 44.2527C97.0001 44.5079 97.2376 44.8449 97.378 45.2636Z" fill="black"/>
<path d="M28.1383 68.7422V76.8297C28.1383 78.4593 27.2406 79.357 25.6109 79.357H21.5672C19.9376 79.357 19.0398 78.4593 19.0398 76.8297V76.1557C19.0398 75.8767 19.2663 75.6503 19.5453 75.6503C19.8243 75.6503 20.0508 75.8767 20.0508 76.1557V76.8297C20.0508 77.8925 20.5044 78.3461 21.5672 78.3461H25.6109C26.6738 78.3461 27.1273 77.8925 27.1273 76.8297V68.7422C27.1273 67.6794 26.6738 67.2258 25.6109 67.2258H21.5672C20.5044 67.2258 20.0508 67.6794 20.0508 68.7422V69.4161C20.0508 69.6952 19.8243 69.9216 19.5453 69.9216C19.2663 69.9216 19.0398 69.6952 19.0398 69.4161V68.7422C19.0398 67.1126 19.9376 66.2148 21.5672 66.2148H25.6109C27.2406 66.2148 28.1383 67.1126 28.1383 68.7422ZM21.8839 74.4506C21.6865 74.6481 21.6865 74.9682 21.8839 75.1657C21.9823 75.2641 22.1117 75.314 22.2411 75.314C22.3705 75.314 22.5 75.2648 22.5984 75.1657L24.6202 73.1438C24.6667 73.0973 24.7038 73.0414 24.7294 72.9794C24.7806 72.856 24.7806 72.7165 24.7294 72.5932C24.7038 72.5312 24.6667 72.4752 24.6202 72.4287L22.5984 70.4069C22.4009 70.2094 22.0807 70.2094 21.8833 70.4069C21.6858 70.6043 21.6858 70.9245 21.8833 71.1219L23.0425 72.2811H15.5016C15.2225 72.2811 14.9961 72.5076 14.9961 72.7866C14.9961 73.0656 15.2225 73.2921 15.5016 73.2921H23.0425L21.8839 74.4506Z" fill="#141514"/>
<path d="M46.1059 76.7852V68.9427H47.0556V75.9427H50.7011V76.7852H46.1059ZM54.3199 76.9077C53.7889 76.9077 53.323 76.7813 52.9222 76.5286C52.5239 76.2759 52.2125 75.9223 51.9878 75.4679C51.7657 75.0135 51.6547 74.4825 51.6547 73.8749C51.6547 73.2622 51.7657 72.7274 51.9878 72.2704C52.2125 71.8134 52.5239 71.4586 52.9222 71.2059C53.323 70.9531 53.7889 70.8268 54.3199 70.8268C54.8509 70.8268 55.3155 70.9531 55.7137 71.2059C56.1145 71.4586 56.426 71.8134 56.6481 72.2704C56.8727 72.7274 56.9851 73.2622 56.9851 73.8749C56.9851 74.4825 56.8727 75.0135 56.6481 75.4679C56.426 75.9223 56.1145 76.2759 55.7137 76.5286C55.3155 76.7813 54.8509 76.9077 54.3199 76.9077ZM54.3199 76.0959C54.7232 76.0959 55.0551 75.9925 55.3155 75.7857C55.5759 75.5789 55.7686 75.307 55.8937 74.9701C56.0188 74.6331 56.0814 74.268 56.0814 73.8749C56.0814 73.4817 56.0188 73.1154 55.8937 72.7759C55.7686 72.4363 55.5759 72.1619 55.3155 71.9526C55.0551 71.7432 54.7232 71.6386 54.3199 71.6386C53.9165 71.6386 53.5847 71.7432 53.3243 71.9526C53.0639 72.1619 52.8711 72.4363 52.746 72.7759C52.6209 73.1154 52.5584 73.4817 52.5584 73.8749C52.5584 74.268 52.6209 74.6331 52.746 74.9701C52.8711 75.307 53.0639 75.5789 53.3243 75.7857C53.5847 75.9925 53.9165 76.0959 54.3199 76.0959ZM60.6201 79.1134C60.1836 79.1134 59.8083 79.0572 59.4943 78.9449C59.1803 78.8351 58.9186 78.6896 58.7093 78.5083C58.5025 78.3296 58.3379 78.1382 58.2153 77.9339L58.9352 77.4285C59.0169 77.5357 59.1203 77.6582 59.2454 77.7961C59.3705 77.9365 59.5416 78.0578 59.7585 78.1599C59.9781 78.2645 60.2653 78.3169 60.6201 78.3169C61.095 78.3169 61.4868 78.202 61.7957 77.9722C62.1046 77.7425 62.2591 77.3825 62.2591 76.8924V75.6976H62.1825C62.1161 75.8049 62.0217 75.9376 61.8991 76.0959C61.7791 76.2516 61.6055 76.3907 61.3783 76.5133C61.1537 76.6333 60.8499 76.6933 60.467 76.6933C59.9921 76.6933 59.5658 76.5809 59.188 76.3563C58.8127 76.1316 58.5153 75.8049 58.2957 75.376C58.0788 74.9471 57.9703 74.4263 57.9703 73.8136C57.9703 73.2111 58.0762 72.6865 58.2881 72.2398C58.5 71.7905 58.7948 71.4433 59.1727 71.1982C59.5505 70.9506 59.987 70.8268 60.4823 70.8268C60.8652 70.8268 61.169 70.8906 61.3937 71.0182C61.6209 71.1433 61.7945 71.2863 61.9144 71.4471C62.037 71.6054 62.1314 71.7356 62.1978 71.8377H62.2897V70.9033H63.1628V76.9536C63.1628 77.4591 63.0479 77.8701 62.8182 78.1867C62.591 78.5058 62.2846 78.7394 61.8991 78.8874C61.5162 79.0381 61.0899 79.1134 60.6201 79.1134ZM60.5895 75.8814C60.952 75.8814 61.2584 75.7985 61.5085 75.6325C61.7587 75.4666 61.9489 75.2279 62.0791 74.9165C62.2093 74.605 62.2744 74.2323 62.2744 73.7983C62.2744 73.3745 62.2106 73.0005 62.0829 72.6763C61.9553 72.3521 61.7664 72.0981 61.5162 71.9143C61.266 71.7305 60.9571 71.6386 60.5895 71.6386C60.2066 71.6386 59.8875 71.7356 59.6322 71.9296C59.3794 72.1236 59.1893 72.384 59.0616 72.7108C58.9365 73.0375 58.874 73.4 58.874 73.7983C58.874 74.2068 58.9378 74.568 59.0654 74.882C59.1956 75.1934 59.3871 75.4385 59.6398 75.6172C59.8951 75.7934 60.2117 75.8814 60.5895 75.8814ZM67.0879 76.9077C66.5569 76.9077 66.091 76.7813 65.6902 76.5286C65.292 76.2759 64.9805 75.9223 64.7559 75.4679C64.5338 75.0135 64.4227 74.4825 64.4227 73.8749C64.4227 73.2622 64.5338 72.7274 64.7559 72.2704C64.9805 71.8134 65.292 71.4586 65.6902 71.2059C66.091 70.9531 66.5569 70.8268 67.0879 70.8268C67.6189 70.8268 68.0836 70.9531 68.4818 71.2059C68.8826 71.4586 69.1941 71.8134 69.4162 72.2704C69.6408 72.7274 69.7531 73.2622 69.7531 73.8749C69.7531 74.4825 69.6408 75.0135 69.4162 75.4679C69.1941 75.9223 68.8826 76.2759 68.4818 76.5286C68.0836 76.7813 67.6189 76.9077 67.0879 76.9077ZM67.0879 76.0959C67.4913 76.0959 67.8232 75.9925 68.0836 75.7857C68.3439 75.5789 68.5367 75.307 68.6618 74.9701C68.7869 74.6331 68.8494 74.268 68.8494 73.8749C68.8494 73.4817 68.7869 73.1154 68.6618 72.7759C68.5367 72.4363 68.3439 72.1619 68.0836 71.9526C67.8232 71.7432 67.4913 71.6386 67.0879 71.6386C66.6846 71.6386 66.3527 71.7432 66.0923 71.9526C65.8319 72.1619 65.6392 72.4363 65.5141 72.7759C65.389 73.1154 65.3265 73.4817 65.3265 73.8749C65.3265 74.268 65.389 74.6331 65.5141 74.9701C65.6392 75.307 65.8319 75.5789 66.0923 75.7857C66.3527 75.9925 66.6846 76.0959 67.0879 76.0959ZM74.7208 74.3804V70.9033H75.6245V76.7852H74.7208V75.7895H74.6595C74.5217 76.0882 74.3072 76.3422 74.0162 76.5516C73.7252 76.7584 73.3576 76.8617 72.9134 76.8617C72.5457 76.8617 72.219 76.7813 71.9331 76.6205C71.6471 76.4571 71.4225 76.212 71.2591 75.8853C71.0957 75.5559 71.014 75.1411 71.014 74.6407V70.9033H71.9177V74.5795C71.9177 75.0084 72.0377 75.3504 72.2777 75.6057C72.5202 75.861 72.8291 75.9887 73.2044 75.9887C73.429 75.9887 73.6575 75.9312 73.8898 75.8163C74.1247 75.7015 74.3213 75.5253 74.4795 75.2879C74.6404 75.0505 74.7208 74.748 74.7208 74.3804ZM79.7191 70.9033V71.6692H76.671V70.9033H79.7191ZM77.5594 69.4942H78.4631V75.1003C78.4631 75.3555 78.5001 75.547 78.5741 75.6747C78.6507 75.7997 78.7477 75.884 78.8652 75.9274C78.9851 75.9682 79.1115 75.9887 79.2443 75.9887C79.3438 75.9887 79.4255 75.9836 79.4893 75.9733C79.5532 75.9606 79.6042 75.9504 79.6425 75.9427L79.8263 76.7545C79.765 76.7775 79.6795 76.8005 79.5697 76.8234C79.46 76.849 79.3208 76.8617 79.1524 76.8617C78.8971 76.8617 78.6469 76.8069 78.4018 76.6971C78.1593 76.5873 77.9576 76.4201 77.7968 76.1954C77.6385 75.9708 77.5594 75.6874 77.5594 75.3453V69.4942Z" fill="black"/>
</svg>
