<svg width="1294" height="68" viewBox="0 0 1294 68" fill="none" xmlns="http://www.w3.org/2000/svg">
<rect width="1294" height="67.3958" fill="white"/>
<path d="M81.5585 41.2188V25.5339H84.8747V38.4846H91.599V41.2188H81.5585ZM99.0489 41.4485C97.8593 41.4485 96.8305 41.1958 95.9625 40.6903C95.0996 40.1797 94.4333 39.47 93.9636 38.5612C93.4939 37.6473 93.259 36.5878 93.259 35.3829C93.259 34.1677 93.4939 33.1057 93.9636 32.1969C94.4333 31.283 95.0996 30.5733 95.9625 30.0678C96.8305 29.5572 97.8593 29.3019 99.0489 29.3019C100.239 29.3019 101.265 29.5572 102.128 30.0678C102.996 30.5733 103.665 31.283 104.134 32.1969C104.604 33.1057 104.839 34.1677 104.839 35.3829C104.839 36.5878 104.604 37.6473 104.134 38.5612C103.665 39.47 102.996 40.1797 102.128 40.6903C101.265 41.1958 100.239 41.4485 99.0489 41.4485ZM99.0642 38.9212C99.6054 38.9212 100.057 38.768 100.42 38.4616C100.782 38.1502 101.055 37.7264 101.239 37.1903C101.428 36.6542 101.523 36.0441 101.523 35.3599C101.523 34.6757 101.428 34.0656 101.239 33.5295C101.055 32.9934 100.782 32.5696 100.42 32.2582C100.057 31.9467 99.6054 31.791 99.0642 31.791C98.5179 31.791 98.0584 31.9467 97.6857 32.2582C97.3181 32.5696 97.0398 32.9934 96.8509 33.5295C96.6671 34.0656 96.5752 34.6757 96.5752 35.3599C96.5752 36.0441 96.6671 36.6542 96.8509 37.1903C97.0398 37.7264 97.3181 38.1502 97.6857 38.4616C98.0584 38.768 98.5179 38.9212 99.0642 38.9212ZM112.26 45.8752C111.203 45.8752 110.297 45.7297 109.541 45.4386C108.791 45.1527 108.193 44.7621 107.749 44.2669C107.305 43.7716 107.016 43.2151 106.884 42.5973L109.901 42.1914C109.993 42.4263 110.139 42.6458 110.338 42.85C110.537 43.0543 110.8 43.2176 111.127 43.3402C111.458 43.4678 111.862 43.5317 112.337 43.5317C113.046 43.5317 113.631 43.3581 114.09 43.0109C114.555 42.6688 114.787 42.0944 114.787 41.2877V39.1356H114.65C114.507 39.4624 114.292 39.7713 114.006 40.0623C113.72 40.3533 113.353 40.5907 112.903 40.7746C112.454 40.9584 111.918 41.0503 111.295 41.0503C110.412 41.0503 109.608 40.846 108.883 40.4376C108.163 40.024 107.588 39.3934 107.159 38.5459C106.736 37.6932 106.524 36.6159 106.524 35.314C106.524 33.9814 106.741 32.8683 107.175 31.9748C107.609 31.0813 108.186 30.4124 108.906 29.9682C109.631 29.524 110.425 29.3019 111.287 29.3019C111.946 29.3019 112.497 29.4143 112.942 29.6389C113.386 29.8585 113.743 30.1342 114.014 30.4661C114.29 30.7928 114.501 31.1145 114.65 31.431H114.772V29.4551H118.012V41.3336C118.012 42.3344 117.767 43.1717 117.276 43.8457C116.786 44.5196 116.107 45.0251 115.239 45.3621C114.376 45.7041 113.383 45.8752 112.26 45.8752ZM112.329 38.5995C112.855 38.5995 113.299 38.4693 113.662 38.2089C114.029 37.9434 114.31 37.5656 114.504 37.0754C114.703 36.5802 114.803 35.9879 114.803 35.2986C114.803 34.6094 114.706 34.012 114.512 33.5065C114.318 32.9959 114.037 32.6003 113.669 32.3194C113.302 32.0386 112.855 31.8982 112.329 31.8982C111.793 31.8982 111.341 32.0437 110.973 32.3348C110.606 32.6207 110.328 33.0189 110.139 33.5295C109.95 34.0401 109.855 34.6298 109.855 35.2986C109.855 35.9777 109.95 36.5649 110.139 37.0601C110.333 37.5503 110.611 37.9307 110.973 38.2013C111.341 38.4668 111.793 38.5995 112.329 38.5995ZM125.923 41.4485C124.733 41.4485 123.705 41.1958 122.837 40.6903C121.974 40.1797 121.307 39.47 120.838 38.5612C120.368 37.6473 120.133 36.5878 120.133 35.3829C120.133 34.1677 120.368 33.1057 120.838 32.1969C121.307 31.283 121.974 30.5733 122.837 30.0678C123.705 29.5572 124.733 29.3019 125.923 29.3019C127.113 29.3019 128.139 29.5572 129.002 30.0678C129.87 30.5733 130.539 31.283 131.008 32.1969C131.478 33.1057 131.713 34.1677 131.713 35.3829C131.713 36.5878 131.478 37.6473 131.008 38.5612C130.539 39.47 129.87 40.1797 129.002 40.6903C128.139 41.1958 127.113 41.4485 125.923 41.4485ZM125.938 38.9212C126.48 38.9212 126.931 38.768 127.294 38.4616C127.656 38.1502 127.93 37.7264 128.113 37.1903C128.302 36.6542 128.397 36.0441 128.397 35.3599C128.397 34.6757 128.302 34.0656 128.113 33.5295C127.93 32.9934 127.656 32.5696 127.294 32.2582C126.931 31.9467 126.48 31.791 125.938 31.791C125.392 31.791 124.932 31.9467 124.56 32.2582C124.192 32.5696 123.914 32.9934 123.725 33.5295C123.541 34.0656 123.449 34.6757 123.449 35.3599C123.449 36.0441 123.541 36.6542 123.725 37.1903C123.914 37.7264 124.192 38.1502 124.56 38.4616C124.932 38.768 125.392 38.9212 125.938 38.9212Z" fill="black"/>
<path d="M190.451 38.4375V29.6148H191.52V33.5436H196.224V29.6148H197.292V38.4375H196.224V34.4914H191.52V38.4375H190.451ZM201.981 38.5754C201.384 38.5754 200.86 38.4332 200.409 38.1489C199.961 37.8645 199.611 37.4668 199.358 36.9556C199.108 36.4443 198.983 35.847 198.983 35.1634C198.983 34.4742 199.108 33.8725 199.358 33.3584C199.611 32.8443 199.961 32.4451 200.409 32.1608C200.86 31.8765 201.384 31.7343 201.981 31.7343C202.579 31.7343 203.102 31.8765 203.55 32.1608C204 32.4451 204.351 32.8443 204.601 33.3584C204.853 33.8725 204.98 34.4742 204.98 35.1634C204.98 35.847 204.853 36.4443 204.601 36.9556C204.351 37.4668 204 37.8645 203.55 38.1489C203.102 38.4332 202.579 38.5754 201.981 38.5754ZM201.981 37.6621C202.435 37.6621 202.809 37.5457 203.102 37.3131C203.394 37.0805 203.611 36.7746 203.752 36.3955C203.893 36.0164 203.963 35.6057 203.963 35.1634C203.963 34.7212 203.893 34.309 203.752 33.9271C203.611 33.5451 203.394 33.2363 203.102 33.0008C202.809 32.7653 202.435 32.6476 201.981 32.6476C201.528 32.6476 201.154 32.7653 200.861 33.0008C200.568 33.2363 200.352 33.5451 200.211 33.9271C200.07 34.309 200 34.7212 200 35.1634C200 35.6057 200.07 36.0164 200.211 36.3955C200.352 36.7746 200.568 37.0805 200.861 37.3131C201.154 37.5457 201.528 37.6621 201.981 37.6621ZM206.532 38.4375V31.8205H207.514V32.8544H207.6C207.738 32.5011 207.961 32.2268 208.268 32.0315C208.575 31.8334 208.944 31.7343 209.375 31.7343C209.812 31.7343 210.175 31.8334 210.465 32.0315C210.758 32.2268 210.986 32.5011 211.15 32.8544H211.219C211.388 32.5126 211.642 32.2412 211.981 32.0402C212.32 31.8363 212.727 31.7343 213.201 31.7343C213.792 31.7343 214.276 31.9195 214.652 32.29C215.029 32.6576 215.217 33.2306 215.217 34.0089V38.4375H214.2V34.0089C214.2 33.5207 214.066 33.1717 213.799 32.9621C213.532 32.7524 213.218 32.6476 212.856 32.6476C212.391 32.6476 212.03 32.7883 211.775 33.0698C211.519 33.3483 211.391 33.7016 211.391 34.1295V38.4375H210.357V33.9055C210.357 33.5293 210.235 33.2263 209.991 32.9965C209.747 32.7639 209.432 32.6476 209.048 32.6476C208.783 32.6476 208.536 32.7179 208.307 32.8587C208.08 32.9994 207.896 33.1947 207.755 33.4446C207.617 33.6916 207.548 33.9773 207.548 34.3018V38.4375H206.532ZM219.85 38.5754C219.212 38.5754 218.662 38.4346 218.2 38.1532C217.74 37.8688 217.386 37.4725 217.136 36.9642C216.889 36.453 216.765 35.8585 216.765 35.1807C216.765 34.5029 216.889 33.9055 217.136 33.3886C217.386 32.8687 217.733 32.4638 218.178 32.1737C218.626 31.8808 219.149 31.7343 219.746 31.7343C220.091 31.7343 220.431 31.7917 220.767 31.9066C221.103 32.0215 221.409 32.2082 221.685 32.4667C221.961 32.7223 222.18 33.0612 222.344 33.4833C222.508 33.9055 222.59 34.4253 222.59 35.0428V35.4736H217.489V34.5948H221.556C221.556 34.2214 221.481 33.8883 221.332 33.5953C221.185 33.3024 220.976 33.0712 220.703 32.9018C220.433 32.7323 220.114 32.6476 219.746 32.6476C219.342 32.6476 218.991 32.7481 218.695 32.9491C218.402 33.1473 218.177 33.4058 218.019 33.7246C217.861 34.0434 217.782 34.3851 217.782 34.7499V35.3358C217.782 35.8355 217.868 36.2591 218.041 36.6066C218.216 36.9512 218.458 37.214 218.769 37.395C219.079 37.573 219.439 37.6621 219.85 37.6621C220.117 37.6621 220.358 37.6247 220.574 37.5501C220.792 37.4725 220.98 37.3576 221.138 37.2054C221.296 37.0503 221.418 36.8579 221.504 36.6282L222.486 36.9039C222.383 37.237 222.209 37.53 221.965 37.7827C221.721 38.0326 221.419 38.2278 221.06 38.3686C220.701 38.5064 220.298 38.5754 219.85 38.5754Z" fill="black"/>
<path d="M255.461 29.6148H256.53V35.9216C256.53 36.4846 256.426 36.9627 256.22 37.3562C256.013 37.7497 255.721 38.0483 255.345 38.2523C254.969 38.4562 254.525 38.5581 254.014 38.5581C253.531 38.5581 253.102 38.4705 252.726 38.2953C252.35 38.1173 252.054 37.8645 251.838 37.5371C251.623 37.2097 251.515 36.8206 251.515 36.3697H252.566C252.566 36.6195 252.628 36.8378 252.752 37.0245C252.878 37.2083 253.05 37.3519 253.269 37.4553C253.487 37.5587 253.735 37.6104 254.014 37.6104C254.321 37.6104 254.583 37.5457 254.798 37.4165C255.013 37.2873 255.177 37.0977 255.289 36.8479C255.404 36.5951 255.461 36.2864 255.461 35.9216V29.6148ZM261.221 38.5754C260.624 38.5754 260.1 38.4332 259.649 38.1489C259.201 37.8645 258.85 37.4668 258.598 36.9556C258.348 36.4443 258.223 35.847 258.223 35.1634C258.223 34.4742 258.348 33.8725 258.598 33.3584C258.85 32.8443 259.201 32.4451 259.649 32.1608C260.1 31.8765 260.624 31.7343 261.221 31.7343C261.819 31.7343 262.341 31.8765 262.789 32.1608C263.24 32.4451 263.591 32.8443 263.84 33.3584C264.093 33.8725 264.22 34.4742 264.22 35.1634C264.22 35.847 264.093 36.4443 263.84 36.9556C263.591 37.4668 263.24 37.8645 262.789 38.1489C262.341 38.4332 261.819 38.5754 261.221 38.5754ZM261.221 37.6621C261.675 37.6621 262.048 37.5457 262.341 37.3131C262.634 37.0805 262.851 36.7746 262.992 36.3955C263.133 36.0164 263.203 35.6057 263.203 35.1634C263.203 34.7212 263.133 34.309 262.992 33.9271C262.851 33.5451 262.634 33.2363 262.341 33.0008C262.048 32.7653 261.675 32.6476 261.221 32.6476C260.767 32.6476 260.394 32.7653 260.101 33.0008C259.808 33.2363 259.591 33.5451 259.451 33.9271C259.31 34.309 259.24 34.7212 259.24 35.1634C259.24 35.6057 259.31 36.0164 259.451 36.3955C259.591 36.7746 259.808 37.0805 260.101 37.3131C260.394 37.5457 260.767 37.6621 261.221 37.6621ZM265.909 38.4375V29.6148H266.926V32.8716H267.012C267.087 32.7567 267.19 32.6102 267.322 32.4322C267.457 32.2513 267.65 32.0904 267.9 31.9497C268.152 31.8061 268.494 31.7343 268.925 31.7343C269.482 31.7343 269.973 31.8736 270.398 32.1522C270.823 32.4308 271.155 32.8256 271.393 33.3369C271.632 33.8481 271.751 34.4512 271.751 35.1462C271.751 35.847 271.632 36.4544 271.393 36.9685C271.155 37.4797 270.825 37.876 270.403 38.1575C269.98 38.4361 269.494 38.5754 268.942 38.5754C268.517 38.5754 268.177 38.505 267.921 38.3643C267.666 38.2207 267.469 38.0584 267.331 37.8775C267.193 37.6937 267.087 37.5414 267.012 37.4208H266.892V38.4375H265.909ZM266.909 35.129C266.909 35.6287 266.982 36.0696 267.129 36.4515C267.275 36.8306 267.489 37.1279 267.77 37.3433C268.052 37.5558 268.396 37.6621 268.804 37.6621C269.229 37.6621 269.584 37.5501 269.868 37.326C270.156 37.0992 270.371 36.7947 270.515 36.4128C270.661 36.0279 270.734 35.6 270.734 35.129C270.734 34.6637 270.662 34.2444 270.519 33.871C270.378 33.4948 270.164 33.1976 269.877 32.9793C269.593 32.7582 269.235 32.6476 268.804 32.6476C268.391 32.6476 268.043 32.7524 267.762 32.9621C267.48 33.1689 267.268 33.4589 267.124 33.8323C266.981 34.2028 266.909 34.635 266.909 35.129Z" fill="black"/>
<path d="M304.265 38.5754C303.645 38.5754 303.111 38.4289 302.663 38.1359C302.215 37.843 301.87 37.4395 301.629 36.9254C301.387 36.4113 301.267 35.824 301.267 35.1634C301.267 34.4914 301.39 33.8983 301.637 33.3842C301.887 32.8673 302.235 32.4638 302.68 32.1737C303.128 31.8808 303.651 31.7343 304.248 31.7343C304.713 31.7343 305.133 31.8205 305.506 31.9928C305.879 32.1651 306.185 32.4063 306.423 32.7165C306.662 33.0267 306.81 33.3886 306.867 33.8021H305.851C305.773 33.5006 305.601 33.2335 305.334 33.0008C305.069 32.7653 304.713 32.6476 304.265 32.6476C303.869 32.6476 303.521 32.751 303.223 32.9578C302.927 33.1617 302.696 33.4503 302.529 33.8237C302.365 34.1941 302.284 34.6293 302.284 35.129C302.284 35.6402 302.364 36.0853 302.525 36.4644C302.688 36.8436 302.918 37.1379 303.214 37.3476C303.513 37.5572 303.863 37.6621 304.265 37.6621C304.529 37.6621 304.769 37.6161 304.985 37.5242C305.2 37.4323 305.382 37.3002 305.532 37.1279C305.681 36.9556 305.787 36.7488 305.851 36.5075H306.867C306.81 36.8981 306.668 37.2499 306.441 37.563C306.217 37.8732 305.919 38.1201 305.549 38.304C305.181 38.4849 304.753 38.5754 304.265 38.5754ZM310.301 38.5926C309.881 38.5926 309.501 38.5136 309.159 38.3556C308.817 38.1948 308.546 37.9636 308.345 37.6621C308.144 37.3576 308.043 36.99 308.043 36.5592C308.043 36.1801 308.118 35.8728 308.267 35.6373C308.417 35.3989 308.616 35.2123 308.866 35.0773C309.116 34.9423 309.392 34.8418 309.693 34.7757C309.998 34.7068 310.304 34.6522 310.611 34.612C311.013 34.5603 311.339 34.5216 311.589 34.4957C311.841 34.467 312.025 34.4196 312.14 34.3535C312.258 34.2875 312.317 34.1726 312.317 34.0089V33.9744C312.317 33.5494 312.2 33.2191 311.968 32.9836C311.738 32.7481 311.389 32.6304 310.921 32.6304C310.436 32.6304 310.055 32.7366 309.779 32.9491C309.504 33.1617 309.31 33.3886 309.198 33.6298L308.233 33.2852C308.405 32.8831 308.635 32.57 308.922 32.346C309.212 32.1191 309.528 31.9612 309.87 31.8722C310.214 31.7802 310.553 31.7343 310.887 31.7343C311.099 31.7343 311.343 31.7601 311.619 31.8118C311.897 31.8607 312.166 31.9626 312.424 32.1177C312.686 32.2728 312.903 32.5069 313.075 32.8199C313.247 33.133 313.333 33.5523 313.333 34.0778V38.4375H312.317V37.5414H312.265C312.196 37.685 312.081 37.8387 311.92 38.0024C311.76 38.1661 311.546 38.3054 311.279 38.4203C311.011 38.5351 310.685 38.5926 310.301 38.5926ZM310.456 37.6793C310.858 37.6793 311.197 37.6003 311.472 37.4424C311.751 37.2844 311.961 37.0805 312.101 36.8306C312.245 36.5808 312.317 36.318 312.317 36.0423V35.1117C312.274 35.1634 312.179 35.2108 312.032 35.2539C311.889 35.2941 311.722 35.33 311.533 35.3616C311.346 35.3903 311.164 35.4162 310.986 35.4392C310.81 35.4593 310.668 35.4765 310.559 35.4908C310.295 35.5253 310.048 35.5813 309.818 35.6589C309.591 35.7335 309.407 35.847 309.267 35.9992C309.129 36.1485 309.06 36.3524 309.06 36.6109C309.06 36.9642 309.191 37.2313 309.452 37.4122C309.716 37.5903 310.051 37.6793 310.456 37.6793ZM316.206 34.4569V38.4375H315.189V31.8205H316.171V32.8544H316.257C316.413 32.5183 316.648 32.2484 316.964 32.0445C317.28 31.8377 317.688 31.7343 318.187 31.7343C318.635 31.7343 319.028 31.8262 319.364 32.01C319.7 32.1909 319.961 32.4667 320.148 32.8371C320.334 33.2047 320.428 33.67 320.428 34.2329V38.4375H319.411V34.3018C319.411 33.782 319.276 33.3771 319.006 33.087C318.736 32.7941 318.366 32.6476 317.895 32.6476C317.57 32.6476 317.28 32.7179 317.024 32.8587C316.772 32.9994 316.572 33.2047 316.426 33.4747C316.279 33.7447 316.206 34.0721 316.206 34.4569ZM324.784 38.5754C324.233 38.5754 323.746 38.4361 323.324 38.1575C322.901 37.876 322.571 37.4797 322.333 36.9685C322.094 36.4544 321.975 35.847 321.975 35.1462C321.975 34.4512 322.094 33.8481 322.333 33.3369C322.571 32.8256 322.903 32.4308 323.328 32.1522C323.753 31.8736 324.244 31.7343 324.801 31.7343C325.232 31.7343 325.572 31.8061 325.822 31.9497C326.075 32.0904 326.267 32.2513 326.4 32.4322C326.535 32.6102 326.639 32.7567 326.714 32.8716H326.8V29.6148H327.817V38.4375H326.835V37.4208H326.714C326.639 37.5414 326.533 37.6937 326.395 37.8775C326.257 38.0584 326.061 38.2207 325.805 38.3643C325.549 38.505 325.209 38.5754 324.784 38.5754ZM324.922 37.6621C325.33 37.6621 325.674 37.5558 325.956 37.3433C326.237 37.1279 326.451 36.8306 326.598 36.4515C326.744 36.0696 326.817 35.6287 326.817 35.129C326.817 34.635 326.746 34.2028 326.602 33.8323C326.458 33.4589 326.246 33.1689 325.964 32.9621C325.683 32.7524 325.335 32.6476 324.922 32.6476C324.491 32.6476 324.132 32.7582 323.845 32.9793C323.561 33.1976 323.347 33.4948 323.203 33.871C323.062 34.2444 322.992 34.6637 322.992 35.129C322.992 35.6 323.064 36.0279 323.207 36.4128C323.354 36.7947 323.569 37.0992 323.854 37.326C324.141 37.5501 324.497 37.6621 324.922 37.6621ZM329.82 38.4375V31.8205H330.837V38.4375H329.82ZM330.337 30.7176C330.139 30.7176 329.968 30.6501 329.824 30.5151C329.684 30.3802 329.613 30.2179 329.613 30.0283C329.613 29.8388 329.684 29.6765 329.824 29.5415C329.968 29.4066 330.139 29.3391 330.337 29.3391C330.535 29.3391 330.705 29.4066 330.845 29.5415C330.989 29.6765 331.061 29.8388 331.061 30.0283C331.061 30.2179 330.989 30.3802 330.845 30.5151C330.705 30.6501 330.535 30.7176 330.337 30.7176ZM335.197 38.5754C334.646 38.5754 334.159 38.4361 333.737 38.1575C333.315 37.876 332.985 37.4797 332.746 36.9685C332.508 36.4544 332.389 35.847 332.389 35.1462C332.389 34.4512 332.508 33.8481 332.746 33.3369C332.985 32.8256 333.316 32.4308 333.741 32.1522C334.166 31.8736 334.658 31.7343 335.215 31.7343C335.646 31.7343 335.986 31.8061 336.236 31.9497C336.488 32.0904 336.681 32.2513 336.813 32.4322C336.948 32.6102 337.053 32.7567 337.127 32.8716H337.214V29.6148H338.23V38.4375H337.248V37.4208H337.127C337.053 37.5414 336.947 37.6937 336.809 37.8775C336.671 38.0584 336.474 38.2207 336.218 38.3643C335.963 38.505 335.623 38.5754 335.197 38.5754ZM335.335 37.6621C335.743 37.6621 336.088 37.5558 336.369 37.3433C336.651 37.1279 336.865 36.8306 337.011 36.4515C337.158 36.0696 337.231 35.6287 337.231 35.129C337.231 34.635 337.159 34.2028 337.015 33.8323C336.872 33.4589 336.659 33.1689 336.378 32.9621C336.096 32.7524 335.749 32.6476 335.335 32.6476C334.905 32.6476 334.546 32.7582 334.258 32.9793C333.974 33.1976 333.76 33.4948 333.616 33.871C333.476 34.2444 333.405 34.6637 333.405 35.129C333.405 35.6 333.477 36.0279 333.621 36.4128C333.767 36.7947 333.983 37.0992 334.267 37.326C334.554 37.5501 334.91 37.6621 335.335 37.6621ZM342.181 38.5926C341.761 38.5926 341.381 38.5136 341.039 38.3556C340.697 38.1948 340.426 37.9636 340.225 37.6621C340.024 37.3576 339.923 36.99 339.923 36.5592C339.923 36.1801 339.998 35.8728 340.147 35.6373C340.297 35.3989 340.496 35.2123 340.746 35.0773C340.996 34.9423 341.272 34.8418 341.573 34.7757C341.878 34.7068 342.184 34.6522 342.491 34.612C342.893 34.5603 343.219 34.5216 343.469 34.4957C343.722 34.467 343.905 34.4196 344.02 34.3535C344.138 34.2875 344.197 34.1726 344.197 34.0089V33.9744C344.197 33.5494 344.081 33.2191 343.848 32.9836C343.618 32.7481 343.269 32.6304 342.801 32.6304C342.316 32.6304 341.935 32.7366 341.659 32.9491C341.384 33.1617 341.19 33.3886 341.078 33.6298L340.113 33.2852C340.285 32.8831 340.515 32.57 340.802 32.346C341.092 32.1191 341.408 31.9612 341.75 31.8722C342.095 31.7802 342.433 31.7343 342.767 31.7343C342.979 31.7343 343.223 31.7601 343.499 31.8118C343.778 31.8607 344.046 31.9626 344.305 32.1177C344.566 32.2728 344.783 32.5069 344.955 32.8199C345.127 33.133 345.214 33.5523 345.214 34.0778V38.4375H344.197V37.5414H344.145C344.076 37.685 343.961 37.8387 343.801 38.0024C343.64 38.1661 343.426 38.3054 343.159 38.4203C342.892 38.5351 342.566 38.5926 342.181 38.5926ZM342.336 37.6793C342.738 37.6793 343.077 37.6003 343.352 37.4424C343.631 37.2844 343.841 37.0805 343.981 36.8306C344.125 36.5808 344.197 36.318 344.197 36.0423V35.1117C344.154 35.1634 344.059 35.2108 343.913 35.2539C343.769 35.2941 343.602 35.33 343.413 35.3616C343.226 35.3903 343.044 35.4162 342.866 35.4392C342.69 35.4593 342.548 35.4765 342.439 35.4908C342.175 35.5253 341.928 35.5813 341.698 35.6589C341.471 35.7335 341.288 35.847 341.147 35.9992C341.009 36.1485 340.94 36.3524 340.94 36.6109C340.94 36.9642 341.071 37.2313 341.332 37.4122C341.596 37.5903 341.931 37.6793 342.336 37.6793ZM349.947 31.8205V32.682H346.518V31.8205H349.947ZM347.517 30.2351H348.534V36.542C348.534 36.8292 348.576 37.0446 348.659 37.1882C348.745 37.3289 348.854 37.4237 348.986 37.4725C349.121 37.5185 349.263 37.5414 349.413 37.5414C349.525 37.5414 349.617 37.5357 349.688 37.5242C349.76 37.5098 349.818 37.4984 349.861 37.4897L350.068 38.403C349.999 38.4289 349.902 38.4547 349.779 38.4806C349.655 38.5093 349.499 38.5237 349.309 38.5237C349.022 38.5237 348.741 38.4619 348.465 38.3384C348.192 38.2149 347.965 38.0268 347.784 37.7741C347.606 37.5213 347.517 37.2025 347.517 36.8177V30.2351ZM354.179 38.5754C353.542 38.5754 352.992 38.4346 352.53 38.1532C352.07 37.8688 351.715 37.4725 351.465 36.9642C351.218 36.453 351.095 35.8585 351.095 35.1807C351.095 34.5029 351.218 33.9055 351.465 33.3886C351.715 32.8687 352.063 32.4638 352.508 32.1737C352.956 31.8808 353.479 31.7343 354.076 31.7343C354.421 31.7343 354.761 31.7917 355.097 31.9066C355.433 32.0215 355.739 32.2082 356.015 32.4667C356.29 32.7223 356.51 33.0612 356.674 33.4833C356.838 33.9055 356.919 34.4253 356.919 35.0428V35.4736H351.819V34.5948H355.885C355.885 34.2214 355.811 33.8883 355.661 33.5953C355.515 33.3024 355.305 33.0712 355.032 32.9018C354.763 32.7323 354.444 32.6476 354.076 32.6476C353.671 32.6476 353.321 32.7481 353.025 32.9491C352.732 33.1473 352.507 33.4058 352.349 33.7246C352.191 34.0434 352.112 34.3851 352.112 34.7499V35.3358C352.112 35.8355 352.198 36.2591 352.37 36.6066C352.545 36.9512 352.788 37.214 353.098 37.395C353.408 37.573 353.769 37.6621 354.179 37.6621C354.447 37.6621 354.688 37.6247 354.903 37.5501C355.122 37.4725 355.31 37.3576 355.468 37.2054C355.626 37.0503 355.748 36.8579 355.834 36.6282L356.816 36.9039C356.713 37.237 356.539 37.53 356.295 37.7827C356.051 38.0326 355.749 38.2278 355.39 38.3686C355.031 38.5064 354.628 38.5754 354.179 38.5754Z" fill="black"/>
<path d="M387.416 29.1148V37.9375H386.348V29.1148H387.416ZM389.287 37.9375V31.3205H390.269V32.3544H390.355C390.493 32.0011 390.716 31.7268 391.023 31.5315C391.33 31.3334 391.699 31.2343 392.13 31.2343C392.567 31.2343 392.93 31.3334 393.22 31.5315C393.513 31.7268 393.741 32.0011 393.905 32.3544H393.974C394.143 32.0126 394.398 31.7412 394.736 31.5402C395.075 31.3363 395.482 31.2343 395.956 31.2343C396.547 31.2343 397.031 31.4195 397.407 31.79C397.784 32.1576 397.972 32.7306 397.972 33.5089V37.9375H396.955V33.5089C396.955 33.0207 396.822 32.6717 396.554 32.4621C396.287 32.2524 395.973 32.1476 395.611 32.1476C395.146 32.1476 394.785 32.2883 394.53 32.5698C394.274 32.8483 394.146 33.2016 394.146 33.6295V37.9375H393.112V33.4055C393.112 33.0293 392.99 32.7263 392.746 32.4965C392.502 32.2639 392.188 32.1476 391.803 32.1476C391.539 32.1476 391.292 32.2179 391.062 32.3587C390.835 32.4994 390.651 32.6947 390.51 32.9446C390.373 33.1916 390.304 33.4773 390.304 33.8018V37.9375H389.287ZM399.697 40.4189V31.3205H400.679V32.3716H400.8C400.875 32.2567 400.978 32.1102 401.11 31.9322C401.245 31.7513 401.438 31.5904 401.687 31.4497C401.94 31.3061 402.282 31.2343 402.713 31.2343C403.27 31.2343 403.761 31.3736 404.186 31.6522C404.611 31.9308 404.943 32.3256 405.181 32.8369C405.42 33.3481 405.539 33.9512 405.539 34.6462C405.539 35.347 405.42 35.9544 405.181 36.4685C404.943 36.9797 404.613 37.376 404.19 37.6575C403.768 37.9361 403.281 38.0754 402.73 38.0754C402.305 38.0754 401.965 38.005 401.709 37.8643C401.453 37.7207 401.257 37.5584 401.119 37.3775C400.981 37.1937 400.875 37.0414 400.8 36.9208H400.714V40.4189H399.697ZM400.697 34.629C400.697 35.1287 400.77 35.5696 400.916 35.9515C401.063 36.3306 401.277 36.6279 401.558 36.8433C401.84 37.0558 402.184 37.1621 402.592 37.1621C403.017 37.1621 403.372 37.0501 403.656 36.826C403.943 36.5992 404.159 36.2947 404.302 35.9128C404.449 35.5279 404.522 35.1 404.522 34.629C404.522 34.1637 404.45 33.7444 404.307 33.371C404.166 32.9948 403.952 32.6976 403.665 32.4793C403.381 32.2582 403.023 32.1476 402.592 32.1476C402.179 32.1476 401.831 32.2524 401.55 32.4621C401.268 32.6689 401.056 32.9589 400.912 33.3323C400.768 33.7028 400.697 34.135 400.697 34.629ZM409.644 38.0754C409.047 38.0754 408.523 37.9332 408.072 37.6489C407.624 37.3645 407.274 36.9668 407.021 36.4556C406.771 35.9443 406.646 35.347 406.646 34.6634C406.646 33.9742 406.771 33.3725 407.021 32.8584C407.274 32.3443 407.624 31.9451 408.072 31.6608C408.523 31.3765 409.047 31.2343 409.644 31.2343C410.242 31.2343 410.764 31.3765 411.213 31.6608C411.663 31.9451 412.014 32.3443 412.264 32.8584C412.516 33.3725 412.643 33.9742 412.643 34.6634C412.643 35.347 412.516 35.9443 412.264 36.4556C412.014 36.9668 411.663 37.3645 411.213 37.6489C410.764 37.9332 410.242 38.0754 409.644 38.0754ZM409.644 37.1621C410.098 37.1621 410.472 37.0457 410.764 36.8131C411.057 36.5805 411.274 36.2746 411.415 35.8955C411.556 35.5164 411.626 35.1057 411.626 34.6634C411.626 34.2212 411.556 33.809 411.415 33.4271C411.274 33.0451 411.057 32.7363 410.764 32.5008C410.472 32.2653 410.098 32.1476 409.644 32.1476C409.191 32.1476 408.817 32.2653 408.524 32.5008C408.231 32.7363 408.015 33.0451 407.874 33.4271C407.733 33.809 407.663 34.2212 407.663 34.6634C407.663 35.1057 407.733 35.5164 407.874 35.8955C408.015 36.2746 408.231 36.5805 408.524 36.8131C408.817 37.0457 409.191 37.1621 409.644 37.1621ZM414.061 37.9375V31.3205H415.043V32.3199H415.112C415.233 31.9925 415.451 31.7268 415.767 31.5229C416.083 31.319 416.439 31.2171 416.836 31.2171C416.91 31.2171 417.004 31.2185 417.116 31.2214C417.228 31.2242 417.312 31.2286 417.37 31.2343V32.2682C417.335 32.2596 417.256 32.2467 417.133 32.2294C417.012 32.2093 416.884 32.1993 416.749 32.1993C416.428 32.1993 416.141 32.2668 415.888 32.4018C415.638 32.5339 415.44 32.7177 415.293 32.9532C415.15 33.1858 415.078 33.4515 415.078 33.7502V37.9375H414.061ZM421.734 31.3205V32.182H418.305V31.3205H421.734ZM419.304 29.7351H420.321V36.042C420.321 36.3292 420.363 36.5446 420.446 36.6882C420.532 36.8289 420.641 36.9237 420.773 36.9725C420.908 37.0185 421.05 37.0414 421.2 37.0414C421.312 37.0414 421.404 37.0357 421.475 37.0242C421.547 37.0098 421.605 36.9984 421.648 36.9897L421.854 37.903C421.786 37.9289 421.689 37.9547 421.566 37.9806C421.442 38.0093 421.286 38.0237 421.096 38.0237C420.809 38.0237 420.528 37.9619 420.252 37.8384C419.979 37.7149 419.752 37.5268 419.571 37.2741C419.393 37.0213 419.304 36.7025 419.304 36.3177V29.7351ZM425.077 38.0926C424.658 38.0926 424.277 38.0136 423.935 37.8556C423.594 37.6948 423.322 37.4636 423.121 37.1621C422.92 36.8576 422.82 36.49 422.82 36.0592C422.82 35.6801 422.894 35.3728 423.044 35.1373C423.193 34.8989 423.393 34.7123 423.642 34.5773C423.892 34.4423 424.168 34.3418 424.47 34.2757C424.774 34.2068 425.08 34.1522 425.387 34.112C425.789 34.0603 426.115 34.0216 426.365 33.9957C426.618 33.967 426.802 33.9196 426.916 33.8535C427.034 33.7875 427.093 33.6726 427.093 33.5089V33.4744C427.093 33.0494 426.977 32.7191 426.744 32.4836C426.514 32.2481 426.165 32.1304 425.697 32.1304C425.212 32.1304 424.831 32.2366 424.556 32.4491C424.28 32.6617 424.086 32.8886 423.974 33.1298L423.009 32.7852C423.181 32.3831 423.411 32.07 423.698 31.846C423.988 31.6191 424.304 31.4612 424.646 31.3722C424.991 31.2802 425.33 31.2343 425.663 31.2343C425.875 31.2343 426.119 31.2601 426.395 31.3118C426.674 31.3607 426.942 31.4626 427.201 31.6177C427.462 31.7728 427.679 32.0069 427.851 32.3199C428.024 32.633 428.11 33.0523 428.11 33.5778V37.9375H427.093V37.0414H427.041C426.972 37.185 426.858 37.3387 426.697 37.5024C426.536 37.6661 426.322 37.8054 426.055 37.9203C425.788 38.0351 425.462 38.0926 425.077 38.0926ZM425.232 37.1793C425.634 37.1793 425.973 37.1003 426.249 36.9424C426.527 36.7844 426.737 36.5805 426.878 36.3306C427.021 36.0808 427.093 35.818 427.093 35.5423V34.6117C427.05 34.6634 426.955 34.7108 426.809 34.7539C426.665 34.7941 426.499 34.83 426.309 34.8616C426.122 34.8903 425.94 34.9162 425.762 34.9392C425.587 34.9593 425.445 34.9765 425.335 34.9908C425.071 35.0253 424.824 35.0813 424.594 35.1589C424.368 35.2335 424.184 35.347 424.043 35.4992C423.905 35.6485 423.836 35.8524 423.836 36.1109C423.836 36.4642 423.967 36.7313 424.228 36.9122C424.493 37.0903 424.827 37.1793 425.232 37.1793ZM430.849 33.9569V37.9375H429.832V31.3205H430.814V32.3544H430.9C431.055 32.0183 431.291 31.7484 431.607 31.5445C431.923 31.3377 432.331 31.2343 432.83 31.2343C433.278 31.2343 433.67 31.3262 434.006 31.51C434.342 31.6909 434.604 31.9667 434.79 32.3371C434.977 32.7047 435.07 33.17 435.07 33.7329V37.9375H434.054V33.8018C434.054 33.282 433.919 32.8771 433.649 32.587C433.379 32.2941 433.008 32.1476 432.537 32.1476C432.213 32.1476 431.923 32.2179 431.667 32.3587C431.414 32.4994 431.215 32.7047 431.068 32.9747C430.922 33.2447 430.849 33.5721 430.849 33.9569ZM439.673 31.3205V32.182H436.243V31.3205H439.673ZM437.243 29.7351H438.26V36.042C438.26 36.3292 438.301 36.5446 438.384 36.6882C438.471 36.8289 438.58 36.9237 438.712 36.9725C438.847 37.0185 438.989 37.0414 439.138 37.0414C439.25 37.0414 439.342 37.0357 439.414 37.0242C439.486 37.0098 439.543 36.9984 439.586 36.9897L439.793 37.903C439.724 37.9289 439.628 37.9547 439.505 37.9806C439.381 38.0093 439.225 38.0237 439.035 38.0237C438.748 38.0237 438.466 37.9619 438.191 37.8384C437.918 37.7149 437.691 37.5268 437.51 37.2741C437.332 37.0213 437.243 36.7025 437.243 36.3177V29.7351ZM450.516 31.8719C450.421 31.5818 450.296 31.3219 450.141 31.0921C449.989 30.8595 449.807 30.6613 449.594 30.4976C449.384 30.3339 449.146 30.209 448.879 30.1228C448.612 30.0367 448.319 29.9936 448 29.9936C447.477 29.9936 447.002 30.1286 446.574 30.3985C446.146 30.6685 445.806 31.0663 445.553 31.5919C445.3 32.1174 445.174 32.7622 445.174 33.5261C445.174 34.2901 445.302 34.9348 445.557 35.4604C445.813 35.986 446.159 36.3838 446.596 36.6537C447.032 36.9237 447.523 37.0587 448.069 37.0587C448.574 37.0587 449.02 36.951 449.404 36.7356C449.792 36.5173 450.094 36.21 450.309 35.8137C450.527 35.4145 450.637 34.9449 450.637 34.405L450.964 34.4739H448.31V33.5261H451.67V34.4739C451.67 35.2005 451.515 35.8323 451.205 36.3694C450.898 36.9065 450.473 37.3229 449.93 37.6187C449.39 37.9117 448.77 38.0581 448.069 38.0581C447.288 38.0581 446.601 37.8743 446.01 37.5067C445.421 37.1391 444.962 36.6164 444.631 35.9386C444.304 35.2608 444.14 34.4567 444.14 33.5261C444.14 32.8282 444.233 32.2007 444.42 31.6436C444.61 31.0835 444.877 30.6068 445.221 30.2133C445.566 29.8198 445.974 29.5183 446.445 29.3086C446.916 29.099 447.434 28.9941 448 28.9941C448.465 28.9941 448.899 29.0645 449.301 29.2052C449.706 29.3431 450.066 29.5398 450.382 29.7954C450.701 30.0482 450.967 30.3512 451.179 30.7044C451.392 31.0548 451.538 31.444 451.619 31.8719H450.516ZM460.811 33.5261C460.811 34.4567 460.643 35.2608 460.307 35.9386C459.971 36.6164 459.51 37.1391 458.924 37.5067C458.338 37.8743 457.669 38.0581 456.917 38.0581C456.164 38.0581 455.495 37.8743 454.909 37.5067C454.323 37.1391 453.862 36.6164 453.526 35.9386C453.19 35.2608 453.022 34.4567 453.022 33.5261C453.022 32.5956 453.19 31.7915 453.526 31.1137C453.862 30.4359 454.323 29.9132 454.909 29.5456C455.495 29.178 456.164 28.9941 456.917 28.9941C457.669 28.9941 458.338 29.178 458.924 29.5456C459.51 29.9132 459.971 30.4359 460.307 31.1137C460.643 31.7915 460.811 32.5956 460.811 33.5261ZM459.777 33.5261C459.777 32.7622 459.649 32.1174 459.394 31.5919C459.141 31.0663 458.798 30.6685 458.364 30.3985C457.933 30.1286 457.451 29.9936 456.917 29.9936C456.382 29.9936 455.899 30.1286 455.465 30.3985C455.034 30.6685 454.691 31.0663 454.435 31.5919C454.182 32.1174 454.056 32.7622 454.056 33.5261C454.056 34.2901 454.182 34.9348 454.435 35.4604C454.691 35.986 455.034 36.3838 455.465 36.6537C455.899 36.9237 456.382 37.0587 456.917 37.0587C457.451 37.0587 457.933 36.9237 458.364 36.6537C458.798 36.3838 459.141 35.986 459.394 35.4604C459.649 34.9348 459.777 34.2901 459.777 33.5261ZM467.023 32.8024L466.11 33.0609C466.052 32.9087 465.968 32.7608 465.856 32.6172C465.747 32.4707 465.597 32.3501 465.408 32.2553C465.218 32.1605 464.976 32.1131 464.68 32.1131C464.275 32.1131 463.937 32.2065 463.667 32.3931C463.4 32.5769 463.267 32.811 463.267 33.0953C463.267 33.3481 463.359 33.5477 463.542 33.6941C463.726 33.8406 464.013 33.9627 464.404 34.0603L465.386 34.3016C465.978 34.4452 466.419 34.6649 466.709 34.9607C466.999 35.2536 467.144 35.6313 467.144 36.0937C467.144 36.4728 467.035 36.8117 466.816 37.1104C466.601 37.4091 466.299 37.6446 465.912 37.8169C465.524 37.9892 465.073 38.0754 464.559 38.0754C463.884 38.0754 463.326 37.9289 462.883 37.6359C462.441 37.343 462.161 36.9151 462.043 36.3522L463.008 36.1109C463.1 36.467 463.274 36.7341 463.529 36.9122C463.788 37.0903 464.125 37.1793 464.542 37.1793C465.016 37.1793 465.392 37.0788 465.671 36.8777C465.952 36.6738 466.093 36.4297 466.093 36.1454C466.093 35.9156 466.012 35.7232 465.851 35.5681C465.691 35.4102 465.444 35.2924 465.11 35.2149L464.008 34.9564C463.402 34.8128 462.957 34.5902 462.672 34.2886C462.391 33.9842 462.25 33.6037 462.25 33.147C462.25 32.7737 462.355 32.4434 462.564 32.1562C462.777 31.869 463.066 31.6436 463.43 31.4798C463.798 31.3161 464.214 31.2343 464.68 31.2343C465.335 31.2343 465.849 31.3779 466.222 31.6651C466.598 31.9523 466.865 32.3314 467.023 32.8024ZM474.938 28.7012L472.095 39.2644H471.164L474.008 28.7012H474.938ZM479.788 37.9375H478.668L481.908 29.1148H483.011L486.25 37.9375H485.13L482.494 30.5106H482.425L479.788 37.9375ZM480.202 34.4911H484.716V35.4389H480.202V34.4911ZM490.041 38.0754C489.421 38.0754 488.887 37.9289 488.439 37.6359C487.991 37.343 487.646 36.9395 487.405 36.4254C487.164 35.9113 487.043 35.324 487.043 34.6634C487.043 33.9914 487.166 33.3983 487.413 32.8842C487.663 32.3673 488.011 31.9638 488.456 31.6737C488.904 31.3808 489.427 31.2343 490.024 31.2343C490.489 31.2343 490.909 31.3205 491.282 31.4928C491.655 31.6651 491.961 31.9063 492.2 32.2165C492.438 32.5267 492.586 32.8886 492.643 33.3021H491.627C491.549 33.0006 491.377 32.7335 491.11 32.5008C490.845 32.2653 490.489 32.1476 490.041 32.1476C489.645 32.1476 489.297 32.251 488.999 32.4578C488.703 32.6617 488.472 32.9503 488.305 33.3237C488.141 33.6941 488.06 34.1293 488.06 34.629C488.06 35.1402 488.14 35.5853 488.301 35.9644C488.465 36.3436 488.694 36.6379 488.99 36.8476C489.289 37.0572 489.639 37.1621 490.041 37.1621C490.305 37.1621 490.545 37.1161 490.761 37.0242C490.976 36.9323 491.158 36.8002 491.308 36.6279C491.457 36.4556 491.563 36.2488 491.627 36.0075H492.643C492.586 36.3981 492.444 36.7499 492.217 37.063C491.993 37.3732 491.696 37.6201 491.325 37.804C490.957 37.9849 490.529 38.0754 490.041 38.0754ZM496.874 31.3205V32.182H493.445V31.3205H496.874ZM494.444 29.7351H495.461V36.042C495.461 36.3292 495.502 36.5446 495.586 36.6882C495.672 36.8289 495.781 36.9237 495.913 36.9725C496.048 37.0185 496.19 37.0414 496.34 37.0414C496.452 37.0414 496.544 37.0357 496.615 37.0242C496.687 37.0098 496.745 36.9984 496.788 36.9897L496.994 37.903C496.925 37.9289 496.829 37.9547 496.706 37.9806C496.582 38.0093 496.426 38.0237 496.236 38.0237C495.949 38.0237 495.668 37.9619 495.392 37.8384C495.119 37.7149 494.892 37.5268 494.711 37.2741C494.533 37.0213 494.444 36.7025 494.444 36.3177V29.7351ZM502.838 32.8024L501.925 33.0609C501.868 32.9087 501.783 32.7608 501.671 32.6172C501.562 32.4707 501.412 32.3501 501.223 32.2553C501.033 32.1605 500.791 32.1131 500.495 32.1131C500.09 32.1131 499.752 32.2065 499.482 32.3931C499.215 32.5769 499.082 32.811 499.082 33.0953C499.082 33.3481 499.174 33.5477 499.357 33.6941C499.541 33.8406 499.828 33.9627 500.219 34.0603L501.201 34.3016C501.793 34.4452 502.234 34.6649 502.524 34.9607C502.814 35.2536 502.959 35.6313 502.959 36.0937C502.959 36.4728 502.85 36.8117 502.632 37.1104C502.416 37.4091 502.115 37.6446 501.727 37.8169C501.339 37.9892 500.888 38.0754 500.374 38.0754C499.699 38.0754 499.141 37.9289 498.698 37.6359C498.256 37.343 497.976 36.9151 497.858 36.3522L498.823 36.1109C498.915 36.467 499.089 36.7341 499.345 36.9122C499.603 37.0903 499.94 37.1793 500.357 37.1793C500.831 37.1793 501.207 37.0788 501.486 36.8777C501.767 36.6738 501.908 36.4297 501.908 36.1454C501.908 35.9156 501.827 35.7232 501.667 35.5681C501.506 35.4102 501.259 35.2924 500.926 35.2149L499.823 34.9564C499.217 34.8128 498.772 34.5902 498.487 34.2886C498.206 33.9842 498.065 33.6037 498.065 33.147C498.065 32.7737 498.17 32.4434 498.38 32.1562C498.592 31.869 498.881 31.6436 499.245 31.4798C499.613 31.3161 500.029 31.2343 500.495 31.2343C501.15 31.2343 501.664 31.3779 502.037 31.6651C502.413 31.9523 502.68 32.3314 502.838 32.8024ZM510.133 38.0581C509.553 38.0581 509.053 37.9519 508.634 37.7393C508.214 37.5268 507.891 37.2353 507.664 36.8648C507.438 36.4943 507.324 36.0707 507.324 35.594C507.324 35.2263 507.402 34.9004 507.557 34.6161C507.715 34.3289 507.932 34.0632 508.207 33.8191C508.486 33.5721 508.806 33.3251 509.168 33.0781L510.443 32.1304C510.693 31.9667 510.893 31.7915 511.042 31.6048C511.194 31.4181 511.27 31.174 511.27 30.8724C511.27 30.6484 511.171 30.4316 510.973 30.2219C510.778 30.0123 510.521 29.9074 510.202 29.9074C509.978 29.9074 509.78 29.9649 509.607 30.0798C509.438 30.1918 509.304 30.3354 509.207 30.5106C509.112 30.6829 509.065 30.8609 509.065 31.0447C509.065 31.2515 509.121 31.4612 509.233 31.6737C509.347 31.8834 509.493 32.0988 509.668 32.3199C509.846 32.5382 510.03 32.7622 510.219 32.9919L514.269 37.9375H513.045L509.702 33.9052C509.392 33.5319 509.111 33.193 508.858 32.8886C508.605 32.5841 508.404 32.284 508.255 31.9882C508.105 31.6924 508.031 31.3722 508.031 31.0275C508.031 30.6312 508.118 30.2837 508.293 29.985C508.472 29.6834 508.72 29.4494 509.039 29.2828C509.36 29.1133 509.737 29.0286 510.167 29.0286C510.61 29.0286 510.99 29.1148 511.309 29.2871C511.628 29.4565 511.873 29.682 512.046 29.9634C512.218 30.242 512.304 30.545 512.304 30.8724C512.304 31.2946 512.199 31.6608 511.99 31.971C511.78 32.2811 511.494 32.5698 511.132 32.8369L509.375 34.1465C508.978 34.4394 508.71 34.7238 508.569 34.9995C508.428 35.2752 508.358 35.4733 508.358 35.594C508.358 35.8697 508.43 36.1267 508.573 36.3651C508.717 36.6035 508.92 36.7959 509.181 36.9424C509.442 37.0888 509.748 37.1621 510.098 37.1621C510.432 37.1621 510.756 37.0917 511.072 36.951C511.388 36.8074 511.674 36.6006 511.929 36.3306C512.188 36.0607 512.392 35.7361 512.541 35.357C512.693 34.9779 512.769 34.5514 512.769 34.0776H513.752C513.752 34.6634 513.684 35.1416 513.549 35.5121C513.414 35.8826 513.262 36.1727 513.093 36.3823C512.923 36.592 512.787 36.7485 512.683 36.8519C512.649 36.895 512.617 36.9381 512.589 36.9811C512.56 37.0242 512.528 37.0673 512.494 37.1104C512.209 37.4292 511.85 37.6675 511.417 37.8255C510.983 37.9806 510.555 38.0581 510.133 38.0581ZM519.039 37.9375H517.919L521.158 29.1148H522.261L525.501 37.9375H524.381L521.744 30.5106H521.675L519.039 37.9375ZM519.452 34.4911H523.967V35.4389H519.452V34.4911ZM526.742 37.9375V29.1148H527.758V32.3716H527.844C527.919 32.2567 528.022 32.1102 528.155 31.9322C528.29 31.7513 528.482 31.5904 528.732 31.4497C528.985 31.3061 529.326 31.2343 529.757 31.2343C530.314 31.2343 530.805 31.3736 531.23 31.6522C531.656 31.9308 531.987 32.3256 532.226 32.8369C532.464 33.3481 532.583 33.9512 532.583 34.6462C532.583 35.347 532.464 35.9544 532.226 36.4685C531.987 36.9797 531.657 37.376 531.235 37.6575C530.813 37.9361 530.326 38.0754 529.774 38.0754C529.349 38.0754 529.009 38.005 528.753 37.8643C528.498 37.7207 528.301 37.5584 528.163 37.3775C528.025 37.1937 527.919 37.0414 527.844 36.9208H527.724V37.9375H526.742ZM527.741 34.629C527.741 35.1287 527.814 35.5696 527.961 35.9515C528.107 36.3306 528.321 36.6279 528.603 36.8433C528.884 37.0558 529.229 37.1621 529.637 37.1621C530.062 37.1621 530.416 37.0501 530.701 36.826C530.988 36.5992 531.203 36.2947 531.347 35.9128C531.493 35.5279 531.567 35.1 531.567 34.629C531.567 34.1637 531.495 33.7444 531.351 33.371C531.21 32.9948 530.996 32.6976 530.709 32.4793C530.425 32.2582 530.067 32.1476 529.637 32.1476C529.223 32.1476 528.875 32.2524 528.594 32.4621C528.313 32.6689 528.1 32.9589 527.956 33.3323C527.813 33.7028 527.741 34.135 527.741 34.629ZM538.692 32.8024L537.779 33.0609C537.721 32.9087 537.637 32.7608 537.525 32.6172C537.415 32.4707 537.266 32.3501 537.077 32.2553C536.887 32.1605 536.644 32.1131 536.348 32.1131C535.944 32.1131 535.606 32.2065 535.336 32.3931C535.069 32.5769 534.935 32.811 534.935 33.0953C534.935 33.3481 535.027 33.5477 535.211 33.6941C535.395 33.8406 535.682 33.9627 536.073 34.0603L537.055 34.3016C537.647 34.4452 538.087 34.6649 538.378 34.9607C538.668 35.2536 538.813 35.6313 538.813 36.0937C538.813 36.4728 538.703 36.8117 538.485 37.1104C538.27 37.4091 537.968 37.6446 537.581 37.8169C537.193 37.9892 536.742 38.0754 536.228 38.0754C535.553 38.0754 534.994 37.9289 534.552 37.6359C534.11 37.343 533.83 36.9151 533.712 36.3522L534.677 36.1109C534.769 36.467 534.943 36.7341 535.198 36.9122C535.457 37.0903 535.794 37.1793 536.211 37.1793C536.684 37.1793 537.061 37.0788 537.339 36.8777C537.621 36.6738 537.761 36.4297 537.761 36.1454C537.761 35.9156 537.681 35.7232 537.52 35.5681C537.359 35.4102 537.112 35.2924 536.779 35.2149L535.676 34.9564C535.07 34.8128 534.625 34.5902 534.341 34.2886C534.059 33.9842 533.919 33.6037 533.919 33.147C533.919 32.7737 534.024 32.4434 534.233 32.1562C534.446 31.869 534.734 31.6436 535.099 31.4798C535.467 31.3161 535.883 31.2343 536.348 31.2343C537.003 31.2343 537.517 31.3779 537.891 31.6651C538.267 31.9523 538.534 32.3314 538.692 32.8024ZM543.087 31.3205V32.182H539.658V31.3205H543.087ZM540.658 29.7351H541.674V36.042C541.674 36.3292 541.716 36.5446 541.799 36.6882C541.885 36.8289 541.995 36.9237 542.127 36.9725C542.262 37.0185 542.404 37.0414 542.553 37.0414C542.665 37.0414 542.757 37.0357 542.829 37.0242C542.901 37.0098 542.958 36.9984 543.001 36.9897L543.208 37.903C543.139 37.9289 543.043 37.9547 542.919 37.9806C542.796 38.0093 542.639 38.0237 542.45 38.0237C542.163 38.0237 541.881 37.9619 541.605 37.8384C541.333 37.7149 541.106 37.5268 540.925 37.2741C540.747 37.0213 540.658 36.7025 540.658 36.3177V29.7351ZM544.483 37.9375V31.3205H545.465V32.3199H545.534C545.655 31.9925 545.873 31.7268 546.189 31.5229C546.505 31.319 546.861 31.2171 547.258 31.2171C547.332 31.2171 547.426 31.2185 547.538 31.2214C547.65 31.2242 547.734 31.2286 547.792 31.2343V32.2682C547.757 32.2596 547.678 32.2467 547.555 32.2294C547.434 32.2093 547.306 32.1993 547.171 32.1993C546.85 32.1993 546.563 32.2668 546.31 32.4018C546.06 32.5339 545.862 32.7177 545.715 32.9532C545.572 33.1858 545.5 33.4515 545.5 33.7502V37.9375H544.483ZM550.811 38.0926C550.391 38.0926 550.011 38.0136 549.669 37.8556C549.327 37.6948 549.056 37.4636 548.855 37.1621C548.654 36.8576 548.553 36.49 548.553 36.0592C548.553 35.6801 548.628 35.3728 548.777 35.1373C548.927 34.8989 549.126 34.7123 549.376 34.5773C549.626 34.4423 549.902 34.3418 550.203 34.2757C550.508 34.2068 550.814 34.1522 551.121 34.112C551.523 34.0603 551.849 34.0216 552.099 33.9957C552.351 33.967 552.535 33.9196 552.65 33.8535C552.768 33.7875 552.827 33.6726 552.827 33.5089V33.4744C552.827 33.0494 552.71 32.7191 552.478 32.4836C552.248 32.2481 551.899 32.1304 551.431 32.1304C550.946 32.1304 550.565 32.2366 550.289 32.4491C550.014 32.6617 549.82 32.8886 549.708 33.1298L548.743 32.7852C548.915 32.3831 549.145 32.07 549.432 31.846C549.722 31.6191 550.038 31.4612 550.38 31.3722C550.724 31.2802 551.063 31.2343 551.397 31.2343C551.609 31.2343 551.853 31.2601 552.129 31.3118C552.407 31.3607 552.676 31.4626 552.934 31.6177C553.196 31.7728 553.413 32.0069 553.585 32.3199C553.757 32.633 553.843 33.0523 553.843 33.5778V37.9375H552.827V37.0414H552.775C552.706 37.185 552.591 37.3387 552.43 37.5024C552.27 37.6661 552.056 37.8054 551.789 37.9203C551.521 38.0351 551.195 38.0926 550.811 38.0926ZM550.966 37.1793C551.368 37.1793 551.707 37.1003 551.982 36.9424C552.261 36.7844 552.471 36.5805 552.611 36.3306C552.755 36.0808 552.827 35.818 552.827 35.5423V34.6117C552.784 34.6634 552.689 34.7108 552.542 34.7539C552.399 34.7941 552.232 34.83 552.043 34.8616C551.856 34.8903 551.674 34.9162 551.496 34.9392C551.32 34.9593 551.178 34.9765 551.069 34.9908C550.805 35.0253 550.558 35.0813 550.328 35.1589C550.101 35.2335 549.917 35.347 549.777 35.4992C549.639 35.6485 549.57 35.8524 549.57 36.1109C549.57 36.4642 549.701 36.7313 549.962 36.9122C550.226 37.0903 550.561 37.1793 550.966 37.1793ZM558.254 38.0754C557.633 38.0754 557.099 37.9289 556.651 37.6359C556.203 37.343 555.859 36.9395 555.617 36.4254C555.376 35.9113 555.255 35.324 555.255 34.6634C555.255 33.9914 555.379 33.3983 555.626 32.8842C555.876 32.3673 556.223 31.9638 556.668 31.6737C557.117 31.3808 557.639 31.2343 558.237 31.2343C558.702 31.2343 559.121 31.3205 559.495 31.4928C559.868 31.6651 560.174 31.9063 560.412 32.2165C560.65 32.5267 560.798 32.8886 560.856 33.3021H559.839C559.762 33.0006 559.589 32.7335 559.322 32.5008C559.058 32.2653 558.702 32.1476 558.254 32.1476C557.857 32.1476 557.51 32.251 557.211 32.4578C556.915 32.6617 556.684 32.9503 556.518 33.3237C556.354 33.6941 556.272 34.1293 556.272 34.629C556.272 35.1402 556.353 35.5853 556.513 35.9644C556.677 36.3436 556.907 36.6379 557.203 36.8476C557.501 37.0572 557.852 37.1621 558.254 37.1621C558.518 37.1621 558.758 37.1161 558.973 37.0242C559.189 36.9323 559.371 36.8002 559.52 36.6279C559.67 36.4556 559.776 36.2488 559.839 36.0075H560.856C560.798 36.3981 560.656 36.7499 560.429 37.063C560.205 37.3732 559.908 37.6201 559.538 37.804C559.17 37.9849 558.742 38.0754 558.254 38.0754ZM565.086 31.3205V32.182H561.657V31.3205H565.086ZM562.657 29.7351H563.673V36.042C563.673 36.3292 563.715 36.5446 563.798 36.6882C563.884 36.8289 563.994 36.9237 564.126 36.9725C564.261 37.0185 564.403 37.0414 564.552 37.0414C564.664 37.0414 564.756 37.0357 564.828 37.0242C564.9 37.0098 564.957 36.9984 565 36.9897L565.207 37.903C565.138 37.9289 565.042 37.9547 564.918 37.9806C564.795 38.0093 564.638 38.0237 564.449 38.0237C564.162 38.0237 563.88 37.9619 563.604 37.8384C563.332 37.7149 563.105 37.5268 562.924 37.2741C562.746 37.0213 562.657 36.7025 562.657 36.3177V29.7351ZM571.051 32.8024L570.138 33.0609C570.08 32.9087 569.995 32.7608 569.883 32.6172C569.774 32.4707 569.625 32.3501 569.435 32.2553C569.246 32.1605 569.003 32.1131 568.707 32.1131C568.302 32.1131 567.965 32.2065 567.695 32.3931C567.428 32.5769 567.294 32.811 567.294 33.0953C567.294 33.3481 567.386 33.5477 567.57 33.6941C567.754 33.8406 568.041 33.9627 568.432 34.0603L569.414 34.3016C570.005 34.4452 570.446 34.6649 570.736 34.9607C571.026 35.2536 571.171 35.6313 571.171 36.0937C571.171 36.4728 571.062 36.8117 570.844 37.1104C570.629 37.4091 570.327 37.6446 569.939 37.8169C569.552 37.9892 569.101 38.0754 568.587 38.0754C567.912 38.0754 567.353 37.9289 566.911 37.6359C566.469 37.343 566.189 36.9151 566.071 36.3522L567.036 36.1109C567.128 36.467 567.301 36.7341 567.557 36.9122C567.816 37.0903 568.153 37.1793 568.569 37.1793C569.043 37.1793 569.42 37.0788 569.698 36.8777C569.98 36.6738 570.12 36.4297 570.12 36.1454C570.12 35.9156 570.04 35.7232 569.879 35.5681C569.718 35.4102 569.471 35.2924 569.138 35.2149L568.035 34.9564C567.429 34.8128 566.984 34.5902 566.7 34.2886C566.418 33.9842 566.278 33.6037 566.278 33.147C566.278 32.7737 566.382 32.4434 566.592 32.1562C566.805 31.869 567.093 31.6436 567.458 31.4798C567.826 31.3161 568.242 31.2343 568.707 31.2343C569.362 31.2343 569.876 31.3779 570.25 31.6651C570.626 31.9523 570.893 32.3314 571.051 32.8024Z" fill="black" fill-opacity="0.8"/>
<path d="M600.98 37.9375V29.1148H604.065C604.68 29.1148 605.187 29.221 605.586 29.4336C605.985 29.6432 606.282 29.9261 606.477 30.2822C606.673 30.6355 606.77 31.0275 606.77 31.4583C606.77 31.8374 606.703 32.1505 606.568 32.3974C606.436 32.6444 606.261 32.8397 606.042 32.9833C605.827 33.1269 605.593 33.2332 605.34 33.3021V33.3883C605.61 33.4055 605.882 33.5003 606.154 33.6726C606.427 33.8449 606.656 34.0919 606.839 34.4136C607.023 34.7352 607.115 35.1287 607.115 35.594C607.115 36.0362 607.015 36.434 606.813 36.7873C606.612 37.1405 606.295 37.4205 605.861 37.6273C605.428 37.8341 604.863 37.9375 604.168 37.9375H600.98ZM602.049 36.9897H604.168C604.866 36.9897 605.362 36.8548 605.655 36.5848C605.95 36.312 606.098 35.9817 606.098 35.594C606.098 35.2953 606.022 35.0196 605.87 34.7668C605.718 34.5112 605.501 34.3073 605.22 34.1551C604.938 34 604.605 33.9225 604.22 33.9225H602.049V36.9897ZM602.049 32.9919H604.031C604.352 32.9919 604.642 32.9288 604.901 32.8024C605.162 32.676 605.369 32.498 605.521 32.2682C605.676 32.0384 605.754 31.7685 605.754 31.4583C605.754 31.0706 605.619 30.7418 605.349 30.4718C605.079 30.1989 604.651 30.0625 604.065 30.0625H602.049V32.9919ZM612.769 35.2321V31.3205H613.786V37.9375H612.769V36.8174H612.7C612.545 37.1534 612.304 37.4392 611.977 37.6747C611.649 37.9073 611.236 38.0237 610.736 38.0237C610.322 38.0237 609.955 37.9332 609.633 37.7523C609.311 37.5685 609.059 37.2927 608.875 36.9251C608.691 36.5546 608.599 36.0879 608.599 35.525V31.3205H609.616V35.4561C609.616 35.9386 609.751 36.3234 610.021 36.6106C610.294 36.8978 610.641 37.0414 611.063 37.0414C611.316 37.0414 611.573 36.9768 611.835 36.8476C612.099 36.7183 612.32 36.5202 612.498 36.2531C612.679 35.986 612.769 35.6457 612.769 35.2321ZM620.202 32.8024L619.288 33.0609C619.231 32.9087 619.146 32.7608 619.034 32.6172C618.925 32.4707 618.776 32.3501 618.586 32.2553C618.397 32.1605 618.154 32.1131 617.858 32.1131C617.453 32.1131 617.116 32.2065 616.846 32.3931C616.579 32.5769 616.445 32.811 616.445 33.0953C616.445 33.3481 616.537 33.5477 616.721 33.6941C616.905 33.8406 617.192 33.9627 617.583 34.0603L618.565 34.3016C619.156 34.4452 619.597 34.6649 619.887 34.9607C620.177 35.2536 620.322 35.6313 620.322 36.0937C620.322 36.4728 620.213 36.8117 619.995 37.1104C619.78 37.4091 619.478 37.6446 619.09 37.8169C618.703 37.9892 618.252 38.0754 617.738 38.0754C617.063 38.0754 616.504 37.9289 616.062 37.6359C615.62 37.343 615.34 36.9151 615.222 36.3522L616.187 36.1109C616.279 36.467 616.452 36.7341 616.708 36.9122C616.967 37.0903 617.304 37.1793 617.72 37.1793C618.194 37.1793 618.571 37.0788 618.849 36.8777C619.131 36.6738 619.271 36.4297 619.271 36.1454C619.271 35.9156 619.191 35.7232 619.03 35.5681C618.869 35.4102 618.622 35.2924 618.289 35.2149L617.186 34.9564C616.58 34.8128 616.135 34.5902 615.851 34.2886C615.569 33.9842 615.429 33.6037 615.429 33.147C615.429 32.7737 615.533 32.4434 615.743 32.1562C615.956 31.869 616.244 31.6436 616.609 31.4798C616.977 31.3161 617.393 31.2343 617.858 31.2343C618.513 31.2343 619.027 31.3779 619.401 31.6651C619.777 31.9523 620.044 32.3314 620.202 32.8024ZM621.719 37.9375V31.3205H622.736V37.9375H621.719ZM622.236 30.2176C622.038 30.2176 621.867 30.1501 621.724 30.0151C621.583 29.8802 621.513 29.7179 621.513 29.5283C621.513 29.3388 621.583 29.1765 621.724 29.0415C621.867 28.9066 622.038 28.8391 622.236 28.8391C622.434 28.8391 622.604 28.9066 622.745 29.0415C622.888 29.1765 622.96 29.3388 622.96 29.5283C622.96 29.7179 622.888 29.8802 622.745 30.0151C622.604 30.1501 622.434 30.2176 622.236 30.2176ZM625.481 33.9569V37.9375H624.465V31.3205H625.447V32.3544H625.533C625.688 32.0183 625.924 31.7484 626.24 31.5445C626.556 31.3377 626.963 31.2343 627.463 31.2343C627.911 31.2343 628.303 31.3262 628.639 31.51C628.975 31.6909 629.237 31.9667 629.423 32.3371C629.61 32.7047 629.703 33.17 629.703 33.7329V37.9375H628.687V33.8018C628.687 33.282 628.552 32.8771 628.282 32.587C628.012 32.2941 627.641 32.1476 627.17 32.1476C626.846 32.1476 626.556 32.2179 626.3 32.3587C626.047 32.4994 625.848 32.7047 625.701 32.9747C625.555 33.2447 625.481 33.5721 625.481 33.9569ZM634.202 38.0754C633.564 38.0754 633.014 37.9346 632.552 37.6532C632.092 37.3688 631.738 36.9725 631.488 36.4642C631.241 35.953 631.117 35.3585 631.117 34.6807C631.117 34.0029 631.241 33.4055 631.488 32.8886C631.738 32.3687 632.085 31.9638 632.53 31.6737C632.978 31.3808 633.501 31.2343 634.099 31.2343C634.443 31.2343 634.784 31.2917 635.12 31.4066C635.456 31.5215 635.761 31.7082 636.037 31.9667C636.313 32.2223 636.533 32.5612 636.696 32.9833C636.86 33.4055 636.942 33.9253 636.942 34.5428V34.9736H631.841V34.0948H635.908C635.908 33.7214 635.833 33.3883 635.684 33.0953C635.537 32.8024 635.328 32.5712 635.055 32.4018C634.785 32.2323 634.466 32.1476 634.099 32.1476C633.694 32.1476 633.343 32.2481 633.047 32.4491C632.754 32.6473 632.529 32.9058 632.371 33.2246C632.213 33.5434 632.134 33.8851 632.134 34.2499V34.8358C632.134 35.3355 632.22 35.7591 632.393 36.1066C632.568 36.4512 632.81 36.714 633.121 36.895C633.431 37.073 633.791 37.1621 634.202 37.1621C634.469 37.1621 634.71 37.1247 634.926 37.0501C635.144 36.9725 635.332 36.8576 635.49 36.7054C635.648 36.5503 635.77 36.3579 635.856 36.1282L636.838 36.4039C636.735 36.737 636.561 37.03 636.317 37.2827C636.073 37.5326 635.771 37.7278 635.412 37.8686C635.053 38.0064 634.65 38.0754 634.202 38.0754ZM643.042 32.8024L642.129 33.0609C642.071 32.9087 641.987 32.7608 641.875 32.6172C641.765 32.4707 641.616 32.3501 641.427 32.2553C641.237 32.1605 640.994 32.1131 640.698 32.1131C640.294 32.1131 639.956 32.2065 639.686 32.3931C639.419 32.5769 639.285 32.811 639.285 33.0953C639.285 33.3481 639.377 33.5477 639.561 33.6941C639.745 33.8406 640.032 33.9627 640.423 34.0603L641.405 34.3016C641.997 34.4452 642.437 34.6649 642.728 34.9607C643.018 35.2536 643.163 35.6313 643.163 36.0937C643.163 36.4728 643.053 36.8117 642.835 37.1104C642.62 37.4091 642.318 37.6446 641.931 37.8169C641.543 37.9892 641.092 38.0754 640.578 38.0754C639.903 38.0754 639.344 37.9289 638.902 37.6359C638.46 37.343 638.18 36.9151 638.062 36.3522L639.027 36.1109C639.119 36.467 639.293 36.7341 639.548 36.9122C639.807 37.0903 640.144 37.1793 640.561 37.1793C641.034 37.1793 641.411 37.0788 641.689 36.8777C641.971 36.6738 642.111 36.4297 642.111 36.1454C642.111 35.9156 642.031 35.7232 641.87 35.5681C641.709 35.4102 641.462 35.2924 641.129 35.2149L640.026 34.9564C639.42 34.8128 638.975 34.5902 638.691 34.2886C638.409 33.9842 638.269 33.6037 638.269 33.147C638.269 32.7737 638.374 32.4434 638.583 32.1562C638.796 31.869 639.084 31.6436 639.449 31.4798C639.817 31.3161 640.233 31.2343 640.698 31.2343C641.353 31.2343 641.867 31.3779 642.241 31.6651C642.617 31.9523 642.884 32.3314 643.042 32.8024ZM649.247 32.8024L648.333 33.0609C648.276 32.9087 648.191 32.7608 648.079 32.6172C647.97 32.4707 647.821 32.3501 647.631 32.2553C647.442 32.1605 647.199 32.1131 646.903 32.1131C646.498 32.1131 646.161 32.2065 645.891 32.3931C645.624 32.5769 645.49 32.811 645.49 33.0953C645.49 33.3481 645.582 33.5477 645.766 33.6941C645.95 33.8406 646.237 33.9627 646.627 34.0603L647.61 34.3016C648.201 34.4452 648.642 34.6649 648.932 34.9607C649.222 35.2536 649.367 35.6313 649.367 36.0937C649.367 36.4728 649.258 36.8117 649.04 37.1104C648.824 37.4091 648.523 37.6446 648.135 37.8169C647.747 37.9892 647.297 38.0754 646.782 38.0754C646.108 38.0754 645.549 37.9289 645.107 37.6359C644.664 37.343 644.384 36.9151 644.267 36.3522L645.232 36.1109C645.324 36.467 645.497 36.7341 645.753 36.9122C646.011 37.0903 646.349 37.1793 646.765 37.1793C647.239 37.1793 647.615 37.0788 647.894 36.8777C648.175 36.6738 648.316 36.4297 648.316 36.1454C648.316 35.9156 648.236 35.7232 648.075 35.5681C647.914 35.4102 647.667 35.2924 647.334 35.2149L646.231 34.9564C645.625 34.8128 645.18 34.5902 644.896 34.2886C644.614 33.9842 644.473 33.6037 644.473 33.147C644.473 32.7737 644.578 32.4434 644.788 32.1562C645 31.869 645.289 31.6436 645.654 31.4798C646.021 31.3161 646.438 31.2343 646.903 31.2343C647.558 31.2343 648.072 31.3779 648.445 31.6651C648.822 31.9523 649.089 32.3314 649.247 32.8024ZM661.28 31.8719H660.212C660.149 31.5646 660.038 31.2946 659.88 31.062C659.725 30.8293 659.535 30.6341 659.311 30.4761C659.09 30.3153 658.845 30.1946 658.575 30.1142C658.305 30.0338 658.023 29.9936 657.73 29.9936C657.196 29.9936 656.712 30.1286 656.279 30.3985C655.848 30.6685 655.505 31.0663 655.249 31.5919C654.996 32.1174 654.87 32.7622 654.87 33.5261C654.87 34.2901 654.996 34.9348 655.249 35.4604C655.505 35.986 655.848 36.3838 656.279 36.6537C656.712 36.9237 657.196 37.0587 657.73 37.0587C658.023 37.0587 658.305 37.0185 658.575 36.9381C658.845 36.8576 659.09 36.7384 659.311 36.5805C659.535 36.4197 659.725 36.2229 659.88 35.9903C660.038 35.7548 660.149 35.4848 660.212 35.1804H661.28C661.2 35.6313 661.053 36.0348 660.841 36.3909C660.628 36.7471 660.364 37.0501 660.048 37.2999C659.732 37.5469 659.377 37.735 658.984 37.8643C658.593 37.9935 658.175 38.0581 657.73 38.0581C656.978 38.0581 656.309 37.8743 655.723 37.5067C655.137 37.1391 654.676 36.6164 654.34 35.9386C654.004 35.2608 653.836 34.4567 653.836 33.5261C653.836 32.5956 654.004 31.7915 654.34 31.1137C654.676 30.4359 655.137 29.9132 655.723 29.5456C656.309 29.178 656.978 28.9941 657.73 28.9941C658.175 28.9941 658.593 29.0588 658.984 29.188C659.377 29.3172 659.732 29.5068 660.048 29.7567C660.364 30.0037 660.628 30.3052 660.841 30.6613C661.053 31.0146 661.2 31.4181 661.28 31.8719ZM665.423 38.0754C664.826 38.0754 664.302 37.9332 663.851 37.6489C663.403 37.3645 663.053 36.9668 662.8 36.4556C662.55 35.9443 662.425 35.347 662.425 34.6634C662.425 33.9742 662.55 33.3725 662.8 32.8584C663.053 32.3443 663.403 31.9451 663.851 31.6608C664.302 31.3765 664.826 31.2343 665.423 31.2343C666.021 31.2343 666.543 31.3765 666.991 31.6608C667.442 31.9451 667.793 32.3443 668.043 32.8584C668.295 33.3725 668.422 33.9742 668.422 34.6634C668.422 35.347 668.295 35.9443 668.043 36.4556C667.793 36.9668 667.442 37.3645 666.991 37.6489C666.543 37.9332 666.021 38.0754 665.423 38.0754ZM665.423 37.1621C665.877 37.1621 666.251 37.0457 666.543 36.8131C666.836 36.5805 667.053 36.2746 667.194 35.8955C667.335 35.5164 667.405 35.1057 667.405 34.6634C667.405 34.2212 667.335 33.809 667.194 33.4271C667.053 33.0451 666.836 32.7363 666.543 32.5008C666.251 32.2653 665.877 32.1476 665.423 32.1476C664.97 32.1476 664.596 32.2653 664.303 32.5008C664.01 32.7363 663.794 33.0451 663.653 33.4271C663.512 33.809 663.442 34.2212 663.442 34.6634C663.442 35.1057 663.512 35.5164 663.653 35.8955C663.794 36.2746 664.01 36.5805 664.303 36.8131C664.596 37.0457 664.97 37.1621 665.423 37.1621ZM670.857 33.9569V37.9375H669.84V31.3205H670.822V32.3544H670.909C671.064 32.0183 671.299 31.7484 671.615 31.5445C671.931 31.3377 672.339 31.2343 672.839 31.2343C673.287 31.2343 673.679 31.3262 674.015 31.51C674.351 31.6909 674.612 31.9667 674.799 32.3371C674.985 32.7047 675.079 33.17 675.079 33.7329V37.9375H674.062V33.8018C674.062 33.282 673.927 32.8771 673.657 32.587C673.387 32.2941 673.017 32.1476 672.546 32.1476C672.221 32.1476 671.931 32.2179 671.675 32.3587C671.423 32.4994 671.223 32.7047 671.077 32.9747C670.93 33.2447 670.857 33.5721 670.857 33.9569ZM681.49 32.8024L680.577 33.0609C680.519 32.9087 680.435 32.7608 680.323 32.6172C680.214 32.4707 680.064 32.3501 679.875 32.2553C679.685 32.1605 679.442 32.1131 679.147 32.1131C678.742 32.1131 678.404 32.2065 678.134 32.3931C677.867 32.5769 677.734 32.811 677.734 33.0953C677.734 33.3481 677.826 33.5477 678.009 33.6941C678.193 33.8406 678.48 33.9627 678.871 34.0603L679.853 34.3016C680.445 34.4452 680.886 34.6649 681.176 34.9607C681.466 35.2536 681.611 35.6313 681.611 36.0937C681.611 36.4728 681.502 36.8117 681.283 37.1104C681.068 37.4091 680.766 37.6446 680.379 37.8169C679.991 37.9892 679.54 38.0754 679.026 38.0754C678.351 38.0754 677.793 37.9289 677.35 37.6359C676.908 37.343 676.628 36.9151 676.51 36.3522L677.475 36.1109C677.567 36.467 677.741 36.7341 677.996 36.9122C678.255 37.0903 678.592 37.1793 679.009 37.1793C679.483 37.1793 679.859 37.0788 680.137 36.8777C680.419 36.6738 680.56 36.4297 680.56 36.1454C680.56 35.9156 680.479 35.7232 680.318 35.5681C680.158 35.4102 679.911 35.2924 679.577 35.2149L678.475 34.9564C677.869 34.8128 677.423 34.5902 677.139 34.2886C676.858 33.9842 676.717 33.6037 676.717 33.147C676.717 32.7737 676.822 32.4434 677.031 32.1562C677.244 31.869 677.533 31.6436 677.897 31.4798C678.265 31.3161 678.681 31.2343 679.147 31.2343C679.801 31.2343 680.316 31.3779 680.689 31.6651C681.065 31.9523 681.332 32.3314 681.49 32.8024ZM687.178 35.2321V31.3205H688.195V37.9375H687.178V36.8174H687.109C686.954 37.1534 686.713 37.4392 686.385 37.6747C686.058 37.9073 685.644 38.0237 685.145 38.0237C684.731 38.0237 684.363 37.9332 684.042 37.7523C683.72 37.5685 683.467 37.2927 683.283 36.9251C683.1 36.5546 683.008 36.0879 683.008 35.525V31.3205H684.024V35.4561C684.024 35.9386 684.159 36.3234 684.429 36.6106C684.702 36.8978 685.05 37.0414 685.472 37.0414C685.725 37.0414 685.982 36.9768 686.243 36.8476C686.507 36.7183 686.728 36.5202 686.906 36.2531C687.087 35.986 687.178 35.6457 687.178 35.2321ZM690.94 29.1148V37.9375H689.923V29.1148H690.94ZM695.546 31.3205V32.182H692.117V31.3205H695.546ZM693.117 29.7351H694.133V36.042C694.133 36.3292 694.175 36.5446 694.258 36.6882C694.344 36.8289 694.454 36.9237 694.586 36.9725C694.721 37.0185 694.863 37.0414 695.012 37.0414C695.124 37.0414 695.216 37.0357 695.288 37.0242C695.36 37.0098 695.417 36.9984 695.46 36.9897L695.667 37.903C695.598 37.9289 695.502 37.9547 695.378 37.9806C695.255 38.0093 695.098 38.0237 694.909 38.0237C694.622 38.0237 694.34 37.9619 694.064 37.8384C693.792 37.7149 693.565 37.5268 693.384 37.2741C693.206 37.0213 693.117 36.7025 693.117 36.3177V29.7351ZM698.889 38.0926C698.47 38.0926 698.09 38.0136 697.748 37.8556C697.406 37.6948 697.135 37.4636 696.934 37.1621C696.733 36.8576 696.632 36.49 696.632 36.0592C696.632 35.6801 696.707 35.3728 696.856 35.1373C697.005 34.8989 697.205 34.7123 697.455 34.5773C697.705 34.4423 697.98 34.3418 698.282 34.2757C698.586 34.2068 698.892 34.1522 699.2 34.112C699.602 34.0603 699.928 34.0216 700.178 33.9957C700.43 33.967 700.614 33.9196 700.729 33.8535C700.847 33.7875 700.906 33.6726 700.906 33.5089V33.4744C700.906 33.0494 700.789 32.7191 700.557 32.4836C700.327 32.2481 699.978 32.1304 699.51 32.1304C699.024 32.1304 698.644 32.2366 698.368 32.4491C698.092 32.6617 697.899 32.8886 697.787 33.1298L696.822 32.7852C696.994 32.3831 697.224 32.07 697.511 31.846C697.801 31.6191 698.117 31.4612 698.459 31.3722C698.803 31.2802 699.142 31.2343 699.475 31.2343C699.688 31.2343 699.932 31.2601 700.208 31.3118C700.486 31.3607 700.755 31.4626 701.013 31.6177C701.275 31.7728 701.491 32.0069 701.664 32.3199C701.836 32.633 701.922 33.0523 701.922 33.5778V37.9375H700.906V37.0414H700.854C700.785 37.185 700.67 37.3387 700.509 37.5024C700.348 37.6661 700.134 37.8054 699.867 37.9203C699.6 38.0351 699.274 38.0926 698.889 38.0926ZM699.045 37.1793C699.447 37.1793 699.785 37.1003 700.061 36.9424C700.34 36.7844 700.549 36.5805 700.69 36.3306C700.834 36.0808 700.906 35.818 700.906 35.5423V34.6117C700.862 34.6634 700.768 34.7108 700.621 34.7539C700.478 34.7941 700.311 34.83 700.122 34.8616C699.935 34.8903 699.752 34.9162 699.574 34.9392C699.399 34.9593 699.257 34.9765 699.148 34.9908C698.884 35.0253 698.637 35.0813 698.407 35.1589C698.18 35.2335 697.996 35.347 697.856 35.4992C697.718 35.6485 697.649 35.8524 697.649 36.1109C697.649 36.4642 697.779 36.7313 698.041 36.9122C698.305 37.0903 698.64 37.1793 699.045 37.1793ZM706.522 31.3205V32.182H703.093V31.3205H706.522ZM704.092 29.7351H705.109V36.042C705.109 36.3292 705.151 36.5446 705.234 36.6882C705.32 36.8289 705.429 36.9237 705.561 36.9725C705.696 37.0185 705.839 37.0414 705.988 37.0414C706.1 37.0414 706.192 37.0357 706.264 37.0242C706.335 37.0098 706.393 36.9984 706.436 36.9897L706.643 37.903C706.574 37.9289 706.478 37.9547 706.354 37.9806C706.231 38.0093 706.074 38.0237 705.885 38.0237C705.597 38.0237 705.316 37.9619 705.04 37.8384C704.767 37.7149 704.541 37.5268 704.36 37.2741C704.182 37.0213 704.092 36.7025 704.092 36.3177V29.7351ZM707.918 37.9375V31.3205H708.935V37.9375H707.918ZM708.435 30.2176C708.237 30.2176 708.066 30.1501 707.922 30.0151C707.782 29.8802 707.711 29.7179 707.711 29.5283C707.711 29.3388 707.782 29.1765 707.922 29.0415C708.066 28.9066 708.237 28.8391 708.435 28.8391C708.633 28.8391 708.803 28.9066 708.943 29.0415C709.087 29.1765 709.159 29.3388 709.159 29.5283C709.159 29.7179 709.087 29.8802 708.943 30.0151C708.803 30.1501 708.633 30.2176 708.435 30.2176ZM713.352 38.0754C712.754 38.0754 712.23 37.9332 711.779 37.6489C711.331 37.3645 710.981 36.9668 710.728 36.4556C710.478 35.9443 710.353 35.347 710.353 34.6634C710.353 33.9742 710.478 33.3725 710.728 32.8584C710.981 32.3443 711.331 31.9451 711.779 31.6608C712.23 31.3765 712.754 31.2343 713.352 31.2343C713.949 31.2343 714.472 31.3765 714.92 31.6608C715.371 31.9451 715.721 32.3443 715.971 32.8584C716.224 33.3725 716.35 33.9742 716.35 34.6634C716.35 35.347 716.224 35.9443 715.971 36.4556C715.721 36.9668 715.371 37.3645 714.92 37.6489C714.472 37.9332 713.949 38.0754 713.352 38.0754ZM713.352 37.1621C713.805 37.1621 714.179 37.0457 714.472 36.8131C714.765 36.5805 714.981 36.2746 715.122 35.8955C715.263 35.5164 715.333 35.1057 715.333 34.6634C715.333 34.2212 715.263 33.809 715.122 33.4271C714.981 33.0451 714.765 32.7363 714.472 32.5008C714.179 32.2653 713.805 32.1476 713.352 32.1476C712.898 32.1476 712.524 32.2653 712.232 32.5008C711.939 32.7363 711.722 33.0451 711.581 33.4271C711.44 33.809 711.37 34.2212 711.37 34.6634C711.37 35.1057 711.44 35.5164 711.581 35.8955C711.722 36.2746 711.939 36.5805 712.232 36.8131C712.524 37.0457 712.898 37.1621 713.352 37.1621ZM718.785 33.9569V37.9375H717.768V31.3205H718.751V32.3544H718.837C718.992 32.0183 719.227 31.7484 719.543 31.5445C719.859 31.3377 720.267 31.2343 720.767 31.2343C721.215 31.2343 721.607 31.3262 721.943 31.51C722.279 31.6909 722.54 31.9667 722.727 32.3371C722.914 32.7047 723.007 33.17 723.007 33.7329V37.9375H721.99V33.8018C721.99 33.282 721.855 32.8771 721.585 32.587C721.315 32.2941 720.945 32.1476 720.474 32.1476C720.149 32.1476 719.859 32.2179 719.604 32.3587C719.351 32.4994 719.151 32.7047 719.005 32.9747C718.858 33.2447 718.785 33.5721 718.785 33.9569ZM734.179 31.8719C734.084 31.5818 733.959 31.3219 733.804 31.0921C733.652 30.8595 733.469 30.6613 733.257 30.4976C733.047 30.3339 732.809 30.209 732.542 30.1228C732.275 30.0367 731.982 29.9936 731.663 29.9936C731.14 29.9936 730.665 30.1286 730.237 30.3985C729.809 30.6685 729.469 31.0663 729.216 31.5919C728.963 32.1174 728.837 32.7622 728.837 33.5261C728.837 34.2901 728.965 34.9348 729.22 35.4604C729.476 35.986 729.822 36.3838 730.259 36.6537C730.695 36.9237 731.186 37.0587 731.732 37.0587C732.237 37.0587 732.682 36.951 733.067 36.7356C733.455 36.5173 733.757 36.21 733.972 35.8137C734.19 35.4145 734.299 34.9449 734.299 34.405L734.627 34.4739H731.973V33.5261H735.333V34.4739C735.333 35.2005 735.178 35.8323 734.868 36.3694C734.561 36.9065 734.136 37.3229 733.593 37.6187C733.053 37.9117 732.433 38.0581 731.732 38.0581C730.951 38.0581 730.264 37.8743 729.673 37.5067C729.084 37.1391 728.624 36.6164 728.294 35.9386C727.967 35.2608 727.803 34.4567 727.803 33.5261C727.803 32.8282 727.896 32.2007 728.083 31.6436C728.273 31.0835 728.54 30.6068 728.884 30.2133C729.229 29.8198 729.637 29.5183 730.108 29.3086C730.579 29.099 731.097 28.9941 731.663 28.9941C732.128 28.9941 732.562 29.0645 732.964 29.2052C733.369 29.3431 733.729 29.5398 734.045 29.7954C734.364 30.0482 734.63 30.3512 734.842 30.7044C735.055 31.0548 735.201 31.444 735.282 31.8719H734.179ZM741.062 35.2321V31.3205H742.079V37.9375H741.062V36.8174H740.993C740.838 37.1534 740.597 37.4392 740.269 37.6747C739.942 37.9073 739.528 38.0237 739.029 38.0237C738.615 38.0237 738.247 37.9332 737.926 37.7523C737.604 37.5685 737.351 37.2927 737.168 36.9251C736.984 36.5546 736.892 36.0879 736.892 35.525V31.3205H737.909V35.4561C737.909 35.9386 738.044 36.3234 738.313 36.6106C738.586 36.8978 738.934 37.0414 739.356 37.0414C739.609 37.0414 739.866 36.9768 740.127 36.8476C740.391 36.7183 740.612 36.5202 740.791 36.2531C740.971 35.986 741.062 35.6457 741.062 35.2321ZM743.807 37.9375V31.3205H744.824V37.9375H743.807ZM744.324 30.2176C744.126 30.2176 743.955 30.1501 743.812 30.0151C743.671 29.8802 743.601 29.7179 743.601 29.5283C743.601 29.3388 743.671 29.1765 743.812 29.0415C743.955 28.9066 744.126 28.8391 744.324 28.8391C744.522 28.8391 744.692 28.9066 744.833 29.0415C744.976 29.1765 745.048 29.3388 745.048 29.5283C745.048 29.7179 744.976 29.8802 744.833 30.0151C744.692 30.1501 744.522 30.2176 744.324 30.2176ZM749.051 38.0754C748.5 38.0754 748.013 37.9361 747.591 37.6575C747.169 37.376 746.838 36.9797 746.6 36.4685C746.362 35.9544 746.243 35.347 746.243 34.6462C746.243 33.9512 746.362 33.3481 746.6 32.8369C746.838 32.3256 747.17 31.9308 747.595 31.6522C748.02 31.3736 748.511 31.2343 749.069 31.2343C749.499 31.2343 749.84 31.3061 750.09 31.4497C750.342 31.5904 750.535 31.7513 750.667 31.9322C750.802 32.1102 750.907 32.2567 750.981 32.3716H751.067V29.1148H752.084V37.9375H751.102V36.9208H750.981C750.907 37.0414 750.8 37.1937 750.662 37.3775C750.525 37.5584 750.328 37.7207 750.072 37.8643C749.817 38.005 749.476 38.0754 749.051 38.0754ZM749.189 37.1621C749.597 37.1621 749.942 37.0558 750.223 36.8433C750.505 36.6279 750.718 36.3306 750.865 35.9515C751.011 35.5696 751.085 35.1287 751.085 34.629C751.085 34.135 751.013 33.7028 750.869 33.3323C750.726 32.9589 750.513 32.6689 750.232 32.4621C749.95 32.2524 749.603 32.1476 749.189 32.1476C748.758 32.1476 748.399 32.2582 748.112 32.4793C747.828 32.6976 747.614 32.9948 747.47 33.371C747.33 33.7444 747.259 34.1637 747.259 34.629C747.259 35.1 747.331 35.5279 747.475 35.9128C747.621 36.2947 747.836 36.5992 748.121 36.826C748.408 37.0501 748.764 37.1621 749.189 37.1621ZM755.901 38.0926C755.482 38.0926 755.101 38.0136 754.759 37.8556C754.418 37.6948 754.146 37.4636 753.945 37.1621C753.744 36.8576 753.644 36.49 753.644 36.0592C753.644 35.6801 753.718 35.3728 753.868 35.1373C754.017 34.8989 754.217 34.7123 754.467 34.5773C754.716 34.4423 754.992 34.3418 755.294 34.2757C755.598 34.2068 755.904 34.1522 756.211 34.112C756.613 34.0603 756.939 34.0216 757.189 33.9957C757.442 33.967 757.626 33.9196 757.741 33.8535C757.858 33.7875 757.917 33.6726 757.917 33.5089V33.4744C757.917 33.0494 757.801 32.7191 757.568 32.4836C757.339 32.2481 756.99 32.1304 756.521 32.1304C756.036 32.1304 755.656 32.2366 755.38 32.4491C755.104 32.6617 754.91 32.8886 754.798 33.1298L753.833 32.7852C754.006 32.3831 754.235 32.07 754.523 31.846C754.813 31.6191 755.129 31.4612 755.47 31.3722C755.815 31.2802 756.154 31.2343 756.487 31.2343C756.699 31.2343 756.944 31.2601 757.219 31.3118C757.498 31.3607 757.766 31.4626 758.025 31.6177C758.286 31.7728 758.503 32.0069 758.675 32.3199C758.848 32.633 758.934 33.0523 758.934 33.5778V37.9375H757.917V37.0414H757.866C757.797 37.185 757.682 37.3387 757.521 37.5024C757.36 37.6661 757.146 37.8054 756.879 37.9203C756.612 38.0351 756.286 38.0926 755.901 38.0926ZM756.056 37.1793C756.458 37.1793 756.797 37.1003 757.073 36.9424C757.351 36.7844 757.561 36.5805 757.702 36.3306C757.845 36.0808 757.917 35.818 757.917 35.5423V34.6117C757.874 34.6634 757.779 34.7108 757.633 34.7539C757.489 34.7941 757.323 34.83 757.133 34.8616C756.946 34.8903 756.764 34.9162 756.586 34.9392C756.411 34.9593 756.269 34.9765 756.16 34.9908C755.895 35.0253 755.648 35.0813 755.419 35.1589C755.192 35.2335 755.008 35.347 754.867 35.4992C754.729 35.6485 754.66 35.8524 754.66 36.1109C754.66 36.4642 754.791 36.7313 755.052 36.9122C755.317 37.0903 755.651 37.1793 756.056 37.1793ZM761.673 33.9569V37.9375H760.656V31.3205H761.638V32.3544H761.724C761.88 32.0183 762.115 31.7484 762.431 31.5445C762.747 31.3377 763.155 31.2343 763.654 31.2343C764.102 31.2343 764.495 31.3262 764.831 31.51C765.167 31.6909 765.428 31.9667 765.615 32.3371C765.801 32.7047 765.895 33.17 765.895 33.7329V37.9375H764.878V33.8018C764.878 33.282 764.743 32.8771 764.473 32.587C764.203 32.2941 763.833 32.1476 763.362 32.1476C763.037 32.1476 762.747 32.2179 762.491 32.3587C762.239 32.4994 762.039 32.7047 761.892 32.9747C761.746 33.2447 761.673 33.5721 761.673 33.9569ZM770.307 38.0754C769.687 38.0754 769.153 37.9289 768.705 37.6359C768.257 37.343 767.912 36.9395 767.671 36.4254C767.429 35.9113 767.309 35.324 767.309 34.6634C767.309 33.9914 767.432 33.3983 767.679 32.8842C767.929 32.3673 768.277 31.9638 768.722 31.6737C769.17 31.3808 769.693 31.2343 770.29 31.2343C770.755 31.2343 771.174 31.3205 771.548 31.4928C771.921 31.6651 772.227 31.9063 772.465 32.2165C772.704 32.5267 772.852 32.8886 772.909 33.3021H771.892C771.815 33.0006 771.643 32.7335 771.376 32.5008C771.111 32.2653 770.755 32.1476 770.307 32.1476C769.911 32.1476 769.563 32.251 769.265 32.4578C768.969 32.6617 768.738 32.9503 768.571 33.3237C768.407 33.6941 768.325 34.1293 768.325 34.629C768.325 35.1402 768.406 35.5853 768.567 35.9644C768.73 36.3436 768.96 36.6379 769.256 36.8476C769.555 37.0572 769.905 37.1621 770.307 37.1621C770.571 37.1621 770.811 37.1161 771.027 37.0242C771.242 36.9323 771.424 36.8002 771.574 36.6279C771.723 36.4556 771.829 36.2488 771.892 36.0075H772.909C772.852 36.3981 772.71 36.7499 772.483 37.063C772.259 37.3732 771.961 37.6201 771.591 37.804C771.223 37.9849 770.795 38.0754 770.307 38.0754ZM777.036 38.0754C776.399 38.0754 775.849 37.9346 775.386 37.6532C774.927 37.3688 774.572 36.9725 774.322 36.4642C774.075 35.953 773.952 35.3585 773.952 34.6807C773.952 34.0029 774.075 33.4055 774.322 32.8886C774.572 32.3687 774.92 31.9638 775.365 31.6737C775.813 31.3808 776.336 31.2343 776.933 31.2343C777.278 31.2343 777.618 31.2917 777.954 31.4066C778.29 31.5215 778.596 31.7082 778.872 31.9667C779.147 32.2223 779.367 32.5612 779.531 32.9833C779.694 33.4055 779.776 33.9253 779.776 34.5428V34.9736H774.676V34.0948H778.742C778.742 33.7214 778.668 33.3883 778.518 33.0953C778.372 32.8024 778.162 32.5712 777.889 32.4018C777.619 32.2323 777.301 32.1476 776.933 32.1476C776.528 32.1476 776.178 32.2481 775.882 32.4491C775.589 32.6473 775.363 32.9058 775.205 33.2246C775.047 33.5434 774.968 33.8851 774.968 34.2499V34.8358C774.968 35.3355 775.055 35.7591 775.227 36.1066C775.402 36.4512 775.645 36.714 775.955 36.895C776.265 37.073 776.626 37.1621 777.036 37.1621C777.303 37.1621 777.545 37.1247 777.76 37.0501C777.978 36.9725 778.166 36.8576 778.324 36.7054C778.482 36.5503 778.604 36.3579 778.691 36.1282L779.673 36.4039C779.569 36.737 779.396 37.03 779.152 37.2827C778.907 37.5326 778.606 37.7278 778.247 37.8686C777.888 38.0064 777.484 38.0754 777.036 38.0754Z" fill="black" fill-opacity="0.8"/>
<path d="M816.713 31.8719H815.644C815.581 31.5646 815.471 31.2946 815.313 31.062C815.158 30.8293 814.968 30.6341 814.744 30.4761C814.523 30.3153 814.277 30.1946 814.007 30.1142C813.737 30.0338 813.456 29.9936 813.163 29.9936C812.629 29.9936 812.145 30.1286 811.711 30.3985C811.28 30.6685 810.937 31.0663 810.682 31.5919C810.429 32.1174 810.303 32.7622 810.303 33.5261C810.303 34.2901 810.429 34.9348 810.682 35.4604C810.937 35.986 811.28 36.3838 811.711 36.6537C812.145 36.9237 812.629 37.0587 813.163 37.0587C813.456 37.0587 813.737 37.0185 814.007 36.9381C814.277 36.8576 814.523 36.7384 814.744 36.5805C814.968 36.4197 815.158 36.2229 815.313 35.9903C815.471 35.7548 815.581 35.4848 815.644 35.1804H816.713C816.632 35.6313 816.486 36.0348 816.273 36.3909C816.061 36.7471 815.797 37.0501 815.481 37.2999C815.165 37.5469 814.81 37.735 814.417 37.8643C814.026 37.9935 813.608 38.0581 813.163 38.0581C812.411 38.0581 811.741 37.8743 811.156 37.5067C810.57 37.1391 810.109 36.6164 809.773 35.9386C809.437 35.2608 809.269 34.4567 809.269 33.5261C809.269 32.5956 809.437 31.7915 809.773 31.1137C810.109 30.4359 810.57 29.9132 811.156 29.5456C811.741 29.178 812.411 28.9941 813.163 28.9941C813.608 28.9941 814.026 29.0588 814.417 29.188C814.81 29.3172 815.165 29.5068 815.481 29.7567C815.797 30.0037 816.061 30.3052 816.273 30.6613C816.486 31.0146 816.632 31.4181 816.713 31.8719ZM820.856 38.0754C820.259 38.0754 819.735 37.9332 819.284 37.6489C818.836 37.3645 818.485 36.9668 818.233 36.4556C817.983 35.9443 817.858 35.347 817.858 34.6634C817.858 33.9742 817.983 33.3725 818.233 32.8584C818.485 32.3443 818.836 31.9451 819.284 31.6608C819.735 31.3765 820.259 31.2343 820.856 31.2343C821.454 31.2343 821.976 31.3765 822.424 31.6608C822.875 31.9451 823.226 32.3443 823.475 32.8584C823.728 33.3725 823.854 33.9742 823.854 34.6634C823.854 35.347 823.728 35.9443 823.475 36.4556C823.226 36.9668 822.875 37.3645 822.424 37.6489C821.976 37.9332 821.454 38.0754 820.856 38.0754ZM820.856 37.1621C821.31 37.1621 821.683 37.0457 821.976 36.8131C822.269 36.5805 822.486 36.2746 822.627 35.8955C822.767 35.5164 822.838 35.1057 822.838 34.6634C822.838 34.2212 822.767 33.809 822.627 33.4271C822.486 33.0451 822.269 32.7363 821.976 32.5008C821.683 32.2653 821.31 32.1476 820.856 32.1476C820.402 32.1476 820.029 32.2653 819.736 32.5008C819.443 32.7363 819.226 33.0451 819.086 33.4271C818.945 33.809 818.874 34.2212 818.874 34.6634C818.874 35.1057 818.945 35.5164 819.086 35.8955C819.226 36.2746 819.443 36.5805 819.736 36.8131C820.029 37.0457 820.402 37.1621 820.856 37.1621ZM826.29 33.9569V37.9375H825.273V31.3205H826.255V32.3544H826.341C826.496 32.0183 826.732 31.7484 827.048 31.5445C827.364 31.3377 827.772 31.2343 828.271 31.2343C828.719 31.2343 829.111 31.3262 829.447 31.51C829.783 31.6909 830.045 31.9667 830.231 32.3371C830.418 32.7047 830.511 33.17 830.511 33.7329V37.9375H829.495V33.8018C829.495 33.282 829.36 32.8771 829.09 32.587C828.82 32.2941 828.449 32.1476 827.978 32.1476C827.654 32.1476 827.364 32.2179 827.108 32.3587C826.855 32.4994 826.656 32.7047 826.509 32.9747C826.363 33.2447 826.29 33.5721 826.29 33.9569ZM835.114 31.3205V32.182H831.684V31.3205H835.114ZM832.684 29.7351H833.701V36.042C833.701 36.3292 833.742 36.5446 833.825 36.6882C833.912 36.8289 834.021 36.9237 834.153 36.9725C834.288 37.0185 834.43 37.0414 834.579 37.0414C834.691 37.0414 834.783 37.0357 834.855 37.0242C834.927 37.0098 834.984 36.9984 835.027 36.9897L835.234 37.903C835.165 37.9289 835.069 37.9547 834.946 37.9806C834.822 38.0093 834.666 38.0237 834.476 38.0237C834.189 38.0237 833.907 37.9619 833.632 37.8384C833.359 37.7149 833.132 37.5268 832.951 37.2741C832.773 37.0213 832.684 36.7025 832.684 36.3177V29.7351ZM838.457 38.0926C838.037 38.0926 837.657 38.0136 837.315 37.8556C836.973 37.6948 836.702 37.4636 836.501 37.1621C836.3 36.8576 836.199 36.49 836.199 36.0592C836.199 35.6801 836.274 35.3728 836.423 35.1373C836.573 34.8989 836.772 34.7123 837.022 34.5773C837.272 34.4423 837.548 34.3418 837.849 34.2757C838.154 34.2068 838.46 34.1522 838.767 34.112C839.169 34.0603 839.495 34.0216 839.745 33.9957C839.997 33.967 840.181 33.9196 840.296 33.8535C840.414 33.7875 840.473 33.6726 840.473 33.5089V33.4744C840.473 33.0494 840.356 32.7191 840.124 32.4836C839.894 32.2481 839.545 32.1304 839.077 32.1304C838.592 32.1304 838.211 32.2366 837.935 32.4491C837.66 32.6617 837.466 32.8886 837.354 33.1298L836.389 32.7852C836.561 32.3831 836.791 32.07 837.078 31.846C837.368 31.6191 837.684 31.4612 838.026 31.3722C838.371 31.2802 838.709 31.2343 839.043 31.2343C839.255 31.2343 839.499 31.2601 839.775 31.3118C840.053 31.3607 840.322 31.4626 840.58 31.6177C840.842 31.7728 841.059 32.0069 841.231 32.3199C841.403 32.633 841.489 33.0523 841.489 33.5778V37.9375H840.473V37.0414H840.421C840.352 37.185 840.237 37.3387 840.076 37.5024C839.916 37.6661 839.702 37.8054 839.435 37.9203C839.167 38.0351 838.842 38.0926 838.457 38.0926ZM838.612 37.1793C839.014 37.1793 839.353 37.1003 839.628 36.9424C839.907 36.7844 840.117 36.5805 840.257 36.3306C840.401 36.0808 840.473 35.818 840.473 35.5423V34.6117C840.43 34.6634 840.335 34.7108 840.188 34.7539C840.045 34.7941 839.878 34.83 839.689 34.8616C839.502 34.8903 839.32 34.9162 839.142 34.9392C838.966 34.9593 838.824 34.9765 838.715 34.9908C838.451 35.0253 838.204 35.0813 837.974 35.1589C837.747 35.2335 837.563 35.347 837.423 35.4992C837.285 35.6485 837.216 35.8524 837.216 36.1109C837.216 36.4642 837.347 36.7313 837.608 36.9122C837.872 37.0903 838.207 37.1793 838.612 37.1793ZM845.9 38.0754C845.28 38.0754 844.745 37.9289 844.297 37.6359C843.849 37.343 843.505 36.9395 843.263 36.4254C843.022 35.9113 842.902 35.324 842.902 34.6634C842.902 33.9914 843.025 33.3983 843.272 32.8842C843.522 32.3673 843.869 31.9638 844.315 31.6737C844.763 31.3808 845.285 31.2343 845.883 31.2343C846.348 31.2343 846.767 31.3205 847.141 31.4928C847.514 31.6651 847.82 31.9063 848.058 32.2165C848.297 32.5267 848.444 32.8886 848.502 33.3021H847.485C847.408 33.0006 847.235 32.7335 846.968 32.5008C846.704 32.2653 846.348 32.1476 845.9 32.1476C845.504 32.1476 845.156 32.251 844.857 32.4578C844.562 32.6617 844.33 32.9503 844.164 33.3237C844 33.6941 843.918 34.1293 843.918 34.629C843.918 35.1402 843.999 35.5853 844.159 35.9644C844.323 36.3436 844.553 36.6379 844.849 36.8476C845.147 37.0572 845.498 37.1621 845.9 37.1621C846.164 37.1621 846.404 37.1161 846.619 37.0242C846.835 36.9323 847.017 36.8002 847.166 36.6279C847.316 36.4556 847.422 36.2488 847.485 36.0075H848.502C848.444 36.3981 848.302 36.7499 848.075 37.063C847.851 37.3732 847.554 37.6201 847.184 37.804C846.816 37.9849 846.388 38.0754 845.9 38.0754ZM852.732 31.3205V32.182H849.303V31.3205H852.732ZM850.303 29.7351H851.319V36.042C851.319 36.3292 851.361 36.5446 851.444 36.6882C851.53 36.8289 851.64 36.9237 851.772 36.9725C851.907 37.0185 852.049 37.0414 852.198 37.0414C852.31 37.0414 852.402 37.0357 852.474 37.0242C852.546 37.0098 852.603 36.9984 852.646 36.9897L852.853 37.903C852.784 37.9289 852.688 37.9547 852.564 37.9806C852.441 38.0093 852.284 38.0237 852.095 38.0237C851.808 38.0237 851.526 37.9619 851.25 37.8384C850.978 37.7149 850.751 37.5268 850.57 37.2741C850.392 37.0213 850.303 36.7025 850.303 36.3177V29.7351ZM863.335 29.1148H864.403V34.9564C864.403 35.5595 864.261 36.098 863.976 36.5719C863.695 37.0429 863.297 37.4148 862.783 37.6876C862.269 37.9576 861.666 38.0926 860.974 38.0926C860.282 38.0926 859.679 37.9576 859.164 37.6876C858.65 37.4148 858.251 37.0429 857.967 36.5719C857.685 36.098 857.545 35.5595 857.545 34.9564V29.1148H858.613V34.8702C858.613 35.301 858.708 35.6844 858.897 36.0205C859.087 36.3536 859.357 36.6164 859.707 36.8088C860.06 36.9984 860.483 37.0931 860.974 37.0931C861.465 37.0931 861.887 36.9984 862.24 36.8088C862.594 36.6164 862.864 36.3536 863.05 36.0205C863.24 35.6844 863.335 35.301 863.335 34.8702V29.1148ZM870.952 32.8024L870.039 33.0609C869.981 32.9087 869.897 32.7608 869.785 32.6172C869.676 32.4707 869.526 32.3501 869.337 32.2553C869.147 32.1605 868.904 32.1131 868.609 32.1131C868.204 32.1131 867.866 32.2065 867.596 32.3931C867.329 32.5769 867.196 32.811 867.196 33.0953C867.196 33.3481 867.288 33.5477 867.471 33.6941C867.655 33.8406 867.942 33.9627 868.333 34.0603L869.315 34.3016C869.907 34.4452 870.348 34.6649 870.638 34.9607C870.928 35.2536 871.073 35.6313 871.073 36.0937C871.073 36.4728 870.964 36.8117 870.745 37.1104C870.53 37.4091 870.228 37.6446 869.841 37.8169C869.453 37.9892 869.002 38.0754 868.488 38.0754C867.813 38.0754 867.255 37.9289 866.812 37.6359C866.37 37.343 866.09 36.9151 865.972 36.3522L866.937 36.1109C867.029 36.467 867.203 36.7341 867.458 36.9122C867.717 37.0903 868.054 37.1793 868.471 37.1793C868.945 37.1793 869.321 37.0788 869.6 36.8777C869.881 36.6738 870.022 36.4297 870.022 36.1454C870.022 35.9156 869.941 35.7232 869.78 35.5681C869.62 35.4102 869.373 35.2924 869.039 35.2149L867.937 34.9564C867.331 34.8128 866.885 34.5902 866.601 34.2886C866.32 33.9842 866.179 33.6037 866.179 33.147C866.179 32.7737 866.284 32.4434 866.493 32.1562C866.706 31.869 866.995 31.6436 867.359 31.4798C867.727 31.3161 868.143 31.2343 868.609 31.2343C869.263 31.2343 869.778 31.3779 870.151 31.6651C870.527 31.9523 870.794 32.3314 870.952 32.8024Z" fill="black"/>
<rect x="1139.33" y="17.8604" width="57.2865" height="31.676" rx="15.838" stroke="#B9B9B9" stroke-width="0.673958"/>
<path d="M1184.15 32.3477L1181.45 35.0435L1178.76 32.3477" stroke="black" stroke-width="1.34792" stroke-linecap="round" stroke-linejoin="round"/>
<circle cx="1155.16" cy="33.6997" r="12.8052" fill="black"/>
<path d="M1160.56 39.7641C1160.56 37.903 1158.14 36.3943 1155.17 36.3943C1152.19 36.3943 1149.77 37.903 1149.77 39.7641M1155.17 34.3724C1153.3 34.3724 1151.8 32.8637 1151.8 31.0026C1151.8 29.1415 1153.3 27.6328 1155.17 27.6328C1157.03 27.6328 1158.53 29.1415 1158.53 31.0026C1158.53 32.8637 1157.03 34.3724 1155.17 34.3724Z" stroke="white" stroke-width="1.34792" stroke-linecap="round" stroke-linejoin="round"/>
<g filter="url(#filter0_d_727_1012)">
<rect x="1033.85" y="18.8711" width="81.9583" height="33.175" rx="5.39167" fill="#7F56D9"/>
<rect x="1034.19" y="19.2081" width="81.2844" height="32.501" rx="5.05469" stroke="#7F56D9" stroke-width="0.673958"/>
<path d="M1048.11 38.957V31.1146H1051.05C1051.65 31.1146 1052.15 31.2269 1052.56 31.4516C1052.97 31.6762 1053.28 31.9851 1053.49 32.3783C1053.71 32.7689 1053.81 33.2131 1053.81 33.7109C1053.81 34.2138 1053.71 34.6605 1053.49 35.0511C1053.28 35.4417 1052.97 35.7493 1052.56 35.974C1052.14 36.1961 1051.63 36.3071 1051.03 36.3071H1049.08V35.1392H1050.84C1051.19 35.1392 1051.48 35.0779 1051.7 34.9554C1051.93 34.8329 1052.09 34.6644 1052.2 34.4499C1052.31 34.2355 1052.36 33.9891 1052.36 33.7109C1052.36 33.4326 1052.31 33.1875 1052.2 32.9757C1052.09 32.7638 1051.92 32.5991 1051.7 32.4817C1051.47 32.3617 1051.18 32.3017 1050.83 32.3017H1049.53V38.957H1048.11ZM1057.47 39.0719C1056.89 39.0719 1056.39 38.9455 1055.97 38.6928C1055.55 38.4401 1055.22 38.0865 1054.99 37.6321C1054.76 37.1777 1054.65 36.6467 1054.65 36.0391C1054.65 35.4315 1054.76 34.8992 1054.99 34.4423C1055.22 33.9853 1055.55 33.6305 1055.97 33.3777C1056.39 33.125 1056.89 32.9986 1057.47 32.9986C1058.04 32.9986 1058.54 33.125 1058.96 33.3777C1059.38 33.6305 1059.71 33.9853 1059.94 34.4423C1060.17 34.8992 1060.28 35.4315 1060.28 36.0391C1060.28 36.6467 1060.17 37.1777 1059.94 37.6321C1059.71 38.0865 1059.38 38.4401 1058.96 38.6928C1058.54 38.9455 1058.04 39.0719 1057.47 39.0719ZM1057.47 37.9614C1057.78 37.9614 1058.04 37.8759 1058.25 37.7048C1058.46 37.5313 1058.62 37.2989 1058.72 37.0079C1058.83 36.7169 1058.88 36.3927 1058.88 36.0353C1058.88 35.6753 1058.83 35.3498 1058.72 35.0588C1058.62 34.7652 1058.46 34.5316 1058.25 34.358C1058.04 34.1844 1057.78 34.0976 1057.47 34.0976C1057.15 34.0976 1056.89 34.1844 1056.68 34.358C1056.47 34.5316 1056.31 34.7652 1056.21 35.0588C1056.1 35.3498 1056.05 35.6753 1056.05 36.0353C1056.05 36.3927 1056.1 36.7169 1056.21 37.0079C1056.31 37.2989 1056.47 37.5313 1056.68 37.7048C1056.89 37.8759 1057.15 37.9614 1057.47 37.9614ZM1066.11 34.6299L1064.85 34.7678C1064.81 34.6401 1064.75 34.5201 1064.66 34.4078C1064.57 34.2955 1064.45 34.2049 1064.31 34.1359C1064.16 34.067 1063.98 34.0325 1063.76 34.0325C1063.47 34.0325 1063.23 34.0951 1063.03 34.2202C1062.84 34.3453 1062.74 34.5074 1062.75 34.7065C1062.74 34.8775 1062.81 35.0167 1062.93 35.1239C1063.06 35.2311 1063.28 35.3192 1063.58 35.3881L1064.58 35.6026C1065.14 35.7225 1065.55 35.9127 1065.82 36.1731C1066.1 36.4335 1066.23 36.7743 1066.24 37.1955C1066.23 37.5657 1066.12 37.8925 1065.91 38.1759C1065.7 38.4567 1065.4 38.6762 1065.03 38.8345C1064.65 38.9928 1064.21 39.0719 1063.72 39.0719C1063 39.0719 1062.42 38.9213 1061.98 38.6201C1061.55 38.3163 1061.28 37.8938 1061.2 37.3526L1062.55 37.2224C1062.61 37.4879 1062.74 37.6883 1062.94 37.8236C1063.14 37.9589 1063.4 38.0265 1063.72 38.0265C1064.05 38.0265 1064.31 37.9589 1064.51 37.8236C1064.71 37.6883 1064.81 37.521 1064.81 37.3219C1064.81 37.1534 1064.75 37.0143 1064.62 36.9045C1064.49 36.7947 1064.29 36.7105 1064.02 36.6518L1063.02 36.4412C1062.45 36.3237 1062.04 36.1259 1061.77 35.8476C1061.5 35.5668 1061.36 35.212 1061.36 34.7831C1061.36 34.4206 1061.46 34.1066 1061.66 33.8411C1061.86 33.573 1062.14 33.3662 1062.5 33.2207C1062.86 33.0727 1063.27 32.9986 1063.74 32.9986C1064.43 32.9986 1064.97 33.1454 1065.37 33.439C1065.77 33.7326 1066.01 34.1295 1066.11 34.6299ZM1070.32 33.0752V34.1474H1066.93V33.0752H1070.32ZM1067.77 31.666H1069.16V37.1879C1069.16 37.3743 1069.18 37.5172 1069.24 37.6168C1069.3 37.7138 1069.37 37.7802 1069.47 37.8159C1069.56 37.8516 1069.67 37.8695 1069.78 37.8695C1069.87 37.8695 1069.95 37.8631 1070.02 37.8504C1070.09 37.8376 1070.15 37.8261 1070.19 37.8159L1070.42 38.8996C1070.35 38.9251 1070.24 38.9532 1070.1 38.9838C1069.97 39.0145 1069.8 39.0323 1069.61 39.0374C1069.26 39.0477 1068.95 38.9953 1068.67 38.8804C1068.39 38.763 1068.17 38.5818 1068.01 38.3367C1067.85 38.0916 1067.77 37.7853 1067.77 37.4176V31.666ZM1075.84 39.0757C1075.47 39.0757 1075.13 39.0094 1074.84 38.8766C1074.54 38.7413 1074.3 38.5422 1074.13 38.2792C1073.96 38.0163 1073.87 37.6921 1073.87 37.3066C1073.87 36.9747 1073.94 36.7003 1074.06 36.4833C1074.18 36.2663 1074.35 36.0927 1074.56 35.9625C1074.77 35.8323 1075.01 35.734 1075.28 35.6677C1075.54 35.5987 1075.82 35.5489 1076.11 35.5183C1076.45 35.4826 1076.73 35.4507 1076.95 35.4226C1077.16 35.3919 1077.32 35.346 1077.41 35.2847C1077.51 35.2209 1077.56 35.1226 1077.56 34.9899V34.9669C1077.56 34.6784 1077.48 34.455 1077.3 34.2968C1077.13 34.1385 1076.89 34.0593 1076.57 34.0593C1076.23 34.0593 1075.96 34.1334 1075.76 34.2814C1075.56 34.4295 1075.43 34.6044 1075.36 34.8061L1074.07 34.6223C1074.17 34.2649 1074.34 33.9662 1074.57 33.7262C1074.81 33.4837 1075.09 33.3024 1075.43 33.1824C1075.77 33.0599 1076.15 32.9986 1076.56 32.9986C1076.84 32.9986 1077.12 33.0318 1077.4 33.0982C1077.69 33.1646 1077.94 33.2743 1078.17 33.4275C1078.41 33.5781 1078.59 33.7836 1078.73 34.044C1078.88 34.3044 1078.95 34.6299 1078.95 35.0205V38.957H1077.62V38.149H1077.57C1077.48 38.3124 1077.37 38.4656 1077.21 38.6086C1077.06 38.749 1076.87 38.8626 1076.64 38.9494C1076.42 39.0336 1076.15 39.0757 1075.84 39.0757ZM1076.2 38.0571C1076.48 38.0571 1076.72 38.0023 1076.93 37.8925C1077.13 37.7802 1077.29 37.6321 1077.4 37.4483C1077.51 37.2645 1077.57 37.0641 1077.57 36.8471V36.154C1077.52 36.1897 1077.45 36.2229 1077.34 36.2535C1077.24 36.2842 1077.13 36.311 1077 36.334C1076.87 36.3569 1076.74 36.3774 1076.62 36.3952C1076.49 36.4131 1076.39 36.4284 1076.29 36.4412C1076.09 36.4693 1075.9 36.5152 1075.74 36.579C1075.58 36.6429 1075.45 36.7322 1075.35 36.8471C1075.26 36.9594 1075.21 37.1049 1075.21 37.2836C1075.21 37.5389 1075.3 37.7317 1075.49 37.8618C1075.68 37.992 1075.91 38.0571 1076.2 38.0571ZM1086.17 31.1146H1087.58V36.6288C1087.58 37.1343 1087.47 37.5695 1087.26 37.9346C1087.05 38.2971 1086.75 38.5767 1086.37 38.7732C1085.99 38.9672 1085.55 39.0643 1085.05 39.0643C1084.59 39.0643 1084.18 38.9826 1083.81 38.8192C1083.44 38.6532 1083.15 38.4082 1082.94 38.0839C1082.73 37.7597 1082.62 37.3564 1082.62 36.8739H1084.03C1084.03 37.0858 1084.08 37.2683 1084.17 37.4215C1084.26 37.5747 1084.39 37.6921 1084.55 37.7738C1084.71 37.8555 1084.89 37.8963 1085.1 37.8963C1085.33 37.8963 1085.52 37.8491 1085.68 37.7546C1085.84 37.6576 1085.96 37.5147 1086.04 37.3257C1086.13 37.1368 1086.17 36.9045 1086.17 36.6288V31.1146ZM1091.63 39.0719C1091.05 39.0719 1090.55 38.9455 1090.13 38.6928C1089.71 38.4401 1089.39 38.0865 1089.15 37.6321C1088.92 37.1777 1088.81 36.6467 1088.81 36.0391C1088.81 35.4315 1088.92 34.8992 1089.15 34.4423C1089.39 33.9853 1089.71 33.6305 1090.13 33.3777C1090.55 33.125 1091.05 32.9986 1091.63 32.9986C1092.2 32.9986 1092.7 33.125 1093.12 33.3777C1093.54 33.6305 1093.87 33.9853 1094.1 34.4423C1094.33 34.8992 1094.44 35.4315 1094.44 36.0391C1094.44 36.6467 1094.33 37.1777 1094.1 37.6321C1093.87 38.0865 1093.54 38.4401 1093.12 38.6928C1092.7 38.9455 1092.2 39.0719 1091.63 39.0719ZM1091.63 37.9614C1091.95 37.9614 1092.21 37.8759 1092.42 37.7048C1092.62 37.5313 1092.78 37.2989 1092.88 37.0079C1092.99 36.7169 1093.04 36.3927 1093.04 36.0353C1093.04 35.6753 1092.99 35.3498 1092.88 35.0588C1092.78 34.7652 1092.62 34.5316 1092.42 34.358C1092.21 34.1844 1091.95 34.0976 1091.63 34.0976C1091.32 34.0976 1091.05 34.1844 1090.84 34.358C1090.63 34.5316 1090.47 34.7652 1090.37 35.0588C1090.26 35.3498 1090.21 35.6753 1090.21 36.0353C1090.21 36.3927 1090.26 36.7169 1090.37 37.0079C1090.47 37.2989 1090.63 37.5313 1090.84 37.7048C1091.05 37.8759 1091.32 37.9614 1091.63 37.9614ZM1095.68 38.957V31.1146H1097.07V34.0479H1097.13C1097.2 33.9049 1097.3 33.753 1097.43 33.5922C1097.56 33.4288 1097.74 33.2897 1097.96 33.1748C1098.18 33.0573 1098.46 32.9986 1098.81 32.9986C1099.26 32.9986 1099.67 33.1148 1100.04 33.3471C1100.4 33.5769 1100.7 33.9177 1100.91 34.3695C1101.13 34.8188 1101.24 35.3702 1101.24 36.0238C1101.24 36.6697 1101.13 37.2185 1100.92 37.6704C1100.71 38.1222 1100.42 38.4669 1100.05 38.7043C1099.69 38.9417 1099.27 39.0604 1098.81 39.0604C1098.47 39.0604 1098.19 39.0043 1097.97 38.8919C1097.75 38.7796 1097.57 38.6443 1097.44 38.486C1097.3 38.3252 1097.2 38.1733 1097.13 38.0303H1097.05V38.957H1095.68ZM1097.04 36.0161C1097.04 36.3965 1097.1 36.7297 1097.2 37.0156C1097.31 37.3015 1097.47 37.5249 1097.67 37.6857C1097.88 37.844 1098.13 37.9231 1098.42 37.9231C1098.73 37.9231 1098.99 37.8414 1099.19 37.678C1099.4 37.5121 1099.56 37.2862 1099.66 37.0003C1099.77 36.7118 1099.82 36.3837 1099.82 36.0161C1099.82 35.6511 1099.77 35.3268 1099.67 35.0435C1099.56 34.7601 1099.4 34.538 1099.2 34.3772C1098.99 34.2163 1098.73 34.1359 1098.42 34.1359C1098.13 34.1359 1097.88 34.2138 1097.67 34.3695C1097.46 34.5252 1097.31 34.7435 1097.2 35.0243C1097.09 35.3051 1097.04 35.6357 1097.04 36.0161Z" fill="white"/>
</g>
<defs>
<filter id="filter0_d_727_1012" x="1032.5" y="18.1971" width="84.6529" height="35.8716" filterUnits="userSpaceOnUse" color-interpolation-filters="sRGB">
<feFlood flood-opacity="0" result="BackgroundImageFix"/>
<feColorMatrix in="SourceAlpha" type="matrix" values="0 0 0 0 0 0 0 0 0 0 0 0 0 0 0 0 0 0 127 0" result="hardAlpha"/>
<feOffset dy="0.673958"/>
<feGaussianBlur stdDeviation="0.673958"/>
<feColorMatrix type="matrix" values="0 0 0 0 0.0392157 0 0 0 0 0.0496732 0 0 0 0 0.0705882 0 0 0 0.05 0"/>
<feBlend mode="normal" in2="BackgroundImageFix" result="effect1_dropShadow_727_1012"/>
<feBlend mode="normal" in="SourceGraphic" in2="effect1_dropShadow_727_1012" result="shape"/>
</filter>
</defs>
</svg>
