<svg width="579" height="108" viewBox="0 0 579 108" fill="none" xmlns="http://www.w3.org/2000/svg">
<rect x="0.336979" y="0.336979" width="578.256" height="106.485" rx="5.05469" fill="white" stroke="#D7CBF3" stroke-width="0.673958"/>
<path d="M18.2245 23.6485H24.3591L30.8383 39.4559H31.114L37.5932 23.6485H43.7277V47.1758H38.9028V31.8624H38.7075L32.6189 47.0609H29.3334L23.2448 31.8049H23.0495V47.1758H18.2245V23.6485ZM55.1287 47.5204C53.3136 47.5204 51.7512 47.1528 50.4416 46.4176C49.1397 45.6747 48.1364 44.6255 47.4318 43.2699C46.7272 41.9067 46.3749 40.2945 46.3749 38.4335C46.3749 36.6184 46.7272 35.0254 47.4318 33.6545C48.1364 32.2836 49.1282 31.2152 50.4072 30.4494C51.6938 29.6835 53.2026 29.3006 54.9334 29.3006C56.0975 29.3006 57.1812 29.4882 58.1845 29.8635C59.1954 30.2311 60.0762 30.7863 60.8267 31.5292C61.5849 32.2721 62.1746 33.2065 62.5958 34.3323C63.0171 35.4504 63.2277 36.7601 63.2277 38.2612V39.6052H48.3278V36.5724H58.621C58.621 35.8678 58.4679 35.2437 58.1615 34.6999C57.8552 34.1561 57.4301 33.7311 56.8863 33.4247C56.3502 33.1107 55.7261 32.9537 55.0138 32.9537C54.2709 32.9537 53.6123 33.126 53.0379 33.4707C52.4712 33.8077 52.027 34.2634 51.7053 34.8377C51.3836 35.4045 51.219 36.0363 51.2113 36.7333V39.6167C51.2113 40.4898 51.3721 41.2442 51.6938 41.8798C52.0231 42.5155 52.4865 43.0057 53.0838 43.3503C53.6812 43.6949 54.3896 43.8673 55.2091 43.8673C55.7529 43.8673 56.2507 43.7907 56.7025 43.6375C57.1544 43.4843 57.5412 43.2546 57.8628 42.9482C58.1845 42.6419 58.4296 42.2666 58.5981 41.8224L63.1243 42.1211C62.8945 43.2086 62.4235 44.1583 61.7113 44.9701C61.0067 45.7743 60.0953 46.4023 58.9772 46.8541C57.8667 47.2983 56.5838 47.5204 55.1287 47.5204ZM65.7743 47.1758V29.5303H70.5188V32.6091H70.7026C71.0243 31.5139 71.5642 30.6868 72.3224 30.1277C73.0806 29.561 73.9537 29.2776 74.9417 29.2776C75.1868 29.2776 75.451 29.2929 75.7344 29.3235C76.0177 29.3542 76.2666 29.3963 76.4811 29.4499V33.7923C76.2513 33.7234 75.9335 33.6622 75.5276 33.6085C75.1217 33.5549 74.7502 33.5281 74.4132 33.5281C73.6933 33.5281 73.05 33.6851 72.4833 33.9991C71.9242 34.3055 71.48 34.7344 71.1507 35.2858C70.829 35.8372 70.6682 36.4729 70.6682 37.1928V47.1758H65.7743ZM85.5155 47.5204C83.7081 47.5204 82.1534 47.1375 80.8514 46.3716C79.5571 45.5981 78.5615 44.5259 77.8646 43.155C77.1753 41.7841 76.8307 40.2064 76.8307 38.422C76.8307 36.6145 77.1791 35.0292 77.8761 33.666C78.5806 32.2951 79.5801 31.2267 80.8744 30.4608C82.1687 29.6873 83.7081 29.3006 85.4925 29.3006C87.0319 29.3006 88.3798 29.5801 89.5363 30.1392C90.6927 30.6983 91.608 31.4833 92.2819 32.4942C92.9559 33.5051 93.3273 34.6922 93.3962 36.0555H88.7781C88.6479 35.1747 88.3033 34.4663 87.7442 33.9302C87.1928 33.3864 86.469 33.1146 85.573 33.1146C84.8148 33.1146 84.1523 33.3213 83.5856 33.7349C83.0265 34.1408 82.5899 34.7344 82.2759 35.5155C81.9619 36.2967 81.8049 37.2426 81.8049 38.3531C81.8049 39.4789 81.9581 40.4362 82.2644 41.225C82.5784 42.0139 83.0188 42.6151 83.5856 43.0286C84.1523 43.4422 84.8148 43.649 85.573 43.649C86.132 43.649 86.6337 43.5341 87.0779 43.3044C87.5297 43.0746 87.9012 42.7414 88.1922 42.3049C88.4909 41.8607 88.6862 41.3284 88.7781 40.7081H93.3962C93.3197 42.056 92.952 43.2431 92.2934 44.2693C91.6424 45.2879 90.7425 46.0844 89.5937 46.6588C88.4449 47.2332 87.0855 47.5204 85.5155 47.5204ZM100.776 36.9745V47.1758H95.8826V23.6485H100.639V32.6436H100.845C101.244 31.602 101.887 30.7863 102.775 30.1966C103.664 29.5993 104.778 29.3006 106.118 29.3006C107.344 29.3006 108.412 29.5686 109.323 30.1047C110.242 30.6332 110.955 31.3952 111.46 32.3908C111.973 33.3788 112.226 34.562 112.218 35.9406V47.1758H107.325V36.8137C107.332 35.7261 107.056 34.8799 106.497 34.2748C105.946 33.6698 105.172 33.3673 104.177 33.3673C103.511 33.3673 102.921 33.509 102.408 33.7923C101.902 34.0757 101.504 34.4893 101.213 35.033C100.93 35.5691 100.784 36.2163 100.776 36.9745ZM120.454 47.5089C119.329 47.5089 118.325 47.3136 117.445 46.923C116.564 46.5248 115.867 45.9389 115.354 45.1654C114.848 44.3842 114.596 43.4116 114.596 42.2475C114.596 41.2672 114.776 40.4439 115.136 39.7776C115.495 39.1113 115.986 38.5752 116.606 38.1692C117.226 37.7633 117.931 37.457 118.72 37.2502C119.516 37.0434 120.351 36.8979 121.224 36.8137C122.25 36.7065 123.078 36.6069 123.706 36.515C124.334 36.4154 124.789 36.2699 125.073 36.0784C125.356 35.887 125.498 35.6036 125.498 35.2283V35.1594C125.498 34.4318 125.268 33.8689 124.808 33.4707C124.357 33.0724 123.713 32.8733 122.878 32.8733C121.998 32.8733 121.297 33.0686 120.776 33.4592C120.255 33.8421 119.911 34.3246 119.742 34.9067L115.216 34.5391C115.446 33.4669 115.898 32.5402 116.572 31.759C117.245 30.9701 118.115 30.3651 119.179 29.9439C120.251 29.515 121.492 29.3006 122.901 29.3006C123.882 29.3006 124.82 29.4154 125.716 29.6452C126.62 29.875 127.42 30.2311 128.117 30.7136C128.821 31.1961 129.377 31.8164 129.783 32.5746C130.189 33.3252 130.391 34.2251 130.391 35.2743V47.1758H125.75V44.7289H125.613C125.329 45.2803 124.95 45.7666 124.475 46.1878C124 46.6014 123.43 46.9269 122.764 47.1643C122.097 47.3941 121.328 47.5089 120.454 47.5089ZM121.856 44.1315C122.576 44.1315 123.212 43.9898 123.763 43.7064C124.314 43.4154 124.747 43.0248 125.061 42.5347C125.375 42.0445 125.532 41.4893 125.532 40.8689V38.9964C125.379 39.0959 125.168 39.1878 124.9 39.2721C124.64 39.3487 124.345 39.4214 124.016 39.4904C123.686 39.5516 123.357 39.6091 123.028 39.6627C122.698 39.7086 122.4 39.7508 122.132 39.789C121.557 39.8733 121.056 40.0073 120.627 40.1911C120.198 40.3749 119.865 40.6238 119.627 40.9378C119.39 41.2442 119.271 41.6271 119.271 42.0866C119.271 42.7529 119.512 43.2622 119.995 43.6145C120.485 43.9592 121.105 44.1315 121.856 44.1315ZM138.435 36.9745V47.1758H133.541V29.5303H138.205V32.6436H138.412C138.803 31.6173 139.458 30.8055 140.377 30.2081C141.296 29.6031 142.41 29.3006 143.72 29.3006C144.945 29.3006 146.013 29.5686 146.925 30.1047C147.836 30.6408 148.544 31.4067 149.05 32.4023C149.555 33.3903 149.808 34.5697 149.808 35.9406V47.1758H144.914V36.8137C144.922 35.7338 144.646 34.8914 144.087 34.2863C143.528 33.6736 142.758 33.3673 141.778 33.3673C141.119 33.3673 140.537 33.509 140.032 33.7923C139.534 34.0757 139.144 34.4893 138.86 35.033C138.584 35.5691 138.443 36.2163 138.435 36.9745ZM159.52 47.463C158.18 47.463 156.966 47.1183 155.879 46.4291C154.799 45.7321 153.941 44.7097 153.305 43.3618C152.677 42.0062 152.363 40.3443 152.363 38.376C152.363 36.3542 152.689 34.6731 153.34 33.3328C153.991 31.9849 154.856 30.9778 155.936 30.3115C157.024 29.6375 158.215 29.3006 159.509 29.3006C160.497 29.3006 161.32 29.4691 161.979 29.806C162.645 30.1354 163.181 30.5489 163.587 31.0467C164.001 31.5369 164.315 32.0194 164.529 32.4942H164.678V23.6485H169.561V47.1758H164.736V44.3498H164.529C164.299 44.8399 163.974 45.3262 163.553 45.8087C163.139 46.2836 162.599 46.678 161.933 46.992C161.274 47.306 160.47 47.463 159.52 47.463ZM161.071 43.5686C161.86 43.5686 162.526 43.3541 163.07 42.9252C163.622 42.4887 164.043 41.8798 164.334 41.0987C164.633 40.3175 164.782 39.4023 164.782 38.3531C164.782 37.3038 164.636 36.3924 164.345 35.6189C164.054 34.8454 163.633 34.248 163.082 33.8268C162.53 33.4056 161.86 33.195 161.071 33.195C160.267 33.195 159.589 33.4132 159.038 33.8498C158.486 34.2863 158.069 34.8914 157.786 35.6649C157.502 36.4384 157.361 37.3345 157.361 38.3531C157.361 39.3793 157.502 40.2869 157.786 41.0757C158.077 41.8569 158.494 42.4696 159.038 42.9138C159.589 43.3503 160.267 43.5686 161.071 43.5686ZM172.937 47.1758V29.5303H177.831V47.1758H172.937ZM175.396 27.2557C174.668 27.2557 174.044 27.0145 173.523 26.532C173.01 26.0418 172.754 25.4559 172.754 24.7743C172.754 24.1004 173.01 23.5221 173.523 23.0396C174.044 22.5495 174.668 22.3044 175.396 22.3044C176.123 22.3044 176.744 22.5495 177.257 23.0396C177.778 23.5221 178.038 24.1004 178.038 24.7743C178.038 25.4559 177.778 26.0418 177.257 26.532C176.744 27.0145 176.123 27.2557 175.396 27.2557ZM195.786 34.562L191.306 34.8377C191.229 34.4548 191.065 34.1102 190.812 33.8038C190.559 33.4898 190.226 33.2409 189.812 33.0571C189.407 32.8657 188.92 32.7699 188.353 32.7699C187.595 32.7699 186.956 32.9308 186.435 33.2524C185.914 33.5664 185.654 33.9876 185.654 34.5161C185.654 34.9373 185.822 35.2934 186.159 35.5845C186.496 35.8755 187.074 36.1091 187.894 36.2852L191.088 36.9286C192.803 37.2808 194.082 37.8476 194.925 38.6288C195.767 39.4099 196.188 40.4362 196.188 41.7075C196.188 42.864 195.847 43.8787 195.166 44.7518C194.492 45.6249 193.565 46.3065 192.386 46.7967C191.214 47.2792 189.862 47.5204 188.331 47.5204C185.995 47.5204 184.134 47.0341 182.747 46.0615C181.369 45.0811 180.561 43.7485 180.323 42.0637L185.137 41.8109C185.282 42.5232 185.635 43.0669 186.194 43.4422C186.753 43.8098 187.469 43.9936 188.342 43.9936C189.2 43.9936 189.889 43.829 190.41 43.4996C190.938 43.1627 191.206 42.73 191.214 42.2015C191.206 41.7573 191.019 41.3935 190.651 41.1102C190.283 40.8191 189.717 40.597 188.951 40.4439L185.895 39.835C184.172 39.4904 182.889 38.893 182.047 38.0429C181.212 37.1928 180.794 36.1091 180.794 34.7918C180.794 33.6583 181.101 32.6818 181.713 31.8624C182.334 31.0429 183.203 30.4111 184.321 29.9669C185.447 29.5227 186.764 29.3006 188.273 29.3006C190.502 29.3006 192.256 29.7716 193.535 30.7136C194.821 31.6556 195.572 32.9384 195.786 34.562ZM206.664 47.5204C204.849 47.5204 203.287 47.1528 201.977 46.4176C200.675 45.6747 199.672 44.6255 198.968 43.2699C198.263 41.9067 197.911 40.2945 197.911 38.4335C197.911 36.6184 198.263 35.0254 198.968 33.6545C199.672 32.2836 200.664 31.2152 201.943 30.4494C203.23 29.6835 204.738 29.3006 206.469 29.3006C207.633 29.3006 208.717 29.4882 209.72 29.8635C210.731 30.2311 211.612 30.7863 212.362 31.5292C213.121 32.2721 213.71 33.2065 214.132 34.3323C214.553 35.4504 214.763 36.7601 214.763 38.2612V39.6052H199.864V36.5724H210.157C210.157 35.8678 210.004 35.2437 209.697 34.6999C209.391 34.1561 208.966 33.7311 208.422 33.4247C207.886 33.1107 207.262 32.9537 206.55 32.9537C205.807 32.9537 205.148 33.126 204.574 33.4707C204.007 33.8077 203.563 34.2634 203.241 34.8377C202.919 35.4045 202.755 36.0363 202.747 36.7333V39.6167C202.747 40.4898 202.908 41.2442 203.23 41.8798C203.559 42.5155 204.022 43.0057 204.62 43.3503C205.217 43.6949 205.925 43.8673 206.745 43.8673C207.289 43.8673 207.786 43.7907 208.238 43.6375C208.69 43.4843 209.077 43.2546 209.399 42.9482C209.72 42.6419 209.965 42.2666 210.134 41.8224L214.66 42.1211C214.43 43.2086 213.959 44.1583 213.247 44.9701C212.542 45.7743 211.631 46.4023 210.513 46.8541C209.402 47.2983 208.12 47.5204 206.664 47.5204ZM217.31 47.1758V29.5303H222.055V32.6091H222.238C222.56 31.5139 223.1 30.6868 223.858 30.1277C224.616 29.561 225.489 29.2776 226.477 29.2776C226.723 29.2776 226.987 29.2929 227.27 29.3235C227.553 29.3542 227.802 29.3963 228.017 29.4499V33.7923C227.787 33.7234 227.469 33.6622 227.063 33.6085C226.657 33.5549 226.286 33.5281 225.949 33.5281C225.229 33.5281 224.586 33.6851 224.019 33.9991C223.46 34.3055 223.016 34.7344 222.686 35.2858C222.365 35.8372 222.204 36.4729 222.204 37.1928V47.1758H217.31Z" fill="black"/>
<path d="M23.0916 75.5137L22.7661 76.6242H16.5626L16.8881 75.5137H23.0916ZM20.1813 83L16.6775 78.7112L16.6584 77.907H18.4007C18.8538 77.907 19.2399 77.8432 19.5591 77.7156C19.8782 77.5847 20.1223 77.3901 20.2914 77.1316C20.4605 76.8699 20.5451 76.5412 20.5451 76.1455C20.5451 75.5616 20.3696 75.1036 20.0186 74.7718C19.6675 74.4367 19.1283 74.2692 18.4007 74.2692H16.5626L16.8881 73.197H18.4007C19.1793 73.197 19.8175 73.3262 20.3153 73.5847C20.8163 73.84 21.1865 74.191 21.4258 74.6377C21.6684 75.0813 21.7896 75.5839 21.7896 76.1455C21.7896 76.6529 21.6779 77.1204 21.4546 77.548C21.2344 77.9724 20.8802 78.3139 20.3919 78.5724C19.9069 78.8308 19.2655 78.9601 18.4677 78.9601H18.439L21.6747 82.9234V83H20.1813ZM23.0916 73.197L22.7661 74.3075L17.8837 74.2692L18.2092 73.197H23.0916ZM27.9201 73.197V83H26.733V74.4415H26.6756L24.2823 76.0307V74.8244L26.733 73.197H27.9201ZM30.7394 83V82.1384L33.9752 78.5963C34.3549 78.1815 34.6677 77.8209 34.9134 77.5145C35.1591 77.205 35.341 76.9146 35.4591 76.6433C35.5803 76.3689 35.641 76.0817 35.641 75.7818C35.641 75.4371 35.558 75.1387 35.392 74.8867C35.2293 74.6346 35.0059 74.4399 34.7219 74.3027C34.4379 74.1655 34.1188 74.0969 33.7646 74.0969C33.388 74.0969 33.0594 74.175 32.7785 74.3314C32.5009 74.4846 32.2855 74.7 32.1323 74.9776C31.9824 75.2552 31.9074 75.5807 31.9074 75.9541H30.7777C30.7777 75.3797 30.9102 74.8755 31.175 74.4415C31.4399 74.0075 31.8005 73.6693 32.2568 73.4267C32.7163 73.1842 33.2317 73.0629 33.8029 73.0629C34.3773 73.0629 34.8863 73.1842 35.3298 73.4267C35.7734 73.6693 36.1212 73.9963 36.3733 74.408C36.6254 74.8196 36.7515 75.2776 36.7515 75.7818C36.7515 76.1423 36.686 76.495 36.5552 76.8396C36.4276 77.181 36.2042 77.5624 35.8851 77.9836C35.5692 78.4016 35.1304 78.9122 34.5687 79.5153L32.3669 81.8704V81.9469H36.9238V83H30.7394ZM40.6047 81.6597L40.5281 82.1767C40.4739 82.5405 40.3909 82.9298 40.2792 83.3446C40.1707 83.7595 40.0574 84.1504 39.9394 84.5174C39.8213 84.8843 39.724 85.1763 39.6474 85.3933H38.7858C38.8273 85.1891 38.8815 84.9194 38.9485 84.5844C39.0155 84.2493 39.0825 83.8744 39.1496 83.4595C39.2198 83.0479 39.2772 82.6266 39.3219 82.1958L39.3793 81.6597H40.6047ZM45.5337 83.134C44.8125 83.134 44.1983 82.9378 43.6909 82.5453C43.1835 82.1496 42.7958 81.5768 42.5277 80.8269C42.2597 80.0738 42.1256 79.1643 42.1256 78.0985C42.1256 77.039 42.2597 76.1344 42.5277 75.3845C42.799 74.6314 43.1883 74.057 43.6957 73.6613C44.2062 73.2624 44.8189 73.0629 45.5337 73.0629C46.2485 73.0629 46.8596 73.2624 47.367 73.6613C47.8776 74.057 48.2669 74.6314 48.535 75.3845C48.8062 76.1344 48.9418 77.039 48.9418 78.0985C48.9418 79.1643 48.8078 80.0738 48.5397 80.8269C48.2717 81.5768 47.884 82.1496 47.3766 82.5453C46.8692 82.9378 46.2549 83.134 45.5337 83.134ZM45.5337 82.081C46.2485 82.081 46.8038 81.7363 47.1995 81.0471C47.5952 80.3578 47.793 79.3749 47.793 78.0985C47.793 77.2497 47.7021 76.5269 47.5202 75.9301C47.3415 75.3334 47.083 74.8787 46.7447 74.5659C46.4097 74.2532 46.006 74.0969 45.5337 74.0969C44.8253 74.0969 44.2717 74.4463 43.8728 75.1451C43.4739 75.8408 43.2744 76.8252 43.2744 78.0985C43.2744 78.9473 43.3638 79.6685 43.5425 80.262C43.7212 80.8556 43.9781 81.3071 44.3131 81.6167C44.6514 81.9262 45.0583 82.081 45.5337 82.081ZM53.9582 83.134C53.237 83.134 52.6227 82.9378 52.1154 82.5453C51.608 82.1496 51.2203 81.5768 50.9522 80.8269C50.6842 80.0738 50.5501 79.1643 50.5501 78.0985C50.5501 77.039 50.6842 76.1344 50.9522 75.3845C51.2234 74.6314 51.6128 74.057 52.1201 73.6613C52.6307 73.2624 53.2434 73.0629 53.9582 73.0629C54.673 73.0629 55.2841 73.2624 55.7915 73.6613C56.3021 74.057 56.6914 74.6314 56.9594 75.3845C57.2307 76.1344 57.3663 77.039 57.3663 78.0985C57.3663 79.1643 57.2323 80.0738 56.9642 80.8269C56.6962 81.5768 56.3084 82.1496 55.8011 82.5453C55.2937 82.9378 54.6794 83.134 53.9582 83.134ZM53.9582 82.081C54.673 82.081 55.2283 81.7363 55.624 81.0471C56.0197 80.3578 56.2175 79.3749 56.2175 78.0985C56.2175 77.2497 56.1266 76.5269 55.9447 75.9301C55.766 75.3334 55.5075 74.8787 55.1692 74.5659C54.8342 74.2532 54.4305 74.0969 53.9582 74.0969C53.2498 74.0969 52.6961 74.4463 52.2972 75.1451C51.8984 75.8408 51.6989 76.8252 51.6989 78.0985C51.6989 78.9473 51.7883 79.6685 51.967 80.262C52.1457 80.8556 52.4026 81.3071 52.7376 81.6167C53.0759 81.9262 53.4827 82.081 53.9582 82.081ZM62.3827 83.134C61.6615 83.134 61.0472 82.9378 60.5398 82.5453C60.0324 82.1496 59.6447 81.5768 59.3767 80.8269C59.1086 80.0738 58.9746 79.1643 58.9746 78.0985C58.9746 77.039 59.1086 76.1344 59.3767 75.3845C59.6479 74.6314 60.0372 74.057 60.5446 73.6613C61.0552 73.2624 61.6679 73.0629 62.3827 73.0629C63.0975 73.0629 63.7086 73.2624 64.216 73.6613C64.7265 74.057 65.1159 74.6314 65.3839 75.3845C65.6552 76.1344 65.7908 77.039 65.7908 78.0985C65.7908 79.1643 65.6567 80.0738 65.3887 80.8269C65.1206 81.5768 64.7329 82.1496 64.2255 82.5453C63.7182 82.9378 63.1039 83.134 62.3827 83.134ZM62.3827 82.081C63.0975 82.081 63.6527 81.7363 64.0484 81.0471C64.4441 80.3578 64.642 79.3749 64.642 78.0985C64.642 77.2497 64.551 76.5269 64.3691 75.9301C64.1904 75.3334 63.932 74.8787 63.5937 74.5659C63.2586 74.2532 62.855 74.0969 62.3827 74.0969C61.6743 74.0969 61.1206 74.4463 60.7217 75.1451C60.3228 75.8408 60.1234 76.8252 60.1234 78.0985C60.1234 78.9473 60.2127 79.6685 60.3914 80.262C60.5701 80.8556 60.827 81.3071 61.1621 81.6167C61.5004 81.9262 61.9072 82.081 62.3827 82.081ZM74.6173 75.6477V76.6051H70.8072V75.6477H74.6173ZM71.9177 73.8862H73.0473V80.8939C73.0473 81.213 73.0936 81.4523 73.1861 81.6119C73.2819 81.7682 73.4031 81.8735 73.5499 81.9278C73.6999 81.9789 73.8578 82.0044 74.0238 82.0044C74.1482 82.0044 74.2504 81.998 74.3301 81.9852C74.4099 81.9693 74.4737 81.9565 74.5216 81.9469L74.7514 82.9617C74.6748 82.9904 74.5679 83.0191 74.4306 83.0479C74.2934 83.0798 74.1195 83.0957 73.9089 83.0957C73.5898 83.0957 73.2771 83.0271 72.9707 82.8899C72.6676 82.7527 72.4155 82.5437 72.2144 82.2629C72.0166 81.982 71.9177 81.6278 71.9177 81.2002V73.8862ZM79.2245 83.1532C78.5607 83.1532 77.9783 82.9952 77.4773 82.6793C76.9795 82.3634 76.5902 81.9214 76.3094 81.3534C76.0318 80.7854 75.893 80.1216 75.893 79.3622C75.893 78.5963 76.0318 77.9278 76.3094 77.3566C76.5902 76.7854 76.9795 76.3418 77.4773 76.0259C77.9783 75.71 78.5607 75.552 79.2245 75.552C79.8882 75.552 80.469 75.71 80.9668 76.0259C81.4678 76.3418 81.8571 76.7854 82.1347 77.3566C82.4156 77.9278 82.556 78.5963 82.556 79.3622C82.556 80.1216 82.4156 80.7854 82.1347 81.3534C81.8571 81.9214 81.4678 82.3634 80.9668 82.6793C80.469 82.9952 79.8882 83.1532 79.2245 83.1532ZM79.2245 82.1384C79.7287 82.1384 80.1435 82.0092 80.469 81.7507C80.7945 81.4922 81.0354 81.1524 81.1918 80.7311C81.3481 80.3099 81.4263 79.8536 81.4263 79.3622C81.4263 78.8707 81.3481 78.4128 81.1918 77.9884C81.0354 77.564 80.7945 77.2209 80.469 76.9593C80.1435 76.6976 79.7287 76.5668 79.2245 76.5668C78.7203 76.5668 78.3054 76.6976 77.9799 76.9593C77.6544 77.2209 77.4135 77.564 77.2572 77.9884C77.1008 78.4128 77.0226 78.8707 77.0226 79.3622C77.0226 79.8536 77.1008 80.3099 77.2572 80.7311C77.4135 81.1524 77.6544 81.4922 77.9799 81.7507C78.3054 82.0092 78.7203 82.1384 79.2245 82.1384ZM93.9494 75.5137L93.6239 76.6242H87.4204L87.7459 75.5137H93.9494ZM91.0391 83L87.5353 78.7112L87.5161 77.907H89.2585C89.7116 77.907 90.0977 77.8432 90.4168 77.7156C90.7359 77.5847 90.98 77.3901 91.1492 77.1316C91.3183 76.8699 91.4029 76.5412 91.4029 76.1455C91.4029 75.5616 91.2274 75.1036 90.8763 74.7718C90.5253 74.4367 89.986 74.2692 89.2585 74.2692H87.4204L87.7459 73.197H89.2585C90.0371 73.197 90.6753 73.3262 91.1731 73.5847C91.6741 73.84 92.0443 74.191 92.2836 74.6377C92.5261 75.0813 92.6474 75.5839 92.6474 76.1455C92.6474 76.6529 92.5357 77.1204 92.3123 77.548C92.0921 77.9724 91.7379 78.3139 91.2497 78.5724C90.7646 78.8308 90.1232 78.9601 89.3255 78.9601H89.2967L92.5325 82.9234V83H91.0391ZM93.9494 73.197L93.6239 74.3075L88.7415 74.2692L89.067 73.197H93.9494ZM98.7779 73.197V83H97.5908V74.4415H97.5333L95.14 76.0307V74.8244L97.5908 73.197H98.7779ZM104.737 83.134C104.08 83.134 103.499 83.0176 102.995 82.7846C102.494 82.5485 102.103 82.2246 101.822 81.8129C101.541 81.3981 101.403 80.9258 101.406 80.3961C101.403 79.9812 101.484 79.5983 101.65 79.2473C101.816 78.8931 102.042 78.5979 102.33 78.3617C102.62 78.1224 102.944 77.9708 103.301 77.907V77.8496C102.832 77.7283 102.459 77.4651 102.181 77.0598C101.904 76.6513 101.766 76.187 101.77 75.6669C101.766 75.1691 101.892 74.7239 102.148 74.3314C102.403 73.9389 102.754 73.6294 103.201 73.4028C103.651 73.1762 104.163 73.0629 104.737 73.0629C105.305 73.0629 105.813 73.1762 106.259 73.4028C106.706 73.6294 107.057 73.9389 107.312 74.3314C107.571 74.7239 107.702 75.1691 107.705 75.6669C107.702 76.187 107.56 76.6513 107.279 77.0598C107.001 77.4651 106.633 77.7283 106.173 77.8496V77.907C106.527 77.9708 106.847 78.1224 107.131 78.3617C107.415 78.5979 107.641 78.8931 107.81 79.2473C107.979 79.5983 108.066 79.9812 108.069 80.3961C108.066 80.9258 107.922 81.3981 107.638 81.8129C107.357 82.2246 106.966 82.5485 106.465 82.7846C105.967 83.0176 105.391 83.134 104.737 83.134ZM104.737 82.081C105.181 82.081 105.564 82.0092 105.886 81.8656C106.208 81.722 106.457 81.5193 106.633 81.2577C106.808 80.996 106.898 80.6897 106.901 80.3386C106.898 79.9685 106.802 79.6414 106.614 79.3574C106.425 79.0734 106.168 78.85 105.843 78.6872C105.521 78.5245 105.152 78.4431 104.737 78.4431C104.319 78.4431 103.946 78.5245 103.617 78.6872C103.292 78.85 103.035 79.0734 102.847 79.3574C102.661 79.6414 102.57 79.9685 102.574 80.3386C102.57 80.6897 102.655 80.996 102.827 81.2577C103.003 81.5193 103.253 81.722 103.579 81.8656C103.904 82.0092 104.29 82.081 104.737 82.081ZM104.737 77.4284C105.088 77.4284 105.399 77.3582 105.671 77.2177C105.945 77.0773 106.16 76.8811 106.317 76.629C106.473 76.3769 106.553 76.0817 106.556 75.7435C106.553 75.4116 106.475 75.1228 106.322 74.8771C106.168 74.6282 105.956 74.4367 105.685 74.3027C105.414 74.1655 105.098 74.0969 104.737 74.0969C104.37 74.0969 104.05 74.1655 103.775 74.3027C103.501 74.4367 103.288 74.6282 103.138 74.8771C102.989 75.1228 102.915 75.4116 102.918 75.7435C102.915 76.0817 102.99 76.3769 103.143 76.629C103.3 76.8811 103.515 77.0773 103.789 77.2177C104.064 77.3582 104.38 77.4284 104.737 77.4284ZM111.304 81.6597L111.228 82.1767C111.174 82.5405 111.091 82.9298 110.979 83.3446C110.871 83.7595 110.757 84.1504 110.639 84.5174C110.521 84.8843 110.424 85.1763 110.347 85.3933H109.486C109.527 85.1891 109.581 84.9194 109.648 84.5844C109.715 84.2493 109.782 83.8744 109.849 83.4595C109.92 83.0479 109.977 82.6266 110.022 82.1958L110.079 81.6597H111.304ZM116.234 83.134C115.512 83.134 114.898 82.9378 114.391 82.5453C113.883 82.1496 113.496 81.5768 113.228 80.8269C112.959 80.0738 112.825 79.1643 112.825 78.0985C112.825 77.039 112.959 76.1344 113.228 75.3845C113.499 74.6314 113.888 74.057 114.395 73.6613C114.906 73.2624 115.519 73.0629 116.234 73.0629C116.948 73.0629 117.559 73.2624 118.067 73.6613C118.577 74.057 118.967 74.6314 119.235 75.3845C119.506 76.1344 119.642 77.039 119.642 78.0985C119.642 79.1643 119.508 80.0738 119.24 80.8269C118.971 81.5768 118.584 82.1496 118.076 82.5453C117.569 82.9378 116.955 83.134 116.234 83.134ZM116.234 82.081C116.948 82.081 117.504 81.7363 117.899 81.0471C118.295 80.3578 118.493 79.3749 118.493 78.0985C118.493 77.2497 118.402 76.5269 118.22 75.9301C118.041 75.3334 117.783 74.8787 117.445 74.5659C117.109 74.2532 116.706 74.0969 116.234 74.0969C115.525 74.0969 114.971 74.4463 114.573 75.1451C114.174 75.8408 113.974 76.8252 113.974 78.0985C113.974 78.9473 114.064 79.6685 114.242 80.262C114.421 80.8556 114.678 81.3071 115.013 81.6167C115.351 81.9262 115.758 82.081 116.234 82.081ZM124.658 83.134C123.937 83.134 123.323 82.9378 122.815 82.5453C122.308 82.1496 121.92 81.5768 121.652 80.8269C121.384 80.0738 121.25 79.1643 121.25 78.0985C121.25 77.039 121.384 76.1344 121.652 75.3845C121.923 74.6314 122.313 74.057 122.82 73.6613C123.331 73.2624 123.943 73.0629 124.658 73.0629C125.373 73.0629 125.984 73.2624 126.491 73.6613C127.002 74.057 127.391 74.6314 127.659 75.3845C127.93 76.1344 128.066 77.039 128.066 78.0985C128.066 79.1643 127.932 80.0738 127.664 80.8269C127.396 81.5768 127.008 82.1496 126.501 82.5453C125.993 82.9378 125.379 83.134 124.658 83.134ZM124.658 82.081C125.373 82.081 125.928 81.7363 126.324 81.0471C126.719 80.3578 126.917 79.3749 126.917 78.0985C126.917 77.2497 126.826 76.5269 126.644 75.9301C126.466 75.3334 126.207 74.8787 125.869 74.5659C125.534 74.2532 125.13 74.0969 124.658 74.0969C123.95 74.0969 123.396 74.4463 122.997 75.1451C122.598 75.8408 122.399 76.8252 122.399 78.0985C122.399 78.9473 122.488 79.6685 122.667 80.262C122.845 80.8556 123.102 81.3071 123.437 81.6167C123.776 81.9262 124.183 82.081 124.658 82.081ZM133.082 83.134C132.361 83.134 131.747 82.9378 131.24 82.5453C130.732 82.1496 130.345 81.5768 130.076 80.8269C129.808 80.0738 129.674 79.1643 129.674 78.0985C129.674 77.039 129.808 76.1344 130.076 75.3845C130.348 74.6314 130.737 74.057 131.244 73.6613C131.755 73.2624 132.368 73.0629 133.082 73.0629C133.797 73.0629 134.408 73.2624 134.916 73.6613C135.426 74.057 135.816 74.6314 136.084 75.3845C136.355 76.1344 136.491 77.039 136.491 78.0985C136.491 79.1643 136.357 80.0738 136.089 80.8269C135.82 81.5768 135.433 82.1496 134.925 82.5453C134.418 82.9378 133.804 83.134 133.082 83.134ZM133.082 82.081C133.797 82.081 134.353 81.7363 134.748 81.0471C135.144 80.3578 135.342 79.3749 135.342 78.0985C135.342 77.2497 135.251 76.5269 135.069 75.9301C134.89 75.3334 134.632 74.8787 134.294 74.5659C133.958 74.2532 133.555 74.0969 133.082 74.0969C132.374 74.0969 131.82 74.4463 131.422 75.1451C131.023 75.8408 130.823 76.8252 130.823 78.0985C130.823 78.9473 130.913 79.6685 131.091 80.262C131.27 80.8556 131.527 81.3071 131.862 81.6167C132.2 81.9262 132.607 82.081 133.082 82.081ZM144.283 83.1723C143.817 83.1723 143.395 83.0846 143.015 82.9091C142.635 82.7304 142.333 82.4735 142.11 82.1384C141.887 81.8001 141.775 81.3917 141.775 80.913C141.775 80.4918 141.858 80.1504 142.024 79.8887C142.19 79.6238 142.412 79.4164 142.689 79.2664C142.967 79.1164 143.273 79.0048 143.608 78.9314C143.947 78.8548 144.286 78.7941 144.628 78.7495C145.075 78.692 145.437 78.6489 145.714 78.6202C145.995 78.5883 146.199 78.5357 146.327 78.4623C146.458 78.3889 146.523 78.2612 146.523 78.0793V78.041C146.523 77.5688 146.394 77.2018 146.136 76.9401C145.88 76.6784 145.493 76.5476 144.972 76.5476C144.433 76.5476 144.01 76.6657 143.704 76.9018C143.398 77.138 143.182 77.3901 143.058 77.6581L141.986 77.2752C142.177 76.8284 142.432 76.4806 142.751 76.2317C143.074 75.9796 143.425 75.8041 143.805 75.7052C144.187 75.6031 144.564 75.552 144.934 75.552C145.17 75.552 145.442 75.5807 145.748 75.6382C146.057 75.6924 146.356 75.8057 146.643 75.978C146.933 76.1503 147.174 76.4104 147.366 76.7582C147.557 77.1061 147.653 77.572 147.653 78.1559V83H146.523V82.0044H146.466C146.389 82.1639 146.262 82.3347 146.083 82.5165C145.904 82.6984 145.667 82.8532 145.37 82.9809C145.073 83.1085 144.711 83.1723 144.283 83.1723ZM144.456 82.1576C144.902 82.1576 145.279 82.0698 145.585 81.8943C145.895 81.7188 146.128 81.4922 146.284 81.2146C146.444 80.937 146.523 80.645 146.523 80.3386V79.3047C146.475 79.3622 146.37 79.4148 146.207 79.4627C146.048 79.5074 145.863 79.5472 145.652 79.5823C145.445 79.6143 145.242 79.643 145.044 79.6685C144.85 79.6908 144.692 79.71 144.57 79.7259C144.277 79.7642 144.002 79.8265 143.747 79.9126C143.495 79.9956 143.291 80.1216 143.134 80.2908C142.981 80.4567 142.905 80.6833 142.905 80.9705C142.905 81.363 143.05 81.6597 143.34 81.8608C143.634 82.0586 144.006 82.1576 144.456 82.1576ZM153.659 73.197H155.076L158.407 81.3343H158.522L161.854 73.197H163.271V83H162.16V75.552H162.064L159.001 83H157.929L154.865 75.552H154.77V83H153.659V73.197ZM168.484 83.1532C167.821 83.1532 167.238 82.9952 166.737 82.6793C166.24 82.3634 165.85 81.9214 165.569 81.3534C165.292 80.7854 165.153 80.1216 165.153 79.3622C165.153 78.5963 165.292 77.9278 165.569 77.3566C165.85 76.7854 166.24 76.3418 166.737 76.0259C167.238 75.71 167.821 75.552 168.484 75.552C169.148 75.552 169.729 75.71 170.227 76.0259C170.728 76.3418 171.117 76.7854 171.395 77.3566C171.676 77.9278 171.816 78.5963 171.816 79.3622C171.816 80.1216 171.676 80.7854 171.395 81.3534C171.117 81.9214 170.728 82.3634 170.227 82.6793C169.729 82.9952 169.148 83.1532 168.484 83.1532ZM168.484 82.1384C168.989 82.1384 169.403 82.0092 169.729 81.7507C170.054 81.4922 170.295 81.1524 170.452 80.7311C170.608 80.3099 170.686 79.8536 170.686 79.3622C170.686 78.8707 170.608 78.4128 170.452 77.9884C170.295 77.564 170.054 77.2209 169.729 76.9593C169.403 76.6976 168.989 76.5668 168.484 76.5668C167.98 76.5668 167.565 76.6976 167.24 76.9593C166.914 77.2209 166.674 77.564 166.517 77.9884C166.361 78.4128 166.283 78.8707 166.283 79.3622C166.283 79.8536 166.361 80.3099 166.517 80.7311C166.674 81.1524 166.914 81.4922 167.24 81.7507C167.565 82.0092 167.98 82.1384 168.484 82.1384ZM174.67 78.5771V83H173.54V75.6477H174.632V76.7965H174.727C174.9 76.4232 175.161 76.1232 175.512 75.8966C175.863 75.6669 176.317 75.552 176.872 75.552C177.37 75.552 177.805 75.6541 178.179 75.8583C178.552 76.0594 178.842 76.3657 179.05 76.7774C179.257 77.1858 179.361 77.7028 179.361 78.3282V83H178.231V78.4048C178.231 77.8272 178.081 77.3773 177.781 77.055C177.481 76.7295 177.07 76.5668 176.546 76.5668C176.186 76.5668 175.863 76.6449 175.579 76.8013C175.299 76.9577 175.077 77.1858 174.914 77.4858C174.751 77.7858 174.67 78.1495 174.67 78.5771ZM184.623 75.6477V76.6051H180.812V75.6477H184.623ZM181.923 73.8862H183.053V80.8939C183.053 81.213 183.099 81.4523 183.191 81.6119C183.287 81.7682 183.408 81.8735 183.555 81.9278C183.705 81.9789 183.863 82.0044 184.029 82.0044C184.154 82.0044 184.256 81.998 184.335 81.9852C184.415 81.9693 184.479 81.9565 184.527 81.9469L184.757 82.9617C184.68 82.9904 184.573 83.0191 184.436 83.0479C184.299 83.0798 184.125 83.0957 183.914 83.0957C183.595 83.0957 183.282 83.0271 182.976 82.8899C182.673 82.7527 182.421 82.5437 182.22 82.2629C182.022 81.982 181.923 81.6278 181.923 81.2002V73.8862ZM187.609 78.5771V83H186.48V73.197H187.609V76.7965H187.705C187.878 76.4168 188.136 76.1152 188.481 75.8918C188.828 75.6653 189.291 75.552 189.869 75.552C190.37 75.552 190.809 75.6525 191.185 75.8536C191.562 76.0514 191.854 76.3561 192.061 76.7678C192.272 77.1763 192.377 77.6964 192.377 78.3282V83H191.247V78.4048C191.247 77.8209 191.096 77.3693 190.793 77.0502C190.493 76.7279 190.076 76.5668 189.543 76.5668C189.173 76.5668 188.841 76.6449 188.548 76.8013C188.257 76.9577 188.027 77.1858 187.858 77.4858C187.692 77.7858 187.609 78.1495 187.609 78.5771Z" fill="black"/>
<path d="M219.632 71.4297C216.38 71.4297 213.734 74.075 213.734 77.3268C213.734 80.7761 216.9 82.8667 218.995 84.2504L219.351 84.487C219.436 84.5436 219.534 84.5719 219.632 84.5719C219.729 84.5719 219.827 84.5436 219.912 84.487L220.268 84.2504C222.363 82.8667 225.529 80.7761 225.529 77.3268C225.529 74.075 222.883 71.4297 219.632 71.4297ZM219.712 83.4066L219.632 83.4599L219.551 83.4066C217.523 82.0668 214.745 80.2323 214.745 77.3268C214.745 74.6323 216.937 72.4406 219.632 72.4406C222.326 72.4406 224.518 74.6323 224.518 77.3268C224.518 80.2323 221.74 82.0674 219.712 83.4066ZM219.632 75.1365C218.424 75.1365 217.441 76.1191 217.441 77.3268C217.441 78.5346 218.424 79.5172 219.632 79.5172C220.839 79.5172 221.822 78.5346 221.822 77.3268C221.822 76.1191 220.839 75.1365 219.632 75.1365ZM219.632 78.5062C218.981 78.5062 218.452 77.9772 218.452 77.3268C218.452 76.6765 218.981 76.1474 219.632 76.1474C220.282 76.1474 220.811 76.6765 220.811 77.3268C220.811 77.9772 220.282 78.5062 219.632 78.5062Z" fill="#656566"/>
<path d="M235.784 74.25V73.197H243.136V74.25H240.053V83H238.866V74.25H235.784ZM244.815 83V75.6477H245.945V83H244.815ZM245.389 74.4223C245.169 74.4223 244.979 74.3474 244.82 74.1974C244.663 74.0474 244.585 73.8671 244.585 73.6565C244.585 73.4459 244.663 73.2656 244.82 73.1156C244.979 72.9656 245.169 72.8906 245.389 72.8906C245.61 72.8906 245.798 72.9656 245.954 73.1156C246.114 73.2656 246.194 73.4459 246.194 73.6565C246.194 73.8671 246.114 74.0474 245.954 74.1974C245.798 74.3474 245.61 74.4223 245.389 74.4223ZM248.014 83V75.6477H249.105V76.7582H249.182C249.316 76.3944 249.558 76.0993 249.909 75.8727C250.26 75.6461 250.656 75.5328 251.096 75.5328C251.179 75.5328 251.283 75.5344 251.407 75.5376C251.532 75.5408 251.626 75.5456 251.69 75.552V76.7008C251.651 76.6912 251.564 76.6769 251.427 76.6577C251.292 76.6354 251.15 76.6242 251.001 76.6242C250.643 76.6242 250.324 76.6992 250.043 76.8492C249.766 76.996 249.545 77.2002 249.383 77.4619C249.223 77.7203 249.143 78.0155 249.143 78.3474V83H248.014ZM257.662 79.994V75.6477H258.792V83H257.662V81.7555H257.586C257.413 82.1288 257.145 82.4463 256.782 82.708C256.418 82.9665 255.958 83.0957 255.403 83.0957C254.944 83.0957 254.535 82.9952 254.178 82.7942C253.82 82.5899 253.539 82.2836 253.335 81.8751C253.131 81.4635 253.029 80.9449 253.029 80.3195V75.6477H254.158V80.2429C254.158 80.779 254.308 81.2066 254.608 81.5257C254.912 81.8448 255.298 82.0044 255.767 82.0044C256.048 82.0044 256.333 81.9326 256.624 81.789C256.917 81.6454 257.163 81.4252 257.361 81.1284C257.562 80.8317 257.662 80.4535 257.662 79.994ZM260.861 85.7571V75.6477H261.952V76.8157H262.086C262.169 76.688 262.284 76.5253 262.431 76.3274C262.581 76.1264 262.795 75.9477 263.072 75.7913C263.353 75.6318 263.733 75.552 264.212 75.552C264.831 75.552 265.376 75.7068 265.849 76.0163C266.321 76.3258 266.69 76.7646 266.954 77.3326C267.219 77.9006 267.352 78.5708 267.352 79.343C267.352 80.1216 267.219 80.7966 266.954 81.3678C266.69 81.9358 266.323 82.3761 265.853 82.6889C265.384 82.9984 264.843 83.1532 264.231 83.1532C263.758 83.1532 263.38 83.075 263.096 82.9186C262.812 82.7591 262.594 82.5788 262.441 82.3777C262.287 82.1735 262.169 82.0044 262.086 81.8704H261.991V85.7571H260.861ZM261.971 79.3239C261.971 79.8791 262.053 80.3689 262.216 80.7934C262.378 81.2146 262.616 81.5449 262.929 81.7842C263.242 82.0203 263.624 82.1384 264.078 82.1384C264.55 82.1384 264.944 82.014 265.26 81.765C265.579 81.513 265.818 81.1747 265.978 80.7503C266.141 80.3227 266.222 79.8472 266.222 79.3239C266.222 78.8069 266.142 78.341 265.983 77.9262C265.826 77.5081 265.589 77.1779 265.269 76.9353C264.954 76.6896 264.556 76.5668 264.078 76.5668C263.618 76.5668 263.232 76.6832 262.919 76.9162C262.607 77.1459 262.37 77.4682 262.211 77.8831C262.051 78.2947 261.971 78.775 261.971 79.3239ZM269.075 85.7571V75.6477H270.166V76.8157H270.3C270.383 76.688 270.498 76.5253 270.645 76.3274C270.795 76.1264 271.009 75.9477 271.286 75.7913C271.567 75.6318 271.947 75.552 272.425 75.552C273.045 75.552 273.59 75.7068 274.063 76.0163C274.535 76.3258 274.903 76.7646 275.168 77.3326C275.433 77.9006 275.566 78.5708 275.566 79.343C275.566 80.1216 275.433 80.7966 275.168 81.3678C274.903 81.9358 274.536 82.3761 274.067 82.6889C273.598 82.9984 273.057 83.1532 272.445 83.1532C271.972 83.1532 271.594 83.075 271.31 82.9186C271.026 82.7591 270.808 82.5788 270.654 82.3777C270.501 82.1735 270.383 82.0044 270.3 81.8704H270.204V85.7571H269.075ZM270.185 79.3239C270.185 79.8791 270.267 80.3689 270.429 80.7934C270.592 81.2146 270.83 81.5449 271.143 81.7842C271.455 82.0203 271.838 82.1384 272.291 82.1384C272.764 82.1384 273.158 82.014 273.474 81.765C273.793 81.513 274.032 81.1747 274.192 80.7503C274.355 80.3227 274.436 79.8472 274.436 79.3239C274.436 78.8069 274.356 78.341 274.197 77.9262C274.04 77.5081 273.802 77.1779 273.483 76.9353C273.167 76.6896 272.77 76.5668 272.291 76.5668C271.832 76.5668 271.446 76.6832 271.133 76.9162C270.82 77.1459 270.584 77.4682 270.425 77.8831C270.265 78.2947 270.185 78.775 270.185 79.3239ZM281.922 79.994V75.6477H283.052V83H281.922V81.7555H281.846C281.673 82.1288 281.405 82.4463 281.041 82.708C280.678 82.9665 280.218 83.0957 279.663 83.0957C279.203 83.0957 278.795 82.9952 278.438 82.7942C278.08 82.5899 277.799 82.2836 277.595 81.8751C277.391 81.4635 277.289 80.9449 277.289 80.3195V75.6477H278.418V80.2429C278.418 80.779 278.568 81.2066 278.868 81.5257C279.171 81.8448 279.558 82.0044 280.027 82.0044C280.307 82.0044 280.593 81.9326 280.883 81.789C281.177 81.6454 281.423 81.4252 281.621 81.1284C281.822 80.8317 281.922 80.4535 281.922 79.994ZM285.121 83V75.6477H286.212V76.7582H286.289C286.423 76.3944 286.665 76.0993 287.016 75.8727C287.367 75.6461 287.763 75.5328 288.203 75.5328C288.286 75.5328 288.39 75.5344 288.515 75.5376C288.639 75.5408 288.733 75.5456 288.797 75.552V76.7008C288.759 76.6912 288.671 76.6769 288.534 76.6577C288.4 76.6354 288.258 76.6242 288.108 76.6242C287.75 76.6242 287.431 76.6992 287.15 76.8492C286.873 76.996 286.653 77.2002 286.49 77.4619C286.33 77.7203 286.25 78.0155 286.25 78.3474V83H285.121Z" fill="#656566"/>
<path d="M462.113 16.3047H454.475C452.166 16.3047 450.895 17.5764 450.895 19.8851V34.2067C450.895 34.4626 451.031 34.6984 451.252 34.8253C451.362 34.8903 451.486 34.9228 451.611 34.9228C451.733 34.9228 451.856 34.8913 451.966 34.8283L458.294 31.2116L464.622 34.8273C464.844 34.9543 465.117 34.9533 465.336 34.8244C465.557 34.6965 465.694 34.4607 465.694 34.2058V19.8842C465.694 17.5765 464.422 16.3047 462.113 16.3047ZM464.261 32.9722L458.649 29.766C458.43 29.64 458.158 29.64 457.939 29.766L452.327 32.9731V19.8851C452.327 18.3794 452.969 17.7368 454.475 17.7368H462.113C463.619 17.7368 464.261 18.3794 464.261 19.8851V32.9722V32.9722ZM461.874 21.7946C461.874 22.1899 461.554 22.5107 461.158 22.5107H455.43C455.034 22.5107 454.714 22.1899 454.714 21.7946C454.714 21.3994 455.034 21.0786 455.43 21.0786H461.158C461.554 21.0786 461.874 21.3994 461.874 21.7946Z" fill="black"/>
<g filter="url(#filter0_d_727_1037)">
<rect x="485.93" y="9.4375" width="84.9583" height="33.175" rx="5.39167" fill="#00A735"/>
<rect x="486.267" y="9.77448" width="84.2844" height="32.501" rx="5.05469" stroke="#00A735" stroke-width="0.673958"/>
<path d="M500.184 29.5234V21.681H505.284V22.8719H501.604V25.001H505.02V26.1919H501.604V28.3325H505.315V29.5234H500.184ZM508.365 29.6421C507.992 29.6421 507.657 29.5758 507.358 29.443C507.062 29.3077 506.827 29.1086 506.653 28.8456C506.482 28.5827 506.397 28.2585 506.397 27.873C506.397 27.5411 506.458 27.2667 506.581 27.0497C506.703 26.8327 506.87 26.6591 507.082 26.5289C507.294 26.3987 507.533 26.3004 507.798 26.2341C508.066 26.1651 508.343 26.1154 508.629 26.0847C508.974 26.049 509.253 26.0171 509.468 25.989C509.682 25.9584 509.838 25.9124 509.935 25.8511C510.035 25.7873 510.084 25.689 510.084 25.5563V25.5333C510.084 25.2448 509.999 25.0214 509.828 24.8632C509.657 24.7049 509.41 24.6258 509.089 24.6258C508.749 24.6258 508.48 24.6998 508.281 24.8479C508.084 24.9959 507.951 25.1708 507.883 25.3725L506.588 25.1887C506.69 24.8313 506.859 24.5326 507.094 24.2926C507.329 24.0501 507.616 23.8688 507.955 23.7488C508.295 23.6263 508.67 23.565 509.081 23.565C509.364 23.565 509.647 23.5982 509.927 23.6646C510.208 23.731 510.465 23.8407 510.697 23.9939C510.929 24.1445 511.116 24.35 511.256 24.6104C511.399 24.8708 511.471 25.1963 511.471 25.5869V29.5234H510.138V28.7155H510.092C510.008 28.8788 509.889 29.032 509.736 29.175C509.585 29.3154 509.395 29.429 509.165 29.5158C508.938 29.6 508.671 29.6421 508.365 29.6421ZM508.725 28.6235C509.003 28.6235 509.244 28.5687 509.449 28.4589C509.653 28.3466 509.81 28.1985 509.92 28.0147C510.032 27.8309 510.088 27.6305 510.088 27.4135V26.7204C510.045 26.7561 509.971 26.7893 509.866 26.8199C509.764 26.8506 509.649 26.8774 509.521 26.9004C509.394 26.9233 509.267 26.9438 509.142 26.9616C509.017 26.9795 508.909 26.9948 508.817 27.0076C508.61 27.0357 508.425 27.0816 508.262 27.1454C508.098 27.2093 507.969 27.2986 507.875 27.4135C507.78 27.5258 507.733 27.6713 507.733 27.85C507.733 28.1053 507.826 28.2981 508.013 28.4283C508.199 28.5585 508.436 28.6235 508.725 28.6235ZM517.513 25.1963L516.25 25.3342C516.214 25.2065 516.151 25.0865 516.062 24.9742C515.975 24.8619 515.858 24.7713 515.71 24.7023C515.562 24.6334 515.38 24.5989 515.166 24.5989C514.877 24.5989 514.635 24.6615 514.438 24.7866C514.244 24.9117 514.149 25.0738 514.151 25.2729C514.149 25.4439 514.211 25.5831 514.339 25.6903C514.469 25.7975 514.683 25.8856 514.982 25.9545L515.985 26.169C516.542 26.2889 516.955 26.4791 517.226 26.7395C517.499 26.9999 517.637 27.3407 517.64 27.762C517.637 28.1321 517.529 28.4589 517.314 28.7423C517.102 29.0231 516.807 29.2426 516.43 29.4009C516.052 29.5592 515.618 29.6383 515.128 29.6383C514.408 29.6383 513.828 29.4877 513.389 29.1865C512.95 28.8827 512.688 28.4602 512.604 27.919L513.956 27.7888C514.017 28.0543 514.147 28.2547 514.346 28.39C514.545 28.5253 514.805 28.5929 515.124 28.5929C515.453 28.5929 515.717 28.5253 515.916 28.39C516.118 28.2547 516.219 28.0874 516.219 27.8883C516.219 27.7198 516.154 27.5807 516.024 27.4709C515.896 27.3612 515.697 27.2769 515.426 27.2182L514.423 27.0076C513.859 26.8901 513.441 26.6923 513.171 26.414C512.9 26.1332 512.766 25.7784 512.769 25.3495C512.766 24.987 512.864 24.673 513.064 24.4075C513.265 24.1394 513.545 23.9326 513.902 23.7871C514.262 23.6391 514.677 23.565 515.147 23.565C515.836 23.565 516.378 23.7118 516.774 24.0054C517.172 24.299 517.419 24.696 517.513 25.1963ZM519.644 31.7291C519.455 31.7291 519.28 31.7138 519.12 31.6832C518.961 31.6551 518.835 31.6219 518.741 31.5836L519.062 30.5037C519.264 30.5625 519.444 30.5905 519.602 30.588C519.76 30.5854 519.9 30.5357 520.019 30.4386C520.142 30.3442 520.245 30.1859 520.33 29.9638L520.448 29.646L518.315 23.6416H519.786L521.141 28.0836H521.203L522.562 23.6416H524.036L521.681 30.2357C521.572 30.5471 521.426 30.8139 521.245 31.036C521.064 31.2607 520.842 31.4317 520.579 31.5491C520.318 31.6691 520.007 31.7291 519.644 31.7291ZM528.739 29.5234H527.222L529.983 21.681H531.737L534.502 29.5234H532.986L530.891 23.2893H530.83L528.739 29.5234ZM528.789 26.4485H532.924V27.5896H528.789V26.4485ZM535.474 31.7291V23.6416H536.837V24.6143H536.917C536.989 24.4713 537.09 24.3194 537.22 24.1586C537.35 23.9952 537.526 23.8561 537.748 23.7412C537.97 23.6237 538.254 23.565 538.598 23.565C539.053 23.565 539.462 23.6812 539.828 23.9135C540.195 24.1433 540.486 24.4841 540.701 24.9359C540.918 25.3852 541.026 25.9367 541.026 26.5902C541.026 27.2361 540.92 27.7849 540.708 28.2368C540.496 28.6886 540.208 29.0333 539.843 29.2707C539.478 29.5081 539.064 29.6268 538.602 29.6268C538.265 29.6268 537.986 29.5707 537.764 29.4583C537.541 29.346 537.363 29.2107 537.227 29.0524C537.095 28.8916 536.991 28.7397 536.917 28.5967H536.86V31.7291H535.474ZM536.833 26.5825C536.833 26.9629 536.887 27.2961 536.994 27.582C537.104 27.8679 537.261 28.0913 537.465 28.2521C537.672 28.4104 537.922 28.4895 538.215 28.4895C538.522 28.4895 538.778 28.4078 538.985 28.2444C539.192 28.0785 539.348 27.8526 539.452 27.5667C539.559 27.2782 539.613 26.9501 539.613 26.5825C539.613 26.2175 539.561 25.8933 539.456 25.6099C539.351 25.3265 539.196 25.1044 538.989 24.9436C538.782 24.7828 538.524 24.7023 538.215 24.7023C537.919 24.7023 537.668 24.7802 537.461 24.9359C537.254 25.0917 537.097 25.3099 536.99 25.5907C536.885 25.8716 536.833 26.2022 536.833 26.5825ZM542.213 31.7291V23.6416H543.576V24.6143H543.657C543.728 24.4713 543.829 24.3194 543.959 24.1586C544.09 23.9952 544.266 23.8561 544.488 23.7412C544.71 23.6237 544.993 23.565 545.338 23.565C545.792 23.565 546.202 23.6812 546.567 23.9135C546.935 24.1433 547.226 24.4841 547.44 24.9359C547.657 25.3852 547.766 25.9367 547.766 26.5902C547.766 27.2361 547.66 27.7849 547.448 28.2368C547.236 28.6886 546.948 29.0333 546.582 29.2707C546.217 29.5081 545.804 29.6268 545.342 29.6268C545.005 29.6268 544.725 29.5707 544.503 29.4583C544.281 29.346 544.102 29.2107 543.967 29.0524C543.834 28.8916 543.731 28.7397 543.657 28.5967H543.599V31.7291H542.213ZM543.573 26.5825C543.573 26.9629 543.626 27.2961 543.733 27.582C543.843 27.8679 544 28.0913 544.204 28.2521C544.411 28.4104 544.661 28.4895 544.955 28.4895C545.261 28.4895 545.518 28.4078 545.725 28.2444C545.931 28.0785 546.087 27.8526 546.192 27.5667C546.299 27.2782 546.353 26.9501 546.353 26.5825C546.353 26.2175 546.3 25.8933 546.196 25.6099C546.091 25.3265 545.935 25.1044 545.729 24.9436C545.522 24.7828 545.264 24.7023 544.955 24.7023C544.659 24.7023 544.407 24.7802 544.201 24.9359C543.994 25.0917 543.837 25.3099 543.73 25.5907C543.625 25.8716 543.573 26.2022 543.573 26.5825ZM550.339 21.681V29.5234H548.953V21.681H550.339ZM552.626 31.7291C552.437 31.7291 552.262 31.7138 552.101 31.6832C551.943 31.6551 551.817 31.6219 551.722 31.5836L552.044 30.5037C552.246 30.5625 552.426 30.5905 552.584 30.588C552.742 30.5854 552.881 30.5357 553.001 30.4386C553.124 30.3442 553.227 30.1859 553.312 29.9638L553.43 29.646L551.297 23.6416H552.768L554.123 28.0836H554.185L555.544 23.6416H557.018L554.663 30.2357C554.553 30.5471 554.408 30.8139 554.227 31.036C554.045 31.2607 553.823 31.4317 553.56 31.5491C553.3 31.6691 552.989 31.7291 552.626 31.7291Z" fill="white"/>
</g>
<defs>
<filter id="filter0_d_727_1037" x="484.582" y="8.76354" width="87.6529" height="35.8716" filterUnits="userSpaceOnUse" color-interpolation-filters="sRGB">
<feFlood flood-opacity="0" result="BackgroundImageFix"/>
<feColorMatrix in="SourceAlpha" type="matrix" values="0 0 0 0 0 0 0 0 0 0 0 0 0 0 0 0 0 0 127 0" result="hardAlpha"/>
<feOffset dy="0.673958"/>
<feGaussianBlur stdDeviation="0.673958"/>
<feColorMatrix type="matrix" values="0 0 0 0 0.0392157 0 0 0 0 0.0496732 0 0 0 0 0.0705882 0 0 0 0.05 0"/>
<feBlend mode="normal" in2="BackgroundImageFix" result="effect1_dropShadow_727_1037"/>
<feBlend mode="normal" in="SourceGraphic" in2="effect1_dropShadow_727_1037" result="shape"/>
</filter>
</defs>
</svg>
