<svg width="40" height="40" viewBox="0 0 40 40" fill="none" xmlns="http://www.w3.org/2000/svg">
<path d="M5 7.5V10H32.5V30H15V32.5H37.5V30H35V7.5H5ZM10.0025 11.25C8.6776 11.2546 7.40825 11.7828 6.47117 12.7194C5.53409 13.656 5.00527 14.9251 5 16.25C5 18.9987 7.255 21.25 10.0025 21.25C11.3267 21.2447 12.5952 20.7162 13.5313 19.7796C14.4675 18.8429 14.9954 17.5742 15 16.25C15 13.5037 12.7475 11.25 10.0025 11.25ZM17.5 12.5V15H23.75V12.5H17.5ZM26.25 12.5V15H30V12.5H26.25ZM10.0025 13.75C11.395 13.75 12.5 14.8538 12.5 16.25C12.5 17.65 11.3962 18.75 10.0025 18.75C8.6025 18.75 7.5 17.65 7.5 16.25C7.5 14.8538 8.60375 13.75 10.0025 13.75ZM17.5 17.5V20H30V17.5H17.5ZM5 22.5V32.5H7.5V25H11.25V32.5H13.75V25.8225L16.33 27.1875C17.0612 27.575 17.94 27.5737 18.67 27.1875V27.19L23.0825 24.8563L21.9163 22.6437L17.5025 24.9775L13.6325 22.935C13.0925 22.6494 12.4909 22.5001 11.88 22.5H5Z" fill="#0B6FF4"/>
</svg>
