<svg width="40" height="40" viewBox="0 0 40 40" fill="none" xmlns="http://www.w3.org/2000/svg">
<path d="M20.0026 38.3327C10.7409 36.2743 3.33594 27.536 3.33594 18.3327V8.33268L20.0026 1.66602L36.6693 8.33268V18.3327C36.6693 27.5394 29.2643 36.2743 20.0026 38.3327ZM6.66927 9.99935V18.3327C6.76452 22.1862 8.11987 25.9024 10.5279 28.9124C12.9359 31.9225 16.264 34.0605 20.0026 34.9994C23.7413 34.0605 27.0693 31.9225 29.4773 28.9124C31.8853 25.9024 33.2407 22.1862 33.3359 18.3327V9.99935L20.0026 4.99935L6.66927 9.99935Z" fill="#0B6FF4"/>
<path d="M20.0026 18.3333C22.3038 18.3333 24.1693 16.4679 24.1693 14.1667C24.1693 11.8655 22.3038 10 20.0026 10C17.7014 10 15.8359 11.8655 15.8359 14.1667C15.8359 16.4679 17.7014 18.3333 20.0026 18.3333Z" fill="#0B6FF4"/>
<path d="M11.6641 25C12.4853 26.4972 13.6897 27.7493 15.154 28.6278C16.6183 29.5064 18.2899 29.98 19.9974 30C21.7049 29.98 23.3765 29.5064 24.8408 28.6278C26.3051 27.7493 27.5095 26.4972 28.3307 25C28.2891 21.84 22.7607 20 19.9974 20C17.2191 20 11.7057 21.84 11.6641 25Z" fill="#0B6FF4"/>
</svg>
