<svg width="1067" height="43" viewBox="0 0 1067 43" fill="none" xmlns="http://www.w3.org/2000/svg">
<line x1="4.37114e-08" y1="21" x2="467" y2="21" stroke="black"/>
<path d="M527.906 27.5393C528.285 27.8069 528.737 27.95 529.201 27.9488C529.665 27.9476 530.117 27.8023 530.494 27.5329C530.877 27.2534 531.167 26.8664 531.326 26.4192L532.287 23.4672C532.534 22.7273 532.949 22.0549 533.5 21.503C534.051 20.9512 534.723 20.535 535.463 20.2874L538.454 19.3199C538.896 19.1598 539.277 18.865 539.542 18.4771C539.808 18.0891 539.945 17.6276 539.935 17.1574C539.924 16.6873 539.767 16.2323 539.484 15.8565C539.201 15.4808 538.808 15.2032 538.359 15.0629L535.403 14.0997C534.662 13.8534 533.99 13.4382 533.437 12.8871C532.885 12.336 532.469 11.6639 532.221 10.9241L531.249 7.93994C531.092 7.50029 530.803 7.12035 530.42 6.85297C530.038 6.58559 529.582 6.44406 529.115 6.44808C528.648 6.4521 528.194 6.60147 527.817 6.8754C527.439 7.14933 527.156 7.53421 527.007 7.97649L526.024 10.9865C525.778 11.7065 525.371 12.3611 524.835 12.9011C524.298 13.4411 523.647 13.8524 522.928 14.104L519.94 15.065C519.5 15.2219 519.121 15.5116 518.853 15.8941C518.586 16.2765 518.445 16.7327 518.448 17.1993C518.452 17.6659 518.601 18.1198 518.875 18.4978C519.148 18.8759 519.532 19.1595 519.974 19.3091L522.928 20.2659C523.672 20.5128 524.348 20.9309 524.901 21.4865C525.454 22.0422 525.869 22.7199 526.113 23.4651L527.084 26.4557C527.239 26.8943 527.527 27.2727 527.906 27.5393ZM541.1 36.2296C541.32 36.3843 541.573 36.4856 541.839 36.5256C542.105 36.5656 542.376 36.5432 542.632 36.4602C542.888 36.3772 543.121 36.2359 543.312 36.0473C543.504 35.8588 543.649 35.6283 543.736 35.3739L544.269 33.7356C544.385 33.3962 544.576 33.0874 544.828 32.8326C545.082 32.5746 545.392 32.3854 545.731 32.2736L547.391 31.7318C547.734 31.6136 548.03 31.3903 548.238 31.0936C548.446 30.797 548.555 30.4422 548.55 30.0799C548.544 29.7176 548.425 29.3663 548.208 29.0761C547.991 28.7859 547.688 28.5716 547.342 28.4638L545.699 27.9263C545.359 27.8126 545.051 27.6218 544.797 27.3689C544.544 27.116 544.352 26.8079 544.237 26.4686L543.695 24.8067C543.579 24.4649 543.358 24.1683 543.064 23.9591C542.769 23.7499 542.417 23.6385 542.056 23.6409C541.695 23.6433 541.343 23.7593 541.052 23.9723C540.76 24.1854 540.543 24.4849 540.432 24.8282L539.901 26.4665C539.791 26.8035 539.605 27.1106 539.357 27.3639C539.109 27.6171 538.805 27.8096 538.471 27.9263L536.809 28.4681C536.467 28.584 536.17 28.8046 535.96 29.0986C535.751 29.3926 535.639 29.7451 535.641 30.1062C535.643 30.4673 535.758 30.8186 535.971 31.1103C536.184 31.4021 536.483 31.6196 536.826 31.7318L538.466 32.2629C538.81 32.379 539.12 32.5703 539.374 32.824C539.63 33.0799 539.819 33.3895 539.928 33.7313L540.472 35.3954C540.59 35.7318 540.81 36.0233 541.1 36.2296Z" fill="#EE8B1A"/>
<line x1="600" y1="21" x2="1067" y2="21" stroke="black"/>
</svg>
