<svg width="24" height="24" viewBox="0 0 24 24" fill="none" xmlns="http://www.w3.org/2000/svg">
<path d="M4 17H3.5C3.10218 17 2.72064 17.158 2.43934 17.4393C2.15804 17.7206 2 18.1022 2 18.5C2 18.8978 2.15804 19.2794 2.43934 19.5607C2.72064 19.842 3.10218 20 3.5 20H20.5C20.8978 20 21.2794 19.842 21.5607 19.5607C21.842 19.2794 22 18.8978 22 18.5C22 18.1022 21.842 17.7206 21.5607 17.4393C21.2794 17.158 20.8978 17 20.5 17H20M4 17H20M4 17V8.2C4 7.08 4 6.52 4.218 6.092C4.41 5.715 4.715 5.41 5.092 5.218C5.52 5 6.08 5 7.2 5H16.8C17.92 5 18.48 5 18.907 5.218C19.284 5.41 19.59 5.715 19.782 6.092C20 6.519 20 7.079 20 8.197V17" stroke="white" stroke-width="2" stroke-linecap="round" stroke-linejoin="round"/>
</svg>
