<svg width="813" height="299" viewBox="0 0 813 299" fill="none" xmlns="http://www.w3.org/2000/svg">
<g filter="url(#filter0_d_660_406)">
<rect x="16" y="8" width="192.426" height="64.9291" rx="32.4646" fill="#F78800" shape-rendering="crispEdges"/>
<path d="M68.1475 47.4648V32.9194H73.6021C74.7195 32.9194 75.657 33.1135 76.4146 33.5018C77.1769 33.89 77.7522 34.4345 78.1404 35.1353C78.5334 35.8313 78.7299 36.6433 78.7299 37.5714C78.7299 38.5041 78.5311 39.3138 78.1333 40.0004C77.7404 40.6822 77.1603 41.2101 76.3933 41.5842C75.6262 41.9535 74.684 42.1381 73.5666 42.1381H69.6816V39.9506H73.2115C73.8649 39.9506 74.3999 39.8607 74.8166 39.6808C75.2333 39.4961 75.541 39.2286 75.7399 38.8782C75.9435 38.5231 76.0453 38.0875 76.0453 37.5714C76.0453 37.0553 75.9435 36.6149 75.7399 36.2504C75.5363 35.881 75.2261 35.6017 74.8095 35.4123C74.3928 35.2182 73.8554 35.1211 73.1973 35.1211H70.7825V47.4648H68.1475ZM75.6618 40.8739L79.2626 47.4648H76.3223L72.7853 40.8739H75.6618ZM85.715 47.6779C84.6213 47.6779 83.6767 47.4506 82.8812 46.9961C82.0905 46.5368 81.4821 45.8881 81.0559 45.0501C80.6298 44.2073 80.4167 43.2153 80.4167 42.0742C80.4167 40.9521 80.6298 39.9672 81.0559 39.1197C81.4868 38.2674 82.0881 37.6045 82.8599 37.131C83.6317 36.6528 84.5384 36.4137 85.5801 36.4137C86.2524 36.4137 86.8869 36.5226 87.4835 36.7404C88.0848 36.9535 88.6151 37.2849 89.0744 37.7347C89.5384 38.1845 89.903 38.7575 90.1681 39.4535C90.4333 40.1448 90.5659 40.9686 90.5659 41.9251V42.7134H81.6241V40.9805H88.1014C88.0967 40.488 87.9901 40.0501 87.7818 39.6665C87.5734 39.2783 87.2823 38.9729 86.9082 38.7504C86.5389 38.5278 86.108 38.4165 85.6156 38.4165C85.09 38.4165 84.6284 38.5444 84.2306 38.8001C83.8329 39.051 83.5228 39.3825 83.3002 39.7944C83.0824 40.2016 82.9712 40.649 82.9664 41.1367V42.6495C82.9664 43.284 83.0824 43.8285 83.3145 44.283C83.5465 44.7328 83.8708 45.0785 84.2875 45.32C84.7041 45.5567 85.1918 45.6751 85.7505 45.6751C86.1246 45.6751 86.4631 45.623 86.7662 45.5188C87.0692 45.4099 87.332 45.2513 87.5545 45.043C87.777 44.8346 87.9451 44.5766 88.0588 44.2688L90.4593 44.5387C90.3078 45.1732 90.019 45.7272 89.5929 46.2006C89.1715 46.6694 88.6317 47.034 87.9735 47.2944C87.3154 47.5501 86.5626 47.6779 85.715 47.6779ZM101.363 39.4393L99.0194 39.695C98.9531 39.4582 98.8371 39.2357 98.6713 39.0273C98.5104 38.819 98.2926 38.6509 98.0179 38.5231C97.7433 38.3952 97.4071 38.3313 97.0094 38.3313C96.4744 38.3313 96.0246 38.4473 95.66 38.6793C95.3001 38.9113 95.1226 39.212 95.1273 39.5813C95.1226 39.8986 95.2386 40.1566 95.4753 40.3555C95.7168 40.5543 96.1145 40.7177 96.6685 40.8455L98.5293 41.2433C99.5615 41.4658 100.329 41.8185 100.83 42.3015C101.337 42.7844 101.593 43.4165 101.597 44.1978C101.593 44.8844 101.392 45.4904 100.994 46.016C100.601 46.5368 100.054 46.944 99.3532 47.2376C98.6524 47.5311 97.8475 47.6779 96.9384 47.6779C95.6032 47.6779 94.5283 47.3986 93.714 46.8398C92.8996 46.2764 92.4142 45.4928 92.258 44.489L94.7651 44.2475C94.8787 44.7399 95.1202 45.1116 95.4895 45.3626C95.8588 45.6135 96.3394 45.739 96.9313 45.739C97.5421 45.739 98.0321 45.6135 98.4015 45.3626C98.7755 45.1116 98.9625 44.8015 98.9625 44.4322C98.9625 44.1197 98.8418 43.8616 98.6003 43.658C98.3636 43.4544 97.9943 43.2982 97.4924 43.1893L95.6316 42.7987C94.5852 42.5808 93.811 42.2139 93.3091 41.6978C92.8072 41.177 92.5587 40.5188 92.5634 39.7234C92.5587 39.051 92.7409 38.4686 93.1103 37.9762C93.4843 37.479 94.0028 37.0955 94.6657 36.8256C95.3333 36.551 96.1027 36.4137 96.9739 36.4137C98.2523 36.4137 99.2585 36.686 99.9924 37.2305C100.731 37.775 101.188 38.5112 101.363 39.4393ZM108.547 47.6779C107.453 47.6779 106.509 47.4506 105.713 46.9961C104.923 46.5368 104.314 45.8881 103.888 45.0501C103.462 44.2073 103.249 43.2153 103.249 42.0742C103.249 40.9521 103.462 39.9672 103.888 39.1197C104.319 38.2674 104.92 37.6045 105.692 37.131C106.464 36.6528 107.37 36.4137 108.412 36.4137C109.084 36.4137 109.719 36.5226 110.316 36.7404C110.917 36.9535 111.447 37.2849 111.906 37.7347C112.37 38.1845 112.735 38.7575 113 39.4535C113.265 40.1448 113.398 40.9686 113.398 41.9251V42.7134H104.456V40.9805H110.933C110.929 40.488 110.822 40.0501 110.614 39.6665C110.405 39.2783 110.114 38.9729 109.74 38.7504C109.371 38.5278 108.94 38.4165 108.448 38.4165C107.922 38.4165 107.46 38.5444 107.063 38.8001C106.665 39.051 106.355 39.3825 106.132 39.7944C105.914 40.2016 105.803 40.649 105.798 41.1367V42.6495C105.798 43.284 105.914 43.8285 106.146 44.283C106.378 44.7328 106.703 45.0785 107.119 45.32C107.536 45.5567 108.024 45.6751 108.583 45.6751C108.957 45.6751 109.295 45.623 109.598 45.5188C109.901 45.4099 110.164 45.2513 110.387 45.043C110.609 44.8346 110.777 44.5766 110.891 44.2688L113.291 44.5387C113.14 45.1732 112.851 45.7272 112.425 46.2006C112.003 46.6694 111.464 47.034 110.806 47.2944C110.147 47.5501 109.395 47.6779 108.547 47.6779ZM118.712 47.685C118.021 47.685 117.398 47.5619 116.844 47.3157C116.295 47.0647 115.859 46.6954 115.537 46.2077C115.22 45.7201 115.062 45.1187 115.062 44.4038C115.062 43.7882 115.175 43.2792 115.403 42.8768C115.63 42.4743 115.94 42.1523 116.333 41.9109C116.726 41.6694 117.169 41.4871 117.661 41.364C118.158 41.2362 118.672 41.1438 119.202 41.087C119.841 41.0207 120.36 40.9615 120.758 40.9094C121.155 40.8526 121.444 40.7674 121.624 40.6538C121.809 40.5354 121.901 40.3531 121.901 40.1069V40.0643C121.901 39.5292 121.742 39.1149 121.425 38.8214C121.108 38.5278 120.651 38.381 120.055 38.381C119.425 38.381 118.925 38.5183 118.556 38.793C118.191 39.0676 117.945 39.3919 117.817 39.766L115.417 39.4251C115.606 38.7622 115.919 38.2082 116.354 37.7631C116.79 37.3133 117.323 36.9772 117.952 36.7546C118.582 36.5273 119.278 36.4137 120.04 36.4137C120.566 36.4137 121.089 36.4753 121.61 36.5984C122.131 36.7215 122.607 36.9251 123.037 37.2092C123.468 37.4885 123.814 37.8697 124.074 38.3526C124.34 38.8356 124.472 39.4393 124.472 40.1637V47.4648H122.001V45.9663H121.915C121.759 46.2693 121.539 46.5534 121.255 46.8185C120.975 47.079 120.623 47.2897 120.197 47.4506C119.775 47.6069 119.28 47.685 118.712 47.685ZM119.38 45.7958C119.896 45.7958 120.343 45.694 120.722 45.4904C121.101 45.2821 121.392 45.0075 121.596 44.6665C121.804 44.3256 121.908 43.954 121.908 43.5515V42.266C121.828 42.3323 121.69 42.3938 121.496 42.4506C121.307 42.5075 121.094 42.5572 120.857 42.5998C120.62 42.6424 120.386 42.6803 120.154 42.7134C119.922 42.7466 119.721 42.775 119.55 42.7987C119.167 42.8507 118.823 42.936 118.52 43.0543C118.217 43.1727 117.978 43.3384 117.803 43.5515C117.628 43.7598 117.54 44.0297 117.54 44.3612C117.54 44.8346 117.713 45.1921 118.059 45.4336C118.404 45.6751 118.845 45.7958 119.38 45.7958ZM127.057 47.4648V36.5558H129.55V38.3739H129.664C129.863 37.7442 130.204 37.2589 130.687 36.918C131.174 36.5723 131.731 36.3995 132.356 36.3995C132.498 36.3995 132.656 36.4066 132.831 36.4208C133.011 36.4303 133.161 36.4469 133.279 36.4705V38.8356C133.17 38.7977 132.997 38.7646 132.76 38.7362C132.528 38.703 132.304 38.6864 132.086 38.6864C131.617 38.6864 131.196 38.7882 130.822 38.9918C130.452 39.1907 130.161 39.4677 129.948 39.8228C129.735 40.1779 129.628 40.5875 129.628 41.0515V47.4648H127.057ZM139.296 47.6779C138.207 47.6779 137.272 47.4388 136.491 46.9606C135.714 46.4824 135.115 45.8219 134.694 44.979C134.277 44.1315 134.069 43.1561 134.069 42.0529C134.069 40.945 134.282 39.9672 134.708 39.1197C135.134 38.2674 135.736 37.6045 136.512 37.131C137.294 36.6528 138.217 36.4137 139.282 36.4137C140.168 36.4137 140.951 36.5771 141.633 36.9038C142.32 37.2257 142.866 37.6826 143.274 38.2745C143.681 38.8616 143.913 39.5482 143.97 40.3342H141.512C141.413 39.8086 141.176 39.3706 140.802 39.0202C140.433 38.6651 139.938 38.4876 139.318 38.4876C138.792 38.4876 138.33 38.6296 137.933 38.9137C137.535 39.1931 137.225 39.5955 137.002 40.1211C136.785 40.6467 136.676 41.2764 136.676 42.0103C136.676 42.7537 136.785 43.3929 137.002 43.9279C137.22 44.4582 137.526 44.8678 137.919 45.1566C138.316 45.4407 138.783 45.5827 139.318 45.5827C139.696 45.5827 140.035 45.5117 140.333 45.3697C140.636 45.2229 140.89 45.0122 141.093 44.7376C141.297 44.4629 141.436 44.1291 141.512 43.7362H143.97C143.908 44.5079 143.681 45.1921 143.288 45.7887C142.895 46.3806 142.36 46.8446 141.683 47.1808C141.006 47.5122 140.21 47.6779 139.296 47.6779ZM148.652 41.0728V47.4648H146.081V32.9194H148.595V38.4094H148.723C148.979 37.7939 149.374 37.3086 149.909 36.9535C150.449 36.5936 151.135 36.4137 151.969 36.4137C152.726 36.4137 153.387 36.5723 153.95 36.8896C154.514 37.2068 154.949 37.6708 155.257 38.2816C155.569 38.8924 155.726 39.6381 155.726 40.5188V47.4648H153.155V40.9165C153.155 40.1826 152.965 39.6121 152.586 39.2049C152.212 38.793 151.687 38.587 151.01 38.587C150.555 38.587 150.148 38.6864 149.788 38.8853C149.433 39.0794 149.154 39.3612 148.95 39.7305C148.751 40.0998 148.652 40.5472 148.652 41.0728Z" fill="white"/>
</g>
<g filter="url(#filter1_d_660_406)">
<rect x="309.953" y="8" width="192.426" height="64.9291" rx="32.4646" fill="#F78800" shape-rendering="crispEdges"/>
<path d="M379.736 32.9194V47.4648H377.101V32.9194H379.736ZM386.524 47.6566C385.667 47.6566 384.9 47.4364 384.222 46.9961C383.545 46.5558 383.01 45.9165 382.617 45.0785C382.224 44.2404 382.028 43.2224 382.028 42.0245C382.028 40.8124 382.227 39.7897 382.624 38.9563C383.027 38.1183 383.569 37.4862 384.251 37.06C384.933 36.6291 385.693 36.4137 386.531 36.4137C387.17 36.4137 387.695 36.5226 388.107 36.7404C388.519 36.9535 388.846 37.2115 389.088 37.5146C389.329 37.8129 389.516 38.0946 389.649 38.3597H389.755V32.9194H392.333V47.4648H389.805V45.7461H389.649C389.516 46.0112 389.324 46.293 389.073 46.5913C388.822 46.8848 388.491 47.1358 388.079 47.3441C387.667 47.5524 387.149 47.6566 386.524 47.6566ZM387.241 45.5472C387.785 45.5472 388.249 45.4004 388.633 45.1069C389.017 44.8086 389.308 44.3943 389.507 43.864C389.705 43.3337 389.805 42.7158 389.805 42.0103C389.805 41.3048 389.705 40.6916 389.507 40.1708C389.312 39.65 389.024 39.2451 388.64 38.9563C388.261 38.6675 387.795 38.5231 387.241 38.5231C386.668 38.5231 386.19 38.6722 385.806 38.9705C385.423 39.2688 385.134 39.6808 384.94 40.2063C384.746 40.7319 384.649 41.3332 384.649 42.0103C384.649 42.6921 384.746 43.3005 384.94 43.8356C385.139 44.3659 385.43 44.7849 385.813 45.0927C386.202 45.3957 386.677 45.5472 387.241 45.5472ZM399.903 47.6779C398.809 47.6779 397.864 47.4506 397.069 46.9961C396.278 46.5368 395.67 45.8881 395.243 45.0501C394.817 44.2073 394.604 43.2153 394.604 42.0742C394.604 40.9521 394.817 39.9672 395.243 39.1197C395.674 38.2674 396.276 37.6045 397.047 37.131C397.819 36.6528 398.726 36.4137 399.768 36.4137C400.44 36.4137 401.074 36.5226 401.671 36.7404C402.272 36.9535 402.803 37.2849 403.262 37.7347C403.726 38.1845 404.09 38.7575 404.356 39.4535C404.621 40.1448 404.753 40.9686 404.753 41.9251V42.7134H395.812V40.9805H402.289C402.284 40.488 402.178 40.0501 401.969 39.6665C401.761 39.2783 401.47 38.9729 401.096 38.7504C400.726 38.5278 400.296 38.4165 399.803 38.4165C399.278 38.4165 398.816 38.5444 398.418 38.8001C398.02 39.051 397.71 39.3825 397.488 39.7944C397.27 40.2016 397.159 40.649 397.154 41.1367V42.6495C397.154 43.284 397.27 43.8285 397.502 44.283C397.734 44.7328 398.058 45.0785 398.475 45.32C398.892 45.5567 399.379 45.6751 399.938 45.6751C400.312 45.6751 400.651 45.623 400.954 45.5188C401.257 45.4099 401.519 45.2513 401.742 45.043C401.965 44.8346 402.133 44.5766 402.246 44.2688L404.647 44.5387C404.495 45.1732 404.206 45.7272 403.78 46.2006C403.359 46.6694 402.819 47.034 402.161 47.2944C401.503 47.5501 400.75 47.6779 399.903 47.6779ZM410.068 47.685C409.376 47.685 408.754 47.5619 408.2 47.3157C407.651 47.0647 407.215 46.6954 406.893 46.2077C406.576 45.7201 406.417 45.1187 406.417 44.4038C406.417 43.7882 406.531 43.2792 406.758 42.8768C406.985 42.4743 407.295 42.1523 407.688 41.9109C408.081 41.6694 408.524 41.4871 409.017 41.364C409.514 41.2362 410.027 41.1438 410.558 41.087C411.197 41.0207 411.715 40.9615 412.113 40.9094C412.511 40.8526 412.8 40.7674 412.98 40.6538C413.164 40.5354 413.257 40.3531 413.257 40.1069V40.0643C413.257 39.5292 413.098 39.1149 412.781 38.8214C412.463 38.5278 412.007 38.381 411.41 38.381C410.78 38.381 410.281 38.5183 409.911 38.793C409.547 39.0676 409.301 39.3919 409.173 39.766L406.772 39.4251C406.962 38.7622 407.274 38.2082 407.71 37.7631C408.145 37.3133 408.678 36.9772 409.308 36.7546C409.937 36.5273 410.633 36.4137 411.396 36.4137C411.921 36.4137 412.445 36.4753 412.965 36.5984C413.486 36.7215 413.962 36.9251 414.393 37.2092C414.824 37.4885 415.169 37.8697 415.43 38.3526C415.695 38.8356 415.828 39.4393 415.828 40.1637V47.4648H413.356V45.9663H413.271C413.115 46.2693 412.894 46.5534 412.61 46.8185C412.331 47.079 411.978 47.2897 411.552 47.4506C411.131 47.6069 410.636 47.685 410.068 47.685ZM410.735 45.7958C411.251 45.7958 411.699 45.694 412.078 45.4904C412.456 45.2821 412.748 45.0075 412.951 44.6665C413.16 44.3256 413.264 43.954 413.264 43.5515V42.266C413.183 42.3323 413.046 42.3938 412.852 42.4506C412.662 42.5075 412.449 42.5572 412.213 42.5998C411.976 42.6424 411.741 42.6803 411.509 42.7134C411.277 42.7466 411.076 42.775 410.906 42.7987C410.522 42.8507 410.179 42.936 409.876 43.0543C409.573 43.1727 409.334 43.3384 409.159 43.5515C408.983 43.7598 408.896 44.0297 408.896 44.3612C408.896 44.8346 409.069 45.1921 409.414 45.4336C409.76 45.6751 410.2 45.7958 410.735 45.7958ZM423.86 36.5558V38.5444H417.589V36.5558H423.86ZM419.137 33.9421H421.708V44.1836C421.708 44.5292 421.76 44.7944 421.865 44.979C421.973 45.159 422.115 45.2821 422.291 45.3484C422.466 45.4147 422.66 45.4478 422.873 45.4478C423.034 45.4478 423.181 45.436 423.313 45.4123C423.451 45.3886 423.555 45.3673 423.626 45.3484L424.059 47.3583C423.922 47.4057 423.725 47.4577 423.47 47.5146C423.219 47.5714 422.911 47.6045 422.546 47.614C421.902 47.6329 421.322 47.5359 420.806 47.3228C420.29 47.105 419.881 46.7688 419.578 46.3143C419.279 45.8597 419.133 45.2915 419.137 44.6097V33.9421ZM430.723 47.6779C429.629 47.6779 428.684 47.4506 427.889 46.9961C427.098 46.5368 426.49 45.8881 426.064 45.0501C425.638 44.2073 425.425 43.2153 425.425 42.0742C425.425 40.9521 425.638 39.9672 426.064 39.1197C426.495 38.2674 427.096 37.6045 427.868 37.131C428.64 36.6528 429.546 36.4137 430.588 36.4137C431.26 36.4137 431.895 36.5226 432.491 36.7404C433.093 36.9535 433.623 37.2849 434.082 37.7347C434.546 38.1845 434.911 38.7575 435.176 39.4535C435.441 40.1448 435.574 40.9686 435.574 41.9251V42.7134H426.632V40.9805H433.109C433.104 40.488 432.998 40.0501 432.79 39.6665C432.581 39.2783 432.29 38.9729 431.916 38.7504C431.547 38.5278 431.116 38.4165 430.623 38.4165C430.098 38.4165 429.636 38.5444 429.238 38.8001C428.841 39.051 428.531 39.3825 428.308 39.7944C428.09 40.2016 427.979 40.649 427.974 41.1367V42.6495C427.974 43.284 428.09 43.8285 428.322 44.283C428.554 44.7328 428.879 45.0785 429.295 45.32C429.712 45.5567 430.2 45.6751 430.758 45.6751C431.132 45.6751 431.471 45.623 431.774 45.5188C432.077 45.4099 432.34 45.2513 432.562 45.043C432.785 44.8346 432.953 44.5766 433.067 44.2688L435.467 44.5387C435.316 45.1732 435.027 45.7272 434.601 46.2006C434.179 46.6694 433.64 47.034 432.981 47.2944C432.323 47.5501 431.57 47.6779 430.723 47.6779Z" fill="white"/>
</g>
<rect x="309.953" y="233.375" width="192.426" height="64.9291" rx="32.4646" fill="black"/>
<path d="M378.236 258.294V272.84H375.601V258.294H378.236ZM386.423 261.931V263.919H380.151V261.931H386.423ZM381.7 259.317H384.271V269.559C384.271 269.904 384.323 270.169 384.427 270.354C384.536 270.534 384.678 270.657 384.853 270.723C385.028 270.79 385.222 270.823 385.436 270.823C385.597 270.823 385.743 270.811 385.876 270.787C386.013 270.764 386.117 270.742 386.188 270.723L386.622 272.733C386.484 272.781 386.288 272.833 386.032 272.89C385.781 272.946 385.473 272.98 385.109 272.989C384.465 273.008 383.885 272.911 383.369 272.698C382.853 272.48 382.443 272.144 382.14 271.689C381.842 271.235 381.695 270.667 381.7 269.985V259.317ZM393.285 273.053C392.192 273.053 391.247 272.826 390.452 272.371C389.661 271.912 389.052 271.263 388.626 270.425C388.2 269.582 387.987 268.59 387.987 267.449C387.987 266.327 388.2 265.342 388.626 264.495C389.057 263.642 389.658 262.98 390.43 262.506C391.202 262.028 392.109 261.789 393.15 261.789C393.823 261.789 394.457 261.898 395.054 262.115C395.655 262.328 396.185 262.66 396.645 263.11C397.109 263.56 397.473 264.132 397.738 264.828C398.004 265.52 398.136 266.344 398.136 267.3V268.088H389.194V266.355H395.672C395.667 265.863 395.56 265.425 395.352 265.042C395.144 264.653 394.853 264.348 394.479 264.125C394.109 263.903 393.678 263.792 393.186 263.792C392.66 263.792 392.199 263.919 391.801 264.175C391.403 264.426 391.093 264.757 390.871 265.169C390.653 265.577 390.541 266.024 390.537 266.512V268.025C390.537 268.659 390.653 269.203 390.885 269.658C391.117 270.108 391.441 270.453 391.858 270.695C392.274 270.932 392.762 271.05 393.321 271.05C393.695 271.05 394.033 270.998 394.336 270.894C394.64 270.785 394.902 270.626 395.125 270.418C395.347 270.21 395.515 269.952 395.629 269.644L398.03 269.914C397.878 270.548 397.589 271.102 397.163 271.576C396.742 272.044 396.202 272.409 395.544 272.669C394.886 272.925 394.133 273.053 393.285 273.053ZM400.311 272.84V261.931H402.804V263.749H402.918C403.117 263.119 403.458 262.634 403.941 262.293C404.428 261.947 404.985 261.775 405.61 261.775C405.752 261.775 405.91 261.782 406.085 261.796C406.265 261.805 406.414 261.822 406.533 261.846V264.211C406.424 264.173 406.251 264.14 406.014 264.111C405.782 264.078 405.557 264.061 405.34 264.061C404.871 264.061 404.45 264.163 404.075 264.367C403.706 264.566 403.415 264.843 403.202 265.198C402.989 265.553 402.882 265.962 402.882 266.426V272.84H400.311ZM411.185 273.06C410.494 273.06 409.871 272.937 409.317 272.691C408.768 272.44 408.332 272.07 408.01 271.583C407.693 271.095 407.534 270.494 407.534 269.779C407.534 269.163 407.648 268.654 407.875 268.252C408.102 267.849 408.413 267.527 408.806 267.286C409.199 267.044 409.641 266.862 410.134 266.739C410.631 266.611 411.145 266.519 411.675 266.462C412.314 266.396 412.833 266.337 413.23 266.284C413.628 266.228 413.917 266.142 414.097 266.029C414.281 265.91 414.374 265.728 414.374 265.482V265.439C414.374 264.904 414.215 264.49 413.898 264.196C413.581 263.903 413.124 263.756 412.527 263.756C411.897 263.756 411.398 263.893 411.029 264.168C410.664 264.443 410.418 264.767 410.29 265.141L407.889 264.8C408.079 264.137 408.391 263.583 408.827 263.138C409.262 262.688 409.795 262.352 410.425 262.13C411.055 261.902 411.751 261.789 412.513 261.789C413.039 261.789 413.562 261.85 414.083 261.973C414.603 262.096 415.079 262.3 415.51 262.584C415.941 262.864 416.287 263.245 416.547 263.728C416.812 264.211 416.945 264.814 416.945 265.539V272.84H414.473V271.341H414.388C414.232 271.644 414.012 271.928 413.727 272.194C413.448 272.454 413.095 272.665 412.669 272.826C412.248 272.982 411.753 273.06 411.185 273.06ZM411.852 271.171C412.369 271.171 412.816 271.069 413.195 270.865C413.574 270.657 413.865 270.382 414.068 270.042C414.277 269.701 414.381 269.329 414.381 268.926V267.641C414.3 267.707 414.163 267.769 413.969 267.826C413.78 267.882 413.566 267.932 413.33 267.975C413.093 268.017 412.859 268.055 412.627 268.088C412.395 268.122 412.193 268.15 412.023 268.174C411.639 268.226 411.296 268.311 410.993 268.429C410.69 268.548 410.451 268.713 410.276 268.926C410.101 269.135 410.013 269.405 410.013 269.736C410.013 270.21 410.186 270.567 410.531 270.809C410.877 271.05 411.317 271.171 411.852 271.171ZM424.977 261.931V263.919H418.706V261.931H424.977ZM420.254 259.317H422.825V269.559C422.825 269.904 422.878 270.169 422.982 270.354C423.091 270.534 423.233 270.657 423.408 270.723C423.583 270.79 423.777 270.823 423.99 270.823C424.151 270.823 424.298 270.811 424.431 270.787C424.568 270.764 424.672 270.742 424.743 270.723L425.176 272.733C425.039 272.781 424.843 272.833 424.587 272.89C424.336 272.946 424.028 272.98 423.664 272.989C423.02 273.008 422.44 272.911 421.923 272.698C421.407 272.48 420.998 272.144 420.695 271.689C420.396 271.235 420.25 270.667 420.254 269.985V259.317ZM431.84 273.053C430.746 273.053 429.802 272.826 429.006 272.371C428.215 271.912 427.607 271.263 427.181 270.425C426.755 269.582 426.542 268.59 426.542 267.449C426.542 266.327 426.755 265.342 427.181 264.495C427.612 263.642 428.213 262.98 428.985 262.506C429.757 262.028 430.663 261.789 431.705 261.789C432.377 261.789 433.012 261.898 433.608 262.115C434.21 262.328 434.74 262.66 435.199 263.11C435.663 263.56 436.028 264.132 436.293 264.828C436.558 265.52 436.691 266.344 436.691 267.3V268.088H427.749V266.355H434.226C434.222 265.863 434.115 265.425 433.907 265.042C433.698 264.653 433.407 264.348 433.033 264.125C432.664 263.903 432.233 263.792 431.741 263.792C431.215 263.792 430.753 263.919 430.356 264.175C429.958 264.426 429.648 264.757 429.425 265.169C429.207 265.577 429.096 266.024 429.091 266.512V268.025C429.091 268.659 429.207 269.203 429.439 269.658C429.671 270.108 429.996 270.453 430.412 270.695C430.829 270.932 431.317 271.05 431.876 271.05C432.25 271.05 432.588 270.998 432.891 270.894C433.194 270.785 433.457 270.626 433.68 270.418C433.902 270.21 434.07 269.952 434.184 269.644L436.584 269.914C436.433 270.548 436.144 271.102 435.718 271.576C435.296 272.044 434.757 272.409 434.099 272.669C433.44 272.925 432.688 273.053 431.84 273.053Z" fill="white"/>
<g filter="url(#filter2_d_660_406)">
<rect x="603.906" y="8" width="192.426" height="64.9291" rx="32.4646" fill="#F78800" shape-rendering="crispEdges"/>
<path d="M672.483 47.4648H667.554V32.9194H672.582C674.026 32.9194 675.267 33.2106 676.304 33.793C677.345 34.3706 678.146 35.2016 678.704 36.2859C679.263 37.3701 679.542 38.6675 679.542 40.1779C679.542 41.6931 679.261 42.9951 678.697 44.0842C678.139 45.1732 677.331 46.0089 676.275 46.5913C675.224 47.1737 673.96 47.4648 672.483 47.4648ZM670.189 45.185H672.355C673.368 45.185 674.213 45.0004 674.89 44.631C675.568 44.257 676.077 43.7006 676.417 42.962C676.758 42.2186 676.929 41.2906 676.929 40.1779C676.929 39.0652 676.758 38.1419 676.417 37.408C676.077 36.6694 675.572 36.1178 674.905 35.7532C674.242 35.3839 673.418 35.1992 672.433 35.1992H670.189V45.185ZM686.762 47.6779C685.668 47.6779 684.724 47.4506 683.928 46.9961C683.137 46.5368 682.529 45.8881 682.103 45.0501C681.677 44.2073 681.464 43.2153 681.464 42.0742C681.464 40.9521 681.677 39.9672 682.103 39.1197C682.534 38.2674 683.135 37.6045 683.907 37.131C684.679 36.6528 685.585 36.4137 686.627 36.4137C687.299 36.4137 687.934 36.5226 688.53 36.7404C689.132 36.9535 689.662 37.2849 690.121 37.7347C690.585 38.1845 690.95 38.7575 691.215 39.4535C691.48 40.1448 691.613 40.9686 691.613 41.9251V42.7134H682.671V40.9805H689.148C689.144 40.488 689.037 40.0501 688.829 39.6665C688.62 39.2783 688.329 38.9729 687.955 38.7504C687.586 38.5278 687.155 38.4165 686.662 38.4165C686.137 38.4165 685.675 38.5444 685.278 38.8001C684.88 39.051 684.57 39.3825 684.347 39.7944C684.129 40.2016 684.018 40.649 684.013 41.1367V42.6495C684.013 43.284 684.129 43.8285 684.361 44.283C684.593 44.7328 684.918 45.0785 685.334 45.32C685.751 45.5567 686.239 45.6751 686.797 45.6751C687.171 45.6751 687.51 45.623 687.813 45.5188C688.116 45.4099 688.379 45.2513 688.601 45.043C688.824 44.8346 688.992 44.5766 689.106 44.2688L691.506 44.5387C691.355 45.1732 691.066 45.7272 690.64 46.2006C690.218 46.6694 689.679 47.034 689.02 47.2944C688.362 47.5501 687.609 47.6779 686.762 47.6779ZM702.41 39.4393L700.066 39.695C700 39.4582 699.884 39.2357 699.718 39.0273C699.557 38.819 699.339 38.6509 699.065 38.5231C698.79 38.3952 698.454 38.3313 698.056 38.3313C697.521 38.3313 697.071 38.4473 696.707 38.6793C696.347 38.9113 696.169 39.212 696.174 39.5813C696.169 39.8986 696.285 40.1566 696.522 40.3555C696.764 40.5543 697.161 40.7177 697.715 40.8455L699.576 41.2433C700.608 41.4658 701.375 41.8185 701.877 42.3015C702.384 42.7844 702.64 43.4165 702.644 44.1978C702.64 44.8844 702.438 45.4904 702.041 46.016C701.648 46.5368 701.101 46.944 700.4 47.2376C699.699 47.5311 698.894 47.6779 697.985 47.6779C696.65 47.6779 695.575 47.3986 694.761 46.8398C693.946 46.2764 693.461 45.4928 693.305 44.489L695.812 44.2475C695.926 44.7399 696.167 45.1116 696.536 45.3626C696.906 45.6135 697.386 45.739 697.978 45.739C698.589 45.739 699.079 45.6135 699.448 45.3626C699.822 45.1116 700.009 44.8015 700.009 44.4322C700.009 44.1197 699.889 43.8616 699.647 43.658C699.41 43.4544 699.041 43.2982 698.539 43.1893L696.678 42.7987C695.632 42.5808 694.858 42.2139 694.356 41.6978C693.854 41.177 693.606 40.5188 693.61 39.7234C693.606 39.051 693.788 38.4686 694.157 37.9762C694.531 37.479 695.05 37.0955 695.713 36.8256C696.38 36.551 697.15 36.4137 698.021 36.4137C699.299 36.4137 700.305 36.686 701.039 37.2305C701.778 37.775 702.235 38.5112 702.41 39.4393ZM704.764 47.4648V36.5558H707.335V47.4648H704.764ZM706.057 35.0075C705.65 35.0075 705.299 34.8725 705.006 34.6026C704.712 34.328 704.566 33.9989 704.566 33.6154C704.566 33.2272 704.712 32.8981 705.006 32.6282C705.299 32.3536 705.65 32.2163 706.057 32.2163C706.469 32.2163 706.819 32.3536 707.108 32.6282C707.402 32.8981 707.548 33.2272 707.548 33.6154C707.548 33.9989 707.402 34.328 707.108 34.6026C706.819 34.8725 706.469 35.0075 706.057 35.0075ZM714.724 51.783C713.8 51.783 713.007 51.6576 712.344 51.4066C711.681 51.1604 711.149 50.829 710.746 50.4123C710.344 49.9956 710.064 49.534 709.908 49.0273L712.224 48.4663C712.328 48.6793 712.479 48.89 712.678 49.0984C712.877 49.3114 713.144 49.4866 713.481 49.6239C713.822 49.766 714.25 49.837 714.766 49.837C715.495 49.837 716.099 49.6594 716.577 49.3043C717.055 48.954 717.295 48.3763 717.295 47.5714V45.5046H717.167C717.034 45.7698 716.84 46.042 716.584 46.3214C716.333 46.6007 716 46.8351 715.583 47.0245C715.171 47.2139 714.653 47.3086 714.028 47.3086C713.189 47.3086 712.43 47.1121 711.748 46.7191C711.071 46.3214 710.531 45.7295 710.128 44.9435C709.731 44.1528 709.532 43.1632 709.532 41.9748C709.532 40.7769 709.731 39.766 710.128 38.9421C710.531 38.1135 711.073 37.4862 711.755 37.06C712.437 36.6291 713.197 36.4137 714.035 36.4137C714.674 36.4137 715.199 36.5226 715.611 36.7404C716.028 36.9535 716.359 37.2115 716.606 37.5146C716.852 37.8129 717.039 38.0946 717.167 38.3597H717.309V36.5558H719.844V47.6424C719.844 48.5752 719.622 49.3469 719.177 49.9577C718.732 50.5685 718.123 51.0254 717.351 51.3285C716.58 51.6315 715.704 51.783 714.724 51.783ZM714.745 45.2915C715.289 45.2915 715.753 45.159 716.137 44.8938C716.52 44.6287 716.812 44.2475 717.01 43.7504C717.209 43.2532 717.309 42.6566 717.309 41.9606C717.309 41.274 717.209 40.6727 717.01 40.1566C716.816 39.6405 716.528 39.2404 716.144 38.9563C715.765 38.6675 715.299 38.5231 714.745 38.5231C714.172 38.5231 713.694 38.6722 713.31 38.9705C712.927 39.2688 712.638 39.6784 712.444 40.1992C712.25 40.7153 712.153 41.3024 712.153 41.9606C712.153 42.6282 712.25 43.2129 712.444 43.7148C712.643 44.212 712.934 44.6003 713.317 44.8796C713.706 45.1542 714.181 45.2915 714.745 45.2915ZM725.05 41.0728V47.4648H722.479V36.5558H724.937V38.4094H725.064C725.315 37.7987 725.715 37.3133 726.265 36.9535C726.819 36.5936 727.503 36.4137 728.317 36.4137C729.07 36.4137 729.726 36.5747 730.285 36.8967C730.848 37.2186 731.284 37.685 731.591 38.2958C731.904 38.9066 732.058 39.6476 732.053 40.5188V47.4648H729.482V40.9165C729.482 40.1874 729.293 39.6168 728.914 39.2049C728.54 38.793 728.021 38.587 727.358 38.587C726.909 38.587 726.509 38.6864 726.158 38.8853C725.813 39.0794 725.54 39.3612 725.341 39.7305C725.147 40.0998 725.05 40.5472 725.05 41.0728Z" fill="white"/>
</g>
<path d="M290.254 43.7071C290.645 43.3166 290.645 42.6834 290.254 42.2929L283.89 35.9289C283.499 35.5384 282.866 35.5384 282.476 35.9289C282.085 36.3195 282.085 36.9526 282.476 37.3431L288.133 43L282.476 48.6569C282.085 49.0474 282.085 49.6805 282.476 50.0711C282.866 50.4616 283.499 50.4616 283.89 50.0711L290.254 43.7071ZM228.547 43V44H231.089V43V42H228.547V43ZM236.172 43V44H241.255V43V42H236.172V43ZM246.339 43V44H251.422V43V42H246.339V43ZM256.505 43V44H261.589V43V42H256.505V43ZM266.672 43V44H271.755V43V42H266.672V43ZM276.839 43V44H281.922V43V42H276.839V43ZM287.005 43V44H289.547V43V42H287.005V43ZM290.254 43.7071C290.645 43.3166 290.645 42.6834 290.254 42.2929L283.89 35.9289C283.499 35.5384 282.866 35.5384 282.476 35.9289C282.085 36.3195 282.085 36.9526 282.476 37.3431L288.133 43L282.476 48.6569C282.085 49.0474 282.085 49.6805 282.476 50.0711C282.866 50.4616 283.499 50.4616 283.89 50.0711L290.254 43.7071ZM228.547 43V44H231.089V43V42H228.547V43ZM236.172 43V44H241.255V43V42H236.172V43ZM246.339 43V44H251.422V43V42H246.339V43ZM256.505 43V44H261.589V43V42H256.505V43ZM266.672 43V44H271.755V43V42H266.672V43ZM276.839 43V44H281.922V43V42H276.839V43ZM287.005 43V44H289.547V43V42H287.005V43Z" fill="black"/>
<path d="M582.254 43.7071C582.645 43.3166 582.645 42.6834 582.254 42.2929L575.89 35.9289C575.499 35.5384 574.866 35.5384 574.476 35.9289C574.085 36.3195 574.085 36.9526 574.476 37.3431L580.133 43L574.476 48.6569C574.085 49.0474 574.085 49.6805 574.476 50.0711C574.866 50.4616 575.499 50.4616 575.89 50.0711L582.254 43.7071ZM520.547 43V44H523.089V43V42H520.547V43ZM528.172 43V44H533.255V43V42H528.172V43ZM538.339 43V44H543.422V43V42H538.339V43ZM548.505 43V44H553.589V43V42H548.505V43ZM558.672 43V44H563.755V43V42H558.672V43ZM568.839 43V44H573.922V43V42H568.839V43ZM579.005 43V44H581.547V43V42H579.005V43ZM582.254 43.7071C582.645 43.3166 582.645 42.6834 582.254 42.2929L575.89 35.9289C575.499 35.5384 574.866 35.5384 574.476 35.9289C574.085 36.3195 574.085 36.9526 574.476 37.3431L580.133 43L574.476 48.6569C574.085 49.0474 574.085 49.6805 574.476 50.0711C574.866 50.4616 575.499 50.4616 575.89 50.0711L582.254 43.7071ZM520.547 43V44H523.089V43V42H520.547V43ZM528.172 43V44H533.255V43V42H528.172V43ZM538.339 43V44H543.422V43V42H538.339V43ZM548.505 43V44H553.589V43V42H548.505V43ZM558.672 43V44H563.755V43V42H558.672V43ZM568.839 43V44H573.922V43V42H568.839V43ZM579.005 43V44H581.547V43V42H579.005V43Z" fill="black"/>
<path d="M501.555 220.132C501.628 220.68 502.13 221.065 502.677 220.993L511.6 219.819C512.148 219.746 512.533 219.244 512.461 218.697C512.389 218.149 511.887 217.764 511.339 217.836L503.408 218.88L502.364 210.948C502.292 210.4 501.79 210.015 501.242 210.087C500.694 210.159 500.309 210.661 500.381 211.209L501.555 220.132ZM602.203 90.1367L601.41 89.5279L599.853 91.5571L600.646 92.1659L601.439 92.7746L602.996 90.7455L602.203 90.1367ZM597.532 96.2241L596.738 95.6153L593.624 99.6736L594.417 100.282L595.211 100.891L598.325 96.8329L597.532 96.2241ZM591.303 104.341L590.51 103.732L587.396 107.79L588.189 108.399L588.982 109.008L592.097 104.949L591.303 104.341ZM585.075 112.457L584.281 111.848L581.167 115.907L581.96 116.515L582.754 117.124L585.868 113.066L585.075 112.457ZM578.846 120.574L578.053 119.965L574.939 124.023L575.732 124.632L576.525 125.241L579.64 121.183L578.846 120.574ZM572.618 128.69L571.824 128.082L568.71 132.14L569.503 132.749L570.297 133.357L573.411 129.299L572.618 128.69ZM566.389 136.807L565.596 136.198L562.482 140.256L563.275 140.865L564.068 141.474L567.182 137.416L566.389 136.807ZM560.161 144.923L559.367 144.315L556.253 148.373L557.046 148.982L557.84 149.59L560.954 145.532L560.161 144.923ZM553.932 153.04L553.139 152.431L550.025 156.489L550.818 157.098L551.611 157.707L554.725 153.649L553.932 153.04ZM547.704 161.157L546.91 160.548L543.796 164.606L544.589 165.215L545.383 165.824L548.497 161.765L547.704 161.157ZM541.475 169.273L540.682 168.664L537.568 172.723L538.361 173.331L539.154 173.94L542.268 169.882L541.475 169.273ZM535.247 177.39L534.453 176.781L531.339 180.839L532.132 181.448L532.926 182.057L536.04 177.998L535.247 177.39ZM529.018 185.506L528.225 184.897L525.11 188.956L525.904 189.564L526.697 190.173L529.811 186.115L529.018 185.506ZM522.79 193.623L521.996 193.014L518.882 197.072L519.675 197.681L520.469 198.29L523.583 194.231L522.79 193.623ZM516.561 201.739L515.768 201.13L512.653 205.189L513.447 205.798L514.24 206.406L517.354 202.348L516.561 201.739ZM510.333 209.856L509.539 209.247L506.425 213.305L507.218 213.914L508.012 214.523L511.126 210.465L510.333 209.856ZM504.104 217.972L503.311 217.364L501.754 219.393L502.547 220.001L503.34 220.61L504.897 218.581L504.104 217.972ZM501.555 220.132C501.628 220.68 502.13 221.065 502.677 220.993L511.6 219.819C512.148 219.746 512.533 219.244 512.461 218.697C512.389 218.149 511.887 217.764 511.339 217.836L503.408 218.88L502.364 210.948C502.292 210.4 501.79 210.015 501.242 210.087C500.694 210.159 500.309 210.661 500.381 211.209L501.555 220.132ZM602.203 90.1367L601.41 89.5279L599.853 91.5571L600.646 92.1659L601.439 92.7746L602.996 90.7455L602.203 90.1367ZM597.532 96.2241L596.738 95.6153L593.624 99.6736L594.417 100.282L595.211 100.891L598.325 96.8329L597.532 96.2241ZM591.303 104.341L590.51 103.732L587.396 107.79L588.189 108.399L588.982 109.008L592.097 104.949L591.303 104.341ZM585.075 112.457L584.281 111.848L581.167 115.907L581.96 116.515L582.754 117.124L585.868 113.066L585.075 112.457ZM578.846 120.574L578.053 119.965L574.939 124.023L575.732 124.632L576.525 125.241L579.64 121.183L578.846 120.574ZM572.618 128.69L571.824 128.082L568.71 132.14L569.503 132.749L570.297 133.357L573.411 129.299L572.618 128.69ZM566.389 136.807L565.596 136.198L562.482 140.256L563.275 140.865L564.068 141.474L567.182 137.416L566.389 136.807ZM560.161 144.923L559.367 144.315L556.253 148.373L557.046 148.982L557.84 149.59L560.954 145.532L560.161 144.923ZM553.932 153.04L553.139 152.431L550.025 156.489L550.818 157.098L551.611 157.707L554.725 153.649L553.932 153.04ZM547.704 161.157L546.91 160.548L543.796 164.606L544.589 165.215L545.383 165.824L548.497 161.765L547.704 161.157ZM541.475 169.273L540.682 168.664L537.568 172.723L538.361 173.331L539.154 173.94L542.268 169.882L541.475 169.273ZM535.247 177.39L534.453 176.781L531.339 180.839L532.132 181.448L532.926 182.057L536.04 177.998L535.247 177.39ZM529.018 185.506L528.225 184.897L525.11 188.956L525.904 189.564L526.697 190.173L529.811 186.115L529.018 185.506ZM522.79 193.623L521.996 193.014L518.882 197.072L519.675 197.681L520.469 198.29L523.583 194.231L522.79 193.623ZM516.561 201.739L515.768 201.13L512.653 205.189L513.447 205.798L514.24 206.406L517.354 202.348L516.561 201.739ZM510.333 209.856L509.539 209.247L506.425 213.305L507.218 213.914L508.012 214.523L511.126 210.465L510.333 209.856ZM504.104 217.972L503.311 217.364L501.754 219.393L502.547 220.001L503.34 220.61L504.897 218.581L504.104 217.972Z" fill="black"/>
<path d="M200.216 87.9982C199.669 87.9246 199.166 88.3086 199.092 88.856L197.893 97.7757C197.819 98.323 198.203 98.8264 198.75 98.9C199.298 98.9736 199.801 98.5896 199.875 98.0422L200.941 90.1136L208.87 91.1797C209.417 91.2533 209.92 90.8693 209.994 90.3219C210.068 89.7746 209.684 89.2712 209.136 89.1976L200.216 87.9982ZM299.375 219.133L300.17 218.526L298.619 216.493L297.824 217.099L297.029 217.706L298.58 219.739L299.375 219.133ZM294.721 213.032L295.516 212.426L292.413 208.359L291.618 208.965L290.823 209.572L293.926 213.639L294.721 213.032ZM288.515 204.898L289.31 204.292L286.207 200.225L285.412 200.831L284.617 201.438L287.72 205.505L288.515 204.898ZM282.309 196.764L283.104 196.158L280.001 192.091L279.206 192.697L278.411 193.304L281.514 197.371L282.309 196.764ZM276.103 188.63L276.899 188.024L273.796 183.957L273.001 184.563L272.206 185.17L275.308 189.237L276.103 188.63ZM269.898 180.496L270.693 179.89L267.59 175.823L266.795 176.429L266 177.036L269.103 181.103L269.898 180.496ZM263.692 172.362L264.487 171.756L261.384 167.689L260.589 168.295L259.794 168.902L262.897 172.969L263.692 172.362ZM257.486 164.228L258.281 163.622L255.178 159.555L254.383 160.161L253.588 160.768L256.691 164.835L257.486 164.228ZM251.281 156.095L252.076 155.488L248.973 151.421L248.178 152.028L247.383 152.634L250.485 156.701L251.281 156.095ZM245.075 147.961L245.87 147.354L242.767 143.287L241.972 143.894L241.177 144.5L244.28 148.567L245.075 147.961ZM238.869 139.827L239.664 139.22L236.561 135.153L235.766 135.76L234.971 136.366L238.074 140.433L238.869 139.827ZM232.663 131.693L233.458 131.086L230.355 127.019L229.56 127.626L228.765 128.232L231.868 132.299L232.663 131.693ZM226.458 123.559L227.253 122.952L224.15 118.885L223.355 119.492L222.56 120.098L225.663 124.165L226.458 123.559ZM220.252 115.425L221.047 114.818L217.944 110.751L217.149 111.358L216.354 111.964L219.457 116.031L220.252 115.425ZM214.046 107.291L214.841 106.684L211.738 102.617L210.943 103.224L210.148 103.83L213.251 107.897L214.046 107.291ZM207.84 99.1567L208.635 98.5501L205.533 94.4832L204.737 95.0897L203.942 95.6963L207.045 99.7633L207.84 99.1567ZM201.635 91.0227L202.43 90.4162L200.878 88.3827L200.083 88.9892L199.288 89.5958L200.84 91.6293L201.635 91.0227ZM200.216 87.9982C199.669 87.9246 199.166 88.3086 199.092 88.856L197.893 97.7757C197.819 98.323 198.203 98.8264 198.75 98.9C199.298 98.9736 199.801 98.5896 199.875 98.0422L200.941 90.1136L208.87 91.1797C209.417 91.2533 209.92 90.8693 209.994 90.3219C210.068 89.7746 209.684 89.2712 209.136 89.1976L200.216 87.9982ZM299.375 219.133L300.17 218.526L298.619 216.493L297.824 217.099L297.029 217.706L298.58 219.739L299.375 219.133ZM294.721 213.032L295.516 212.426L292.413 208.359L291.618 208.965L290.823 209.572L293.926 213.639L294.721 213.032ZM288.515 204.898L289.31 204.292L286.207 200.225L285.412 200.831L284.617 201.438L287.72 205.505L288.515 204.898ZM282.309 196.764L283.104 196.158L280.001 192.091L279.206 192.697L278.411 193.304L281.514 197.371L282.309 196.764ZM276.103 188.63L276.899 188.024L273.796 183.957L273.001 184.563L272.206 185.17L275.308 189.237L276.103 188.63ZM269.898 180.496L270.693 179.89L267.59 175.823L266.795 176.429L266 177.036L269.103 181.103L269.898 180.496ZM263.692 172.362L264.487 171.756L261.384 167.689L260.589 168.295L259.794 168.902L262.897 172.969L263.692 172.362ZM257.486 164.228L258.281 163.622L255.178 159.555L254.383 160.161L253.588 160.768L256.691 164.835L257.486 164.228ZM251.281 156.095L252.076 155.488L248.973 151.421L248.178 152.028L247.383 152.634L250.485 156.701L251.281 156.095ZM245.075 147.961L245.87 147.354L242.767 143.287L241.972 143.894L241.177 144.5L244.28 148.567L245.075 147.961ZM238.869 139.827L239.664 139.22L236.561 135.153L235.766 135.76L234.971 136.366L238.074 140.433L238.869 139.827ZM232.663 131.693L233.458 131.086L230.355 127.019L229.56 127.626L228.765 128.232L231.868 132.299L232.663 131.693ZM226.458 123.559L227.253 122.952L224.15 118.885L223.355 119.492L222.56 120.098L225.663 124.165L226.458 123.559ZM220.252 115.425L221.047 114.818L217.944 110.751L217.149 111.358L216.354 111.964L219.457 116.031L220.252 115.425ZM214.046 107.291L214.841 106.684L211.738 102.617L210.943 103.224L210.148 103.83L213.251 107.897L214.046 107.291ZM207.84 99.1567L208.635 98.5501L205.533 94.4832L204.737 95.0897L203.942 95.6963L207.045 99.7633L207.84 99.1567ZM201.635 91.0227L202.43 90.4162L200.878 88.3827L200.083 88.9892L199.288 89.5958L200.84 91.6293L201.635 91.0227Z" fill="black"/>
<defs>
<filter id="filter0_d_660_406" x="0" y="0" width="224.426" height="96.9297" filterUnits="userSpaceOnUse" color-interpolation-filters="sRGB">
<feFlood flood-opacity="0" result="BackgroundImageFix"/>
<feColorMatrix in="SourceAlpha" type="matrix" values="0 0 0 0 0 0 0 0 0 0 0 0 0 0 0 0 0 0 127 0" result="hardAlpha"/>
<feOffset dy="8"/>
<feGaussianBlur stdDeviation="8"/>
<feComposite in2="hardAlpha" operator="out"/>
<feColorMatrix type="matrix" values="0 0 0 0 0 0 0 0 0 0.360513 0 0 0 0 0.584615 0 0 0 0.25 0"/>
<feBlend mode="normal" in2="BackgroundImageFix" result="effect1_dropShadow_660_406"/>
<feBlend mode="normal" in="SourceGraphic" in2="effect1_dropShadow_660_406" result="shape"/>
</filter>
<filter id="filter1_d_660_406" x="293.953" y="0" width="224.426" height="96.9297" filterUnits="userSpaceOnUse" color-interpolation-filters="sRGB">
<feFlood flood-opacity="0" result="BackgroundImageFix"/>
<feColorMatrix in="SourceAlpha" type="matrix" values="0 0 0 0 0 0 0 0 0 0 0 0 0 0 0 0 0 0 127 0" result="hardAlpha"/>
<feOffset dy="8"/>
<feGaussianBlur stdDeviation="8"/>
<feComposite in2="hardAlpha" operator="out"/>
<feColorMatrix type="matrix" values="0 0 0 0 0 0 0 0 0 0.360513 0 0 0 0 0.584615 0 0 0 0.25 0"/>
<feBlend mode="normal" in2="BackgroundImageFix" result="effect1_dropShadow_660_406"/>
<feBlend mode="normal" in="SourceGraphic" in2="effect1_dropShadow_660_406" result="shape"/>
</filter>
<filter id="filter2_d_660_406" x="587.906" y="0" width="224.426" height="96.9297" filterUnits="userSpaceOnUse" color-interpolation-filters="sRGB">
<feFlood flood-opacity="0" result="BackgroundImageFix"/>
<feColorMatrix in="SourceAlpha" type="matrix" values="0 0 0 0 0 0 0 0 0 0 0 0 0 0 0 0 0 0 127 0" result="hardAlpha"/>
<feOffset dy="8"/>
<feGaussianBlur stdDeviation="8"/>
<feComposite in2="hardAlpha" operator="out"/>
<feColorMatrix type="matrix" values="0 0 0 0 0 0 0 0 0 0.360513 0 0 0 0 0.584615 0 0 0 0.25 0"/>
<feBlend mode="normal" in2="BackgroundImageFix" result="effect1_dropShadow_660_406"/>
<feBlend mode="normal" in="SourceGraphic" in2="effect1_dropShadow_660_406" result="shape"/>
</filter>
</defs>
</svg>
