<svg width="813" height="299" viewBox="0 0 813 299" fill="none" xmlns="http://www.w3.org/2000/svg">
<g filter="url(#filter0_d_715_1059)">
<rect x="16" y="8" width="192.426" height="64.9291" rx="32.4646" fill="#027BDE" shape-rendering="crispEdges"/>
<path d="M65.3166 32.9194H67.9515V42.4222C67.9515 43.4639 67.7053 44.3801 67.2129 45.1708C66.7252 45.9615 66.0386 46.5794 65.1532 47.0245C64.2678 47.4648 63.2333 47.685 62.0495 47.685C60.8611 47.685 59.8242 47.4648 58.9387 47.0245C58.0533 46.5794 57.3668 45.9615 56.8791 45.1708C56.3914 44.3801 56.1475 43.4639 56.1475 42.4222V32.9194H58.7825V42.2021C58.7825 42.8081 58.9151 43.3479 59.1802 43.8214C59.4501 44.2949 59.8289 44.6665 60.3166 44.9364C60.8043 45.2016 61.3819 45.3342 62.0495 45.3342C62.7172 45.3342 63.2948 45.2016 63.7825 44.9364C64.2749 44.6665 64.6537 44.2949 64.9189 43.8214C65.184 43.3479 65.3166 42.8081 65.3166 42.2021V32.9194ZM73.2729 41.0728V47.4648H70.7019V36.5558H73.1593V38.4094H73.2871C73.5381 37.7987 73.9382 37.3133 74.4874 36.9535C75.0414 36.5936 75.7256 36.4137 76.54 36.4137C77.2928 36.4137 77.9486 36.5747 78.5073 36.8967C79.0707 37.2186 79.5063 37.685 79.8141 38.2958C80.1266 38.9066 80.2805 39.6476 80.2757 40.5188V47.4648H77.7047V40.9165C77.7047 40.1874 77.5153 39.6168 77.1365 39.2049C76.7625 38.793 76.244 38.587 75.5811 38.587C75.1313 38.587 74.7312 38.6864 74.3809 38.8853C74.0352 39.0794 73.763 39.3612 73.5641 39.7305C73.37 40.0998 73.2729 40.5472 73.2729 41.0728ZM86.9377 47.6566C86.0807 47.6566 85.3136 47.4364 84.6365 46.9961C83.9595 46.5558 83.4244 45.9165 83.0314 45.0785C82.6384 44.2404 82.4419 43.2224 82.4419 42.0245C82.4419 40.8124 82.6408 39.7897 83.0385 38.9563C83.441 38.1183 83.9831 37.4862 84.665 37.06C85.3468 36.6291 86.1067 36.4137 86.9448 36.4137C87.584 36.4137 88.1096 36.5226 88.5215 36.7404C88.9334 36.9535 89.2601 37.2115 89.5016 37.5146C89.7431 37.8129 89.9301 38.0946 90.0627 38.3597H90.1692V32.9194H92.7473V47.4648H90.2189V45.7461H90.0627C89.9301 46.0112 89.7383 46.293 89.4874 46.5913C89.2364 46.8848 88.905 47.1358 88.4931 47.3441C88.0811 47.5524 87.5627 47.6566 86.9377 47.6566ZM87.655 45.5472C88.1995 45.5472 88.6635 45.4004 89.0471 45.1069C89.4306 44.8086 89.7218 44.3943 89.9206 43.864C90.1195 43.3337 90.2189 42.7158 90.2189 42.0103C90.2189 41.3048 90.1195 40.6916 89.9206 40.1708C89.7265 39.65 89.4377 39.2451 89.0542 38.9563C88.6754 38.6675 88.209 38.5231 87.655 38.5231C87.0821 38.5231 86.6039 38.6722 86.2203 38.9705C85.8368 39.2688 85.548 39.6808 85.3539 40.2063C85.1597 40.7319 85.0627 41.3332 85.0627 42.0103C85.0627 42.6921 85.1597 43.3005 85.3539 43.8356C85.5527 44.3659 85.8439 44.7849 86.2275 45.0927C86.6157 45.3957 87.0916 45.5472 87.655 45.5472ZM100.317 47.6779C99.2228 47.6779 98.2782 47.4506 97.4828 46.9961C96.6921 46.5368 96.0836 45.8881 95.6575 45.0501C95.2314 44.2073 95.0183 43.2153 95.0183 42.0742C95.0183 40.9521 95.2314 39.9672 95.6575 39.1197C96.0884 38.2674 96.6897 37.6045 97.4615 37.131C98.2333 36.6528 99.14 36.4137 100.182 36.4137C100.854 36.4137 101.488 36.5226 102.085 36.7404C102.686 36.9535 103.217 37.2849 103.676 37.7347C104.14 38.1845 104.505 38.7575 104.77 39.4535C105.035 40.1448 105.167 40.9686 105.167 41.9251V42.7134H96.2257V40.9805H102.703C102.698 40.488 102.592 40.0501 102.383 39.6665C102.175 39.2783 101.884 38.9729 101.51 38.7504C101.14 38.5278 100.71 38.4165 100.217 38.4165C99.6916 38.4165 99.2299 38.5444 98.8322 38.8001C98.4345 39.051 98.1243 39.3825 97.9018 39.7944C97.684 40.2016 97.5727 40.649 97.568 41.1367V42.6495C97.568 43.284 97.684 43.8285 97.916 44.283C98.148 44.7328 98.4724 45.0785 98.889 45.32C99.3057 45.5567 99.7934 45.6751 100.352 45.6751C100.726 45.6751 101.065 45.623 101.368 45.5188C101.671 45.4099 101.934 45.2513 102.156 45.043C102.379 44.8346 102.547 44.5766 102.66 44.2688L105.061 44.5387C104.909 45.1732 104.621 45.7272 104.194 46.2006C103.773 46.6694 103.233 47.034 102.575 47.2944C101.917 47.5501 101.164 47.6779 100.317 47.6779ZM107.343 47.4648V36.5558H109.835V38.3739H109.949C110.148 37.7442 110.489 37.2589 110.972 36.918C111.459 36.5723 112.016 36.3995 112.641 36.3995C112.783 36.3995 112.941 36.4066 113.117 36.4208C113.297 36.4303 113.446 36.4469 113.564 36.4705V38.8356C113.455 38.7977 113.282 38.7646 113.046 38.7362C112.814 38.703 112.589 38.6864 112.371 38.6864C111.902 38.6864 111.481 38.7882 111.107 38.9918C110.737 39.1907 110.446 39.4677 110.233 39.8228C110.02 40.1779 109.914 40.5875 109.914 41.0515V47.4648H107.343ZM123.894 39.4393L121.551 39.695C121.484 39.4582 121.368 39.2357 121.203 39.0273C121.042 38.819 120.824 38.6509 120.549 38.5231C120.275 38.3952 119.938 38.3313 119.541 38.3313C119.006 38.3313 118.556 38.4473 118.191 38.6793C117.831 38.9113 117.654 39.212 117.659 39.5813C117.654 39.8986 117.77 40.1566 118.007 40.3555C118.248 40.5543 118.646 40.7177 119.2 40.8455L121.061 41.2433C122.093 41.4658 122.86 41.8185 123.362 42.3015C123.868 42.7844 124.124 43.4165 124.129 44.1978C124.124 44.8844 123.923 45.4904 123.525 46.016C123.132 46.5368 122.585 46.944 121.884 47.2376C121.184 47.5311 120.379 47.6779 119.47 47.6779C118.134 47.6779 117.06 47.3986 116.245 46.8398C115.431 46.2764 114.945 45.4928 114.789 44.489L117.296 44.2475C117.41 44.7399 117.651 45.1116 118.021 45.3626C118.39 45.6135 118.871 45.739 119.463 45.739C120.073 45.739 120.563 45.6135 120.933 45.3626C121.307 45.1116 121.494 44.8015 121.494 44.4322C121.494 44.1197 121.373 43.8616 121.132 43.658C120.895 43.4544 120.526 43.2982 120.024 43.1893L118.163 42.7987C117.116 42.5808 116.342 42.2139 115.84 41.6978C115.338 41.177 115.09 40.5188 115.095 39.7234C115.09 39.051 115.272 38.4686 115.642 37.9762C116.016 37.479 116.534 37.0955 117.197 36.8256C117.865 36.551 118.634 36.4137 119.505 36.4137C120.784 36.4137 121.79 36.686 122.524 37.2305C123.262 37.775 123.719 38.5112 123.894 39.4393ZM131.696 36.5558V38.5444H125.425V36.5558H131.696ZM126.973 33.9421H129.544V44.1836C129.544 44.5292 129.596 44.7944 129.7 44.979C129.809 45.159 129.951 45.2821 130.127 45.3484C130.302 45.4147 130.496 45.4478 130.709 45.4478C130.87 45.4478 131.017 45.436 131.149 45.4123C131.287 45.3886 131.391 45.3673 131.462 45.3484L131.895 47.3583C131.758 47.4057 131.561 47.4577 131.306 47.5146C131.055 47.5714 130.747 47.6045 130.382 47.614C129.738 47.6329 129.158 47.5359 128.642 47.3228C128.126 47.105 127.717 46.7688 127.414 46.3143C127.115 45.8597 126.968 45.2915 126.973 44.6097V33.9421ZM136.986 47.685C136.294 47.685 135.672 47.5619 135.118 47.3157C134.568 47.0647 134.133 46.6954 133.811 46.2077C133.494 45.7201 133.335 45.1187 133.335 44.4038C133.335 43.7882 133.449 43.2792 133.676 42.8768C133.903 42.4743 134.213 42.1523 134.606 41.9109C134.999 41.6694 135.442 41.4871 135.934 41.364C136.432 41.2362 136.945 41.1438 137.476 41.087C138.115 41.0207 138.633 40.9615 139.031 40.9094C139.429 40.8526 139.718 40.7674 139.898 40.6538C140.082 40.5354 140.175 40.3531 140.175 40.1069V40.0643C140.175 39.5292 140.016 39.1149 139.699 38.8214C139.381 38.5278 138.925 38.381 138.328 38.381C137.698 38.381 137.199 38.5183 136.829 38.793C136.465 39.0676 136.219 39.3919 136.091 39.766L133.69 39.4251C133.88 38.7622 134.192 38.2082 134.628 37.7631C135.063 37.3133 135.596 36.9772 136.226 36.7546C136.855 36.5273 137.551 36.4137 138.314 36.4137C138.839 36.4137 139.363 36.4753 139.883 36.5984C140.404 36.7215 140.88 36.9251 141.311 37.2092C141.742 37.4885 142.087 37.8697 142.348 38.3526C142.613 38.8356 142.746 39.4393 142.746 40.1637V47.4648H140.274V45.9663H140.189C140.032 46.2693 139.812 46.5534 139.528 46.8185C139.249 47.079 138.896 47.2897 138.47 47.4506C138.049 47.6069 137.554 47.685 136.986 47.685ZM137.653 45.7958C138.169 45.7958 138.617 45.694 138.996 45.4904C139.374 45.2821 139.666 45.0075 139.869 44.6665C140.077 44.3256 140.182 43.954 140.182 43.5515V42.266C140.101 42.3323 139.964 42.3938 139.77 42.4506C139.58 42.5075 139.367 42.5572 139.131 42.5998C138.894 42.6424 138.659 42.6803 138.427 42.7134C138.195 42.7466 137.994 42.775 137.824 42.7987C137.44 42.8507 137.097 42.936 136.794 43.0543C136.491 43.1727 136.252 43.3384 136.077 43.5515C135.901 43.7598 135.814 44.0297 135.814 44.3612C135.814 44.8346 135.987 45.1921 136.332 45.4336C136.678 45.6751 137.118 45.7958 137.653 45.7958ZM147.902 41.0728V47.4648H145.331V36.5558H147.788V38.4094H147.916C148.167 37.7987 148.567 37.3133 149.116 36.9535C149.67 36.5936 150.354 36.4137 151.169 36.4137C151.922 36.4137 152.577 36.5747 153.136 36.8967C153.7 37.2186 154.135 37.685 154.443 38.2958C154.756 38.9066 154.909 39.6476 154.905 40.5188V47.4648H152.334V40.9165C152.334 40.1874 152.144 39.6168 151.765 39.2049C151.391 38.793 150.873 38.587 150.21 38.587C149.76 38.587 149.36 38.6864 149.01 38.8853C148.664 39.0794 148.392 39.3612 148.193 39.7305C147.999 40.0998 147.902 40.5472 147.902 41.0728ZM161.567 47.6566C160.71 47.6566 159.943 47.4364 159.265 46.9961C158.588 46.5558 158.053 45.9165 157.66 45.0785C157.267 44.2404 157.071 43.2224 157.071 42.0245C157.071 40.8124 157.27 39.7897 157.667 38.9563C158.07 38.1183 158.612 37.4862 159.294 37.06C159.976 36.6291 160.736 36.4137 161.574 36.4137C162.213 36.4137 162.738 36.5226 163.15 36.7404C163.562 36.9535 163.889 37.2115 164.131 37.5146C164.372 37.8129 164.559 38.0946 164.692 38.3597H164.798V32.9194H167.376V47.4648H164.848V45.7461H164.692C164.559 46.0112 164.367 46.293 164.116 46.5913C163.865 46.8848 163.534 47.1358 163.122 47.3441C162.71 47.5524 162.192 47.6566 161.567 47.6566ZM162.284 45.5472C162.828 45.5472 163.292 45.4004 163.676 45.1069C164.059 44.8086 164.351 44.3943 164.55 43.864C164.748 43.3337 164.848 42.7158 164.848 42.0103C164.848 41.3048 164.748 40.6916 164.55 40.1708C164.355 39.65 164.067 39.2451 163.683 38.9563C163.304 38.6675 162.838 38.5231 162.284 38.5231C161.711 38.5231 161.233 38.6722 160.849 38.9705C160.466 39.2688 160.177 39.6808 159.983 40.2063C159.789 40.7319 159.692 41.3332 159.692 42.0103C159.692 42.6921 159.789 43.3005 159.983 43.8356C160.182 44.3659 160.473 44.7849 160.856 45.0927C161.245 45.3957 161.72 45.5472 162.284 45.5472Z" fill="white"/>
</g>
<g filter="url(#filter1_d_715_1059)">
<rect x="309.953" y="8" width="192.426" height="64.9291" rx="32.4646" fill="#027BDE" shape-rendering="crispEdges"/>
<path d="M379.736 32.9194V47.4648H377.101V32.9194H379.736ZM386.524 47.6566C385.667 47.6566 384.9 47.4364 384.222 46.9961C383.545 46.5558 383.01 45.9165 382.617 45.0785C382.224 44.2404 382.028 43.2224 382.028 42.0245C382.028 40.8124 382.227 39.7897 382.624 38.9563C383.027 38.1183 383.569 37.4862 384.251 37.06C384.933 36.6291 385.693 36.4137 386.531 36.4137C387.17 36.4137 387.695 36.5226 388.107 36.7404C388.519 36.9535 388.846 37.2115 389.088 37.5146C389.329 37.8129 389.516 38.0946 389.649 38.3597H389.755V32.9194H392.333V47.4648H389.805V45.7461H389.649C389.516 46.0112 389.324 46.293 389.073 46.5913C388.822 46.8848 388.491 47.1358 388.079 47.3441C387.667 47.5524 387.149 47.6566 386.524 47.6566ZM387.241 45.5472C387.785 45.5472 388.249 45.4004 388.633 45.1069C389.017 44.8086 389.308 44.3943 389.507 43.864C389.705 43.3337 389.805 42.7158 389.805 42.0103C389.805 41.3048 389.705 40.6916 389.507 40.1708C389.312 39.65 389.024 39.2451 388.64 38.9563C388.261 38.6675 387.795 38.5231 387.241 38.5231C386.668 38.5231 386.19 38.6722 385.806 38.9705C385.423 39.2688 385.134 39.6808 384.94 40.2063C384.746 40.7319 384.649 41.3332 384.649 42.0103C384.649 42.6921 384.746 43.3005 384.94 43.8356C385.139 44.3659 385.43 44.7849 385.813 45.0927C386.202 45.3957 386.677 45.5472 387.241 45.5472ZM399.903 47.6779C398.809 47.6779 397.864 47.4506 397.069 46.9961C396.278 46.5368 395.67 45.8881 395.243 45.0501C394.817 44.2073 394.604 43.2153 394.604 42.0742C394.604 40.9521 394.817 39.9672 395.243 39.1197C395.674 38.2674 396.276 37.6045 397.047 37.131C397.819 36.6528 398.726 36.4137 399.768 36.4137C400.44 36.4137 401.074 36.5226 401.671 36.7404C402.272 36.9535 402.803 37.2849 403.262 37.7347C403.726 38.1845 404.09 38.7575 404.356 39.4535C404.621 40.1448 404.753 40.9686 404.753 41.9251V42.7134H395.812V40.9805H402.289C402.284 40.488 402.178 40.0501 401.969 39.6665C401.761 39.2783 401.47 38.9729 401.096 38.7504C400.726 38.5278 400.296 38.4165 399.803 38.4165C399.278 38.4165 398.816 38.5444 398.418 38.8001C398.02 39.051 397.71 39.3825 397.488 39.7944C397.27 40.2016 397.159 40.649 397.154 41.1367V42.6495C397.154 43.284 397.27 43.8285 397.502 44.283C397.734 44.7328 398.058 45.0785 398.475 45.32C398.892 45.5567 399.379 45.6751 399.938 45.6751C400.312 45.6751 400.651 45.623 400.954 45.5188C401.257 45.4099 401.519 45.2513 401.742 45.043C401.965 44.8346 402.133 44.5766 402.246 44.2688L404.647 44.5387C404.495 45.1732 404.206 45.7272 403.78 46.2006C403.359 46.6694 402.819 47.034 402.161 47.2944C401.503 47.5501 400.75 47.6779 399.903 47.6779ZM410.068 47.685C409.376 47.685 408.754 47.5619 408.2 47.3157C407.651 47.0647 407.215 46.6954 406.893 46.2077C406.576 45.7201 406.417 45.1187 406.417 44.4038C406.417 43.7882 406.531 43.2792 406.758 42.8768C406.985 42.4743 407.295 42.1523 407.688 41.9109C408.081 41.6694 408.524 41.4871 409.017 41.364C409.514 41.2362 410.027 41.1438 410.558 41.087C411.197 41.0207 411.715 40.9615 412.113 40.9094C412.511 40.8526 412.8 40.7674 412.98 40.6538C413.164 40.5354 413.257 40.3531 413.257 40.1069V40.0643C413.257 39.5292 413.098 39.1149 412.781 38.8214C412.463 38.5278 412.007 38.381 411.41 38.381C410.78 38.381 410.281 38.5183 409.911 38.793C409.547 39.0676 409.301 39.3919 409.173 39.766L406.772 39.4251C406.962 38.7622 407.274 38.2082 407.71 37.7631C408.145 37.3133 408.678 36.9772 409.308 36.7546C409.937 36.5273 410.633 36.4137 411.396 36.4137C411.921 36.4137 412.445 36.4753 412.965 36.5984C413.486 36.7215 413.962 36.9251 414.393 37.2092C414.824 37.4885 415.169 37.8697 415.43 38.3526C415.695 38.8356 415.828 39.4393 415.828 40.1637V47.4648H413.356V45.9663H413.271C413.115 46.2693 412.894 46.5534 412.61 46.8185C412.331 47.079 411.978 47.2897 411.552 47.4506C411.131 47.6069 410.636 47.685 410.068 47.685ZM410.735 45.7958C411.251 45.7958 411.699 45.694 412.078 45.4904C412.456 45.2821 412.748 45.0075 412.951 44.6665C413.16 44.3256 413.264 43.954 413.264 43.5515V42.266C413.183 42.3323 413.046 42.3938 412.852 42.4506C412.662 42.5075 412.449 42.5572 412.213 42.5998C411.976 42.6424 411.741 42.6803 411.509 42.7134C411.277 42.7466 411.076 42.775 410.906 42.7987C410.522 42.8507 410.179 42.936 409.876 43.0543C409.573 43.1727 409.334 43.3384 409.159 43.5515C408.983 43.7598 408.896 44.0297 408.896 44.3612C408.896 44.8346 409.069 45.1921 409.414 45.4336C409.76 45.6751 410.2 45.7958 410.735 45.7958ZM423.86 36.5558V38.5444H417.589V36.5558H423.86ZM419.137 33.9421H421.708V44.1836C421.708 44.5292 421.76 44.7944 421.865 44.979C421.973 45.159 422.115 45.2821 422.291 45.3484C422.466 45.4147 422.66 45.4478 422.873 45.4478C423.034 45.4478 423.181 45.436 423.313 45.4123C423.451 45.3886 423.555 45.3673 423.626 45.3484L424.059 47.3583C423.922 47.4057 423.725 47.4577 423.47 47.5146C423.219 47.5714 422.911 47.6045 422.546 47.614C421.902 47.6329 421.322 47.5359 420.806 47.3228C420.29 47.105 419.881 46.7688 419.578 46.3143C419.279 45.8597 419.133 45.2915 419.137 44.6097V33.9421ZM430.723 47.6779C429.629 47.6779 428.684 47.4506 427.889 46.9961C427.098 46.5368 426.49 45.8881 426.064 45.0501C425.638 44.2073 425.425 43.2153 425.425 42.0742C425.425 40.9521 425.638 39.9672 426.064 39.1197C426.495 38.2674 427.096 37.6045 427.868 37.131C428.64 36.6528 429.546 36.4137 430.588 36.4137C431.26 36.4137 431.895 36.5226 432.491 36.7404C433.093 36.9535 433.623 37.2849 434.082 37.7347C434.546 38.1845 434.911 38.7575 435.176 39.4535C435.441 40.1448 435.574 40.9686 435.574 41.9251V42.7134H426.632V40.9805H433.109C433.104 40.488 432.998 40.0501 432.79 39.6665C432.581 39.2783 432.29 38.9729 431.916 38.7504C431.547 38.5278 431.116 38.4165 430.623 38.4165C430.098 38.4165 429.636 38.5444 429.238 38.8001C428.841 39.051 428.531 39.3825 428.308 39.7944C428.09 40.2016 427.979 40.649 427.974 41.1367V42.6495C427.974 43.284 428.09 43.8285 428.322 44.283C428.554 44.7328 428.879 45.0785 429.295 45.32C429.712 45.5567 430.2 45.6751 430.758 45.6751C431.132 45.6751 431.471 45.623 431.774 45.5188C432.077 45.4099 432.34 45.2513 432.562 45.043C432.785 44.8346 432.953 44.5766 433.067 44.2688L435.467 44.5387C435.316 45.1732 435.027 45.7272 434.601 46.2006C434.179 46.6694 433.64 47.034 432.981 47.2944C432.323 47.5501 431.57 47.6779 430.723 47.6779Z" fill="white"/>
</g>
<rect x="309.953" y="233.375" width="192.426" height="64.9291" rx="32.4646" fill="#EFDF00"/>
<path d="M378.236 258.294V272.84H375.601V258.294H378.236ZM386.423 261.931V263.919H380.151V261.931H386.423ZM381.7 259.317H384.271V269.559C384.271 269.904 384.323 270.169 384.427 270.354C384.536 270.534 384.678 270.657 384.853 270.723C385.028 270.79 385.222 270.823 385.436 270.823C385.597 270.823 385.743 270.811 385.876 270.787C386.013 270.764 386.117 270.742 386.188 270.723L386.622 272.733C386.484 272.781 386.288 272.833 386.032 272.89C385.781 272.946 385.473 272.98 385.109 272.989C384.465 273.008 383.885 272.911 383.369 272.698C382.853 272.48 382.443 272.144 382.14 271.689C381.842 271.235 381.695 270.667 381.7 269.985V259.317ZM393.285 273.053C392.192 273.053 391.247 272.826 390.452 272.371C389.661 271.912 389.052 271.263 388.626 270.425C388.2 269.582 387.987 268.59 387.987 267.449C387.987 266.327 388.2 265.342 388.626 264.495C389.057 263.642 389.658 262.98 390.43 262.506C391.202 262.028 392.109 261.789 393.15 261.789C393.823 261.789 394.457 261.898 395.054 262.115C395.655 262.328 396.185 262.66 396.645 263.11C397.109 263.56 397.473 264.132 397.738 264.828C398.004 265.52 398.136 266.344 398.136 267.3V268.088H389.194V266.355H395.672C395.667 265.863 395.56 265.425 395.352 265.042C395.144 264.653 394.853 264.348 394.479 264.125C394.109 263.903 393.678 263.792 393.186 263.792C392.66 263.792 392.199 263.919 391.801 264.175C391.403 264.426 391.093 264.757 390.871 265.169C390.653 265.577 390.541 266.024 390.537 266.512V268.025C390.537 268.659 390.653 269.203 390.885 269.658C391.117 270.108 391.441 270.453 391.858 270.695C392.274 270.932 392.762 271.05 393.321 271.05C393.695 271.05 394.033 270.998 394.336 270.894C394.64 270.785 394.902 270.626 395.125 270.418C395.347 270.21 395.515 269.952 395.629 269.644L398.03 269.914C397.878 270.548 397.589 271.102 397.163 271.576C396.742 272.044 396.202 272.409 395.544 272.669C394.886 272.925 394.133 273.053 393.285 273.053ZM400.311 272.84V261.931H402.804V263.749H402.918C403.117 263.119 403.458 262.634 403.941 262.293C404.428 261.947 404.985 261.775 405.61 261.775C405.752 261.775 405.91 261.782 406.085 261.796C406.265 261.805 406.414 261.822 406.533 261.846V264.211C406.424 264.173 406.251 264.14 406.014 264.111C405.782 264.078 405.557 264.061 405.34 264.061C404.871 264.061 404.45 264.163 404.075 264.367C403.706 264.566 403.415 264.843 403.202 265.198C402.989 265.553 402.882 265.962 402.882 266.426V272.84H400.311ZM411.185 273.06C410.494 273.06 409.871 272.937 409.317 272.691C408.768 272.44 408.332 272.07 408.01 271.583C407.693 271.095 407.534 270.494 407.534 269.779C407.534 269.163 407.648 268.654 407.875 268.252C408.102 267.849 408.413 267.527 408.806 267.286C409.199 267.044 409.641 266.862 410.134 266.739C410.631 266.611 411.145 266.519 411.675 266.462C412.314 266.396 412.833 266.337 413.23 266.284C413.628 266.228 413.917 266.142 414.097 266.029C414.281 265.91 414.374 265.728 414.374 265.482V265.439C414.374 264.904 414.215 264.49 413.898 264.196C413.581 263.903 413.124 263.756 412.527 263.756C411.897 263.756 411.398 263.893 411.029 264.168C410.664 264.443 410.418 264.767 410.29 265.141L407.889 264.8C408.079 264.137 408.391 263.583 408.827 263.138C409.262 262.688 409.795 262.352 410.425 262.13C411.055 261.902 411.751 261.789 412.513 261.789C413.039 261.789 413.562 261.85 414.083 261.973C414.603 262.096 415.079 262.3 415.51 262.584C415.941 262.864 416.287 263.245 416.547 263.728C416.812 264.211 416.945 264.814 416.945 265.539V272.84H414.473V271.341H414.388C414.232 271.644 414.012 271.928 413.727 272.194C413.448 272.454 413.095 272.665 412.669 272.826C412.248 272.982 411.753 273.06 411.185 273.06ZM411.852 271.171C412.369 271.171 412.816 271.069 413.195 270.865C413.574 270.657 413.865 270.382 414.068 270.042C414.277 269.701 414.381 269.329 414.381 268.926V267.641C414.3 267.707 414.163 267.769 413.969 267.826C413.78 267.882 413.566 267.932 413.33 267.975C413.093 268.017 412.859 268.055 412.627 268.088C412.395 268.122 412.193 268.15 412.023 268.174C411.639 268.226 411.296 268.311 410.993 268.429C410.69 268.548 410.451 268.713 410.276 268.926C410.101 269.135 410.013 269.405 410.013 269.736C410.013 270.21 410.186 270.567 410.531 270.809C410.877 271.05 411.317 271.171 411.852 271.171ZM424.977 261.931V263.919H418.706V261.931H424.977ZM420.254 259.317H422.825V269.559C422.825 269.904 422.878 270.169 422.982 270.354C423.091 270.534 423.233 270.657 423.408 270.723C423.583 270.79 423.777 270.823 423.99 270.823C424.151 270.823 424.298 270.811 424.431 270.787C424.568 270.764 424.672 270.742 424.743 270.723L425.176 272.733C425.039 272.781 424.843 272.833 424.587 272.89C424.336 272.946 424.028 272.98 423.664 272.989C423.02 273.008 422.44 272.911 421.923 272.698C421.407 272.48 420.998 272.144 420.695 271.689C420.396 271.235 420.25 270.667 420.254 269.985V259.317ZM431.84 273.053C430.746 273.053 429.802 272.826 429.006 272.371C428.215 271.912 427.607 271.263 427.181 270.425C426.755 269.582 426.542 268.59 426.542 267.449C426.542 266.327 426.755 265.342 427.181 264.495C427.612 263.642 428.213 262.98 428.985 262.506C429.757 262.028 430.663 261.789 431.705 261.789C432.377 261.789 433.012 261.898 433.608 262.115C434.21 262.328 434.74 262.66 435.199 263.11C435.663 263.56 436.028 264.132 436.293 264.828C436.558 265.52 436.691 266.344 436.691 267.3V268.088H427.749V266.355H434.226C434.222 265.863 434.115 265.425 433.907 265.042C433.698 264.653 433.407 264.348 433.033 264.125C432.664 263.903 432.233 263.792 431.741 263.792C431.215 263.792 430.753 263.919 430.356 264.175C429.958 264.426 429.648 264.757 429.425 265.169C429.207 265.577 429.096 266.024 429.091 266.512V268.025C429.091 268.659 429.207 269.203 429.439 269.658C429.671 270.108 429.996 270.453 430.412 270.695C430.829 270.932 431.317 271.05 431.876 271.05C432.25 271.05 432.588 270.998 432.891 270.894C433.194 270.785 433.457 270.626 433.68 270.418C433.902 270.21 434.07 269.952 434.184 269.644L436.584 269.914C436.433 270.548 436.144 271.102 435.718 271.576C435.296 272.044 434.757 272.409 434.099 272.669C433.44 272.925 432.688 273.053 431.84 273.053Z" fill="black"/>
<g filter="url(#filter2_d_715_1059)">
<rect x="603.906" y="8" width="192.426" height="64.9291" rx="32.4646" fill="#027BDE" shape-rendering="crispEdges"/>
<path d="M672.483 47.4648H667.554V32.9194H672.582C674.026 32.9194 675.267 33.2106 676.304 33.793C677.345 34.3706 678.146 35.2016 678.704 36.2859C679.263 37.3701 679.542 38.6675 679.542 40.1779C679.542 41.6931 679.261 42.9951 678.697 44.0842C678.139 45.1732 677.331 46.0089 676.275 46.5913C675.224 47.1737 673.96 47.4648 672.483 47.4648ZM670.189 45.185H672.355C673.368 45.185 674.213 45.0004 674.89 44.631C675.568 44.257 676.077 43.7006 676.417 42.962C676.758 42.2186 676.929 41.2906 676.929 40.1779C676.929 39.0652 676.758 38.1419 676.417 37.408C676.077 36.6694 675.572 36.1178 674.905 35.7532C674.242 35.3839 673.418 35.1992 672.433 35.1992H670.189V45.185ZM686.762 47.6779C685.668 47.6779 684.724 47.4506 683.928 46.9961C683.137 46.5368 682.529 45.8881 682.103 45.0501C681.677 44.2073 681.464 43.2153 681.464 42.0742C681.464 40.9521 681.677 39.9672 682.103 39.1197C682.534 38.2674 683.135 37.6045 683.907 37.131C684.679 36.6528 685.585 36.4137 686.627 36.4137C687.299 36.4137 687.934 36.5226 688.53 36.7404C689.132 36.9535 689.662 37.2849 690.121 37.7347C690.585 38.1845 690.95 38.7575 691.215 39.4535C691.48 40.1448 691.613 40.9686 691.613 41.9251V42.7134H682.671V40.9805H689.148C689.144 40.488 689.037 40.0501 688.829 39.6665C688.62 39.2783 688.329 38.9729 687.955 38.7504C687.586 38.5278 687.155 38.4165 686.662 38.4165C686.137 38.4165 685.675 38.5444 685.278 38.8001C684.88 39.051 684.57 39.3825 684.347 39.7944C684.129 40.2016 684.018 40.649 684.013 41.1367V42.6495C684.013 43.284 684.129 43.8285 684.361 44.283C684.593 44.7328 684.918 45.0785 685.334 45.32C685.751 45.5567 686.239 45.6751 686.797 45.6751C687.171 45.6751 687.51 45.623 687.813 45.5188C688.116 45.4099 688.379 45.2513 688.601 45.043C688.824 44.8346 688.992 44.5766 689.106 44.2688L691.506 44.5387C691.355 45.1732 691.066 45.7272 690.64 46.2006C690.218 46.6694 689.679 47.034 689.02 47.2944C688.362 47.5501 687.609 47.6779 686.762 47.6779ZM702.41 39.4393L700.066 39.695C700 39.4582 699.884 39.2357 699.718 39.0273C699.557 38.819 699.339 38.6509 699.065 38.5231C698.79 38.3952 698.454 38.3313 698.056 38.3313C697.521 38.3313 697.071 38.4473 696.707 38.6793C696.347 38.9113 696.169 39.212 696.174 39.5813C696.169 39.8986 696.285 40.1566 696.522 40.3555C696.764 40.5543 697.161 40.7177 697.715 40.8455L699.576 41.2433C700.608 41.4658 701.375 41.8185 701.877 42.3015C702.384 42.7844 702.64 43.4165 702.644 44.1978C702.64 44.8844 702.438 45.4904 702.041 46.016C701.648 46.5368 701.101 46.944 700.4 47.2376C699.699 47.5311 698.894 47.6779 697.985 47.6779C696.65 47.6779 695.575 47.3986 694.761 46.8398C693.946 46.2764 693.461 45.4928 693.305 44.489L695.812 44.2475C695.926 44.7399 696.167 45.1116 696.536 45.3626C696.906 45.6135 697.386 45.739 697.978 45.739C698.589 45.739 699.079 45.6135 699.448 45.3626C699.822 45.1116 700.009 44.8015 700.009 44.4322C700.009 44.1197 699.889 43.8616 699.647 43.658C699.41 43.4544 699.041 43.2982 698.539 43.1893L696.678 42.7987C695.632 42.5808 694.858 42.2139 694.356 41.6978C693.854 41.177 693.606 40.5188 693.61 39.7234C693.606 39.051 693.788 38.4686 694.157 37.9762C694.531 37.479 695.05 37.0955 695.713 36.8256C696.38 36.551 697.15 36.4137 698.021 36.4137C699.299 36.4137 700.305 36.686 701.039 37.2305C701.778 37.775 702.235 38.5112 702.41 39.4393ZM704.764 47.4648V36.5558H707.335V47.4648H704.764ZM706.057 35.0075C705.65 35.0075 705.299 34.8725 705.006 34.6026C704.712 34.328 704.566 33.9989 704.566 33.6154C704.566 33.2272 704.712 32.8981 705.006 32.6282C705.299 32.3536 705.65 32.2163 706.057 32.2163C706.469 32.2163 706.819 32.3536 707.108 32.6282C707.402 32.8981 707.548 33.2272 707.548 33.6154C707.548 33.9989 707.402 34.328 707.108 34.6026C706.819 34.8725 706.469 35.0075 706.057 35.0075ZM714.724 51.783C713.8 51.783 713.007 51.6576 712.344 51.4066C711.681 51.1604 711.149 50.829 710.746 50.4123C710.344 49.9956 710.064 49.534 709.908 49.0273L712.224 48.4663C712.328 48.6793 712.479 48.89 712.678 49.0984C712.877 49.3114 713.144 49.4866 713.481 49.6239C713.822 49.766 714.25 49.837 714.766 49.837C715.495 49.837 716.099 49.6594 716.577 49.3043C717.055 48.954 717.295 48.3763 717.295 47.5714V45.5046H717.167C717.034 45.7698 716.84 46.042 716.584 46.3214C716.333 46.6007 716 46.8351 715.583 47.0245C715.171 47.2139 714.653 47.3086 714.028 47.3086C713.189 47.3086 712.43 47.1121 711.748 46.7191C711.071 46.3214 710.531 45.7295 710.128 44.9435C709.731 44.1528 709.532 43.1632 709.532 41.9748C709.532 40.7769 709.731 39.766 710.128 38.9421C710.531 38.1135 711.073 37.4862 711.755 37.06C712.437 36.6291 713.197 36.4137 714.035 36.4137C714.674 36.4137 715.199 36.5226 715.611 36.7404C716.028 36.9535 716.359 37.2115 716.606 37.5146C716.852 37.8129 717.039 38.0946 717.167 38.3597H717.309V36.5558H719.844V47.6424C719.844 48.5752 719.622 49.3469 719.177 49.9577C718.732 50.5685 718.123 51.0254 717.351 51.3285C716.58 51.6315 715.704 51.783 714.724 51.783ZM714.745 45.2915C715.289 45.2915 715.753 45.159 716.137 44.8938C716.52 44.6287 716.812 44.2475 717.01 43.7504C717.209 43.2532 717.309 42.6566 717.309 41.9606C717.309 41.274 717.209 40.6727 717.01 40.1566C716.816 39.6405 716.528 39.2404 716.144 38.9563C715.765 38.6675 715.299 38.5231 714.745 38.5231C714.172 38.5231 713.694 38.6722 713.31 38.9705C712.927 39.2688 712.638 39.6784 712.444 40.1992C712.25 40.7153 712.153 41.3024 712.153 41.9606C712.153 42.6282 712.25 43.2129 712.444 43.7148C712.643 44.212 712.934 44.6003 713.317 44.8796C713.706 45.1542 714.181 45.2915 714.745 45.2915ZM725.05 41.0728V47.4648H722.479V36.5558H724.937V38.4094H725.064C725.315 37.7987 725.715 37.3133 726.265 36.9535C726.819 36.5936 727.503 36.4137 728.317 36.4137C729.07 36.4137 729.726 36.5747 730.285 36.8967C730.848 37.2186 731.284 37.685 731.591 38.2958C731.904 38.9066 732.058 39.6476 732.053 40.5188V47.4648H729.482V40.9165C729.482 40.1874 729.293 39.6168 728.914 39.2049C728.54 38.793 728.021 38.587 727.358 38.587C726.909 38.587 726.509 38.6864 726.158 38.8853C725.813 39.0794 725.54 39.3612 725.341 39.7305C725.147 40.0998 725.05 40.5472 725.05 41.0728Z" fill="white"/>
</g>
<path d="M290.254 43.7071C290.645 43.3166 290.645 42.6834 290.254 42.2929L283.89 35.9289C283.499 35.5384 282.866 35.5384 282.476 35.9289C282.085 36.3195 282.085 36.9526 282.476 37.3431L288.133 43L282.476 48.6569C282.085 49.0474 282.085 49.6805 282.476 50.0711C282.866 50.4616 283.499 50.4616 283.89 50.0711L290.254 43.7071ZM228.547 43V44H231.089V43V42H228.547V43ZM236.172 43V44H241.255V43V42H236.172V43ZM246.339 43V44H251.422V43V42H246.339V43ZM256.505 43V44H261.589V43V42H256.505V43ZM266.672 43V44H271.755V43V42H266.672V43ZM276.839 43V44H281.922V43V42H276.839V43ZM287.005 43V44H289.547V43V42H287.005V43ZM290.254 43.7071C290.645 43.3166 290.645 42.6834 290.254 42.2929L283.89 35.9289C283.499 35.5384 282.866 35.5384 282.476 35.9289C282.085 36.3195 282.085 36.9526 282.476 37.3431L288.133 43L282.476 48.6569C282.085 49.0474 282.085 49.6805 282.476 50.0711C282.866 50.4616 283.499 50.4616 283.89 50.0711L290.254 43.7071ZM228.547 43V44H231.089V43V42H228.547V43ZM236.172 43V44H241.255V43V42H236.172V43ZM246.339 43V44H251.422V43V42H246.339V43ZM256.505 43V44H261.589V43V42H256.505V43ZM266.672 43V44H271.755V43V42H266.672V43ZM276.839 43V44H281.922V43V42H276.839V43ZM287.005 43V44H289.547V43V42H287.005V43Z" fill="black"/>
<path d="M582.254 43.7071C582.645 43.3166 582.645 42.6834 582.254 42.2929L575.89 35.9289C575.499 35.5384 574.866 35.5384 574.476 35.9289C574.085 36.3195 574.085 36.9526 574.476 37.3431L580.133 43L574.476 48.6569C574.085 49.0474 574.085 49.6805 574.476 50.0711C574.866 50.4616 575.499 50.4616 575.89 50.0711L582.254 43.7071ZM520.547 43V44H523.089V43V42H520.547V43ZM528.172 43V44H533.255V43V42H528.172V43ZM538.339 43V44H543.422V43V42H538.339V43ZM548.505 43V44H553.589V43V42H548.505V43ZM558.672 43V44H563.755V43V42H558.672V43ZM568.839 43V44H573.922V43V42H568.839V43ZM579.005 43V44H581.547V43V42H579.005V43ZM582.254 43.7071C582.645 43.3166 582.645 42.6834 582.254 42.2929L575.89 35.9289C575.499 35.5384 574.866 35.5384 574.476 35.9289C574.085 36.3195 574.085 36.9526 574.476 37.3431L580.133 43L574.476 48.6569C574.085 49.0474 574.085 49.6805 574.476 50.0711C574.866 50.4616 575.499 50.4616 575.89 50.0711L582.254 43.7071ZM520.547 43V44H523.089V43V42H520.547V43ZM528.172 43V44H533.255V43V42H528.172V43ZM538.339 43V44H543.422V43V42H538.339V43ZM548.505 43V44H553.589V43V42H548.505V43ZM558.672 43V44H563.755V43V42H558.672V43ZM568.839 43V44H573.922V43V42H568.839V43ZM579.005 43V44H581.547V43V42H579.005V43Z" fill="black"/>
<path d="M501.555 220.13C501.627 220.678 502.13 221.063 502.677 220.991L511.6 219.817C512.148 219.744 512.533 219.242 512.461 218.695C512.389 218.147 511.887 217.762 511.339 217.834L503.408 218.878L502.364 210.946C502.292 210.398 501.79 210.013 501.242 210.085C500.694 210.157 500.309 210.659 500.381 211.207L501.555 220.13ZM602.203 90.1348L601.41 89.526L599.853 91.5551L600.646 92.1639L601.439 92.7727L602.996 90.7436L602.203 90.1348ZM597.532 96.2222L596.738 95.6134L593.624 99.6717L594.417 100.28L595.211 100.889L598.325 96.831L597.532 96.2222ZM591.303 104.339L590.51 103.73L587.396 107.788L588.189 108.397L588.982 109.006L592.097 104.948L591.303 104.339ZM585.075 112.455L584.281 111.846L581.167 115.905L581.96 116.514L582.754 117.122L585.868 113.064L585.075 112.455ZM578.846 120.572L578.053 119.963L574.939 124.021L575.732 124.63L576.525 125.239L579.64 121.181L578.846 120.572ZM572.618 128.688L571.824 128.08L568.71 132.138L569.503 132.747L570.297 133.355L573.411 129.297L572.618 128.688ZM566.389 136.805L565.596 136.196L562.482 140.254L563.275 140.863L564.068 141.472L567.182 137.414L566.389 136.805ZM560.161 144.921L559.367 144.313L556.253 148.371L557.046 148.98L557.84 149.589L560.954 145.53L560.161 144.921ZM553.932 153.038L553.139 152.429L550.025 156.487L550.818 157.096L551.611 157.705L554.725 153.647L553.932 153.038ZM547.704 161.155L546.91 160.546L543.796 164.604L544.589 165.213L545.383 165.822L548.497 161.763L547.704 161.155ZM541.475 169.271L540.682 168.662L537.567 172.721L538.361 173.329L539.154 173.938L542.268 169.88L541.475 169.271ZM535.247 177.388L534.453 176.779L531.339 180.837L532.132 181.446L532.926 182.055L536.04 177.996L535.247 177.388ZM529.018 185.504L528.225 184.895L525.11 188.954L525.904 189.562L526.697 190.171L529.811 186.113L529.018 185.504ZM522.79 193.621L521.996 193.012L518.882 197.07L519.675 197.679L520.469 198.288L523.583 194.23L522.79 193.621ZM516.561 201.737L515.768 201.129L512.653 205.187L513.447 205.796L514.24 206.404L517.354 202.346L516.561 201.737ZM510.333 209.854L509.539 209.245L506.425 213.303L507.218 213.912L508.012 214.521L511.126 210.463L510.333 209.854ZM504.104 217.97L503.311 217.362L501.754 219.391L502.547 220L503.34 220.608L504.897 218.579L504.104 217.97ZM501.555 220.13C501.627 220.678 502.13 221.063 502.677 220.991L511.6 219.817C512.148 219.744 512.533 219.242 512.461 218.695C512.389 218.147 511.887 217.762 511.339 217.834L503.408 218.878L502.364 210.946C502.292 210.398 501.79 210.013 501.242 210.085C500.694 210.157 500.309 210.659 500.381 211.207L501.555 220.13ZM602.203 90.1348L601.41 89.526L599.853 91.5551L600.646 92.1639L601.439 92.7727L602.996 90.7436L602.203 90.1348ZM597.532 96.2222L596.738 95.6134L593.624 99.6717L594.417 100.28L595.211 100.889L598.325 96.831L597.532 96.2222ZM591.303 104.339L590.51 103.73L587.396 107.788L588.189 108.397L588.982 109.006L592.097 104.948L591.303 104.339ZM585.075 112.455L584.281 111.846L581.167 115.905L581.96 116.514L582.754 117.122L585.868 113.064L585.075 112.455ZM578.846 120.572L578.053 119.963L574.939 124.021L575.732 124.63L576.525 125.239L579.64 121.181L578.846 120.572ZM572.618 128.688L571.824 128.08L568.71 132.138L569.503 132.747L570.297 133.355L573.411 129.297L572.618 128.688ZM566.389 136.805L565.596 136.196L562.482 140.254L563.275 140.863L564.068 141.472L567.182 137.414L566.389 136.805ZM560.161 144.921L559.367 144.313L556.253 148.371L557.046 148.98L557.84 149.589L560.954 145.53L560.161 144.921ZM553.932 153.038L553.139 152.429L550.025 156.487L550.818 157.096L551.611 157.705L554.725 153.647L553.932 153.038ZM547.704 161.155L546.91 160.546L543.796 164.604L544.589 165.213L545.383 165.822L548.497 161.763L547.704 161.155ZM541.475 169.271L540.682 168.662L537.567 172.721L538.361 173.329L539.154 173.938L542.268 169.88L541.475 169.271ZM535.247 177.388L534.453 176.779L531.339 180.837L532.132 181.446L532.926 182.055L536.04 177.996L535.247 177.388ZM529.018 185.504L528.225 184.895L525.11 188.954L525.904 189.562L526.697 190.171L529.811 186.113L529.018 185.504ZM522.79 193.621L521.996 193.012L518.882 197.07L519.675 197.679L520.469 198.288L523.583 194.23L522.79 193.621ZM516.561 201.737L515.768 201.129L512.653 205.187L513.447 205.796L514.24 206.404L517.354 202.346L516.561 201.737ZM510.333 209.854L509.539 209.245L506.425 213.303L507.218 213.912L508.012 214.521L511.126 210.463L510.333 209.854ZM504.104 217.97L503.311 217.362L501.754 219.391L502.547 220L503.34 220.608L504.897 218.579L504.104 217.97Z" fill="black"/>
<path d="M200.216 87.9982C199.669 87.9246 199.166 88.3086 199.092 88.856L197.893 97.7757C197.819 98.323 198.203 98.8264 198.75 98.9C199.298 98.9736 199.801 98.5896 199.875 98.0422L200.941 90.1136L208.87 91.1797C209.417 91.2533 209.92 90.8693 209.994 90.3219C210.068 89.7746 209.684 89.2712 209.136 89.1976L200.216 87.9982ZM299.375 219.133L300.17 218.526L298.619 216.493L297.824 217.099L297.029 217.706L298.58 219.739L299.375 219.133ZM294.721 213.032L295.516 212.426L292.413 208.359L291.618 208.965L290.823 209.572L293.926 213.639L294.721 213.032ZM288.515 204.898L289.31 204.292L286.207 200.225L285.412 200.831L284.617 201.438L287.72 205.505L288.515 204.898ZM282.309 196.764L283.104 196.158L280.001 192.091L279.206 192.697L278.411 193.304L281.514 197.371L282.309 196.764ZM276.103 188.63L276.899 188.024L273.796 183.957L273.001 184.563L272.206 185.17L275.308 189.237L276.103 188.63ZM269.898 180.496L270.693 179.89L267.59 175.823L266.795 176.429L266 177.036L269.103 181.103L269.898 180.496ZM263.692 172.362L264.487 171.756L261.384 167.689L260.589 168.295L259.794 168.902L262.897 172.969L263.692 172.362ZM257.486 164.228L258.281 163.622L255.178 159.555L254.383 160.161L253.588 160.768L256.691 164.835L257.486 164.228ZM251.281 156.095L252.076 155.488L248.973 151.421L248.178 152.028L247.383 152.634L250.485 156.701L251.281 156.095ZM245.075 147.961L245.87 147.354L242.767 143.287L241.972 143.894L241.177 144.5L244.28 148.567L245.075 147.961ZM238.869 139.827L239.664 139.22L236.561 135.153L235.766 135.76L234.971 136.366L238.074 140.433L238.869 139.827ZM232.663 131.693L233.458 131.086L230.355 127.019L229.56 127.626L228.765 128.232L231.868 132.299L232.663 131.693ZM226.458 123.559L227.253 122.952L224.15 118.885L223.355 119.492L222.56 120.098L225.663 124.165L226.458 123.559ZM220.252 115.425L221.047 114.818L217.944 110.751L217.149 111.358L216.354 111.964L219.457 116.031L220.252 115.425ZM214.046 107.291L214.841 106.684L211.738 102.617L210.943 103.224L210.148 103.83L213.251 107.897L214.046 107.291ZM207.84 99.1567L208.635 98.5501L205.533 94.4832L204.737 95.0897L203.942 95.6963L207.045 99.7633L207.84 99.1567ZM201.635 91.0227L202.43 90.4162L200.878 88.3827L200.083 88.9892L199.288 89.5958L200.84 91.6293L201.635 91.0227ZM200.216 87.9982C199.669 87.9246 199.166 88.3086 199.092 88.856L197.893 97.7757C197.819 98.323 198.203 98.8264 198.75 98.9C199.298 98.9736 199.801 98.5896 199.875 98.0422L200.941 90.1136L208.87 91.1797C209.417 91.2533 209.92 90.8693 209.994 90.3219C210.068 89.7746 209.684 89.2712 209.136 89.1976L200.216 87.9982ZM299.375 219.133L300.17 218.526L298.619 216.493L297.824 217.099L297.029 217.706L298.58 219.739L299.375 219.133ZM294.721 213.032L295.516 212.426L292.413 208.359L291.618 208.965L290.823 209.572L293.926 213.639L294.721 213.032ZM288.515 204.898L289.31 204.292L286.207 200.225L285.412 200.831L284.617 201.438L287.72 205.505L288.515 204.898ZM282.309 196.764L283.104 196.158L280.001 192.091L279.206 192.697L278.411 193.304L281.514 197.371L282.309 196.764ZM276.103 188.63L276.899 188.024L273.796 183.957L273.001 184.563L272.206 185.17L275.308 189.237L276.103 188.63ZM269.898 180.496L270.693 179.89L267.59 175.823L266.795 176.429L266 177.036L269.103 181.103L269.898 180.496ZM263.692 172.362L264.487 171.756L261.384 167.689L260.589 168.295L259.794 168.902L262.897 172.969L263.692 172.362ZM257.486 164.228L258.281 163.622L255.178 159.555L254.383 160.161L253.588 160.768L256.691 164.835L257.486 164.228ZM251.281 156.095L252.076 155.488L248.973 151.421L248.178 152.028L247.383 152.634L250.485 156.701L251.281 156.095ZM245.075 147.961L245.87 147.354L242.767 143.287L241.972 143.894L241.177 144.5L244.28 148.567L245.075 147.961ZM238.869 139.827L239.664 139.22L236.561 135.153L235.766 135.76L234.971 136.366L238.074 140.433L238.869 139.827ZM232.663 131.693L233.458 131.086L230.355 127.019L229.56 127.626L228.765 128.232L231.868 132.299L232.663 131.693ZM226.458 123.559L227.253 122.952L224.15 118.885L223.355 119.492L222.56 120.098L225.663 124.165L226.458 123.559ZM220.252 115.425L221.047 114.818L217.944 110.751L217.149 111.358L216.354 111.964L219.457 116.031L220.252 115.425ZM214.046 107.291L214.841 106.684L211.738 102.617L210.943 103.224L210.148 103.83L213.251 107.897L214.046 107.291ZM207.84 99.1567L208.635 98.5501L205.533 94.4832L204.737 95.0897L203.942 95.6963L207.045 99.7633L207.84 99.1567ZM201.635 91.0227L202.43 90.4162L200.878 88.3827L200.083 88.9892L199.288 89.5958L200.84 91.6293L201.635 91.0227Z" fill="black"/>
<defs>
<filter id="filter0_d_715_1059" x="0" y="0" width="224.426" height="96.9297" filterUnits="userSpaceOnUse" color-interpolation-filters="sRGB">
<feFlood flood-opacity="0" result="BackgroundImageFix"/>
<feColorMatrix in="SourceAlpha" type="matrix" values="0 0 0 0 0 0 0 0 0 0 0 0 0 0 0 0 0 0 127 0" result="hardAlpha"/>
<feOffset dy="8"/>
<feGaussianBlur stdDeviation="8"/>
<feComposite in2="hardAlpha" operator="out"/>
<feColorMatrix type="matrix" values="0 0 0 0 0 0 0 0 0 0.360513 0 0 0 0 0.584615 0 0 0 0.25 0"/>
<feBlend mode="normal" in2="BackgroundImageFix" result="effect1_dropShadow_715_1059"/>
<feBlend mode="normal" in="SourceGraphic" in2="effect1_dropShadow_715_1059" result="shape"/>
</filter>
<filter id="filter1_d_715_1059" x="293.953" y="0" width="224.426" height="96.9297" filterUnits="userSpaceOnUse" color-interpolation-filters="sRGB">
<feFlood flood-opacity="0" result="BackgroundImageFix"/>
<feColorMatrix in="SourceAlpha" type="matrix" values="0 0 0 0 0 0 0 0 0 0 0 0 0 0 0 0 0 0 127 0" result="hardAlpha"/>
<feOffset dy="8"/>
<feGaussianBlur stdDeviation="8"/>
<feComposite in2="hardAlpha" operator="out"/>
<feColorMatrix type="matrix" values="0 0 0 0 0 0 0 0 0 0.360513 0 0 0 0 0.584615 0 0 0 0.25 0"/>
<feBlend mode="normal" in2="BackgroundImageFix" result="effect1_dropShadow_715_1059"/>
<feBlend mode="normal" in="SourceGraphic" in2="effect1_dropShadow_715_1059" result="shape"/>
</filter>
<filter id="filter2_d_715_1059" x="587.906" y="0" width="224.426" height="96.9297" filterUnits="userSpaceOnUse" color-interpolation-filters="sRGB">
<feFlood flood-opacity="0" result="BackgroundImageFix"/>
<feColorMatrix in="SourceAlpha" type="matrix" values="0 0 0 0 0 0 0 0 0 0 0 0 0 0 0 0 0 0 127 0" result="hardAlpha"/>
<feOffset dy="8"/>
<feGaussianBlur stdDeviation="8"/>
<feComposite in2="hardAlpha" operator="out"/>
<feColorMatrix type="matrix" values="0 0 0 0 0 0 0 0 0 0.360513 0 0 0 0 0.584615 0 0 0 0.25 0"/>
<feBlend mode="normal" in2="BackgroundImageFix" result="effect1_dropShadow_715_1059"/>
<feBlend mode="normal" in="SourceGraphic" in2="effect1_dropShadow_715_1059" result="shape"/>
</filter>
</defs>
</svg>
