<svg width="470" height="415" viewBox="0 0 470 415" fill="none" xmlns="http://www.w3.org/2000/svg">
<rect x="0.589844" y="214.262" width="354.159" height="56.6654" rx="28.3327" fill="#080990"/>
<path d="M133.831 242.983C133.831 241.686 134.121 240.527 134.7 239.507C135.292 238.475 136.091 237.675 137.099 237.108C138.119 236.529 139.258 236.24 140.518 236.24C141.991 236.24 143.282 236.617 144.39 237.373C145.498 238.128 146.272 239.174 146.713 240.508H143.672C143.37 239.879 142.942 239.407 142.387 239.092C141.846 238.777 141.216 238.62 140.499 238.62C139.731 238.62 139.044 238.802 138.44 239.167C137.848 239.52 137.382 240.024 137.042 240.678C136.715 241.333 136.551 242.101 136.551 242.983C136.551 243.852 136.715 244.62 137.042 245.287C137.382 245.942 137.848 246.452 138.44 246.817C139.044 247.17 139.731 247.346 140.499 247.346C141.216 247.346 141.846 247.189 142.387 246.874C142.942 246.546 143.37 246.068 143.672 245.438H146.713C146.272 246.786 145.498 247.837 144.39 248.593C143.294 249.336 142.003 249.707 140.518 249.707C139.258 249.707 138.119 249.424 137.099 248.857C136.091 248.278 135.292 247.478 134.7 246.458C134.121 245.438 133.831 244.28 133.831 242.983ZM153.618 249.764C152.611 249.764 151.704 249.543 150.898 249.103C150.092 248.649 149.456 248.013 148.99 247.195C148.537 246.376 148.311 245.432 148.311 244.362C148.311 243.291 148.543 242.347 149.009 241.528C149.488 240.71 150.136 240.08 150.955 239.64C151.773 239.186 152.686 238.96 153.694 238.96C154.701 238.96 155.614 239.186 156.433 239.64C157.251 240.08 157.893 240.71 158.359 241.528C158.838 242.347 159.077 243.291 159.077 244.362C159.077 245.432 158.831 246.376 158.34 247.195C157.862 248.013 157.207 248.649 156.376 249.103C155.557 249.543 154.638 249.764 153.618 249.764ZM153.618 247.459C154.097 247.459 154.544 247.346 154.959 247.119C155.387 246.88 155.727 246.528 155.979 246.062C156.231 245.596 156.357 245.029 156.357 244.362C156.357 243.367 156.093 242.605 155.564 242.076C155.047 241.535 154.411 241.264 153.656 241.264C152.9 241.264 152.264 241.535 151.748 242.076C151.245 242.605 150.993 243.367 150.993 244.362C150.993 245.356 151.238 246.125 151.729 246.666C152.233 247.195 152.863 247.459 153.618 247.459ZM166.815 238.978C168.062 238.978 169.069 239.375 169.838 240.168C170.606 240.949 170.99 242.045 170.99 243.455V249.594H168.345V243.814C168.345 242.983 168.138 242.347 167.722 241.906C167.307 241.453 166.74 241.226 166.022 241.226C165.292 241.226 164.713 241.453 164.284 241.906C163.869 242.347 163.661 242.983 163.661 243.814V249.594H161.017V239.13H163.661V240.433C164.014 239.98 164.461 239.627 165.002 239.375C165.556 239.111 166.161 238.978 166.815 238.978ZM176.583 241.302V246.364C176.583 246.716 176.665 246.975 176.829 247.138C177.005 247.289 177.295 247.365 177.698 247.365H178.925V249.594H177.263C175.034 249.594 173.92 248.511 173.92 246.345V241.302H172.673V239.13H173.92V236.542H176.583V239.13H178.925V241.302H176.583ZM182.169 237.883C181.703 237.883 181.312 237.738 180.997 237.448C180.695 237.146 180.544 236.775 180.544 236.334C180.544 235.893 180.695 235.528 180.997 235.239C181.312 234.936 181.703 234.785 182.169 234.785C182.634 234.785 183.019 234.936 183.321 235.239C183.636 235.528 183.793 235.893 183.793 236.334C183.793 236.775 183.636 237.146 183.321 237.448C183.019 237.738 182.634 237.883 182.169 237.883ZM183.472 239.13V249.594H180.827V239.13H183.472ZM191.883 238.978C193.13 238.978 194.137 239.375 194.905 240.168C195.674 240.949 196.058 242.045 196.058 243.455V249.594H193.413V243.814C193.413 242.983 193.205 242.347 192.79 241.906C192.374 241.453 191.808 241.226 191.09 241.226C190.36 241.226 189.78 241.453 189.352 241.906C188.937 242.347 188.729 242.983 188.729 243.814V249.594H186.084V239.13H188.729V240.433C189.081 239.98 189.528 239.627 190.07 239.375C190.624 239.111 191.228 238.978 191.883 238.978ZM208.451 239.13V249.594H205.788V248.272C205.448 248.725 205.001 249.084 204.447 249.348C203.905 249.6 203.313 249.726 202.671 249.726C201.853 249.726 201.129 249.556 200.499 249.216C199.869 248.863 199.372 248.353 199.007 247.686C198.654 247.006 198.478 246.2 198.478 245.268V239.13H201.122V244.891C201.122 245.722 201.33 246.364 201.746 246.817C202.161 247.258 202.728 247.478 203.446 247.478C204.176 247.478 204.749 247.258 205.164 246.817C205.58 246.364 205.788 245.722 205.788 244.891V239.13H208.451ZM220.788 244.135C220.788 244.513 220.762 244.853 220.712 245.155H213.062C213.125 245.91 213.39 246.502 213.856 246.93C214.321 247.359 214.894 247.573 215.574 247.573C216.557 247.573 217.255 247.151 217.671 246.307H220.523C220.221 247.315 219.642 248.146 218.785 248.8C217.929 249.443 216.878 249.764 215.631 249.764C214.624 249.764 213.717 249.543 212.911 249.103C212.118 248.649 211.495 248.013 211.041 247.195C210.6 246.376 210.38 245.432 210.38 244.362C210.38 243.279 210.6 242.328 211.041 241.509C211.482 240.691 212.099 240.061 212.892 239.621C213.686 239.18 214.599 238.96 215.631 238.96C216.626 238.96 217.514 239.174 218.294 239.602C219.088 240.03 219.698 240.641 220.127 241.434C220.567 242.215 220.788 243.115 220.788 244.135ZM218.049 243.379C218.036 242.699 217.791 242.158 217.312 241.755C216.834 241.339 216.248 241.132 215.556 241.132C214.901 241.132 214.347 241.333 213.893 241.736C213.453 242.127 213.182 242.674 213.081 243.379H218.049Z" fill="white"/>
<path d="M0.589844 28.9225C0.589844 13.2748 13.2748 0.589844 28.9225 0.589844H398.428C414.076 0.589844 426.761 13.2748 426.761 28.9225C426.761 44.5703 414.076 57.2553 398.428 57.2553H28.9226C13.2748 57.2553 0.589844 44.5703 0.589844 28.9225Z" fill="white"/>
<path d="M28.9225 0.589844V1.18011H398.428V0.589844V-0.000420928H28.9225V0.589844ZM398.428 57.2553V56.665H28.9226V57.2553V57.8455H398.428V57.2553ZM28.9226 57.2553V56.665C13.6008 56.665 1.18011 44.2443 1.18011 28.9225H0.589844H-0.000420928C-0.000420928 44.8963 12.9488 57.8455 28.9226 57.8455V57.2553ZM426.761 28.9225H426.171C426.171 44.2443 413.75 56.665 398.428 56.665V57.2553V57.8455C414.402 57.8455 427.351 44.8963 427.351 28.9225H426.761ZM398.428 0.589844V1.18011C413.75 1.18011 426.171 13.6008 426.171 28.9225H426.761H427.351C427.351 12.9488 414.402 -0.000420928 398.428 -0.000420928V0.589844ZM28.9225 0.589844V-0.000420928C12.9488 -0.000420928 -0.000420928 12.9488 -0.000420928 28.9225H0.589844H1.18011C1.18011 13.6008 13.6008 1.18011 28.9225 1.18011V0.589844Z" fill="#D9D9D9"/>
<path d="M23.9574 34.5706C23.2633 34.5706 22.6408 34.4549 22.0898 34.2235C21.5389 33.9811 21.1037 33.6506 20.7842 33.2319C20.4647 32.8022 20.2884 32.3119 20.2553 31.761H21.8089C21.853 32.2127 22.0623 32.5818 22.4369 32.8683C22.8226 33.1548 23.3239 33.298 23.9409 33.298C24.5139 33.298 24.9656 33.1713 25.2962 32.9179C25.6267 32.6645 25.792 32.3449 25.792 31.9593C25.792 31.5626 25.6157 31.2706 25.2631 31.0833C24.9105 30.885 24.3651 30.6922 23.6269 30.5049C22.9548 30.3286 22.4039 30.1523 21.9742 29.976C21.5555 29.7887 21.1919 29.5187 20.8833 29.1662C20.5859 28.8026 20.4371 28.3288 20.4371 27.7448C20.4371 27.282 20.5748 26.8578 20.8503 26.4722C21.1257 26.0866 21.5169 25.7835 22.0237 25.5632C22.5306 25.3318 23.109 25.2161 23.7591 25.2161C24.7618 25.2161 25.5716 25.4695 26.1886 25.9764C26.8057 26.4832 27.1362 27.1774 27.1803 28.0588H25.6763C25.6432 27.585 25.4504 27.2049 25.0978 26.9184C24.7563 26.632 24.2935 26.4887 23.7095 26.4887C23.1696 26.4887 22.7399 26.6044 22.4204 26.8358C22.1009 27.0672 21.9411 27.3702 21.9411 27.7448C21.9411 28.0423 22.0348 28.2902 22.2221 28.4885C22.4204 28.6758 22.6628 28.8301 22.9493 28.9513C23.2468 29.0615 23.6544 29.1882 24.1723 29.3314C24.8224 29.5077 25.3513 29.684 25.7589 29.8603C26.1666 30.0256 26.5137 30.279 26.8002 30.6206C27.0977 30.9621 27.2519 31.4084 27.2629 31.9593C27.2629 32.4551 27.1252 32.9014 26.8497 33.298C26.5743 33.6947 26.1831 34.0087 25.6763 34.2401C25.1805 34.4604 24.6075 34.5706 23.9574 34.5706ZM37.6498 29.5463C37.6498 29.8328 37.6332 30.1358 37.6002 30.4553H30.3612C30.4163 31.3478 30.7193 32.0474 31.2702 32.5543C31.8321 33.0501 32.5097 33.298 33.303 33.298C33.9531 33.298 34.493 33.1493 34.9227 32.8518C35.3635 32.5433 35.672 32.1356 35.8483 31.6287H37.468C37.2256 32.4992 36.7408 33.2099 36.0135 33.7608C35.2863 34.3007 34.3828 34.5706 33.303 34.5706C32.4436 34.5706 31.6723 34.3778 30.9892 33.9922C30.3171 33.6065 29.7882 33.0611 29.4026 32.3559C29.0169 31.6398 28.8241 30.8134 28.8241 29.8768C28.8241 28.9403 29.0114 28.1194 29.3861 27.4143C29.7607 26.7091 30.284 26.1692 30.9562 25.7946C31.6393 25.4089 32.4216 25.2161 33.303 25.2161C34.1625 25.2161 34.9227 25.4034 35.5838 25.778C36.2449 26.1527 36.7518 26.6705 37.1044 27.3316C37.468 27.9817 37.6498 28.7199 37.6498 29.5463ZM36.0962 29.2323C36.0962 28.6593 35.9695 28.169 35.7161 27.7613C35.4626 27.3426 35.1156 27.0286 34.6748 26.8193C34.2451 26.5989 33.7658 26.4887 33.2369 26.4887C32.4767 26.4887 31.8266 26.7311 31.2867 27.2159C30.7578 27.7007 30.4548 28.3728 30.3777 29.2323H36.0962ZM39.0731 29.8603C39.0731 28.9348 39.2604 28.1249 39.635 27.4308C40.0096 26.7256 40.522 26.1802 41.172 25.7946C41.8331 25.4089 42.5658 25.2161 43.3702 25.2161C44.1635 25.2161 44.8521 25.3869 45.4361 25.7285C46.0201 26.07 46.4553 26.4997 46.7418 27.0176V25.3649H48.2623V34.4219H46.7418V32.7361C46.4443 33.265 45.998 33.7057 45.4031 34.0583C44.8191 34.3998 44.1359 34.5706 43.3537 34.5706C42.5493 34.5706 41.8221 34.3723 41.172 33.9756C40.522 33.579 40.0096 33.0226 39.635 32.3064C39.2604 31.5902 39.0731 30.7748 39.0731 29.8603ZM46.7418 29.8768C46.7418 29.1937 46.604 28.5987 46.3286 28.0919C46.0531 27.585 45.6785 27.1994 45.2047 26.935C44.742 26.6595 44.2296 26.5218 43.6677 26.5218C43.1057 26.5218 42.5934 26.654 42.1306 26.9184C41.6679 27.1829 41.2987 27.5685 41.0233 28.0753C40.7478 28.5822 40.6101 29.1772 40.6101 29.8603C40.6101 30.5545 40.7478 31.1605 41.0233 31.6783C41.2987 32.1852 41.6679 32.5763 42.1306 32.8518C42.5934 33.1162 43.1057 33.2484 43.6677 33.2484C44.2296 33.2484 44.742 33.1162 45.2047 32.8518C45.6785 32.5763 46.0531 32.1852 46.3286 31.6783C46.604 31.1605 46.7418 30.56 46.7418 29.8768ZM52.3079 26.8358C52.5723 26.3179 52.947 25.9158 53.4318 25.6293C53.9276 25.3428 54.5281 25.1996 55.2332 25.1996V26.7532H54.8366C53.1508 26.7532 52.3079 27.6677 52.3079 29.4967V34.4219H50.8039V25.3649H52.3079V26.8358ZM56.4075 29.8768C56.4075 28.9403 56.5948 28.1249 56.9694 27.4308C57.344 26.7256 57.8619 26.1802 58.523 25.7946C59.1951 25.4089 59.9609 25.2161 60.8203 25.2161C61.9331 25.2161 62.8476 25.4861 63.5638 26.026C64.291 26.5658 64.7703 27.3151 65.0017 28.2737H63.382C63.2278 27.7228 62.9248 27.2875 62.473 26.968C62.0323 26.6485 61.4814 26.4887 60.8203 26.4887C59.9609 26.4887 59.2667 26.7862 58.7378 27.3812C58.209 27.9652 57.9445 28.797 57.9445 29.8768C57.9445 30.9676 58.209 31.8105 58.7378 32.4055C59.2667 33.0005 59.9609 33.298 60.8203 33.298C61.4814 33.298 62.0323 33.1438 62.473 32.8352C62.9138 32.5267 63.2168 32.086 63.382 31.5131H65.0017C64.7593 32.4386 64.2745 33.1823 63.5473 33.7443C62.8201 34.2952 61.9111 34.5706 60.8203 34.5706C59.9609 34.5706 59.1951 34.3778 58.523 33.9922C57.8619 33.6065 57.344 33.0611 56.9694 32.3559C56.5948 31.6508 56.4075 30.8244 56.4075 29.8768ZM71.504 25.1996C72.1871 25.1996 72.8041 25.3483 73.355 25.6458C73.9059 25.9323 74.3357 26.3675 74.6442 26.9515C74.9637 27.5355 75.1235 28.2461 75.1235 29.0835V34.4219H73.636V29.2984C73.636 28.3949 73.4101 27.7062 72.9584 27.2325C72.5066 26.7476 71.8896 26.5052 71.1073 26.5052C70.314 26.5052 69.6804 26.7532 69.2067 27.249C68.7439 27.7448 68.5125 28.4665 68.5125 29.4141V34.4219H67.0085V22.1916H68.5125V26.654C68.81 26.1912 69.2177 25.8331 69.7355 25.5797C70.2644 25.3263 70.8539 25.1996 71.504 25.1996Z" fill="#B3B3B3"/>
<path d="M405.512 36.0023L402.089 32.5788M403.938 28.1321C403.938 31.6094 401.119 34.4283 397.642 34.4283C394.165 34.4283 391.346 31.6094 391.346 28.1321C391.346 24.6548 394.165 21.8359 397.642 21.8359C401.119 21.8359 403.938 24.6548 403.938 28.1321Z" stroke="#1E1E1E" stroke-width="1.88885" stroke-linecap="round" stroke-linejoin="round"/>
<rect x="0.589844" y="322.871" width="463.948" height="92.0813" fill="white"/>
<path d="M64.7724 388.384V398.258H63.4832V393.781H58.4542V398.258H57.165V388.384H58.4542V392.719H63.4832V388.384H64.7724ZM70.5954 398.385C69.8682 398.385 69.2071 398.22 68.6121 397.889C68.0266 397.559 67.5638 397.091 67.2238 396.487C66.8933 395.873 66.728 395.165 66.728 394.362C66.728 393.569 66.898 392.87 67.238 392.265C67.5874 391.652 68.0597 391.184 68.6546 390.863C69.2496 390.532 69.9154 390.367 70.6521 390.367C71.3887 390.367 72.0546 390.532 72.6496 390.863C73.2445 391.184 73.712 391.647 74.052 392.251C74.4015 392.856 74.5762 393.559 74.5762 394.362C74.5762 395.165 74.3967 395.873 74.0379 396.487C73.6884 397.091 73.2115 397.559 72.6071 397.889C72.0026 398.22 71.3321 398.385 70.5954 398.385ZM70.5954 397.252C71.0582 397.252 71.4926 397.143 71.8987 396.926C72.3048 396.709 72.6307 396.383 72.8762 395.949C73.1312 395.514 73.2587 394.985 73.2587 394.362C73.2587 393.739 73.1359 393.21 72.8904 392.775C72.6448 392.341 72.3237 392.02 71.9271 391.812C71.5304 391.595 71.1007 391.486 70.6379 391.486C70.1657 391.486 69.7313 391.595 69.3346 391.812C68.9474 392.02 68.6358 392.341 68.3996 392.775C68.1635 393.21 68.0455 393.739 68.0455 394.362C68.0455 394.995 68.1588 395.528 68.3855 395.963C68.6216 396.397 68.9332 396.723 69.3205 396.94C69.7077 397.148 70.1327 397.252 70.5954 397.252ZM85.8429 390.353C86.4473 390.353 86.9856 390.48 87.4579 390.735C87.9301 390.981 88.3031 391.354 88.577 391.855C88.8509 392.355 88.9878 392.964 88.9878 393.682V398.258H87.7128V393.866C87.7128 393.092 87.5192 392.502 87.132 392.095C86.7543 391.68 86.2395 391.472 85.5879 391.472C84.9174 391.472 84.3838 391.689 83.9871 392.124C83.5904 392.549 83.3921 393.167 83.3921 393.98V398.258H82.1171V393.866C82.1171 393.092 81.9235 392.502 81.5363 392.095C81.1585 391.68 80.6438 391.472 79.9922 391.472C79.3216 391.472 78.788 391.689 78.3914 392.124C77.9947 392.549 77.7964 393.167 77.7964 393.98V398.258H76.5073V390.495H77.7964V391.614C78.0514 391.208 78.3914 390.896 78.8164 390.679C79.2508 390.462 79.7277 390.353 80.2472 390.353C80.8988 390.353 81.4749 390.499 81.9755 390.792C82.476 391.085 82.8491 391.515 83.0946 392.081C83.3118 391.534 83.6707 391.109 84.1713 390.806C84.6718 390.504 85.229 390.353 85.8429 390.353ZM98.4218 394.079C98.4218 394.324 98.4076 394.584 98.3793 394.858H92.1744C92.2216 395.623 92.4813 396.223 92.9535 396.657C93.4352 397.082 94.016 397.295 94.696 397.295C95.2532 397.295 95.716 397.167 96.0843 396.912C96.4621 396.648 96.7265 396.298 96.8776 395.864H98.2659C98.0582 396.61 97.6426 397.219 97.0193 397.691C96.396 398.154 95.6215 398.385 94.696 398.385C93.9594 398.385 93.2983 398.22 92.7127 397.889C92.1366 397.559 91.6833 397.091 91.3528 396.487C91.0222 395.873 90.8569 395.165 90.8569 394.362C90.8569 393.559 91.0175 392.856 91.3386 392.251C91.6597 391.647 92.1083 391.184 92.6844 390.863C93.2699 390.532 93.9405 390.367 94.696 390.367C95.4327 390.367 96.0843 390.528 96.651 390.849C97.2176 391.17 97.6521 391.614 97.9543 392.18C98.2659 392.738 98.4218 393.37 98.4218 394.079ZM97.0901 393.81C97.0901 393.318 96.9815 392.898 96.7643 392.549C96.5471 392.19 96.2496 391.921 95.8718 391.741C95.5035 391.552 95.0927 391.458 94.6393 391.458C93.9877 391.458 93.4305 391.666 92.9677 392.081C92.5144 392.497 92.2547 393.073 92.1886 393.81H97.0901Z" fill="#101184"/>
<rect x="44.2695" y="340.578" width="67.2902" height="38.9575" rx="19.4787" fill="#E7E7F3"/>
<path d="M89.1284 367.73V359.782C89.1284 359.141 88.9981 358.508 88.7455 357.919C88.4928 357.33 88.123 356.799 87.6587 356.358L80.1304 349.208C79.6916 348.791 79.1095 348.559 78.5043 348.559C77.899 348.559 77.3169 348.791 76.8781 349.208L69.3487 356.358C68.8843 356.799 68.5145 357.33 68.2619 357.919C68.0092 358.508 67.8789 359.141 67.8789 359.782V367.73C67.8789 368.357 68.1277 368.957 68.5704 369.4C69.0132 369.843 69.6138 370.091 70.24 370.091H86.7674C87.3936 370.091 87.9941 369.843 88.4369 369.4C88.8797 368.957 89.1284 368.357 89.1284 367.73Z" stroke="#101184" stroke-width="2.36106" stroke-linecap="round" stroke-linejoin="round"/>
<path d="M212.585 398.357C211.933 398.357 211.348 398.244 210.828 398.017C210.318 397.781 209.917 397.46 209.624 397.054C209.331 396.638 209.18 396.161 209.171 395.623H210.545C210.592 396.086 210.781 396.478 211.112 396.799C211.452 397.11 211.943 397.266 212.585 397.266C213.199 397.266 213.68 397.115 214.03 396.813C214.389 396.501 214.568 396.105 214.568 395.623C214.568 395.245 214.464 394.938 214.256 394.702C214.049 394.466 213.789 394.287 213.477 394.164C213.166 394.041 212.745 393.909 212.217 393.767C211.565 393.597 211.041 393.427 210.644 393.257C210.257 393.087 209.922 392.823 209.638 392.464C209.364 392.095 209.227 391.604 209.227 390.99C209.227 390.452 209.364 389.975 209.638 389.56C209.912 389.144 210.295 388.823 210.786 388.596C211.286 388.37 211.858 388.256 212.5 388.256C213.425 388.256 214.181 388.488 214.766 388.951C215.361 389.413 215.697 390.027 215.772 390.792H214.356C214.308 390.414 214.11 390.084 213.761 389.801C213.411 389.508 212.948 389.361 212.372 389.361C211.834 389.361 211.395 389.503 211.055 389.786C210.715 390.06 210.545 390.447 210.545 390.948C210.545 391.307 210.644 391.6 210.842 391.826C211.05 392.053 211.3 392.228 211.593 392.35C211.895 392.464 212.316 392.596 212.854 392.747C213.506 392.927 214.03 393.106 214.426 393.285C214.823 393.455 215.163 393.725 215.446 394.093C215.73 394.452 215.871 394.943 215.871 395.566C215.871 396.048 215.744 396.501 215.489 396.926C215.234 397.351 214.856 397.696 214.356 397.96C213.855 398.225 213.265 398.357 212.585 398.357ZM219.577 391.557V396.133C219.577 396.511 219.657 396.78 219.818 396.94C219.978 397.091 220.257 397.167 220.654 397.167H221.603V398.258H220.441C219.723 398.258 219.185 398.093 218.826 397.762C218.467 397.431 218.288 396.888 218.288 396.133V391.557H217.282V390.495H218.288V388.54H219.577V390.495H221.603V391.557H219.577ZM222.919 394.348C222.919 393.555 223.08 392.86 223.401 392.265C223.722 391.661 224.161 391.194 224.718 390.863C225.285 390.532 225.913 390.367 226.603 390.367C227.283 390.367 227.873 390.514 228.373 390.806C228.874 391.099 229.247 391.467 229.492 391.911V390.495H230.796V398.258H229.492V396.813C229.237 397.266 228.855 397.644 228.345 397.946C227.844 398.239 227.259 398.385 226.588 398.385C225.899 398.385 225.276 398.215 224.718 397.875C224.161 397.535 223.722 397.058 223.401 396.445C223.08 395.831 222.919 395.132 222.919 394.348ZM229.492 394.362C229.492 393.777 229.374 393.267 229.138 392.832C228.902 392.398 228.581 392.067 228.175 391.84C227.778 391.604 227.339 391.486 226.858 391.486C226.376 391.486 225.937 391.6 225.54 391.826C225.143 392.053 224.827 392.383 224.591 392.818C224.355 393.252 224.237 393.762 224.237 394.348C224.237 394.943 224.355 395.462 224.591 395.906C224.827 396.341 225.143 396.676 225.54 396.912C225.937 397.139 226.376 397.252 226.858 397.252C227.339 397.252 227.778 397.139 228.175 396.912C228.581 396.676 228.902 396.341 229.138 395.906C229.374 395.462 229.492 394.948 229.492 394.362ZM234.5 391.755C234.726 391.312 235.047 390.967 235.463 390.721C235.888 390.476 236.403 390.353 237.007 390.353V391.685H236.667C235.222 391.685 234.5 392.468 234.5 394.036V398.258H233.21V390.495H234.5V391.755ZM245.814 394.079C245.814 394.324 245.8 394.584 245.772 394.858H239.567C239.614 395.623 239.874 396.223 240.346 396.657C240.828 397.082 241.409 397.295 242.089 397.295C242.646 397.295 243.109 397.167 243.477 396.912C243.855 396.648 244.119 396.298 244.27 395.864H245.659C245.451 396.61 245.035 397.219 244.412 397.691C243.789 398.154 243.014 398.385 242.089 398.385C241.352 398.385 240.691 398.22 240.105 397.889C239.529 397.559 239.076 397.091 238.745 396.487C238.415 395.873 238.25 395.165 238.25 394.362C238.25 393.559 238.41 392.856 238.731 392.251C239.052 391.647 239.501 391.184 240.077 390.863C240.663 390.532 241.333 390.367 242.089 390.367C242.825 390.367 243.477 390.528 244.044 390.849C244.61 391.17 245.045 391.614 245.347 392.18C245.659 392.738 245.814 393.37 245.814 394.079ZM244.483 393.81C244.483 393.318 244.374 392.898 244.157 392.549C243.94 392.19 243.642 391.921 243.264 391.741C242.896 391.552 242.485 391.458 242.032 391.458C241.38 391.458 240.823 391.666 240.36 392.081C239.907 392.497 239.647 393.073 239.581 393.81H244.483ZM247.27 394.348C247.27 393.555 247.431 392.86 247.752 392.265C248.073 391.661 248.512 391.194 249.07 390.863C249.636 390.532 250.269 390.367 250.968 390.367C251.572 390.367 252.134 390.509 252.654 390.792C253.173 391.066 253.57 391.43 253.844 391.883V387.775H255.147V398.258H253.844V396.799C253.589 397.261 253.211 397.644 252.71 397.946C252.21 398.239 251.624 398.385 250.954 398.385C250.264 398.385 249.636 398.215 249.07 397.875C248.512 397.535 248.073 397.058 247.752 396.445C247.431 395.831 247.27 395.132 247.27 394.348ZM253.844 394.362C253.844 393.777 253.726 393.267 253.489 392.832C253.253 392.398 252.932 392.067 252.526 391.84C252.13 391.604 251.69 391.486 251.209 391.486C250.727 391.486 250.288 391.6 249.891 391.826C249.495 392.053 249.178 392.383 248.942 392.818C248.706 393.252 248.588 393.762 248.588 394.348C248.588 394.943 248.706 395.462 248.942 395.906C249.178 396.341 249.495 396.676 249.891 396.912C250.288 397.139 250.727 397.252 251.209 397.252C251.69 397.252 252.13 397.139 252.526 396.912C252.932 396.676 253.253 396.341 253.489 395.906C253.726 395.462 253.844 394.948 253.844 394.362Z" fill="#959596"/>
<path d="M234.947 355.818C235.263 356.791 236.171 357.449 237.193 357.449H242.994L238.301 360.859C237.473 361.461 237.127 362.526 237.443 363.499L239.236 369.017L234.542 365.607C233.714 365.006 232.594 365.006 231.767 365.607L227.073 369.017L228.866 363.499C229.182 362.526 228.836 361.461 228.009 360.859L223.314 357.449H229.116C230.139 357.449 231.046 356.791 231.362 355.818L233.154 350.301L234.947 355.818Z" stroke="#959596" stroke-width="2.36106" stroke-linejoin="round"/>
<path d="M378.837 388.455V398.258H377.548V390.948L374.289 398.258H373.383L370.11 390.934V398.258H368.821V388.455H370.21L373.836 396.558L377.463 388.455H378.837ZM388.342 394.079C388.342 394.324 388.328 394.584 388.3 394.858H382.095C382.142 395.623 382.402 396.223 382.874 396.657C383.356 397.082 383.937 397.295 384.617 397.295C385.174 397.295 385.637 397.167 386.005 396.912C386.383 396.648 386.647 396.298 386.798 395.864H388.187C387.979 396.61 387.563 397.219 386.94 397.691C386.317 398.154 385.542 398.385 384.617 398.385C383.88 398.385 383.219 398.22 382.633 397.889C382.057 397.559 381.604 397.091 381.273 396.487C380.943 395.873 380.778 395.165 380.778 394.362C380.778 393.559 380.938 392.856 381.259 392.251C381.58 391.647 382.029 391.184 382.605 390.863C383.191 390.532 383.861 390.367 384.617 390.367C385.353 390.367 386.005 390.528 386.572 390.849C387.138 391.17 387.573 391.614 387.875 392.18C388.187 392.738 388.342 393.37 388.342 394.079ZM387.011 393.81C387.011 393.318 386.902 392.898 386.685 392.549C386.468 392.19 386.17 391.921 385.792 391.741C385.424 391.552 385.013 391.458 384.56 391.458C383.908 391.458 383.351 391.666 382.888 392.081C382.435 392.497 382.175 393.073 382.109 393.81H387.011ZM394.063 390.353C395.007 390.353 395.772 390.641 396.358 391.217C396.943 391.784 397.236 392.605 397.236 393.682V398.258H395.961V393.866C395.961 393.092 395.767 392.502 395.38 392.095C394.993 391.68 394.464 391.472 393.793 391.472C393.113 391.472 392.57 391.685 392.164 392.11C391.768 392.535 391.569 393.153 391.569 393.965V398.258H390.28V390.495H391.569V391.6C391.824 391.203 392.169 390.896 392.603 390.679C393.047 390.462 393.534 390.353 394.063 390.353ZM406.463 390.495V398.258H405.173V397.11C404.928 397.507 404.583 397.819 404.139 398.045C403.705 398.263 403.223 398.371 402.694 398.371C402.09 398.371 401.547 398.248 401.065 398.003C400.584 397.748 400.201 397.37 399.918 396.87C399.644 396.369 399.507 395.76 399.507 395.042V390.495H400.782V394.872C400.782 395.637 400.976 396.227 401.363 396.643C401.75 397.049 402.279 397.252 402.949 397.252C403.639 397.252 404.182 397.04 404.578 396.615C404.975 396.19 405.173 395.571 405.173 394.759V390.495H406.463Z" fill="#959596"/>
<path d="M379.535 366.551H396.063M379.535 360.649H396.063M379.535 354.746H396.063" stroke="#959596" stroke-width="2.36106" stroke-linecap="round" stroke-linejoin="round"/>
<rect x="0.589844" y="109.141" width="99.7769" height="37.8885" rx="18.9442" fill="#101184"/>
<path d="M27.4778 122.099V123.636H22.6022V127.025H26.4035V128.562H22.6022V133.586H20.7181V122.099H27.4778ZM33.41 133.735C32.5506 133.735 31.7738 133.542 31.0797 133.156C30.3855 132.76 29.8401 132.209 29.4435 131.503C29.0468 130.787 28.8485 129.961 28.8485 129.024C28.8485 128.099 29.0523 127.278 29.46 126.562C29.8677 125.846 30.4241 125.295 31.1293 124.909C31.8344 124.523 32.6222 124.331 33.4927 124.331C34.3631 124.331 35.1509 124.523 35.8561 124.909C36.5613 125.295 37.1177 125.846 37.5254 126.562C37.933 127.278 38.1369 128.099 38.1369 129.024C38.1369 129.95 37.9275 130.771 37.5088 131.487C37.0901 132.203 36.5172 132.76 35.79 133.156C35.0738 133.542 34.2805 133.735 33.41 133.735ZM33.41 132.098C33.8948 132.098 34.3466 131.983 34.7653 131.751C35.195 131.52 35.5421 131.173 35.8065 130.71C36.0709 130.247 36.2032 129.685 36.2032 129.024C36.2032 128.363 36.0765 127.807 35.823 127.355C35.5696 126.892 35.2336 126.545 34.8149 126.314C34.3962 126.082 33.9444 125.967 33.4596 125.967C32.9748 125.967 32.5231 126.082 32.1044 126.314C31.6967 126.545 31.3717 126.892 31.1293 127.355C30.8868 127.807 30.7656 128.363 30.7656 129.024C30.7656 130.005 31.0136 130.765 31.5094 131.305C32.0162 131.834 32.6498 132.098 33.41 132.098ZM42.1197 125.802C42.3951 125.339 42.7587 124.981 43.2105 124.727C43.6732 124.463 44.2186 124.331 44.8467 124.331V126.281H44.3674C43.6292 126.281 43.0672 126.468 42.6816 126.843C42.307 127.217 42.1197 127.867 42.1197 128.793V133.586H40.2355V124.479H42.1197V125.802ZM59.5416 124.479L53.9554 137.867H52.0051L53.8562 133.437L50.2698 124.479H52.3687L54.9305 131.421L57.5914 124.479H59.5416ZM65.1497 133.735C64.2902 133.735 63.5135 133.542 62.8193 133.156C62.1252 132.76 61.5798 132.209 61.1831 131.503C60.7864 130.787 60.5881 129.961 60.5881 129.024C60.5881 128.099 60.7919 127.278 61.1996 126.562C61.6073 125.846 62.1637 125.295 62.8689 124.909C63.5741 124.523 64.3619 124.331 65.2323 124.331C66.1028 124.331 66.8906 124.523 67.5957 124.909C68.3009 125.295 68.8573 125.846 69.265 126.562C69.6727 127.278 69.8765 128.099 69.8765 129.024C69.8765 129.95 69.6672 130.771 69.2485 131.487C68.8298 132.203 68.2568 132.76 67.5296 133.156C66.8134 133.542 66.0201 133.735 65.1497 133.735ZM65.1497 132.098C65.6345 132.098 66.0862 131.983 66.5049 131.751C66.9346 131.52 67.2817 131.173 67.5461 130.71C67.8106 130.247 67.9428 129.685 67.9428 129.024C67.9428 128.363 67.8161 127.807 67.5627 127.355C67.3093 126.892 66.9732 126.545 66.5545 126.314C66.1358 126.082 65.6841 125.967 65.1993 125.967C64.7144 125.967 64.2627 126.082 63.844 126.314C63.4363 126.545 63.1113 126.892 62.8689 127.355C62.6265 127.807 62.5053 128.363 62.5053 129.024C62.5053 130.005 62.7532 130.765 63.249 131.305C63.7559 131.834 64.3894 132.098 65.1497 132.098ZM80.2224 124.479V133.586H78.3382V132.512C78.0407 132.886 77.6496 133.184 77.1648 133.404C76.691 133.613 76.1842 133.718 75.6443 133.718C74.9281 133.718 74.2835 133.569 73.7106 133.272C73.1486 132.974 72.7024 132.534 72.3718 131.95C72.0523 131.366 71.8925 130.661 71.8925 129.834V124.479H73.7601V129.553C73.7601 130.369 73.964 130.997 74.3717 131.437C74.7793 131.867 75.3358 132.082 76.0409 132.082C76.7461 132.082 77.3025 131.867 77.7102 131.437C78.1289 130.997 78.3382 130.369 78.3382 129.553V124.479H80.2224Z" fill="white"/>
<rect x="114.533" y="109.141" width="98.7769" height="37.8885" rx="18.9442" fill="white"/>
<path d="M142.082 122.099V123.636H139.025V133.586H137.141V123.636H134.066V122.099H142.082ZM145.185 123.273C144.844 123.273 144.557 123.157 144.326 122.926C144.094 122.694 143.979 122.408 143.979 122.066C143.979 121.725 144.094 121.438 144.326 121.207C144.557 120.976 144.844 120.86 145.185 120.86C145.516 120.86 145.797 120.976 146.028 121.207C146.259 121.438 146.375 121.725 146.375 122.066C146.375 122.408 146.259 122.694 146.028 122.926C145.797 123.157 145.516 123.273 145.185 123.273ZM146.111 124.479V133.586H144.226V124.479H146.111ZM150.705 125.802C150.98 125.339 151.344 124.981 151.795 124.727C152.258 124.463 152.804 124.331 153.432 124.331V126.281H152.952C152.214 126.281 151.652 126.468 151.266 126.843C150.892 127.217 150.705 127.867 150.705 128.793V133.586H148.82V124.479H150.705V125.802ZM163.647 124.479V133.586H161.763V132.512C161.465 132.886 161.074 133.184 160.589 133.404C160.115 133.613 159.609 133.718 159.069 133.718C158.352 133.718 157.708 133.569 157.135 133.272C156.573 132.974 156.127 132.534 155.796 131.95C155.477 131.366 155.317 130.661 155.317 129.834V124.479H157.185V129.553C157.185 130.369 157.388 130.997 157.796 131.437C158.204 131.867 158.76 132.082 159.465 132.082C160.17 132.082 160.727 131.867 161.135 131.437C161.553 130.997 161.763 130.369 161.763 129.553V124.479H163.647ZM168.253 125.818C168.572 125.399 169.008 125.047 169.559 124.76C170.109 124.474 170.732 124.331 171.426 124.331C172.219 124.331 172.941 124.529 173.591 124.926C174.252 125.311 174.77 125.857 175.145 126.562C175.519 127.267 175.707 128.077 175.707 128.991C175.707 129.906 175.519 130.727 175.145 131.454C174.77 132.17 174.252 132.732 173.591 133.14C172.941 133.536 172.219 133.735 171.426 133.735C170.732 133.735 170.115 133.597 169.575 133.321C169.035 133.035 168.594 132.682 168.253 132.264V137.916H166.369V124.479H168.253V125.818ZM173.79 128.991C173.79 128.363 173.657 127.823 173.393 127.372C173.14 126.909 172.798 126.562 172.368 126.33C171.95 126.088 171.498 125.967 171.013 125.967C170.539 125.967 170.087 126.088 169.658 126.33C169.239 126.573 168.897 126.925 168.633 127.388C168.38 127.851 168.253 128.396 168.253 129.024C168.253 129.652 168.38 130.203 168.633 130.677C168.897 131.14 169.239 131.492 169.658 131.735C170.087 131.977 170.539 132.098 171.013 132.098C171.498 132.098 171.95 131.977 172.368 131.735C172.798 131.481 173.14 131.118 173.393 130.644C173.657 130.17 173.79 129.619 173.79 128.991ZM186.053 124.479V133.586H184.169V132.512C183.872 132.886 183.48 133.184 182.996 133.404C182.522 133.613 182.015 133.718 181.475 133.718C180.759 133.718 180.114 133.569 179.541 133.272C178.98 132.974 178.533 132.534 178.203 131.95C177.883 131.366 177.723 130.661 177.723 129.834V124.479H179.591V129.553C179.591 130.369 179.795 130.997 180.203 131.437C180.61 131.867 181.167 132.082 181.872 132.082C182.577 132.082 183.133 131.867 183.541 131.437C183.96 130.997 184.169 130.369 184.169 129.553V124.479H186.053ZM190.659 125.802C190.935 125.339 191.299 124.981 191.75 124.727C192.213 124.463 192.758 124.331 193.386 124.331V126.281H192.907C192.169 126.281 191.607 126.468 191.221 126.843C190.847 127.217 190.659 127.867 190.659 128.793V133.586H188.775V124.479H190.659V125.802Z" fill="#656566"/>
<rect x="227.477" y="109.141" width="85.7769" height="37.8885" rx="18.9442" fill="white"/>
<path d="M249.489 123.62V126.992H253.455V128.529H249.489V132.049H253.951V133.586H247.605V122.083H253.951V123.62H249.489ZM258.392 125.802C258.668 125.339 259.031 124.981 259.483 124.727C259.946 124.463 260.491 124.331 261.119 124.331V126.281H260.64C259.902 126.281 259.34 126.468 258.954 126.843C258.58 127.217 258.392 127.867 258.392 128.793V133.586H256.508V124.479H258.392V125.802ZM267.037 133.735C266.178 133.735 265.401 133.542 264.707 133.156C264.013 132.76 263.467 132.209 263.071 131.503C262.674 130.787 262.476 129.961 262.476 129.024C262.476 128.099 262.68 127.278 263.087 126.562C263.495 125.846 264.051 125.295 264.757 124.909C265.462 124.523 266.249 124.331 267.12 124.331C267.99 124.331 268.778 124.523 269.483 124.909C270.189 125.295 270.745 125.846 271.153 126.562C271.56 127.278 271.764 128.099 271.764 129.024C271.764 129.95 271.555 130.771 271.136 131.487C270.717 132.203 270.144 132.76 269.417 133.156C268.701 133.542 267.908 133.735 267.037 133.735ZM267.037 132.098C267.522 132.098 267.974 131.983 268.393 131.751C268.822 131.52 269.169 131.173 269.434 130.71C269.698 130.247 269.83 129.685 269.83 129.024C269.83 128.363 269.704 127.807 269.45 127.355C269.197 126.892 268.861 126.545 268.442 126.314C268.023 126.082 267.572 125.967 267.087 125.967C266.602 125.967 266.15 126.082 265.732 126.314C265.324 126.545 264.999 126.892 264.757 127.355C264.514 127.807 264.393 128.363 264.393 129.024C264.393 130.005 264.641 130.765 265.137 131.305C265.643 131.834 266.277 132.098 267.037 132.098ZM273.235 128.991C273.235 128.077 273.422 127.267 273.797 126.562C274.182 125.857 274.7 125.311 275.35 124.926C276.011 124.529 276.744 124.331 277.548 124.331C278.143 124.331 278.727 124.463 279.3 124.727C279.884 124.981 280.347 125.322 280.689 125.752V121.356H282.589V133.586H280.689V132.214C280.38 132.655 279.95 133.018 279.399 133.305C278.86 133.591 278.237 133.735 277.532 133.735C276.739 133.735 276.011 133.536 275.35 133.14C274.7 132.732 274.182 132.17 273.797 131.454C273.422 130.727 273.235 129.906 273.235 128.991ZM280.689 129.024C280.689 128.396 280.556 127.851 280.292 127.388C280.039 126.925 279.702 126.573 279.284 126.33C278.865 126.088 278.413 125.967 277.929 125.967C277.444 125.967 276.992 126.088 276.573 126.33C276.155 126.562 275.813 126.909 275.549 127.372C275.295 127.823 275.168 128.363 275.168 128.991C275.168 129.619 275.295 130.17 275.549 130.644C275.813 131.118 276.155 131.481 276.573 131.735C277.003 131.977 277.455 132.098 277.929 132.098C278.413 132.098 278.865 131.977 279.284 131.735C279.702 131.492 280.039 131.14 280.292 130.677C280.556 130.203 280.689 129.652 280.689 129.024ZM293.646 128.81C293.646 129.151 293.624 129.46 293.58 129.735H286.622C286.677 130.462 286.947 131.046 287.432 131.487C287.917 131.928 288.512 132.148 289.217 132.148C290.231 132.148 290.947 131.724 291.366 130.875H293.399C293.123 131.713 292.622 132.401 291.895 132.941C291.178 133.47 290.286 133.735 289.217 133.735C288.347 133.735 287.564 133.542 286.87 133.156C286.187 132.76 285.647 132.209 285.251 131.503C284.865 130.787 284.672 129.961 284.672 129.024C284.672 128.088 284.859 127.267 285.234 126.562C285.62 125.846 286.154 125.295 286.837 124.909C287.531 124.523 288.325 124.331 289.217 124.331C290.077 124.331 290.842 124.518 291.514 124.893C292.187 125.267 292.71 125.796 293.085 126.479C293.459 127.151 293.646 127.928 293.646 128.81ZM291.68 128.215C291.669 127.52 291.421 126.964 290.936 126.545C290.451 126.127 289.851 125.917 289.134 125.917C288.484 125.917 287.928 126.127 287.465 126.545C287.002 126.953 286.727 127.509 286.639 128.215H291.68Z" fill="#656566"/>
<rect x="327.42" y="109.141" width="140.777" height="37.8885" rx="18.9442" fill="white"/>
<path d="M346.92 127.818C346.92 126.694 347.179 125.686 347.697 124.793C348.226 123.901 348.936 123.207 349.829 122.711C350.732 122.204 351.719 121.951 352.787 121.951C354.01 121.951 355.096 122.254 356.043 122.86C357.002 123.455 357.696 124.303 358.126 125.405H355.861C355.564 124.799 355.151 124.347 354.622 124.05C354.093 123.752 353.481 123.603 352.787 123.603C352.027 123.603 351.349 123.774 350.754 124.116C350.159 124.457 349.691 124.948 349.35 125.587C349.019 126.226 348.854 126.969 348.854 127.818C348.854 128.666 349.019 129.41 349.35 130.049C349.691 130.688 350.159 131.184 350.754 131.537C351.349 131.878 352.027 132.049 352.787 132.049C353.481 132.049 354.093 131.9 354.622 131.603C355.151 131.305 355.564 130.853 355.861 130.247H358.126C357.696 131.349 357.002 132.198 356.043 132.793C355.096 133.388 354.01 133.685 352.787 133.685C351.708 133.685 350.721 133.437 349.829 132.941C348.936 132.435 348.226 131.735 347.697 130.842C347.179 129.95 346.92 128.942 346.92 127.818ZM364.517 133.735C363.658 133.735 362.881 133.542 362.187 133.156C361.493 132.76 360.947 132.209 360.551 131.503C360.154 130.787 359.956 129.961 359.956 129.024C359.956 128.099 360.159 127.278 360.567 126.562C360.975 125.846 361.531 125.295 362.236 124.909C362.942 124.523 363.729 124.331 364.6 124.331C365.47 124.331 366.258 124.523 366.963 124.909C367.668 125.295 368.225 125.846 368.633 126.562C369.04 127.278 369.244 128.099 369.244 129.024C369.244 129.95 369.035 130.771 368.616 131.487C368.197 132.203 367.624 132.76 366.897 133.156C366.181 133.542 365.388 133.735 364.517 133.735ZM364.517 132.098C365.002 132.098 365.454 131.983 365.872 131.751C366.302 131.52 366.649 131.173 366.914 130.71C367.178 130.247 367.31 129.685 367.31 129.024C367.31 128.363 367.184 127.807 366.93 127.355C366.677 126.892 366.341 126.545 365.922 126.314C365.503 126.082 365.052 125.967 364.567 125.967C364.082 125.967 363.63 126.082 363.212 126.314C362.804 126.545 362.479 126.892 362.236 127.355C361.994 127.807 361.873 128.363 361.873 129.024C361.873 130.005 362.121 130.765 362.617 131.305C363.123 131.834 363.757 132.098 364.517 132.098ZM372.301 123.273C371.96 123.273 371.673 123.157 371.442 122.926C371.211 122.694 371.095 122.408 371.095 122.066C371.095 121.725 371.211 121.438 371.442 121.207C371.673 120.976 371.96 120.86 372.301 120.86C372.632 120.86 372.913 120.976 373.144 121.207C373.376 121.438 373.491 121.725 373.491 122.066C373.491 122.408 373.376 122.694 373.144 122.926C372.913 123.157 372.632 123.273 372.301 123.273ZM373.227 124.479V133.586H371.343V124.479H373.227ZM386.96 124.331C387.677 124.331 388.316 124.479 388.878 124.777C389.451 125.074 389.897 125.515 390.216 126.099C390.547 126.683 390.712 127.388 390.712 128.215V133.586H388.845V128.495C388.845 127.68 388.641 127.058 388.233 126.628C387.825 126.187 387.269 125.967 386.564 125.967C385.859 125.967 385.297 126.187 384.878 126.628C384.47 127.058 384.266 127.68 384.266 128.495V133.586H382.399V128.495C382.399 127.68 382.195 127.058 381.787 126.628C381.38 126.187 380.823 125.967 380.118 125.967C379.413 125.967 378.851 126.187 378.432 126.628C378.025 127.058 377.821 127.68 377.821 128.495V133.586H375.937V124.479H377.821V125.521C378.129 125.146 378.52 124.854 378.994 124.645C379.468 124.435 379.975 124.331 380.515 124.331C381.242 124.331 381.892 124.485 382.465 124.793C383.038 125.102 383.479 125.548 383.787 126.132C384.063 125.581 384.492 125.146 385.076 124.826C385.66 124.496 386.288 124.331 386.96 124.331ZM395.23 125.835C395.549 125.394 395.985 125.036 396.536 124.76C397.097 124.474 397.72 124.331 398.403 124.331C399.207 124.331 399.935 124.523 400.585 124.909C401.235 125.295 401.747 125.846 402.122 126.562C402.496 127.267 402.684 128.077 402.684 128.991C402.684 129.906 402.496 130.727 402.122 131.454C401.747 132.17 401.229 132.732 400.568 133.14C399.918 133.536 399.196 133.735 398.403 133.735C397.698 133.735 397.07 133.597 396.519 133.321C395.979 133.046 395.549 132.693 395.23 132.264V133.586H393.346V121.356H395.23V125.835ZM400.767 128.991C400.767 128.363 400.634 127.823 400.37 127.372C400.116 126.909 399.775 126.562 399.345 126.33C398.927 126.088 398.475 125.967 397.99 125.967C397.516 125.967 397.064 126.088 396.635 126.33C396.216 126.573 395.874 126.925 395.61 127.388C395.357 127.851 395.23 128.396 395.23 129.024C395.23 129.652 395.357 130.203 395.61 130.677C395.874 131.14 396.216 131.492 396.635 131.735C397.064 131.977 397.516 132.098 397.99 132.098C398.475 132.098 398.927 131.977 399.345 131.735C399.775 131.481 400.116 131.118 400.37 130.644C400.634 130.17 400.767 129.619 400.767 128.991ZM404.155 128.991C404.155 128.077 404.342 127.267 404.717 126.562C405.103 125.857 405.62 125.311 406.271 124.926C406.932 124.529 407.659 124.331 408.452 124.331C409.168 124.331 409.791 124.474 410.32 124.76C410.86 125.036 411.289 125.383 411.609 125.802V124.479H413.51V133.586H411.609V132.231C411.289 132.66 410.854 133.018 410.303 133.305C409.752 133.591 409.124 133.735 408.419 133.735C407.637 133.735 406.921 133.536 406.271 133.14C405.62 132.732 405.103 132.17 404.717 131.454C404.342 130.727 404.155 129.906 404.155 128.991ZM411.609 129.024C411.609 128.396 411.477 127.851 411.212 127.388C410.959 126.925 410.623 126.573 410.204 126.33C409.785 126.088 409.334 125.967 408.849 125.967C408.364 125.967 407.912 126.088 407.494 126.33C407.075 126.562 406.733 126.909 406.469 127.372C406.215 127.823 406.089 128.363 406.089 128.991C406.089 129.619 406.215 130.17 406.469 130.644C406.733 131.118 407.075 131.481 407.494 131.735C407.923 131.977 408.375 132.098 408.849 132.098C409.334 132.098 409.785 131.977 410.204 131.735C410.623 131.492 410.959 131.14 411.212 130.677C411.477 130.203 411.609 129.652 411.609 129.024ZM418.419 126.016V131.057C418.419 131.399 418.496 131.647 418.65 131.801C418.815 131.944 419.091 132.016 419.476 132.016H420.633V133.586H419.146C418.297 133.586 417.647 133.388 417.195 132.991C416.744 132.594 416.518 131.95 416.518 131.057V126.016H415.444V124.479H416.518V122.215H418.419V124.479H420.633V126.016H418.419ZM426.556 133.735C425.696 133.735 424.92 133.542 424.226 133.156C423.531 132.76 422.986 132.209 422.589 131.503C422.193 130.787 421.994 129.961 421.994 129.024C421.994 128.099 422.198 127.278 422.606 126.562C423.014 125.846 423.57 125.295 424.275 124.909C424.98 124.523 425.768 124.331 426.639 124.331C427.509 124.331 428.297 124.523 429.002 124.909C429.707 125.295 430.264 125.846 430.671 126.562C431.079 127.278 431.283 128.099 431.283 129.024C431.283 129.95 431.073 130.771 430.655 131.487C430.236 132.203 429.663 132.76 428.936 133.156C428.22 133.542 427.426 133.735 426.556 133.735ZM426.556 132.098C427.041 132.098 427.492 131.983 427.911 131.751C428.341 131.52 428.688 131.173 428.952 130.71C429.217 130.247 429.349 129.685 429.349 129.024C429.349 128.363 429.222 127.807 428.969 127.355C428.715 126.892 428.379 126.545 427.961 126.314C427.542 126.082 427.09 125.967 426.605 125.967C426.121 125.967 425.669 126.082 425.25 126.314C424.843 126.545 424.518 126.892 424.275 127.355C424.033 127.807 423.912 128.363 423.912 129.024C423.912 130.005 424.159 130.765 424.655 131.305C425.162 131.834 425.796 132.098 426.556 132.098ZM435.266 125.802C435.541 125.339 435.905 124.981 436.356 124.727C436.819 124.463 437.365 124.331 437.993 124.331V126.281H437.513C436.775 126.281 436.213 126.468 435.827 126.843C435.453 127.217 435.266 127.867 435.266 128.793V133.586H433.381V124.479H435.266V125.802ZM448.307 128.81C448.307 129.151 448.285 129.46 448.241 129.735H441.283C441.338 130.462 441.608 131.046 442.093 131.487C442.577 131.928 443.172 132.148 443.878 132.148C444.891 132.148 445.607 131.724 446.026 130.875H448.059C447.784 131.713 447.282 132.401 446.555 132.941C445.839 133.47 444.946 133.735 443.878 133.735C443.007 133.735 442.225 133.542 441.531 133.156C440.848 132.76 440.308 132.209 439.911 131.503C439.525 130.787 439.332 129.961 439.332 129.024C439.332 128.088 439.52 127.267 439.894 126.562C440.28 125.846 440.814 125.295 441.498 124.909C442.192 124.523 442.985 124.331 443.878 124.331C444.737 124.331 445.503 124.518 446.175 124.893C446.847 125.267 447.37 125.796 447.745 126.479C448.12 127.151 448.307 127.928 448.307 128.81ZM446.34 128.215C446.329 127.52 446.081 126.964 445.596 126.545C445.112 126.127 444.511 125.917 443.795 125.917C443.145 125.917 442.588 126.127 442.126 126.545C441.663 126.953 441.387 127.509 441.299 128.215H446.34Z" fill="#656566"/>
</svg>
